<svg xmlns="http://www.w3.org/2000/svg" id="Regular" width="24" height="24" viewBox="0 0 24 24"><defs><style>.cls-1{fill:none;stroke:#000;stroke-linecap:round;stroke-linejoin:round;stroke-width:1.5px}</style></defs><path d="M22.022 6.884a1.5 1.5 0 0 0-2.042-.64l-6.228 3.322a3 3 0 0 1 0 4.869l6.228 3.321a1.5 1.5 0 0 0 2.042-.64 11.271 11.271 0 0 0 0-10.232m-20.044 0a1.5 1.5 0 0 1 2.042-.64l6.228 3.322a3 3 0 0 0 0 4.869L4.02 17.756a1.5 1.5 0 0 1-2.042-.64 11.271 11.271 0 0 1 0-10.232" class="cls-1"/><circle cx="12" cy="12" r="3" class="cls-1"/><path d="M15 12h2.25m-10.5 0H9" class="cls-1"/></svg>