<svg xmlns="http://www.w3.org/2000/svg" id="Regular" width="24" height="24" viewBox="0 0 24 24"><defs><style>.cls-1{fill:none;stroke:#000;stroke-linecap:round;stroke-linejoin:round;stroke-width:1.5px}</style></defs><path d="M9.75 18.75a4.5 4.5 0 0 1-9 0c0-2.485 4.5-10.5 4.5-10.5s4.5 8.015 4.5 10.5" class="cls-1"/><circle cx="5.25" cy="3" r="2.25" class="cls-1"/><path d="M5.25 5.25v3m0 10.875a.375.375 0 1 1-.375.375.375.375 0 0 1 .375-.375m18-.375a4.5 4.5 0 0 1-9 0c0-2.485 4.5-10.5 4.5-10.5s4.5 8.015 4.5 10.5" class="cls-1"/><circle cx="18.75" cy="3" r="2.25" class="cls-1"/><path d="M18.75 5.25v3m0 10.875a.375.375 0 1 1-.375.375.375.375 0 0 1 .375-.375" class="cls-1"/></svg>