<svg xmlns="http://www.w3.org/2000/svg" width="24" height="24" viewBox="0 0 24 24"><defs><style>.a{fill:none;stroke:#000;stroke-linecap:round;stroke-linejoin:round;stroke-width:1.5px}</style></defs><ellipse cx="6.75" cy="14.25" class="a" rx="6" ry="3"/><path d="M.75 14.25v6c0 1.657 2.686 3 6 3s6-1.343 6-3v-6" class="a"/><path d="M12.75 17.25c0 1.657-2.686 3-6 3s-6-1.343-6-3m15-1.5h6a1.5 1.5 0 0 0 1.5-1.5v-12a1.5 1.5 0 0 0-1.5-1.5H2.25a1.5 1.5 0 0 0-1.5 1.5v7.507M9 8.25a3 3 0 1 1 4.979 2.255" class="a"/><path d="M4.5 4.125a.375.375 0 1 1-.375.375.375.375 0 0 1 .375-.375m15 7.5a.375.375 0 1 1-.375.375.375.375 0 0 1 .375-.375" class="a"/></svg>