<svg xmlns="http://www.w3.org/2000/svg" width="24" height="24" viewBox="0 0 24 24"><defs><style>.a{fill:none;stroke:#000;stroke-linecap:round;stroke-linejoin:round;stroke-width:1.5px}</style></defs><path d="M.75 17.5H7.5m0-11.25H.75m22.5 0H16.5m0 11.25h6.75M.75 13.75H7.5M.75 10H7.5m9 3.75h6.75M16.5 10h6.75" class="a"/><rect width="9" height="14.25" x="7.5" y="4.75" class="a" rx="1" ry="1"/><path d="M10.142 14.094a2.221 2.221 0 0 0 1.858.875c1.139 0 2.063-.693 2.063-1.547s-.924-1.546-2.063-1.546-2.062-.693-2.062-1.548.923-1.547 2.062-1.547a2.221 2.221 0 0 1 1.858.875M12 14.969V16m0-8.25v1.031" class="a"/></svg>