<svg xmlns="http://www.w3.org/2000/svg" id="Regular" width="24" height="24" viewBox="0 0 24 24"><defs><style>.cls-1{fill:none;stroke:#000;stroke-linecap:round;stroke-linejoin:round;stroke-width:1.5px}</style></defs><path d="M9.663 16.462a2.308 2.308 0 0 0-.946 3.128h.006a2.328 2.328 0 0 0 3.144.953l.349-.189c6.067-3.268 7.053-2.875 10.784-3.127l-4.356-8.179c-2.499 3.286-2.595 3.939-8.981 7.414" class="cls-1"/><path d="m11.5 15.444 2.99 6.329a2.317 2.317 0 0 0 3.133.955M12.985 10.25V4.782m-9 0v6.968a1.5 1.5 0 0 0 1.5 1.5h4.5" class="cls-1"/><path d="m15.985 7.482-6.5-5.847a1.5 1.5 0 0 0-2.007 0L.985 7.482m13.5-1.35V2" class="cls-1"/></svg>