<svg xmlns="http://www.w3.org/2000/svg" width="24" height="24" viewBox="0 0 24 24"><defs><style>.a{fill:none;stroke:#000;stroke-linecap:round;stroke-linejoin:round;stroke-width:1.5px}</style></defs><rect width="6" height="9" x=".75" y="14.25" class="a" rx="1" ry="1"/><path d="M21.392 11.25a.751.751 0 0 0 .7-1.029l-.9-2.25a.751.751 0 0 0-.7-.471H3.508a.751.751 0 0 0-.7.471l-.9 2.25a.751.751 0 0 0 .7 1.029h4.626a1.5 1.5 0 0 1 1.393.943l.746 2.614a1.5 1.5 0 0 0 1.393.943h2.468a1.5 1.5 0 0 0 1.393-.943l.746-2.614a1.5 1.5 0 0 1 1.393-.943z" class="a"/><path d="m5.25 7.5 1.189-3.412A1.5 1.5 0 0 1 7.881 3h8.238a1.5 1.5 0 0 1 1.442 1.088L18.75 7.5M15 3V.75M6.75 19.5l3.75-3.75m6.75 3.75-3.75-3.75M.75 17.25h6m-6 3h6" class="a"/><rect width="6" height="9" x="17.25" y="14.25" class="a" rx="1" ry="1" transform="rotate(180 20.25 18.75)"/><path d="M23.25 17.25h-6m6 3h-6" class="a"/></svg>