<svg xmlns="http://www.w3.org/2000/svg" width="24" height="24" viewBox="0 0 24 24"><defs><style>.a{fill:none;stroke:#000;stroke-linecap:round;stroke-linejoin:round;stroke-width:1.5px}</style></defs><circle cx="18.941" cy="18.25" r="2.25" class="a"/><circle cx="5.059" cy="18.25" r="2.25" class="a"/><path d="M23.25 15.25a5.251 5.251 0 0 0-8.618 0H9.368a5.251 5.251 0 0 0-8.618 0" class="a"/><path d="M2.059 13.941V9.25a1.5 1.5 0 0 1 1.5-1.5h1.5L7.309 10h7.882V6.25h3.129a1.5 1.5 0 0 1 1.06.439l2.12 2.122a1.5 1.5 0 0 1 .439 1.06v4.071M13.691 2.5h2.25l1.5 3.75M7.309 4.75V10" class="a"/></svg>