<svg xmlns="http://www.w3.org/2000/svg" width="24" height="24" viewBox="0 0 24 24"><defs><style>.a{fill:none;stroke:#000;stroke-linecap:round;stroke-linejoin:round;stroke-width:1.5px}</style></defs><circle cx="5.25" cy="18.25" r="2.25" class="a"/><circle cx="18.75" cy="18.25" r="2.25" class="a"/><path d="M.75 10H12.3a1.5 1.5 0 0 0 .832-.252l1.494-1a1.5 1.5 0 0 1 .832-.252h6.3a1.5 1.5 0 0 1 1.5 1.5v5.25A5.6 5.6 0 0 0 18.75 13a5.245 5.245 0 0 0-4.309 2.25H9.559A5.245 5.245 0 0 0 5.25 13a5.6 5.6 0 0 0-4.5 2.25z" class="a"/><path d="m17.25 8.5-1.189-3.412A1.5 1.5 0 0 0 14.619 4h-10a1.5 1.5 0 0 0-1.3.756L.75 10m6-6v6" class="a"/></svg>