<svg xmlns="http://www.w3.org/2000/svg" id="Regular" width="24" height="24" viewBox="0 0 24 24"><defs><style>.cls-1{fill:none;stroke:#000;stroke-linecap:round;stroke-linejoin:round;stroke-width:1.5px}</style></defs><circle cx="15.375" cy="19.125" r="3.375" class="cls-1"/><path d="M15.375 19.5a.375.375 0 0 0 .375-.375m-.75 0a.375.375 0 0 0 .375.375m0-.75a.375.375 0 0 0-.375.375m.75 0a.375.375 0 0 0-.375-.375" class="cls-1"/><circle cx="4.125" cy="19.125" r="3.375" class="cls-1"/><path d="M4.125 19.5a.375.375 0 0 0 .375-.375m-.75 0a.375.375 0 0 0 .375.375m0-.75a.375.375 0 0 0-.375.375m.75 0a.375.375 0 0 0-.375-.375m7.896.75H7.479m11.25 0h3.021a1.5 1.5 0 0 0 1.5-1.5v-6a1.5 1.5 0 0 0-1.5-1.5H16.5a1.5 1.5 0 0 0-1.2.6l-1.8 2.4v2.25m-11.25-3V4.5h8.25l-2.25 8.25m-7.5 0h7.5l1.5 3h3.75M1.75 1.5h8.5a1 1 0 0 1 1 1v2H.75v-2a1 1 0 0 1 1-1" class="cls-1"/></svg>