<svg xmlns="http://www.w3.org/2000/svg" id="Regular" width="24" height="24" viewBox="0 0 24 24"><defs><style>.cls-1{fill:none;stroke:#000;stroke-linecap:round;stroke-linejoin:round;stroke-width:1.5px}</style></defs><path d="M.75 8.25h22.5m-12.75-6-8.25 6m11.25-6 8.25 6m-9 3-3.517 5.726m4.267 5.962a3.75 3.75 0 1 1 0-6.874M5.25 11.25l-3.517 5.726M6 22.938a3.75 3.75 0 1 1 0-6.875m14.25-4.813-3.517 5.726" class="cls-1"/><circle cx="19.5" cy="19.5" r="3.75" class="cls-1"/><path d="M13.5 8.25h-3v-6a1.5 1.5 0 0 1 3 0zm9.75 3H.75" class="cls-1"/></svg>