<svg xmlns="http://www.w3.org/2000/svg" id="Regular" width="24" height="24" viewBox="0 0 24 24"><defs><style>.cls-1{fill:none;stroke:#000;stroke-linecap:round;stroke-linejoin:round;stroke-width:1.5px}</style></defs><path d="m7.668 12.5.582-6m8.082 6-.582-6m-6.5-3h5.5a1 1 0 0 1 1 1v2h-7.5v-2a1 1 0 0 1 1-1" class="cls-1"/><rect width="3" height="7.5" x="6.75" y="12.5" class="cls-1" rx=".5" ry=".5"/><path d="M6.75 16.25h3" class="cls-1"/><rect width="3" height="7.5" x="14.25" y="12.5" class="cls-1" rx=".5" ry=".5"/><path d="M14.25 16.25h3m-7.5-1.5h4.5m-7.5-1.5h-6m22.5 0h-6m-14.625 3a.375.375 0 0 1 .375.375m-.75 0a.375.375 0 0 1 .375-.375m0 .75a.375.375 0 0 1-.375-.375m.75 0a.375.375 0 0 1-.375.375m0 2.25a.375.375 0 0 1 .375.375m-.75 0a.375.375 0 0 1 .375-.375m0 .75a.375.375 0 0 1-.375-.375m.75 0a.375.375 0 0 1-.375.375m18.75-3.75a.375.375 0 0 1 .375.375m-.75 0a.375.375 0 0 1 .375-.375m0 .75a.375.375 0 0 1-.375-.375m.75 0a.375.375 0 0 1-.375.375m0 2.25a.375.375 0 0 1 .375.375m-.75 0a.375.375 0 0 1 .375-.375m0 .75a.375.375 0 0 1-.375-.375m.75 0a.375.375 0 0 1-.375.375" class="cls-1"/></svg>