<svg xmlns="http://www.w3.org/2000/svg" id="Regular" width="24" height="24" viewBox="0 0 24 24"><defs><style>.cls-1{fill:none;stroke:#000;stroke-linecap:round;stroke-linejoin:round;stroke-width:1.5px}</style></defs><path d="m5.25 11.25-1.859 5.069M.75 8.25h22.5m-12.75-6-8.25 6m11.25-6 8.25 6m-8.25 0h-3v-6a1.5 1.5 0 0 1 3 0zm9.75 3H.75m7.5 12H4.5V21L.75 18.75C1.464 17 3.868 15.824 6 15.585m5.25-4.335-1.859 5.069m7.859-5.069-1.859 5.069" class="cls-1"/><path d="M14.25 23.25H10.5V21l-3.75-2.25C7.464 17 9.868 15.824 12 15.585" class="cls-1"/><path d="m16.5 21-3.75-2.25c.992-2.439 5.25-3.75 7.5-3-.583 3.3.625 6.2 3 7.5H16.5z" class="cls-1"/></svg>