<svg xmlns="http://www.w3.org/2000/svg" id="Regular" width="24" height="24" viewBox="0 0 24 24"><defs><style>.cls-1,.cls-2{fill:none;stroke:#000;stroke-linecap:round;stroke-linejoin:round;stroke-width:1.5px}.cls-2{fill-rule:evenodd}</style></defs><circle cx="3" cy="19.5" r="2.25" class="cls-1"/><circle cx="12" cy="18.75" r="3" class="cls-1"/><path d="M5.12 18.75H9" class="cls-1"/><path d="M7.5 10.5h-3a3 3 0 0 0-3 3v4.327M1.5 7.5H3A1.5 1.5 0 0 1 4.5 9v1.5" class="cls-2"/><path d="m15 18.75 2.25-13.5H7.5v7.5a3 3 0 0 0 3 3H12" class="cls-1"/><path d="M18 5.25a3 3 0 0 0-3-3H9.75a3 3 0 0 0-3 3zm0 9h5.25l-3.75 6h-2.25" class="cls-2"/></svg>