<svg xmlns="http://www.w3.org/2000/svg" width="24" height="24" viewBox="0 0 24 24"><defs><style>.a{fill:none;stroke:#000;stroke-linecap:round;stroke-linejoin:round;stroke-width:1.5px}</style></defs><path d="M8.25.5a4.5 4.5 0 0 0 0 9h10.5a4.5 4.5 0 0 0 0-9z" class="a"/><path d="M3.75 5a4.483 4.483 0 0 1 .322-1.671l-2.293-.918a.751.751 0 0 0-1.029.7v3.781a.751.751 0 0 0 1.029.7l2.293-.918A4.483 4.483 0 0 1 3.75 5m6 4.5h6v2a1 1 0 0 1-1 1h-4a1 1 0 0 1-1-1zM22.316 23a.934.934 0 0 0 .752-1.488 5.678 5.678 0 0 0-4.5-2.262 7.587 7.587 0 0 0-3.178.7A7.5 7.5 0 0 0 .793 21.432 1.417 1.417 0 0 0 2.2 23zm.678-19.5H20.25m-16.244 0H8.25m9 0h-1.5m-3 0h-1.5" class="a"/></svg>