<svg xmlns="http://www.w3.org/2000/svg" width="24" height="24" viewBox="0 0 24 24"><defs><style>.a{fill:none;stroke:#000;stroke-linecap:round;stroke-width:1.5px;stroke-linejoin:round}</style></defs><path d="M18 .75a5.227 5.227 0 0 0-3.938 8.69l-.656 3.779 3.423-2.11A5.246 5.246 0 1 0 18 .75" class="a"/><circle cx="8.232" cy="15.375" r="3.375" class="a"/><path d="M13.46 23.243A6.062 6.062 0 0 0 3 23.25M18 7.5a.375.375 0 1 1-.375.375A.375.375 0 0 1 18 7.5" class="a"/><path d="M18 5.25v-1.5" style="fill:none;stroke:#000;stroke-linecap:round;stroke-width:1.5px;stroke-miterlimit:10"/><path d="M18 14.25v9m-17.25 0V3.75a3 3 0 0 1 3-3h7.5m-10.5 6h9m-3-3h3" class="a"/></svg>