<svg xmlns="http://www.w3.org/2000/svg" id="Regular" width="24" height="24" viewBox="0 0 24 24"><defs><style>.cls-1{fill:none;stroke:#000;stroke-linecap:round;stroke-linejoin:round;stroke-width:1.5px}</style></defs><ellipse cx="12" cy="18.75" class="cls-1" rx="4.5" ry="3.75"/><circle cx="7.5" cy="3" r="1.5" class="cls-1"/><circle cx="2.25" cy="9" r="1.5" class="cls-1"/><circle cx="16.5" cy="3" r="1.5" class="cls-1"/><circle cx="21.75" cy="9" r="1.5" class="cls-1"/><path d="m2.909 10.348 4.656 7.761m13.526-7.761-4.656 7.761M8.885 3.577a3.736 3.736 0 0 0 6.23 0M16.5 4.5a3.851 3.851 0 0 0 .75 3c1.594 1.875 3 1.5 3 1.5M7.5 4.5a3.851 3.851 0 0 1-.75 3c-1.594 1.875-3 1.5-3 1.5m6.784 6.204L9.75 10.5m3.716 4.704.784-4.704" class="cls-1"/></svg>