<svg xmlns="http://www.w3.org/2000/svg" width="24" height="24" viewBox="0 0 24 24"><defs><style>.a{fill:none;stroke:#000;stroke-linecap:round;stroke-linejoin:round;stroke-width:1.5px}</style></defs><path d="M.749 23.25h21.75m-19.75-4.5H5.5a.5.5 0 0 1 .5.5v4H2.249v-4a.5.5 0 0 1 .5-.5m7.5-9H13a.5.5 0 0 1 .5.5v13H9.749v-13a.5.5 0 0 1 .5-.5m7.5 4.5H20.5a.5.5 0 0 1 .5.5v8.5h-3.75v-8.5a.5.5 0 0 1 .499-.5M6.883 5.121 2.866 9.134m11.445-2.809-4.674-1.25m10.755-2.186-3.581 2.8" class="a"/><circle cx="8.249" cy="4.501" r="1.5" class="a"/><circle cx="21.75" cy="2.25" r="1.5" class="a"/><circle cx="15.75" cy="6.75" r="1.5" class="a"/><circle cx="2.249" cy="10.501" r="1.5" class="a"/></svg>