<svg xmlns="http://www.w3.org/2000/svg" width="24" height="24" viewBox="0 0 24 24"><defs><style>.a{fill:none;stroke:#000;stroke-linecap:round;stroke-linejoin:round;stroke-width:1.5px}</style></defs><path d="M6.75 11.25v10.485a1.2 1.2 0 0 1-.532 1 3.1 3.1 0 0 1-3.436 0 1.2 1.2 0 0 1-.532-1V11.25" class="a"/><ellipse cx="4.5" cy="11.25" class="a" rx="2.25" ry="1.5"/><path d="M14.25 6.75v14.985a1.2 1.2 0 0 1-.532 1 3.1 3.1 0 0 1-3.436 0 1.2 1.2 0 0 1-.532-1V6.75" class="a"/><ellipse cx="12" cy="6.75" class="a" rx="2.25" ry="1.5"/><path d="M21.75 2.25v19.485a1.2 1.2 0 0 1-.532 1 3.1 3.1 0 0 1-3.436 0 1.2 1.2 0 0 1-.532-1V2.25" class="a"/><ellipse cx="19.5" cy="2.25" class="a" rx="2.25" ry="1.5"/></svg>