<svg xmlns="http://www.w3.org/2000/svg" width="24" height="24" viewBox="0 0 24 24"><defs><style>.a{fill:none;stroke:#000;stroke-linecap:round;stroke-linejoin:round;stroke-width:1.5px}</style></defs><path d="M9.75 11.253h-6v10.5a1.5 1.5 0 0 0 1.5 1.5h4.5M19.94 8.257A8.251 8.251 0 0 0 3.75 10.5v.75" class="a"/><path d="M8.625 6.753a.375.375 0 1 1-.375.375.375.375 0 0 1 .375-.375m6.75 0a.375.375 0 1 1-.375.375.375.375 0 0 1 .375-.375M7.359 3.682 5.25.753m11.391 2.929L18.75.753m-15 10.5a3 3 0 0 0-3 3v6" class="a"/><circle cx="17.25" cy="17.253" r="6" class="a"/><path d="M17.25 14.253v6m0 0L15 18.003m2.25 2.25 2.25-2.25" class="a"/></svg>