<svg xmlns="http://www.w3.org/2000/svg" width="24" height="24" viewBox="0 0 24 24"><path d="M12.01 11.25a4.5 4.5 0 0 0-4.5 4.5V21a2.25 2.25 0 0 0 4.5 0 2.25 2.25 0 0 0 4.5 0v-5.25a4.5 4.5 0 0 0-4.5-4.5m-9.75-3a1.5 1.5 0 0 1 3 0v3a1.5 1.5 0 0 1-3 0zm16.5 0a1.5 1.5 0 0 1 3 0v3a1.5 1.5 0 0 1-3 0zm-5.25-4.5a1.5 1.5 0 0 1 3 0v3a1.5 1.5 0 0 1-3 0zm-6 0a1.5 1.5 0 0 1 3 0v3a1.5 1.5 0 0 1-3 0zm-3.75 3v-1.5m5.25-3V.75m6 1.5V.75m5.25 6v-1.5" style="fill:none;stroke:#000;stroke-linecap:round;stroke-linejoin:round;stroke-width:1.5px"/></svg>