<svg xmlns="http://www.w3.org/2000/svg" width="24" height="24" viewBox="0 0 24 24"><defs><style>.a{fill:none;stroke:#000;stroke-linecap:round;stroke-linejoin:round;stroke-width:1.5px}</style></defs><rect width="7.5" height="19.5" x="3.75" y="3.75" class="a" rx="3" ry="3"/><path d="M4.152 5.25h-.4a3 3 0 0 0-3 3v10.5a3 3 0 0 0 3 3h.4m6.696 0h9.4a3 3 0 0 0 3-3V8.25a3 3 0 0 0-3-3h-9.4m4.152 3h4.5m-8.25-3v-3a1.5 1.5 0 0 1 1.5-1.5h5.379a1.5 1.5 0 0 1 1.06.44l.622.621a1.5 1.5 0 0 1 .439 1.061V5.25m-1.125 7.5" class="a"/><path d="M19.125 12.75a.375.375 0 1 0 .375.375.375.375 0 0 0-.375-.375m0 3.75a.375.375 0 1 0 .375.375.375.375 0 0 0-.375-.375m-3.75-3.75a.375.375 0 1 0 .375.375.375.375 0 0 0-.375-.375m0 3.75a.375.375 0 1 0 .375.375.375.375 0 0 0-.375-.375" class="a"/></svg>