<svg xmlns="http://www.w3.org/2000/svg" width="24" height="24" viewBox="0 0 24 24"><defs><style>.a{fill:none;stroke:#000;stroke-linecap:round;stroke-linejoin:round;stroke-width:1.5px}</style></defs><path d="m19.057 9.222-4.279-4.279-13.4 13.4a.759.759 0 0 0-.217.451l-.4 3.611a.757.757 0 0 0 .836.836l3.611-.4a.759.759 0 0 0 .451-.217zm-3.744-3.745 4.063-4.062a2.269 2.269 0 0 1 3.209 3.209l-4.062 4.063zm-1.8-1.799 6.809 6.809M5.466 18.534 16.918 7.082M8.687 5.477 4.624 1.415a2.269 2.269 0 0 0-3.209 3.209l4.062 4.063zm1.8-1.799-6.809 6.809M9.73 9.73 7.082 7.082M12 7.72 9.222 4.943 4.943 9.222 7.72 12" class="a"/><path d="m12 16.28 6.346 6.346a.759.759 0 0 0 .451.217l3.611.4a.757.757 0 0 0 .836-.836l-.4-3.611a.759.759 0 0 0-.217-.451L16.28 12m2.254 6.534L14.14 14.14" class="a"/></svg>