<svg xmlns="http://www.w3.org/2000/svg" width="24" height="24" viewBox="0 0 24 24"><defs><style>.a{fill:none;stroke:#000;stroke-linecap:round;stroke-linejoin:round;stroke-width:1.5px}</style></defs><path d="M22.51 9.753v-7.5a1.5 1.5 0 0 0-1.5-1.5h-18a1.5 1.5 0 0 0-1.5 1.5v16.5a1.5 1.5 0 0 0 1.5 1.5h7.5m-9-15h21" class="a"/><rect width="9" height="7.5" x="13.509" y="15.753" class="a" rx="1.5" ry="1.5"/><path d="M18.009 11.253a3 3 0 0 0-3 3v1.5h6v-1.5a3 3 0 0 0-3-3m0 7.905a.375.375 0 1 1-.375.375.375.375 0 0 1 .375-.375" class="a"/></svg>