<svg xmlns="http://www.w3.org/2000/svg" width="24" height="24" viewBox="0 0 24 24"><defs><style>.a{fill:none;stroke:#000;stroke-linecap:round;stroke-linejoin:round;stroke-width:1.5px}</style></defs><path d="M21.754 11.253v-9a1.5 1.5 0 0 0-1.5-1.5h-18a1.5 1.5 0 0 0-1.5 1.5v16.5a1.5 1.5 0 0 0 1.5 1.5h7.5m-9-15h21" class="a"/><path d="M12.76 15.951v5.8a1.5 1.5 0 0 0 1.5 1.5h6a1.5 1.5 0 0 0 1.5-1.5v-5.8" class="a"/><path d="m11.26 17.264 4.518-3.954a2.252 2.252 0 0 1 2.964 0l4.518 3.954m-4.5 5.989h-3v-3a1.5 1.5 0 0 1 3 0z" class="a"/></svg>