<svg xmlns="http://www.w3.org/2000/svg" width="24" height="24" viewBox="0 0 24 24"><defs><style>.a{fill:none;stroke:#000;stroke-linecap:round;stroke-linejoin:round;stroke-width:1.5px}</style></defs><path d="M21.76 8.253v-6a1.5 1.5 0 0 0-1.5-1.5h-18a1.5 1.5 0 0 0-1.5 1.5v16.5a1.5 1.5 0 0 0 1.5 1.5h7.5m-9-15h21" class="a"/><circle cx="18.01" cy="13.128" r="2.625" class="a"/><path d="M18.01 16.5a5.251 5.251 0 0 0-5.25 5.25v1.5h10.5v-1.5a5.25 5.25 0 0 0-5.25-5.25M3.76 9.753h1.5m-1.5 3h1.5m-1.5 3h1.5m3-6h5.25m-5.25 3h4.5m-4.5 3h3.75" class="a"/></svg>