<svg xmlns="http://www.w3.org/2000/svg" id="Regular" width="24" height="24" viewBox="0 0 24 24"><defs><style>.cls-1{fill:none;stroke:#000;stroke-linecap:round;stroke-linejoin:round;stroke-width:1.5px}</style></defs><path d="M14.3 15.75H6.8a1.5 1.5 0 0 0-1.474 1.223l-.847 4.5a1.5 1.5 0 0 0 1.473 1.777h9.194a1.5 1.5 0 0 0 1.474-1.777l-.847-4.5A1.5 1.5 0 0 0 14.3 15.75m-9.751-12 2.25 12h7.5l2.25-12z" class="cls-1"/><path d="M15.986 6.75h2.063a1.5 1.5 0 0 1 1.5 1.5v4.5" class="cls-1"/><circle cx="10.549" cy="19.5" r="1.5" class="cls-1"/><path d="M5.634 1.579 4.549 3.75h12l-1.086-2.171A1.5 1.5 0 0 0 14.122.75H6.976a1.5 1.5 0 0 0-1.342.829M9.049 15.75v-7.5m3 7.5v-7.5" class="cls-1"/></svg>