<svg xmlns="http://www.w3.org/2000/svg" width="24" height="24" viewBox="0 0 24 24"><defs><style>.a{fill:none;stroke:#000;stroke-linecap:round;stroke-linejoin:round;stroke-width:1.5px}</style></defs><rect width="22.499" height="22.5" x=".751" y=".75" class="a" rx="1.5" ry="1.5"/><path d="M.751 8.25h22.498M.751 15.75h22.498m-8.249 3a.75.75 0 0 1-.75.75h-4.5a.75.75 0 0 1-.75-.75m6-7.5a.75.75 0 0 1-.75.75h-4.5a.75.75 0 0 1-.75-.75m6-7.5a.75.75 0 0 1-.75.75h-4.5A.75.75 0 0 1 9 3.75" class="a"/></svg>