<svg xmlns="http://www.w3.org/2000/svg" width="24" height="24" viewBox="0 0 24 24"><path d="M5.25 19.542a1.5 1.5 0 0 1-1.5 1.5h-1.5a1.5 1.5 0 0 1-1.5-1.5v-13.5l1.607-2.678a.75.75 0 0 1 1.286 0L5.25 6.042zm9 0a1.5 1.5 0 0 1-1.5 1.5h-1.5a1.5 1.5 0 0 1-1.5-1.5v-13.5l1.607-2.678a.75.75 0 0 1 1.286 0l1.607 2.678zm9 0a1.5 1.5 0 0 1-1.5 1.5h-1.5a1.5 1.5 0 0 1-1.5-1.5v-13.5l1.607-2.678a.75.75 0 0 1 1.286 0l1.607 2.678zm-18-10.5h4.5m4.5 0h4.5m-13.5 9h4.5m4.5 0h4.5" style="fill:none;stroke:#000;stroke-linecap:round;stroke-linejoin:round;stroke-width:1.5px"/></svg>