<svg xmlns="http://www.w3.org/2000/svg" width="24" height="24" viewBox="0 0 24 24"><defs><style>.a{fill:none;stroke:#000;stroke-linecap:round;stroke-linejoin:round;stroke-width:1.5px}</style></defs><path d="M5.25 6v2.25m-3 1.5a1.5 1.5 0 0 1-1.5-1.5v-3a1.5 1.5 0 0 1 1.5-1.5" class="a"/><path d="M2.25 9.75v12a1.5 1.5 0 0 0 1.5 1.5h15a1.5 1.5 0 0 0 1.5-1.5v-3l2.171-1.085a1.5 1.5 0 0 0 .829-1.342v-4.146a1.5 1.5 0 0 0-.829-1.342L20.25 9.75v-7.5a1.5 1.5 0 0 0-1.5-1.5h-15a1.5 1.5 0 0 0-1.5 1.5v1.5" class="a"/><rect width="4.5" height="4.5" x="8.25" y="5.25" class="a" rx=".75" ry=".75"/><path d="M16.5 4.875a.375.375 0 1 0 .375.375.375.375 0 0 0-.375-.375m0 4.5a.375.375 0 1 0 .375.375.375.375 0 0 0-.375-.375M5.25 17.25h12v3h-12zm1.5 0v-1.5m4.5 1.5v-1.5m4.5 1.5v-1.5" class="a"/></svg>