<svg xmlns="http://www.w3.org/2000/svg" width="24" height="24" viewBox="0 0 24 24"><defs><style>.a{fill:none;stroke:#000;stroke-linecap:round;stroke-linejoin:round;stroke-width:1.5px}</style></defs><path d="M3.118 2.561a1.487 1.487 0 0 0-.868 1.362v7.614A11.907 11.907 0 0 0 9.882 22.65l1.041.4a3 3 0 0 0 2.154 0l1.041-.4a11.907 11.907 0 0 0 7.632-11.113V3.923a1.487 1.487 0 0 0-.868-1.362A21.7 21.7 0 0 0 12 .75a21.7 21.7 0 0 0-8.882 1.811" class="a"/><path d="M10.5 7.5 12 5.25l1.5 2.25M9.75 18 12 15l2.25 3M12 5.25V15m-5.25-3.75 1.5-1.5v4.5m9-3-1.5-1.5v4.5" class="a"/></svg>