<svg xmlns="http://www.w3.org/2000/svg" id="Regular" width="24" height="24" viewBox="0 0 24 24"><defs><style>.cls-1{fill:none;stroke:#000;stroke-linecap:round;stroke-linejoin:round;stroke-width:1.5px}</style></defs><rect width="22.5" height="22.5" x=".75" y=".75" class="cls-1" rx="2" ry="2"/><path d="M7.765 7.235a.375.375 0 1 1-.53 0 .374.374 0 0 1 .53 0m.75 5.25a.375.375 0 1 1-.53 0 .374.374 0 0 1 .53 0m3 3a.375.375 0 1 1-.53 0 .374.374 0 0 1 .53 0m-.75-5.25a.375.375 0 1 1-.53 0 .374.374 0 0 1 .53 0m3 3a.375.375 0 1 1-.53 0 .374.374 0 0 1 .53 0m-.75-5.25a.375.375 0 1 1-.53 0 .374.374 0 0 1 .53 0m3 3a.375.375 0 1 1-.53 0 .374.374 0 0 1 .53 0m-.75-5.25a.375.375 0 1 1-.53 0 .374.374 0 0 1 .53 0m3 3a.375.375 0 1 1-.53 0 .374.374 0 0 1 .53 0m-10.5 7.5a.375.375 0 1 1-.53 0 .374.374 0 0 1 .53 0m9 0a.375.375 0 1 1-.53 0 .374.374 0 0 1 .53 0" class="cls-1"/></svg>