<svg xmlns="http://www.w3.org/2000/svg" id="Regular" width="24" height="24" viewBox="0 0 24 24"><defs><style>.cls-1{fill:none;stroke:#000;stroke-linecap:round;stroke-linejoin:round;stroke-width:1.5px}</style></defs><circle cx="12" cy="12" r="11.25" class="cls-1"/><path d="M18.75 12a2.25 2.25 0 0 0-2.25-2.25h-5.25l1.125-1.125a1.592 1.592 0 0 0 0-2.25 1.592 1.592 0 0 0-2.25 0L5.03 11.47a.749.749 0 0 0 0 1.06l5.1 5.1a1.592 1.592 0 0 0 2.25 0 1.592 1.592 0 0 0 0-2.25l-1.13-1.13h5.25A2.25 2.25 0 0 0 18.75 12" class="cls-1"/></svg>