<svg xmlns="http://www.w3.org/2000/svg" width="24" height="24" viewBox="0 0 24 24"><path d="m7.222 11.75 4.517 7.1a.751.751 0 0 1-.633 1.15H6.545a1.5 1.5 0 0 1-1.265-.7L.985 12.555a1.5 1.5 0 0 1 0-1.61L5.28 4.2a1.5 1.5 0 0 1 1.265-.7h4.561a.751.751 0 0 1 .633 1.153zm11.394 0 4.517 7.1A.751.751 0 0 1 22.5 20h-4.56a1.5 1.5 0 0 1-1.266-.7l-4.295-6.75a1.5 1.5 0 0 1 0-1.61l4.3-6.75a1.5 1.5 0 0 1 1.266-.7H22.5a.751.751 0 0 1 .633 1.153z" style="fill:none;stroke:#000;stroke-linecap:round;stroke-linejoin:round;stroke-width:1.5px;fill-rule:evenodd"/></svg>