<svg xmlns="http://www.w3.org/2000/svg" width="24" height="24" viewBox="0 0 24 24"><path d="M5.89 18.36a.375.375 0 1 0 0 .53.374.374 0 0 0 0-.53m6 0a.375.375 0 1 0 0 .53.374.374 0 0 0 0-.53m-6-12a.375.375 0 1 0 0 .53.374.374 0 0 0 0-.53m4.5 7.5a.375.375 0 1 0 0 .53.374.374 0 0 0 0-.53m4.5-4.5a.375.375 0 1 0 0 .53.374.374 0 0 0 0-.53m4.5-4.5a.375.375 0 1 0 0 .53.374.374 0 0 0 0-.53m-13.5 7.5a.375.375 0 1 0 0 .53.374.374 0 0 0 0-.53m12 6.53a.375.375 0 1 0-.53 0 .374.374 0 0 0 .53 0" style="fill:none;stroke:#000;stroke-linecap:round;stroke-linejoin:round;stroke-width:1.5px"/></svg>