<svg xmlns="http://www.w3.org/2000/svg" width="24" height="24" viewBox="0 0 24 24"><path d="M18.11 17.86a.375.375 0 1 1 0 .53.374.374 0 0 1 0-.53m-5.47 0a.375.375 0 1 1-.53 0 .374.374 0 0 1 .53 0m6-12a.375.375 0 1 1-.53 0 .374.374 0 0 1 .53 0m-5.03 7.5a.375.375 0 1 1 0 .53.374.374 0 0 1 0-.53m-4.5-4.5a.375.375 0 1 1 0 .53.374.374 0 0 1 0-.53m-4.5-4.5a.375.375 0 1 1 0 .53.374.374 0 0 1 0-.53m14.03 7.5a.375.375 0 1 1-.53 0 .374.374 0 0 1 .53 0m-12 6a.375.375 0 1 1-.53 0 .374.374 0 0 1 .53 0" style="fill:none;stroke:#000;stroke-linecap:round;stroke-linejoin:round;stroke-width:1.5px"/></svg>