<svg xmlns="http://www.w3.org/2000/svg" id="Regular" width="24" height="24" viewBox="0 0 24 24"><defs><style>.cls-1{fill:none;stroke:#000;stroke-linecap:round;stroke-linejoin:round;stroke-width:1.5px}</style></defs><rect width="22.5" height="22.5" x=".75" y=".75" class="cls-1" rx="3" ry="3" transform="rotate(-90 12 12)"/><path d="M9.75 6v7.5l-3.22-3.22a.75.75 0 0 0-1.28.531v2.068a1.5 1.5 0 0 0 .439 1.06l5.781 5.781a.749.749 0 0 0 1.06 0l5.781-5.781a1.5 1.5 0 0 0 .439-1.06v-2.068a.75.75 0 0 0-1.28-.531l-3.22 3.22V6a.75.75 0 0 0-.75-.75h-3a.75.75 0 0 0-.75.75" class="cls-1"/></svg>