<svg xmlns="http://www.w3.org/2000/svg" id="Regular" width="24" height="24" viewBox="0 0 24 24"><defs><style>.cls-1{fill:none;stroke:#000;stroke-linecap:round;stroke-linejoin:round;stroke-width:1.5px;fill-rule:evenodd}</style></defs><path d="M5.461 14.59 12 18.752l6.538-4.162c.667-.424 1.711-.08 1.711.565v2.411a1.372 1.372 0 0 1-.7 1.129l-6.869 4.369a1.332 1.332 0 0 1-1.358 0L4.454 18.7a1.372 1.372 0 0 1-.7-1.129v-2.416c-.004-.645 1.04-.989 1.707-.565m0-8.403L12 10.349l6.539-4.162c.667-.424 1.711-.08 1.711.564v1.771a1.371 1.371 0 0 1-.7 1.129l-6.867 4.37a1.337 1.337 0 0 1-1.358 0l-6.871-4.37a1.371 1.371 0 0 1-.7-1.129V6.751c-.004-.644 1.04-.988 1.707-.564" class="cls-1"/><path d="M4.5.75 12 6 19.5.75" class="cls-1"/></svg>