<svg xmlns="http://www.w3.org/2000/svg" id="Regular" width="24" height="24" viewBox="0 0 24 24"><defs><style>.cls-1{fill:none;stroke:#000;stroke-linecap:round;stroke-linejoin:round;stroke-width:1.5px}</style></defs><rect width="22.5" height="22.5" x=".75" y=".75" class="cls-1" rx="2" ry="2" transform="rotate(-90 12 12)"/><path d="M12.375 19.5a.375.375 0 1 1-.375-.375.375.375 0 0 1 .375.375M10.5 16.125a.375.375 0 1 1-.375-.375.375.375 0 0 1 .375.375m0-3.75a.375.375 0 1 1-.375-.375.375.375 0 0 1 .375.375m-3.75 0A.375.375 0 1 1 6.375 12a.375.375 0 0 1 .375.375m7.5 3.75a.375.375 0 1 1-.375-.375.375.375 0 0 1 .375.375m0-3.75a.375.375 0 1 1-.375-.375.375.375 0 0 1 .375.375m-3.75-3.75a.375.375 0 1 1-.375-.375.375.375 0 0 1 .375.375m3.75 0a.375.375 0 1 1-.375-.375.375.375 0 0 1 .375.375m-3.75-3.75a.375.375 0 1 1-.375-.375.375.375 0 0 1 .375.375m3.75 0a.375.375 0 1 1-.375-.375.375.375 0 0 1 .375.375m3.75 7.5a.375.375 0 1 1-.375-.375.375.375 0 0 1 .375.375" class="cls-1"/></svg>