<svg xmlns="http://www.w3.org/2000/svg" id="Regular" width="24" height="24" viewBox="0 0 24 24"><defs><style>.cls-1{fill:none;stroke:#000;stroke-linecap:round;stroke-linejoin:round;stroke-width:1.5px}</style></defs><path d="M2.25 17.25v6.001m19.5-6.001v6.001" class="cls-1"/><rect width="22.5" height="3" x=".75" y="14.25" class="cls-1" rx=".75" ry=".75"/><path d="M13.5 9.75h-3l-.75 4.5h4.5zm5.25-7.5a3 3 0 0 1-3 3H13.5a1.5 1.5 0 0 0-1.5 1.5v3m-5.25-7.5a4.5 4.5 0 0 0 4.5 4.5H12m9-1.875a.375.375 0 1 1-.375.375.375.375 0 0 1 .375-.375m-16.5 1.5a.375.375 0 1 1-.375.375.375.375 0 0 1 .375-.375M11.25.75a.375.375 0 1 1-.375.375.375.375 0 0 1 .375-.375" class="cls-1"/></svg>