<svg xmlns="http://www.w3.org/2000/svg" id="Regular" width="24" height="24" viewBox="0 0 24 24"><defs><style>.cls-1{fill:none;stroke:#000;stroke-linecap:round;stroke-linejoin:round;stroke-width:1.5px}</style></defs><rect width="22.5" height="22.5" x=".75" y=".75" class="cls-1" rx="1" ry="1"/><path d="M.75 20.25h22.5M10.5 16.5 9 20.25m4.5-3.75 1.5 3.75m-11.25-4.5.5 3.021A1.771 1.771 0 0 0 6 20.25m14.25-4.5-.5 3.021A1.771 1.771 0 0 1 18 20.25m-9.52-4.5a1.477 1.477 0 0 0 1.27.75h4.5a1.477 1.477 0 0 0 1.27-.75M9 3.75h6v7.5H9zm-1.5 0h9m-9 7.5h9" class="cls-1"/></svg>