<svg xmlns="http://www.w3.org/2000/svg" id="Regular" width="24" height="24" viewBox="0 0 24 24"><defs><style>.cls-1{fill:none;stroke:#000;stroke-linecap:round;stroke-linejoin:round;stroke-width:1.5px}</style></defs><path d="M13.5 3.75H12v.75a3 3 0 0 1-6 0v-.75M12 3.75H6v-1a2 2 0 0 1 2-2h2a2 2 0 0 1 2 2zM18.25 6.75h3.5v2a1 1 0 0 1-1 1h-3.5v-2a1 1 0 0 1 1-1m3.5 0h1.5V6M6.144 23.25l.606-3v-7.5h-1.5a1.5 1.5 0 0 0-1.5 1.5v1.5a1.5 1.5 0 0 1-3 0v-1.5a4.505 4.505 0 0 1 4.5-4.5h13.5a1.5 1.5 0 0 1 0 3h-6v7.5l.606 3m-3.606-1.5v1.5" class="cls-1"/></svg>