<svg xmlns="http://www.w3.org/2000/svg" width="24" height="24" viewBox="0 0 24 24"><defs><style>.a{fill:none;stroke:#000;stroke-linecap:round;stroke-linejoin:round;stroke-width:1.5px}</style></defs><path d="M11.25 20.251h-9a1.5 1.5 0 0 1-1.5-1.5v-16.5a1.5 1.5 0 0 1 1.5-1.5h10.629a1.5 1.5 0 0 1 1.06.44l2.872 2.871a1.5 1.5 0 0 1 .439 1.061V7.5" class="a"/><rect width="4.5" height="7.5" x="16.5" y="10.501" class="a" rx="1.5" ry="1.5"/><path d="M23.25 16.5a4.513 4.513 0 0 1-4.5 4.5 4.513 4.513 0 0 1-4.5-4.5m4.5 4.501v2.25M7.5 13.5v-6a1.5 1.5 0 0 1 3 0v6m-3-2.998h3" class="a"/></svg>