<svg xmlns="http://www.w3.org/2000/svg" width="24" height="24" viewBox="0 0 24 24"><defs><style>.a{fill:none;stroke:#000;stroke-linecap:round;stroke-linejoin:round;stroke-width:1.5px}</style></defs><path d="M12.75 15.948v5.8a1.5 1.5 0 0 0 1.5 1.5h6a1.5 1.5 0 0 0 1.5-1.5v-5.8" class="a"/><path d="m11.25 17.26 4.518-3.953a2.249 2.249 0 0 1 2.964 0l4.518 3.953m-4.5 5.99h-3v-3a1.5 1.5 0 0 1 3 0zm-10.5-3h-6a1.5 1.5 0 0 1-1.5-1.5V2.25a1.5 1.5 0 0 1 1.5-1.5h10.629a1.5 1.5 0 0 1 1.06.439l2.872 2.872a1.5 1.5 0 0 1 .439 1.06V9" class="a"/><ellipse cx="6" cy="12.75" class="a" rx="2.25" ry="1.5"/><path d="m8.25 12.75-.295-5.929 1.062-.113A2.685 2.685 0 0 1 11.6 7.99" class="a"/></svg>