<svg xmlns="http://www.w3.org/2000/svg" width="24" height="24" viewBox="0 0 24 24"><defs><style>.a{fill:none;stroke:#000;stroke-linecap:round;stroke-linejoin:round;stroke-width:1.5px}</style></defs><circle cx="7.5" cy="16.079" r="1.5" class="a"/><circle cx="15" cy="14.579" r="1.5" class="a"/><path d="M16.5 14.579V9a1.5 1.5 0 0 0-1.864-1.455l-4.5.75A1.5 1.5 0 0 0 9 9.75v6.329" class="a"/><path d="M22.5 21.75a1.5 1.5 0 0 1-1.5 1.5H3a1.5 1.5 0 0 1-1.5-1.5V2.25A1.5 1.5 0 0 1 3 .75h15a1.5 1.5 0 0 1 1.047.426l3 2.883a1.5 1.5 0 0 1 .453 1.074z" class="a"/></svg>