<svg xmlns="http://www.w3.org/2000/svg" width="24" height="24" viewBox="0 0 24 24"><defs><style>.a{fill:none;stroke:#000;stroke-linecap:round;stroke-linejoin:round;stroke-width:1.5px}</style></defs><path d="M18 9V6.419a5.841 5.841 0 0 0-6-5.668 5.841 5.841 0 0 0-6 5.668V9" class="a"/><circle cx="12" cy="7.501" r="3.75" class="a"/><path d="m12 23.251-8.778-2.989a1.281 1.281 0 0 1-.972-1.2v-6.551a1.388 1.388 0 0 1 1.841-1.2L12 14.051zm8.778-2.989L12 23.251v-9.2l7.909-2.737a1.388 1.388 0 0 1 1.841 1.2v6.554a1.281 1.281 0 0 1-.972 1.194m-5.028-4.511 2.25-.75" class="a"/></svg>