<svg xmlns="http://www.w3.org/2000/svg" width="24" height="24" viewBox="0 0 24 24"><defs><style>.a{fill:none;stroke:#000;stroke-linecap:round;stroke-linejoin:round;stroke-width:1.5px}</style></defs><path d="M17.25 20.25a.375.375 0 1 1-.375.375.375.375 0 0 1 .375-.375m0-2.25v-3" class="a"/><path d="M23.063 20.683a1.774 1.774 0 0 1-1.587 2.567h-8.452a1.774 1.774 0 0 1-1.587-2.567l4.226-8.452a1.774 1.774 0 0 1 3.174 0zM8.25 20.25h-6a1.5 1.5 0 0 1-1.5-1.5V2.25a1.5 1.5 0 0 1 1.5-1.5h10.629a1.5 1.5 0 0 1 1.06.439l2.872 2.872a1.5 1.5 0 0 1 .439 1.06V8.25" class="a"/><ellipse cx="6" cy="12.75" class="a" rx="2.25" ry="1.5"/><path d="m8.25 12.75-.295-5.929 1.062-.113A2.685 2.685 0 0 1 11.6 7.99" class="a"/></svg>