<svg xmlns="http://www.w3.org/2000/svg" width="24" height="24" viewBox="0 0 24 24"><defs><style>.a{fill:none;stroke:#000;stroke-linecap:round;stroke-linejoin:round;stroke-width:1.5px}</style></defs><path d="m17.968 11.68 1.542 4.07h2.978a.735.735 0 0 1 .518 1.283l-2.582 1.816 1.443 3.313a.786.786 0 0 1-1.119.982l-3.487-1.961-3.486 1.961a.786.786 0 0 1-1.12-.982l1.445-3.313-2.6-1.816a.734.734 0 0 1 .516-1.283h3l1.544-4.07a.8.8 0 0 1 1.408 0" class="a"/><path d="M8.25 20.25h-6a1.5 1.5 0 0 1-1.5-1.5V2.25a1.5 1.5 0 0 1 1.5-1.5h10.629a1.5 1.5 0 0 1 1.06.439l2.872 2.872a1.5 1.5 0 0 1 .439 1.06V8.25" class="a"/><ellipse cx="6" cy="12.75" class="a" rx="2.25" ry="1.5"/><path d="m8.25 12.75-.295-5.929 1.062-.113A2.685 2.685 0 0 1 11.6 7.99" class="a"/></svg>