<svg xmlns="http://www.w3.org/2000/svg" width="24" height="24" viewBox="0 0 24 24"><defs><style>.a{fill:none;stroke:#000;stroke-linecap:round;stroke-linejoin:round;stroke-width:1.5px}</style></defs><path d="M18 12V6.419a5.841 5.841 0 0 0-6-5.668 5.841 5.841 0 0 0-6 5.668V12" class="a"/><circle cx="12" cy="9.001" r="3.75" class="a"/><path d="M6 12a3 3 0 1 1 .016-6M18 12a3 3 0 1 0-.016-6" class="a"/><path d="M12 23.251c-.507-1.667-3.918-3.617-9.843-3.886A1.5 1.5 0 0 1 .75 17.858V4.507a1.5 1.5 0 0 1 1.607-1.5c.216.012.43.025.64.041M12 23.251c.507-1.667 3.918-3.617 9.843-3.886a1.5 1.5 0 0 0 1.407-1.507V4.507a1.5 1.5 0 0 0-1.607-1.5q-.715.038-1.381.107M12 15.751v7.5" class="a"/></svg>