<svg xmlns="http://www.w3.org/2000/svg" width="24" height="24" viewBox="0 0 24 24"><defs><style>.a{fill:none;stroke:#000;stroke-linecap:round;stroke-linejoin:round;stroke-width:1.5px}</style></defs><path d="M.75 11.25v3m22.5-3v3m0 7.5a1.5 1.5 0 0 1-1.5 1.5H2.25a1.5 1.5 0 0 1-1.5-1.5v-7.5h22.5zm-18-7.5v9m4.5-9v9m4.5-9v9m4.5-9v9m-3-22.5v4.5m-4.5-3v3.201m9-3.201v3.201M9.75 2.25h12" class="a"/><circle cx="10.5" cy="6.75" r="1.5" class="a"/><circle cx="15.75" cy="6.75" r="1.5" class="a"/><circle cx="21" cy="6.75" r="1.5" class="a"/></svg>