<svg xmlns="http://www.w3.org/2000/svg" id="Regular" width="24" height="24" viewBox="0 0 24 24"><defs><style>.cls-1{fill:none;stroke:#000;stroke-linecap:round;stroke-linejoin:round;stroke-width:1.5px}</style></defs><path d="M7.152 22.152a3.75 3.75 0 0 1-5.3-5.3l.531-.53 5.3 5.3zM4.501 14.196 9.804 19.5l-2.121 2.12-5.303-5.302z" class="cls-1"/><path d="m9.8 19.5 12.5-4.877a1.5 1.5 0 0 0 .954-1.4V11.25a1.5 1.5 0 0 0-1.5-1.5h-3v-3a1.5 1.5 0 0 0-1.5-1.5h-3v-3a1.5 1.5 0 0 0-1.5-1.5h-1.979a1.5 1.5 0 0 0-1.4.954L4.5 14.2zm4.45-14.25L6.237 15.934M18.75 9.75 8.066 17.763" class="cls-1"/></svg>