<svg xmlns="http://www.w3.org/2000/svg" id="Regular" width="24" height="24" viewBox="0 0 24 24"><defs><style>.cls-1{fill:none;stroke:#000;stroke-linecap:round;stroke-linejoin:round;stroke-width:1.5px}</style></defs><path d="M3.311 22.811a1.5 1.5 0 0 1-2.122-2.122L4.682 17.2 6.8 19.318zM8.25 15.75l-2.507 2.507M10.417 5.1a8.341 8.341 0 0 1 1.471-1.983c2.861-2.861 7.195-3.166 9.68-.68s2.181 6.819-.68 9.68-7.2 3.165-9.68.68a5.7 5.7 0 0 1-1.544-2.884" class="cls-1"/><path d="M9.664 9.912 8.25 15.75l5.838-1.414m8.27-4.207-8.487-8.487m-3.453 3.453 8.487 8.487m.868-12.355-9.77 9.77m3 3 9.77-9.77M.75 5.024 4.993.781 8.008 5.99a1.5 1.5 0 0 1-2.05 2.049zm3.359 1.945L6.937 4.14" class="cls-1"/></svg>