<svg xmlns="http://www.w3.org/2000/svg" id="Regular" width="24" height="24" viewBox="0 0 24 24"><defs><style>.cls-1{fill:none;stroke:#000;stroke-linecap:round;stroke-linejoin:round;stroke-width:1.5px}</style></defs><path d="M1.75 5.25h17.5a1 1 0 0 1 1 1v10.5a2 2 0 0 1-2 2H2.75a2 2 0 0 1-2-2V6.25a1 1 0 0 1 1-1m21.5 10.5-3-7.5" class="cls-1"/><path d="M12.75 9V5.25h-4.5V9a3.75 3.75 0 1 0 4.5 0" class="cls-1"/><path d="M10.5 11.625a.375.375 0 1 1-.375.375.375.375 0 0 1 .375-.375M.75 12.75h6.075m13.425 0h-6.075" class="cls-1"/></svg>