<svg xmlns="http://www.w3.org/2000/svg" id="Regular" width="24" height="24" viewBox="0 0 24 24"><defs><style>.cls-1{fill:none;stroke:#000;stroke-linecap:round;stroke-linejoin:round;stroke-width:1.5px}</style></defs><path d="M12 12 8.276 9.314a.7.7 0 0 0-.953.3 5.258 5.258 0 0 0 0 4.774.7.7 0 0 0 .953.3zl3.724 2.686a.7.7 0 0 0 .953-.3 5.258 5.258 0 0 0 0-4.774.7.7 0 0 0-.953-.3z" class="cls-1"/><path d="M1.75 4.5h20.5a1 1 0 0 1 1 1v12a2 2 0 0 1-2 2H2.75a2 2 0 0 1-2-2v-12a1 1 0 0 1 1-1m-1 7.5h6m10.5 0h6" class="cls-1"/></svg>