<svg xmlns="http://www.w3.org/2000/svg" id="Regular" width="24" height="24" viewBox="0 0 24 24"><defs><style>.cls-1{fill:none;stroke:#000;stroke-linecap:round;stroke-linejoin:round;stroke-width:1.5px}</style></defs><path d="M3.25 8.25h17.5a1 1 0 0 1 1 1v6a2 2 0 0 1-2 2H4.25a2 2 0 0 1-2-2v-6a1 1 0 0 1 1-1" class="cls-1"/><path d="M20.25 16.845v4.905a1.5 1.5 0 0 1-1.5 1.5H5.25a1.5 1.5 0 0 1-1.5-1.5v-4.905m-3-5.595v-6a4.5 4.5 0 0 1 4.5-4.5h13.5a4.5 4.5 0 0 1 4.5 4.5v6m-16.5 4.5v3m10.5-3v3M12 17.25v6" class="cls-1"/></svg>