<svg xmlns="http://www.w3.org/2000/svg" width="24" height="24" viewBox="0 0 24 24"><defs><style>.a{fill:none;stroke:#000;stroke-linecap:round;stroke-linejoin:round;stroke-width:1.5px}</style></defs><circle cx="19.5" cy="3.749" r="2.625" class="a"/><path d="M17.25 21a2.25 2.25 0 0 0 4.5 0v-3.75a1.5 1.5 0 0 0 1.5-1.5v-4.5a3 3 0 0 0-3-3h-1.5a3 3 0 0 0-3 3v4.5a1.5 1.5 0 0 0 1.5 1.5zM.75 23.249h13.5m-3-13.5h-9a1.5 1.5 0 0 1-1.5-1.5v-6a1.5 1.5 0 0 1 1.5-1.5h10.5a1.5 1.5 0 0 1 1.5 1.5v4.5m-10.5-3h3m-3 3h6" class="a"/><rect width="9" height="6" x="2.25" y="17.249" class="a" rx="1.5" ry="1.5"/><path d="M9 17.249v-1.5a1.5 1.5 0 0 0-1.5-1.5H6a1.5 1.5 0 0 0-1.5 1.5v1.5" class="a"/></svg>