<svg xmlns="http://www.w3.org/2000/svg" width="24" height="24" viewBox="0 0 24 24"><defs><style>.a{fill:none;stroke:#000;stroke-linecap:round;stroke-linejoin:round;stroke-width:1.5px}</style></defs><path d="m20.777 12.789-8.886 2.987-1.191-1.183-1.766.593a.75.75 0 0 0-.32 1.211l2.389 2.674a1.5 1.5 0 0 0 1.6.422l2.617-.879-.53 3.78a.749.749 0 0 0 .981.815l1.361-.457a.752.752 0 0 0 .46-.439l1.994-5.133 2.488-.836a1.875 1.875 0 0 0-1.2-3.555z" class="a"/><path d="m18.289 13.625-2.78-1.914a.749.749 0 0 0-.664-.093l-1.338.45a.749.749 0 0 0-.29 1.242l1.517 1.51" class="a"/><path d="M8.25 20.249h-4.5a3 3 0 0 1-3-3v-9a3 3 0 0 1 3-3h13.5a3 3 0 0 1 3 3v1.5M6 5.249v15m9-15v3.75" class="a"/><path d="M13.5 5.249v-3a1.5 1.5 0 0 0-1.5-1.5H9a1.5 1.5 0 0 0-1.5 1.5v3" class="a"/></svg>