<svg xmlns="http://www.w3.org/2000/svg" id="Regular" width="24" height="24" viewBox="0 0 24 24"><defs><style>.cls-1{fill:none;stroke:#000;stroke-linecap:round;stroke-linejoin:round;stroke-width:1.5px}</style></defs><path d="m8.993 2.371 12.733 12.734a4.682 4.682 0 1 1-6.621 6.621L2.371 8.993a4.682 4.682 0 0 1 6.622-6.622" class="cls-1"/><path d="m6.955 13.577 6.621-6.621 3.566 3.565-6.622 6.622zM15.835 17.342a.375.375 0 0 0-.531 0m.531.53a.375.375 0 0 0 0-.53m-.535.53a.377.377 0 0 0 .531 0m-.531-.53a.375.375 0 0 0 0 .53m4.609-.53a.374.374 0 0 0-.53 0m.53.53a.374.374 0 0 0 0-.53m-.53.53a.375.375 0 0 0 .53 0m-.53-.53a.374.374 0 0 0 0 .53M4.629 6.136a.375.375 0 0 0-.53 0m.53.531a.375.375 0 0 0 0-.531m-.529.531a.375.375 0 0 0 .53 0m-.53-.531a.375.375 0 0 0 0 .531m4.6-.531a.375.375 0 0 0-.53 0m.53.531a.377.377 0 0 0 0-.531m-.526.531a.375.375 0 0 0 .53 0m-.53-.531a.375.375 0 0 0 0 .531" class="cls-1"/></svg>