<svg xmlns="http://www.w3.org/2000/svg" id="Regular" width="24" height="24" viewBox="0 0 24 24"><defs><style>.cls-1{fill:none;stroke:#000;stroke-linecap:round;stroke-linejoin:round;stroke-width:1.5px}</style></defs><circle cx="10" cy="3.375" r="2.625" class="cls-1"/><path d="M10 17.25v4.5m-3-4.5v4.5a1.5 1.5 0 0 0 3 0 1.5 1.5 0 0 0 3 0v-9.5A5.956 5.956 0 0 0 18.032 15h.218a1.5 1.5 0 0 0 0-3h-.218a3 3 0 0 1-2.684-1.659l-.177-.354a4.5 4.5 0 0 0-2.31-2.148m-5.812-.1A4.5 4.5 0 0 0 4 12v.75a1.5 1.5 0 0 0 1.5 1.5H7m3-6.75-3 6.75" class="cls-1"/><path d="M8.333 11.25h.917a1.5 1.5 0 0 1 0 3H7" class="cls-1"/></svg>