<svg xmlns="http://www.w3.org/2000/svg" id="Regular" width="24" height="24" viewBox="0 0 24 24"><defs><style>.cls-1{fill:none;stroke:#000;stroke-linecap:round;stroke-linejoin:round;stroke-width:1.5px}</style></defs><path d="M23.25 6.75a6 6 0 0 0-6-6h-7.5a9 9 0 0 0-9 9V18A5.251 5.251 0 0 0 6 23.25 5.251 5.251 0 0 0 11.25 18v-.75a4.5 4.5 0 0 1 4.5-4.5h1.5a6 6 0 0 0 6-6" class="cls-1"/><circle cx="6" cy="18" r="2.25" class="cls-1"/><path d="M17.25 3.75h-7.5a6 6 0 0 0-6 6v1.5a1.5 1.5 0 0 0 1.5 1.5 1.5 1.5 0 0 0 1.5-1.5 1.5 1.5 0 0 1 1.5-1.5h9a3 3 0 0 0 3-3 3 3 0 0 0-3-3" class="cls-1"/></svg>