<svg xmlns="http://www.w3.org/2000/svg" id="Regular" width="24" height="24" viewBox="0 0 24 24"><defs><style>.cls-1{fill:none;stroke:#000;stroke-linecap:round;stroke-linejoin:round;stroke-width:1.5px}</style></defs><path d="m22.811 10.939-2.122-2.121A4.472 4.472 0 0 0 17.508 7.5h-3.1a4.483 4.483 0 0 0-2.5.756l-2.984 1.992a1.488 1.488 0 0 1-.832.252H6a1.5 1.5 0 0 0 0 3h2.092a4.483 4.483 0 0 0 2.5-.756l2.289-1.526 1.541 3.268-3.28 2.284a1.5 1.5 0 0 0-.613.936l-.75 3.75a1.5 1.5 0 0 0 1.177 1.765 1.482 1.482 0 0 0 .295.029 1.5 1.5 0 0 0 1.47-1.206l.631-3.158 2.364-1.647 2.428 5.151a1.5 1.5 0 0 0 1.357.86 1.472 1.472 0 0 0 .639-.144 1.5 1.5 0 0 0 .716-2l-5-10.61h1.653a1.511 1.511 0 0 1 1.06.439l2.121 2.122a1.5 1.5 0 0 0 2.122-2.122z" class="cls-1"/><circle cx="12.376" cy="3.375" r="2.625" class="cls-1"/><path d="M6.246 16.665a3 3 0 1 1-4.617-3.786" class="cls-1"/></svg>