<svg xmlns="http://www.w3.org/2000/svg" width="24" height="24" viewBox="0 0 24 24"><defs><style>.a{fill:none;stroke:#000;stroke-linecap:round;stroke-linejoin:round;stroke-width:1.5px}</style></defs><path d="M14.251 12.006v9.744a1.5 1.5 0 0 1-1.5 1.5H4.5a1.5 1.5 0 0 1-1.5-1.5v-18a3 3 0 0 1 3-3h11.25" class="a"/><path d="M19.234 1.5a3 3 0 0 0-4.983 2.25v13.5h4.5a1.5 1.5 0 0 0 1.5-1.5V9m-6-3.75h6" class="a"/><circle cx="21.751" cy="5.25" r="1.5" class="a"/><path d="M3.001 5.25H.751m13.5 9H3.001m11.25 3H3.001" class="a"/></svg>