<svg xmlns="http://www.w3.org/2000/svg" width="24" height="24" viewBox="0 0 24 24"><defs><style>.a{fill:none;stroke:#000;stroke-linecap:round;stroke-linejoin:round;stroke-width:1.5px}</style></defs><path d="M20.121 20.25h1.629a1.5 1.5 0 0 0 1.5-1.5v-7.5a3 3 0 0 0-3-3m-12.129 12h7.758M3.75 8.25a3 3 0 0 0-3 3v7.5a1.5 1.5 0 0 0 1.5 1.5h1.629" class="a"/><circle cx="6" cy="21" r="2.25" class="a"/><circle cx="18" cy="21" r="2.25" class="a"/><path d="M23.25 14.25H.75M12 7.463a.375.375 0 1 1-.375.375.375.375 0 0 1 .375-.375" class="a"/><rect width="10.5" height="10.5" x="6.75" y=".75" class="a" rx="1.5" ry="1.5"/><path d="M9.75 5.4a3.181 3.181 0 0 1 4.5 0" class="a"/></svg>