<svg xmlns="http://www.w3.org/2000/svg" id="Regular" width="24" height="24" viewBox="0 0 24 24"><defs><style>.cls-1{fill:none;stroke:#000;stroke-linecap:round;stroke-linejoin:round;stroke-width:1.5px}</style></defs><path d="M22.851 12.972a2.25 2.25 0 0 0-3.129-.574L15 15.75H5.25a2.25 2.25 0 0 0 0 4.5h10.5a2.235 2.235 0 0 0 1.521-.6l5.007-3.55a2.25 2.25 0 0 0 .573-3.128M5.998 20.25l-.75 3m11.25-3 1.5 3" class="cls-1"/><circle cx="6.75" cy="5.946" r="2.25" class="cls-1"/><path d="M11.25 5.946h1.5m-10.5 0H.75M9 2.049 9.75.75M4.5 9.843l-.75 1.299m.75-9.093L3.75.75M9 9.843l.75 1.299" class="cls-1"/></svg>