<svg xmlns="http://www.w3.org/2000/svg" id="Regular" width="24" height="24" viewBox="0 0 24 24"><defs><style>.cls-1{fill:none;stroke:#000;stroke-linecap:round;stroke-linejoin:round;stroke-width:1.5px}</style></defs><path d="M11.683 16.445a7.306 7.306 0 0 1 4.136-2.07 7.306 7.306 0 0 0 4.138-2.066l2.852-2.852a1.462 1.462 0 0 0 0-2.069L16.6 1.179a1.462 1.462 0 0 0-2.069 0l-2.848 2.847A7.3 7.3 0 0 0 9.6 8.271a6.677 6.677 0 0 1-1.9 3.878l-5.994 5.994a3.036 3.036 0 0 0-.43 3.874 2.93 2.93 0 0 0 4.459.376zm-7.501 3.361.518-.518" class="cls-1"/><path d="m16.257 4.971 2.757 2.758a.976.976 0 0 1 0 1.38l-1.555 1.556a1.951 1.951 0 0 1-2.756 0l-1.38-1.38a1.951 1.951 0 0 1 .001-2.758l1.556-1.555a.976.976 0 0 1 1.377 0" class="cls-1"/></svg>