<svg xmlns="http://www.w3.org/2000/svg" id="Regular" width="24" height="24" viewBox="0 0 24 24"><defs><style>.cls-1{fill:none;stroke:#000;stroke-linecap:round;stroke-linejoin:round;stroke-width:1.5px}</style></defs><path d="m22.5 4.5.713 14.964a.75.75 0 0 1-.75.786H18.75M15 .75l3 1.5c-1.324 6.149-3.073 9.371-6 10.5 0 0 3-8.25 3-12m-6 0-3 1.5c1.324 6.149 3.073 9.371 6 10.5 0 0-3-8.25-3-12M1.5 4.5.787 19.464a.75.75 0 0 0 .75.786H5.25" class="cls-1"/><path d="M6 2.25 1.5 4.5l3.75 5.25V22.5a.75.75 0 0 0 .75.75h2.25a3 3 0 0 0 2.4-1.2l1.35-1.8 1.35 1.8a3 3 0 0 0 2.4 1.2H18a.75.75 0 0 0 .75-.75V9.75L22.5 4.5 18 2.25M9 .75h6m-3 12v7.5m-3.75-3h1.5m4.5 0h1.5" class="cls-1"/></svg>