<svg xmlns="http://www.w3.org/2000/svg" id="Regular" width="24" height="24" viewBox="0 0 24 24"><defs><style>.cls-1{fill:none;stroke:#000;stroke-linecap:round;stroke-linejoin:round;stroke-width:1.5px}</style></defs><path d="M.75 18.75h6v4.5h-5a1 1 0 0 1-1-1zm16.414-4.5H2.25a1.5 1.5 0 0 0-1.5 1.5v3h17.366m-11.366 0h6v3.5a1 1 0 0 1-1 1h-5zm-5-18h4a1 1 0 0 1 1 1v3.5h-6v-3.5a1 1 0 0 1 1-1m12 0h4a1 1 0 0 1 1 1v3.5h-6v-3.5a1 1 0 0 1 1-1m-7 9h6v4.5h-6z" class="cls-1"/><rect width="4.5" height="18.013" x="17.216" y="5.244" class="cls-1" rx="1.5" ry="1.5" transform="rotate(-11.915 19.466 14.252)"/><path d="M18.75 5.25h-18v3a1.5 1.5 0 0 0 1.5 1.5h13.965" class="cls-1"/></svg>