<svg xmlns="http://www.w3.org/2000/svg" id="Regular" width="24" height="24" viewBox="0 0 24 24"><defs><style>.cls-1{fill:none;stroke:#000;stroke-linecap:round;stroke-linejoin:round;stroke-width:1.5px}</style></defs><path d="M20.25 11.7c0-3.3-4.108-4.95-8.25-4.95S3.75 8.4 3.75 11.7v3.042a8.508 8.508 0 0 0 8.507 8.508 7.993 7.993 0 0 0 7.993-7.993z" class="cls-1"/><circle cx="8.25" cy="12.75" r="2.25" class="cls-1"/><circle cx="15.75" cy="12.75" r="2.25" class="cls-1"/><path d="M10.5 18.75a3.355 3.355 0 0 0 3 0m-9.659-2.759A8.625 8.625 0 0 1 9.375.75c4.125 0 4.875 1.5 4.875 3a3.243 3.243 0 0 1-3 3.018" class="cls-1"/><path d="M20.172 16.371a7.875 7.875 0 0 0-4.8-14.121h-1.504" class="cls-1"/></svg>