<svg xmlns="http://www.w3.org/2000/svg" width="24" height="24" viewBox="0 0 24 24"><defs><style>.a{fill:none;stroke:#000;stroke-linecap:round;stroke-linejoin:round;stroke-width:1.5px}</style></defs><path d="M15.773 22.75a1.455 1.455 0 0 0 1.237-.65A11.788 11.788 0 0 0 19 15.25a11.788 11.788 0 0 0-1.99-6.85 1.455 1.455 0 0 0-1.237-.648H8.727A1.455 1.455 0 0 0 7.49 8.4a11.788 11.788 0 0 0-1.99 6.85 11.788 11.788 0 0 0 1.99 6.85 1.455 1.455 0 0 0 1.237.648z" class="a"/><path d="M10 3.25h4.5v4.5H10z" class="a"/><path d="M1.75 15.249c0-8.25 4.5-12 4.5-12H17.5" class="a"/><circle cx="19.75" cy="3.25" r="2.25" class="a"/><path d="M5.815 12.25h12.87m-12.87 6h12.87" class="a"/></svg>