<svg xmlns="http://www.w3.org/2000/svg" width="24" height="24" viewBox="0 0 24 24"><defs><style>.a{fill:none;stroke:#000;stroke-linecap:round;stroke-linejoin:round;stroke-width:1.5px}</style></defs><path d="M15.75 21.75H3A2.25 2.25 0 0 1 .75 19.5m3-17.25a3 3 0 0 0-3 3V19.5A2.25 2.25 0 0 1 3 17.25h12a.75.75 0 0 0 .75-.75V3a.75.75 0 0 0-.75-.75zm10.5 19.5v-4.5" class="a"/><path d="M7.5 7.5H6A2.25 2.25 0 0 0 6 12h1.5l3.75 2.25v-9zM21.273 6a6.75 6.75 0 0 1 0 9.546m-2.121-7.425a3.752 3.752 0 0 1 0 5.3" class="a"/></svg>