<svg xmlns="http://www.w3.org/2000/svg" id="Regular" width="24" height="24" viewBox="0 0 24 24"><defs><style>.cls-1{fill:none;stroke:#000;stroke-linecap:round;stroke-linejoin:round;stroke-width:1.5px}</style></defs><path d="M14.25 8.25V3a2.25 2.25 0 0 0-4.5 0v5.25a11.476 11.476 0 0 0-3 7.5 11.418 11.418 0 0 0 2.509 6.933 1.5 1.5 0 0 0 1.175.567h3.132a1.5 1.5 0 0 0 1.175-.567 11.418 11.418 0 0 0 2.509-6.933 11.476 11.476 0 0 0-3-7.5" class="cls-1"/><path d="M9.75 5.25h4.5v3h-4.5zm-4.5-3a1.5 1.5 0 0 0-1.5 1.5v3h3v-3a1.5 1.5 0 0 0-1.5-1.5m0 19.5h-1.5s-3-1.5-3-6.75a12.25 12.25 0 0 1 3-8.25h3m12-4.5a1.5 1.5 0 0 1 1.5 1.5v3h-3v-3a1.5 1.5 0 0 1 1.5-1.5m0 19.5h1.5s3-1.5 3-6.75a12.25 12.25 0 0 0-3-8.25h-3" class="cls-1"/></svg>