<svg xmlns="http://www.w3.org/2000/svg" width="24" height="24" viewBox="0 0 24 24"><path d="M8.25 8.25V3a2.25 2.25 0 0 0-4.5 0v5.25a11.476 11.476 0 0 0-3 7.5 11.418 11.418 0 0 0 2.509 6.933 1.5 1.5 0 0 0 1.175.567h3.132a1.5 1.5 0 0 0 1.175-.567 11.418 11.418 0 0 0 2.509-6.933 11.476 11.476 0 0 0-3-7.5m4.211 14.242a7.5 7.5 0 1 0 0-13.486M3.75 8.25h4.5m0-3h-4.5M16.125 15a.375.375 0 0 1 .375.375m-.75 0a.375.375 0 0 1 .375-.375m0 .75a.375.375 0 0 1-.375-.375m.75 0a.375.375 0 0 1-.375.375m3.75-1.5a.375.375 0 0 1 .375.375m-.75 0a.375.375 0 0 1 .375-.375m0 .75a.375.375 0 0 1-.375-.375m.75 0a.375.375 0 0 1-.375.375m-3-3.75a.375.375 0 0 1 .375.375m-.75 0a.375.375 0 0 1 .375-.375m0 .75a.375.375 0 0 1-.375-.375m.75 0a.375.375 0 0 1-.375.375" style="fill:none;stroke:#000;stroke-linecap:round;stroke-linejoin:round;stroke-width:1.5px"/></svg>