<svg xmlns="http://www.w3.org/2000/svg" id="Regular" width="24" height="24" viewBox="0 0 24 24"><defs><style>.cls-1{fill:none;stroke:#000;stroke-linecap:round;stroke-linejoin:round;stroke-width:1.5px}</style></defs><path d="M8.75 23.25v-3h-1.5a3 3 0 0 1-3-3v-3h-1.9a.75.75 0 0 1-.7-1.02c.672-1.742 1.273-3.43 1.926-4.98m18.486 0a9.362 9.362 0 0 1-2.812 8.735v6.265" class="cls-1"/><circle cx="12.5" cy="10.5" r="2.25" class="cls-1"/><circle cx="17.75" cy="6.75" r="1.5" class="cls-1"/><circle cx="7.25" cy="6.75" r="1.5" class="cls-1"/><path d="M12.5 8.25V.75m-5.25 4.5a3 3 0 0 1 3-3h4.5a3 3 0 0 1 3 3" class="cls-1"/></svg>