<svg xmlns="http://www.w3.org/2000/svg" id="Regular" width="24" height="24" viewBox="0 0 24 24"><defs><style>.cls-1{fill:none;stroke:#000;stroke-linecap:round;stroke-linejoin:round;stroke-width:1.5px}</style></defs><path d="M20.25 5.25a2.25 2.25 0 0 0 0-4.5H6.75a2.25 2.25 0 0 0 0 4.5v4.5h13.5zm-13.5 4.5h13.5a3 3 0 0 1 3 3v9a1.5 1.5 0 0 1-1.5 1.5H5.25a1.5 1.5 0 0 1-1.5-1.5v-9a3 3 0 0 1 3-3m-4.5 7.5h1.5v-4.5h-1.5a1.5 1.5 0 0 0-1.5 1.5v1.5a1.5 1.5 0 0 0 1.5 1.5" class="cls-1"/><circle cx="17.25" cy="17.25" r="3" class="cls-1"/><path d="M14.25 17.25h-1.5" class="cls-1"/></svg>