<svg xmlns="http://www.w3.org/2000/svg" width="24" height="24" viewBox="0 0 24 24"><defs><style>.a{fill:none;stroke:#000;stroke-linecap:round;stroke-linejoin:round;stroke-width:1.5px}</style></defs><rect width="21" height="19.5" x="1.5" y="2.25" class="a" rx="1.5" ry="1.5"/><path d="M1.5 6.75h21m-10.5 6v3" class="a"/><rect width="3" height="3" x="10.5" y="9.75" class="a" rx=".75" ry=".75"/><rect width="3" height="3" x="10.5" y="15.75" class="a" rx=".75" ry=".75"/><rect width="3" height="3" x="4.5" y="15.75" class="a" rx=".75" ry=".75"/><rect width="3" height="3" x="16.5" y="15.75" class="a" rx=".75" ry=".75"/><path d="M10.5 11.25h-3a1.5 1.5 0 0 0-1.5 1.5v3m7.5-4.5h3a1.5 1.5 0 0 1 1.5 1.5v3" class="a"/></svg>