<svg xmlns="http://www.w3.org/2000/svg" width="24" height="24" viewBox="0 0 24 24"><defs><style>.a{fill:none;stroke:#000;stroke-linecap:round;stroke-linejoin:round;stroke-width:1.5px}</style></defs><circle cx="5.25" cy="21.713" r="1.5" class="a"/><circle cx="18.75" cy="21.713" r="1.5" class="a"/><path d="M17.249 21.713H6.75m-3.001 0a3 3 0 1 1 0-6h19.5v4.5a1.5 1.5 0 0 1-1.5 1.5h-1.5M7.25.713h15a1 1 0 0 1 1 1v14h-18v-13a2 2 0 0 1 2-2m-2 7.5h18m-15 10.5h7.5m7.5-13.5h-18m4.5-4.5v4.5m4.5-4.5v4.5m4.5-4.5v4.5m4.5 7.5h-18m4.5-4.5v4.5m4.5-4.5v4.5m4.5-4.5v4.5" class="a"/></svg>