<svg xmlns="http://www.w3.org/2000/svg" width="24" height="24" viewBox="0 0 24 24"><defs><style>.a{fill:none;stroke:#000;stroke-linecap:round;stroke-linejoin:round;stroke-width:1.5px}</style></defs><path d="M20.25 13.963v9" class="a"/><circle cx="20.25" cy="10.963" r="3" class="a"/><rect width="10.5" height="12" x="3.75" y="1.213" class="a" rx="1" ry="1"/><path d="M5.25 13.213v1.5m7.5-1.5v1.5M6.375 9.838a.375.375 0 0 1 .375.375m-.75 0a.375.375 0 0 1 .375-.375m0 .75A.375.375 0 0 1 6 10.213m.75 0a.375.375 0 0 1-.375.375m5.25-.75a.375.375 0 0 1 .375.375m-.75 0a.375.375 0 0 1 .375-.375m0 .75a.375.375 0 0 1-.375-.375m.75 0a.375.375 0 0 1-.375.375M3.75 7.213h10.5m-13.5-4.5v3m16.5-3v3" class="a"/></svg>