<svg xmlns="http://www.w3.org/2000/svg" width="24" height="24" viewBox="0 0 24 24"><defs><style>.a{fill:none;stroke:#000;stroke-linecap:round;stroke-linejoin:round;stroke-width:1.5px}</style></defs><path d="m18.75 14.004-4.787.957m.475-5.43-2.26.955a1.42 1.42 0 0 1-1.122-.016 1.478 1.478 0 0 1-.781-.83 1.525 1.525 0 0 1 .706-1.9l2.259-1.127a1.961 1.961 0 0 1 1.594-.094l4.639 1.828" class="a"/><path d="M5.2 15h1.6l3.049 2.326a.83.83 0 0 0 1.15.09l4.26-3.518a.842.842 0 0 0 .129-1.164l-2.347-2.609M10.736 7.9l-.247-.2a1.787 1.787 0 0 0-1.725-.221L5.194 9" class="a"/><path d="M1.39 15.75h2.66a1.141 1.141 0 0 0 1.2-1.072V9.321a1.141 1.141 0 0 0-1.2-1.071H1.39m21.22 7.5h-2.66a1.141 1.141 0 0 1-1.2-1.072V9.321a1.141 1.141 0 0 1 1.2-1.071h2.66" class="a"/><circle cx="12" cy="12" r="11.25" class="a"/></svg>