<svg xmlns="http://www.w3.org/2000/svg" width="24" height="24" viewBox="0 0 24 24"><defs><style>.a{fill:none;stroke:#000;stroke-linecap:round;stroke-linejoin:round;stroke-width:1.5px}</style></defs><path d="M17.625 2.249H15a1.341 1.341 0 0 0-.5 2.587l2.655.825a1.342 1.342 0 0 1-.5 2.588H13.5m2.25-6v-1.5m0 9v-1.5" class="a"/><path d="M21 .749h.75a1.5 1.5 0 0 1 1.5 1.5V10.5a1.5 1.5 0 0 1-1.5 1.5h-4.5l-4.5 4.5V12h-3a1.5 1.5 0 0 1-1.5-1.5V2.249a1.5 1.5 0 0 1 1.5-1.5h1.5" class="a"/><circle cx="4.975" cy="15.749" r="3" class="a"/><path d="M9.2 23.249a4.474 4.474 0 0 0-8.449 0m21.042-8.661a3 3 0 0 1-5.193 2.927m6.65 5.734a4.474 4.474 0 0 0-8.449 0" class="a"/></svg>