<svg xmlns="http://www.w3.org/2000/svg" width="24" height="24" viewBox="0 0 24 24"><defs><style>.a{fill:none;stroke:#000;stroke-linecap:round;stroke-linejoin:round;stroke-width:1.5px}</style></defs><path d="M10.144 7.094A2.221 2.221 0 0 0 12 7.969c1.139 0 2.063-.693 2.063-1.547S13.141 4.876 12 4.876s-2.06-.693-2.06-1.548.923-1.547 2.06-1.547a2.221 2.221 0 0 1 1.858.875m-1.856 5.313V9m0-8.25v1.031" class="a"/><circle cx="4.502" cy="6.75" r="3" class="a"/><path d="M8.252 17.25V15a3.75 3.75 0 0 0-7.5 0v2.25h1.5l.75 6H6l.75-6z" class="a"/><circle cx="19.502" cy="6.75" r="3" class="a"/><path d="M23.252 17.25V15a3.75 3.75 0 1 0-7.5 0v2.25h1.5l.75 6h3l.75-6z" class="a"/></svg>