<svg xmlns="http://www.w3.org/2000/svg" width="24" height="24" viewBox="0 0 24 24"><defs><style>.a{fill:none;stroke:#000;stroke-linecap:round;stroke-linejoin:round;stroke-width:1.5px}</style></defs><path d="m3.812 18.625 17.875-9.987a.749.749 0 0 1 1.091.844l-2.223 8.481a1.512 1.512 0 0 1-1.44 1.065H4.835a1.48 1.48 0 0 1-1.02-.4" class="a"/><path d="M20.138 18.625 2.263 8.638a.749.749 0 0 0-1.091.844L3.4 17.963a1.512 1.512 0 0 0 1.44 1.065h14.28a1.48 1.48 0 0 0 1.02-.4m-3.12-7.383-4.452-5.707a.751.751 0 0 0-1.184 0L6.95 11.256" class="a"/></svg>