<svg xmlns="http://www.w3.org/2000/svg" id="Regular" width="24" height="24" viewBox="0 0 24 24"><defs><style>.cls-1{fill:none;stroke:#000;stroke-linecap:round;stroke-linejoin:round;stroke-width:1.5px}</style></defs><rect width="21" height="4.5" x="1.473" y=".75" class="cls-1" rx="1.944" ry="1.944"/><path d="M19.473 9.112V21.75a1.5 1.5 0 0 1-1.5 1.5h-12a1.5 1.5 0 0 1-1.5-1.5V9.112" class="cls-1"/><rect width="9" height="6" x="7.473" y="12.75" class="cls-1" rx="1.5" ry="1.5"/><path d="m3.574 5.25-.493 1.719a1.5 1.5 0 0 0 .722 1.9l1.5.548a1.5 1.5 0 0 0 1.341 0L8.3 8.585a1.5 1.5 0 0 1 1.341 0l1.659.83a1.5 1.5 0 0 0 1.341 0l1.659-.83a1.5 1.5 0 0 1 1.341 0l1.659.83a1.5 1.5 0 0 0 1.341 0l1.5-.548a1.5 1.5 0 0 0 .722-1.9L20.32 5.25" class="cls-1"/></svg>