<svg xmlns="http://www.w3.org/2000/svg" width="24" height="24" viewBox="0 0 24 24"><defs><style>.a{fill:none;stroke:#000;stroke-linejoin:round;stroke-width:1.5px;stroke-linecap:round}</style></defs><path d="M6.75 17.25h-4.5a1.5 1.5 0 0 1-1.5-1.5v-12a1.5 1.5 0 0 1 1.5-1.5h13.5a1.5 1.5 0 0 1 1.5 1.5v7.5" class="a"/><path d="M.75 6.75h16.5" style="fill:none;stroke:#000;stroke-linejoin:round;stroke-width:1.5px"/><path d="M5.25 3.75v-3m7.5 3v-3m3.75 13.558-6.75 2.779 6.75 2.471 6.75-2.471zm-6.75 2.779v3.75" class="a"/><path d="M12.75 18.186V21.3a.751.751 0 0 0 .471.7l3 1.2a.758.758 0 0 0 .558 0l3-1.2a.751.751 0 0 0 .471-.7v-3.114" class="a"/></svg>