<svg xmlns="http://www.w3.org/2000/svg" width="24" height="24" viewBox="0 0 24 24"><defs><style>.a{fill:none;stroke:#000;stroke-linejoin:round;stroke-width:1.5px;stroke-linecap:round}</style></defs><path d="M11.25 17.25h-9a1.5 1.5 0 0 1-1.5-1.5V3.765a1.5 1.5 0 0 1 1.5-1.5h13.5a1.5 1.5 0 0 1 1.5 1.5V10.5" class="a"/><path d="M.75 6.75h16.5" style="fill:none;stroke:#000;stroke-linejoin:round;stroke-width:1.5px"/><path d="M5.243 3.75v-3m7.5 3v-3m3.007 22.5V21l-.158-.079a2.425 2.425 0 0 1-1.342-2.171 4.5 4.5 0 0 1 9 0 2.425 2.425 0 0 1-1.342 2.171L21.75 21v2.25m-3-1.5v1.5M16.875 18" class="a"/><path d="M16.875 18a.375.375 0 1 0 .375.375.375.375 0 0 0-.375-.375m3.75 0a.375.375 0 1 0 .375.375.375.375 0 0 0-.375-.375" class="a"/></svg>