<svg xmlns="http://www.w3.org/2000/svg" width="24" height="24" viewBox="0 0 24 24"><defs><style>.a{fill:none;stroke:#000;stroke-linejoin:round;stroke-width:1.5px;stroke-linecap:round}</style></defs><path d="M17.955 11.681 19.494 15h3a.735.735 0 0 1 .518 1.283l-2.6 2.563 1.44 3.313a.784.784 0 0 1-1.117.982l-3.481-1.961-3.482 1.961a.784.784 0 0 1-1.117-.982l1.44-3.313-2.6-2.563a.734.734 0 0 1 .51-1.283H15l1.542-3.322a.8.8 0 0 1 1.413.003M7.479 17.25H2.25a1.5 1.5 0 0 1-1.5-1.5v-12a1.5 1.5 0 0 1 1.5-1.5h13.5a1.5 1.5 0 0 1 1.5 1.5v4.5" class="a"/><path d="M.75 6.75h16.5" style="fill:none;stroke:#000;stroke-linejoin:round;stroke-width:1.5px"/><path d="M5.243 3.75v-3m7.5 3v-3" class="a"/></svg>