<svg xmlns="http://www.w3.org/2000/svg" width="24" height="24" viewBox="0 0 24 24"><defs><style>.a{fill:none;stroke:#000;stroke-linejoin:round;stroke-width:1.5px;stroke-linecap:round}</style></defs><path d="M22.63 14.786 15 22.416l-3.75.75.75-3.75 7.63-7.63a2.116 2.116 0 0 1 2.992 0l.008.008a2.114 2.114 0 0 1 0 2.992M9 17.25H2.25a1.5 1.5 0 0 1-1.5-1.5V3.765a1.5 1.5 0 0 1 1.5-1.5h13.5a1.5 1.5 0 0 1 1.5 1.5V8.25" class="a"/><path d="M.75 6.75h16.5" style="fill:none;stroke:#000;stroke-linejoin:round;stroke-width:1.5px"/><path d="M5.243 3.75v-3m7.5 3v-3" class="a"/></svg>