<svg xmlns="http://www.w3.org/2000/svg" width="24" height="24" viewBox="0 0 24 24"><defs><style>.a{fill:none;stroke:#000;stroke-linejoin:round;stroke-width:1.5px;stroke-linecap:round}</style></defs><path d="M23.25 15.75a7.669 7.669 0 0 1-6 7.5 7.669 7.669 0 0 1-6-7.5v-3a1.5 1.5 0 0 1 1.5-1.5h9a1.5 1.5 0 0 1 1.5 1.5zm-6-.75v4.5M15 17.25h4.5" class="a"/><path d="M8.25 17.25h-6a1.5 1.5 0 0 1-1.5-1.5V3.765a1.5 1.5 0 0 1 1.5-1.5h13.5a1.5 1.5 0 0 1 1.5 1.5V8.25" class="a"/><path d="M.75 6.75h16.5" style="fill:none;stroke:#000;stroke-linejoin:round;stroke-width:1.5px"/><path d="M5.243 3.75v-3m7.5 3v-3" class="a"/></svg>