<svg xmlns="http://www.w3.org/2000/svg" width="24" height="24" viewBox="0 0 24 24"><defs><style>.a{fill:none;stroke:#000;stroke-linejoin:round;stroke-width:1.5px;stroke-linecap:round}</style></defs><rect width="9" height="7.5" x="14.25" y="15.75" class="a" rx="1.5" ry="1.5"/><path d="M18.75 11.25a3 3 0 0 0-3 3v1.5h6v-1.5a3 3 0 0 0-3-3m0 7.905a.375.375 0 1 0 .375.375.375.375 0 0 0-.375-.375M8.25 17.25h-6a1.5 1.5 0 0 1-1.5-1.5V3.765a1.5 1.5 0 0 1 1.5-1.5h13.5a1.5 1.5 0 0 1 1.5 1.5V8.25" class="a"/><path d="M.75 6.75h16.5" style="fill:none;stroke:#000;stroke-linejoin:round;stroke-width:1.5px"/><path d="M5.243 3.75v-3m7.5 3v-3" class="a"/></svg>