<svg xmlns="http://www.w3.org/2000/svg" width="24" height="24" viewBox="0 0 24 24"><defs><style>.a{fill:none;stroke:#000;stroke-linejoin:round;stroke-width:1.5px;stroke-linecap:round}</style></defs><path d="M18.75 14.25h-2.033a1.342 1.342 0 0 0-.5 2.588l2.064.825a1.342 1.342 0 0 1-.5 2.587H15.75m1.5-6v-.75m0 7.5v-.75" class="a"/><circle cx="17.25" cy="17.25" r="6" class="a"/><path d="M8.25 17.25h-6a1.5 1.5 0 0 1-1.5-1.5V3.765a1.5 1.5 0 0 1 1.5-1.5h13.5a1.5 1.5 0 0 1 1.5 1.5V8.25" class="a"/><path d="M.75 6.75h16.5" style="fill:none;stroke:#000;stroke-linejoin:round;stroke-width:1.5px"/><path d="M5.243 3.75v-3m7.5 3v-3" class="a"/></svg>