<svg xmlns="http://www.w3.org/2000/svg" width="24" height="24" viewBox="0 0 24 24"><defs><style>.a{fill:none;stroke:#000;stroke-linecap:round;stroke-linejoin:round;stroke-width:1.5px}</style></defs><path d="M2.451 18.861a4.436 4.436 0 0 0 7.914.986l.778-1.216a1.92 1.92 0 0 1 3.214 0l.778 1.216a4.418 4.418 0 0 0 3.724 2.014 4.339 4.339 0 0 0 4.391-4.285v-6.215h-21v3m0-3 3.267-7.35A3.154 3.154 0 0 1 8.4 2.139h1.023m13.827 9.222-3.267-7.35A3.154 3.154 0 0 0 17.1 2.139h-1.023" class="a"/><rect width="7.5" height="4.5" x=".75" y="14.361" class="a" rx="1.5" ry="1.5"/></svg>