<svg xmlns="http://www.w3.org/2000/svg" width="24" height="24" viewBox="0 0 24 24"><defs><style>.a{fill:none;stroke:#000;stroke-linecap:round;stroke-linejoin:round;stroke-width:1.5px}</style></defs><path d="m19.5 6-1.085-2.171A1.5 1.5 0 0 0 17.073 3h-5.646a1.5 1.5 0 0 0-1.342.829L9 6H2.25a1.5 1.5 0 0 0-1.5 1.5v12a1.5 1.5 0 0 0 1.5 1.5h19.5a1.5 1.5 0 0 0 1.5-1.5v-12a1.5 1.5 0 0 0-1.5-1.5z" class="a"/><rect width="9" height="7.5" x="3.75" y="10.5" class="a" rx=".75" ry=".75"/><path d="M18 12h1.5M18 16.5h1.5M5.25 6V4.5" class="a"/></svg>