<svg xmlns="http://www.w3.org/2000/svg" width="24" height="24" viewBox="0 0 24 24"><defs><style>.a{fill:none;stroke:#000;stroke-linecap:round;stroke-linejoin:round;stroke-width:1.5px}</style></defs><rect width="16.5" height="12" x=".75" y="9" class="a" rx="1.5" ry="1.5"/><path d="m17.25 17.25 4.987 1.87a.75.75 0 0 0 1.013-.7v-6.838a.75.75 0 0 0-1.013-.7L17.25 12.75z" class="a"/><circle cx="5.625" cy="15.375" r="1.875" class="a"/><circle cx="12.375" cy="15.375" r="1.875" class="a"/><path d="M5.625 13.5h6.75M21.75 3H16.5a.75.75 0 0 0-.75.75v1.5a.75.75 0 0 0 .75.75h5.25a1.5 1.5 0 0 0 0-3m-6 1.5h-1.5a1.5 1.5 0 0 0-1.5 1.5v3M1.5 6h6A1.5 1.5 0 0 1 9 7.5V9" class="a"/></svg>