<svg xmlns="http://www.w3.org/2000/svg" width="24" height="24" viewBox="0 0 24 24"><defs><style>.a{fill:none;stroke:#000;stroke-linecap:round;stroke-linejoin:round;stroke-width:1.5px}</style></defs><rect width="4.5" height="13.5" x=".75" y="6.75" class="a" rx="1" ry="1"/><path d="M11.364 5.971 5.219 7.508M17.157 19.5h4.093a2 2 0 0 0 2-2V9.117a2 2 0 0 0-1.581-1.956l-4.528-1.178M5.217 19.5h6.126" class="a"/><circle cx="14.25" cy="14.25" r="6" class="a"/><circle cx="14.25" cy="14.25" r="3" class="a"/><path d="m10.078 9.938 1.638-5.052a1.5 1.5 0 0 1 1.455-1.136h2.158a1.5 1.5 0 0 1 1.455 1.136l1.656 5.069" class="a"/></svg>