<svg xmlns="http://www.w3.org/2000/svg" width="24" height="24" viewBox="0 0 24 24"><defs><style>.a{fill:none;stroke:#000;stroke-linecap:round;stroke-linejoin:round;stroke-width:1.5px}</style></defs><path d="m18 12.75-1.085-2.171a1.5 1.5 0 0 0-1.342-.829h-4.146a1.5 1.5 0 0 0-1.342.829L9 12.75H4.5a1.5 1.5 0 0 0-1.5 1.5v7.5a1.5 1.5 0 0 0 1.5 1.5h15a1.5 1.5 0 0 0 1.5-1.5v-7.5a1.5 1.5 0 0 0-1.5-1.5z" class="a"/><path d="M6.375 15.75a.375.375 0 1 1-.375.375.375.375 0 0 1 .375-.375m-.375-3v-1.5" class="a"/><circle cx="13.5" cy="17.25" r="3" class="a"/><rect width="9" height="4.5" x="9" y=".75" class="a" rx=".75" ry=".75"/><path d="m10.5 5.25.927 4.5h4.146l.927-4.5z" class="a"/></svg>