<svg xmlns="http://www.w3.org/2000/svg" id="Regular" width="24" height="24" viewBox="0 0 24 24"><defs><style>.cls-1{fill:none;stroke:#000;stroke-linecap:round;stroke-linejoin:round;stroke-width:1.5px}</style></defs><path d="M.75 20.25h7.5v3H.75zm0-6h7.5v3H.75zm15 6h7.5v3h-7.5zm0-6h7.5v3h-7.5zm-15-7.5h22.5v4.5H.75zm22.5 0L12.75.926a1.5 1.5 0 0 0-1.412 0L.75 6.75z" class="cls-1"/><path d="M.75 20.25h7.5v3H.75zm0-6h7.5v3H.75zm15 6h7.5v3h-7.5zm0-6h7.5v3h-7.5zm-15-7.5h22.5v4.5H.75zm22.5 0L12.75.926a1.5 1.5 0 0 0-1.412 0L.75 6.75z" class="cls-1"/></svg>