<svg xmlns="http://www.w3.org/2000/svg" id="Regular" width="24" height="24" viewBox="0 0 24 24"><defs><style>.cls-1{fill:none;stroke:#000;stroke-linecap:round;stroke-linejoin:round;stroke-width:1.5px}</style></defs><path d="M11 8.25a1.5 1.5 0 0 1-.6 1.2L8 11.25l-2.4-1.8a1.5 1.5 0 0 1-.6-1.2v-4.5a3 3 0 0 1 6 0zm-3 3v9" class="cls-1"/><circle cx="8" cy="21.75" r="1.5" class="cls-1"/><path d="M5 5.25h6m3 10.5a1.5 1.5 0 0 1 .6-1.2l2.4-1.8 2.4 1.8a1.5 1.5 0 0 1 .6 1.2v4.5a3 3 0 0 1-6 0zm3-3v-9" class="cls-1"/><circle cx="17" cy="2.25" r="1.5" class="cls-1"/><path d="M20 18.75h-6" class="cls-1"/></svg>