<svg xmlns="http://www.w3.org/2000/svg" width="24" height="24" viewBox="0 0 24 24"><defs><style>.a{fill:none;stroke:#000;stroke-linecap:round;stroke-linejoin:round;stroke-width:1.5px}</style></defs><path d="M21.75 20.25a1.5 1.5 0 0 0 1.5-1.5 3.624 3.624 0 0 0-1.061-2.561L20.25 14.25H3.75l-1.939 1.939A3.624 3.624 0 0 0 .75 18.75a1.5 1.5 0 0 0 1.5 1.5zm-20.675-3H5.25m17.675 0H18.75m-4.5-9H7.559a2.249 2.249 0 0 0-2.106 1.46l-1.7 4.54h16.5l-1.125-3m-16.878 9v1.5a1.5 1.5 0 0 0 3 0v-1.5zm19.5 0v1.5a1.5 1.5 0 0 1-3 0v-1.5z" class="a"/><rect width="9" height="10.5" x="14.25" y=".75" class="a" rx="1" ry="1"/><path d="M17.25 6 18 7.5l2.25-3" class="a"/></svg>