<svg xmlns="http://www.w3.org/2000/svg" width="24" height="24" viewBox="0 0 24 24"><defs><style>.a{fill:none;stroke:#000;stroke-linecap:round;stroke-linejoin:round;stroke-width:1.5px}</style></defs><path d="M1.5 5.25v16.5a1.5 1.5 0 0 0 1.5 1.5h1.5m18-18v16.5a1.5 1.5 0 0 1-1.5 1.5h-1.5" class="a"/><circle cx="12" cy="18.75" r="2.7" class="a"/><path d="M12 16.05v-1.8m0 9v-1.8m2.7-2.7h1.8m-9 0h1.8m-.064 3.182 1.075-1.075m-1.075-5.289 1.075 1.075m4.453 5.289-1.075-1.075m1.075-5.289-1.075 1.075M15.75 5.25h-7.5a1.5 1.5 0 0 0 0 3h7.5a1.5 1.5 0 0 0 0-3M7.5 8.049V9.75m9-1.701V9.75m-8.25-4.5.8-3.35A1.5 1.5 0 0 1 10.512.75h2.976a1.5 1.5 0 0 1 1.459 1.15l.8 3.35m-14.247 6h21" class="a"/></svg>