<svg xmlns="http://www.w3.org/2000/svg" width="24" height="24" viewBox="0 0 24 24"><defs><style>.a{fill:none;stroke:#000;stroke-linecap:round;stroke-linejoin:round;stroke-width:1.5px}</style></defs><circle cx="18.75" cy="21.75" r="1.5" class="a"/><circle cx="6.75" cy="21.75" r="1.5" class="a"/><path d="M20.25 21.75h1.5a1.5 1.5 0 0 0 1.5-1.5v-1.5a3 3 0 0 0-3-3l-2.585-5.171a1.5 1.5 0 0 0-1.342-.829H14.25a1.5 1.5 0 0 0-1.5 1.5v4.5H2.25a1.5 1.5 0 0 0-1.5 1.5v3a1.5 1.5 0 0 0 1.5 1.5h3m12 0h-9m4.5-6h7.5m-19.5-4.5a1.5 1.5 0 1 0 1.5-1.5v-1.5" class="a"/><path d="M12.75 15.75 2.848.9a.327.327 0 0 0-.6.182V5.25" class="a"/></svg>