<svg xmlns="http://www.w3.org/2000/svg" width="24" height="24" viewBox="0 0 24 24"><defs><style>.a{fill:none;stroke:#000;stroke-linecap:round;stroke-linejoin:round;stroke-width:1.5px}</style></defs><rect width="10.5" height="12.75" x="12.75" y=".75" class="a" rx="1" ry="1"/><path d="m15.75 8.25 1.5 1.5 3-5.25M2.951 13.608 4.7 9.71a2.251 2.251 0 0 1 2.109-1.46H9.75M1.5 20.049v1.7a1.5 1.5 0 0 0 3 0v-1.5M4.125 16.5a.375.375 0 0 0-.375.375m.75 0a.375.375 0 0 0-.375-.375m0 .75a.375.375 0 0 0 .375-.375m-.75 0a.375.375 0 0 0 .375.375M21 20.049v1.7a1.5 1.5 0 0 1-3 0v-1.5m.375-3.749a.375.375 0 0 1 .375.375m-.75 0a.375.375 0 0 1 .375-.375m0 .75a.375.375 0 0 1-.375-.375m.75 0a.375.375 0 0 1-.375.375" class="a"/><path d="M21.75 16.5v2.25a1.5 1.5 0 0 1-1.5 1.5h-18a1.5 1.5 0 0 1-1.5-1.5V16.5a3 3 0 0 1 3-3h6" class="a"/></svg>