<svg xmlns="http://www.w3.org/2000/svg" width="24" height="24" viewBox="0 0 24 24"><defs><style>.a{fill:none;stroke:#000;stroke-linecap:round;stroke-linejoin:round;stroke-width:1.5px}</style></defs><path d="M12 2.375A13.467 13.467 0 0 0 1.418 7a3 3 0 0 0-.552 2.713l2.034 7.13a1.5 1.5 0 0 0 2.23.865A12.286 12.286 0 0 1 12 15.875a12.288 12.288 0 0 1 6.868 1.833 1.5 1.5 0 0 0 2.23-.865l2.037-7.13A3.007 3.007 0 0 0 22.582 7 13.467 13.467 0 0 0 12 2.375m-3.75 19.5v-11.25" class="a"/><path d="m6 12.875 2.25-2.25 2.25 2.25m5.25 9v-11.25m-2.25 2.25 2.25-2.25 2.25 2.25" class="a"/></svg>