<svg xmlns="http://www.w3.org/2000/svg" width="24" height="24" viewBox="0 0 24 24"><defs><style>.a{fill:none;stroke:#000;stroke-linecap:round;stroke-linejoin:round;stroke-width:1.5px}</style></defs><rect width="9" height="7.5" x="14.202" y="14.893" class="a" rx="1" ry="1"/><path d="M18.7 10.393a3 3 0 0 0-3 3v1.5h6v-1.5a3 3 0 0 0-3-3m0 7.907a.375.375 0 0 1 .375.375m-.748-.003a.375.375 0 0 1 .373-.372m0 .747a.375.375 0 0 1-.375-.375m.752 0a.375.375 0 0 1-.375.375M2.9 6.751l1.751-3.9a2.25 2.25 0 0 1 2.107-1.46h8.882a2.248 2.248 0 0 1 2.106 1.46L19.5 6.75M1.452 13.192v1.7a1.5 1.5 0 0 0 3 0v-1.5m-.375-3.749a.375.375 0 0 0-.375.375m.75 0a.375.375 0 0 0-.375-.375m0 .75a.375.375 0 0 0 .375-.375m-.752 0a.375.375 0 0 0 .375.375" class="a"/><path d="M21.3 8.142a3 3 0 0 0-2.6-1.5h-15a3 3 0 0 0-3 3v2.25a1.5 1.5 0 0 0 1.5 1.5h10.5" class="a"/></svg>