<svg xmlns="http://www.w3.org/2000/svg" width="24" height="24" viewBox="0 0 24 24"><defs><style>.a{fill:none;stroke:#000;stroke-linecap:round;stroke-linejoin:round;stroke-width:1.5px}</style></defs><path d="M9.75 15.937c0 .932 1.007 1.688 2.25 1.688s2.25-.756 2.25-1.688S13.243 14.25 12 14.25s-2.25-.756-2.25-1.688 1.007-1.687 2.25-1.687 2.25.755 2.25 1.687M12 9.75v1.125m0 6.75v1.125" class="a"/><rect width="21" height="15" x="1.5" y="6.75" class="a" rx="1.5" ry="1.5"/><path d="M15.342 3.275a1.5 1.5 0 0 0-1.423-1.025h-3.838a1.5 1.5 0 0 0-1.423 1.025L7.5 6.75h9z" class="a"/></svg>