<svg xmlns="http://www.w3.org/2000/svg" width="24" height="24" viewBox="0 0 24 24"><defs><style>.a{fill:none;stroke:#000;stroke-linecap:round;stroke-linejoin:round;stroke-width:1.5px}</style></defs><rect width="7.544" height="11.735" x="2.846" y="2.845" class="a" rx=".887" ry=".887" transform="rotate(-90 6.618 8.713)"/><path d="m2.94 4.941.437-2.924A1.489 1.489 0 0 1 5.069.766l8.663 1.3a1.487 1.487 0 0 1 1.251 1.692l-.676 4.518A1.488 1.488 0 0 1 12.485 9.5M6.618 8.338a.375.375 0 1 1-.375.375.375.375 0 0 1 .375-.375" class="a"/><circle cx="18" cy="13.625" r="2.625" class="a"/><path d="M12.75 23.25a5.25 5.25 0 0 1 10.5 0" class="a"/></svg>