<svg xmlns="http://www.w3.org/2000/svg" width="24" height="24" viewBox="0 0 24 24"><defs><style>.a{fill:none;stroke:#000;stroke-linecap:round;stroke-linejoin:round;stroke-width:1.5px}</style></defs><path d="M20.996 14.983V8.951m-18 0v6.033m7.202-11.823-5.58 3.033m14.73-.014-5.555-3.019" class="a"/><circle cx="11.996" cy="2.625" r="1.875" class="a"/><path d="M10.216 20.783 4.618 17.74m14.73.014-5.573 3.029" class="a"/><circle cx="11.996" cy="21.375" r="1.875" class="a"/><circle cx="2.963" cy="7.076" r="1.875" class="a"/><circle cx="2.963" cy="16.858" r="1.875" class="a"/><circle cx="20.996" cy="7.076" r="1.875" class="a"/><circle cx="20.996" cy="16.858" r="1.875" class="a"/><path d="M10.137 14.186a2.225 2.225 0 0 0 1.863.875c1.138 0 2.062-.692 2.062-1.547s-.928-1.546-2.062-1.546-2.063-.693-2.063-1.548.92-1.547 2.063-1.547a2.224 2.224 0 0 1 1.858.875m-1.862 5.313v1.031m0-8.25v1.031" class="a"/></svg>