<svg xmlns="http://www.w3.org/2000/svg" width="24" height="24" viewBox="0 0 24 24"><defs><style>.a{fill:none;stroke:#000;stroke-linecap:round;stroke-linejoin:round;stroke-width:1.5px}</style></defs><circle cx="18.75" cy="3.75" r="3" class="a"/><path d="m21 23.25.75-7.5h1.5v-3a4.5 4.5 0 0 0-9 0v3h1.5l.75 7.5zm-2.25-15v4.5M3.375 3A.375.375 0 1 1 3 3.375.375.375 0 0 1 3.375 3" class="a"/><path d="M11.25 12H2.135A1.4 1.4 0 0 1 .75 10.593V2.156A1.4 1.4 0 0 1 2.135.75h9.115" class="a"/><circle cx="9.75" cy="6" r="2.25" class="a"/></svg>