<svg xmlns="http://www.w3.org/2000/svg" id="Regular" width="24" height="24" viewBox="0 0 24 24"><defs><style>.cls-1{fill:none;stroke:#000;stroke-linecap:round;stroke-linejoin:round;stroke-width:1.5px}</style></defs><path d="m3.75 23.25-2.014-2.381a4.5 4.5 0 0 1-.986-2.811v-5.171a1.5 1.5 0 0 1 1.5-1.5 1.5 1.5 0 0 1 1.5 1.5v3.75" class="cls-1"/><path d="M8.25 23.25v-3a4.5 4.5 0 0 0-.757-2.5l-1.142-1.71a1.4 1.4 0 0 0-1.977-.44 1.4 1.4 0 0 0-.474 1.787l1.352 2.25M20.25 23.25l2.014-2.381a4.5 4.5 0 0 0 .986-2.811v-5.171a1.5 1.5 0 0 0-1.5-1.5 1.5 1.5 0 0 0-1.5 1.5v3.75" class="cls-1"/><path d="M15.75 23.25v-3a4.5 4.5 0 0 1 .757-2.5l1.142-1.712a1.4 1.4 0 0 1 1.977-.444 1.4 1.4 0 0 1 .476 1.791l-1.352 2.25" class="cls-1"/><circle cx="12" cy="7.5" r="6.75" class="cls-1"/><circle cx="12" cy="7.5" r="3" class="cls-1"/><path d="M12 4.5V.75m2.494 5.083 3.118-2.083M9.506 5.833 6.388 3.75M12 10.5v3.75m2.494-5.083 3.118 2.083M9.506 9.167 6.388 11.25" class="cls-1"/></svg>