<svg xmlns="http://www.w3.org/2000/svg" id="Regular" width="24" height="24" viewBox="0 0 24 24"><defs><style>.cls-1{fill:none;stroke:#000;stroke-linecap:round;stroke-linejoin:round;stroke-width:1.5px}</style></defs><path d="M6.75 18.238A9 9 0 1 1 18.626 8.25M6.076 13.5a5.251 5.251 0 1 1 8.707-5.25" class="cls-1"/><path d="m16.5 23.25 6.53-7.065a.751.751 0 0 0 .094-.947l-2.651-3.654a.75.75 0 0 0-.624-.334h-6.7a.75.75 0 0 0-.624.334l-2.649 3.654a.751.751 0 0 0 .094.947zm-6.744-7.5h13.488m-6.744-4.5v12" class="cls-1"/></svg>