<svg xmlns="http://www.w3.org/2000/svg" id="Regular" width="24" height="24" viewBox="0 0 24 24"><defs><style>.cls-1{fill:none;stroke:#000;stroke-linecap:round;stroke-linejoin:round;stroke-width:1.5px}</style></defs><path d="M.75 3.75v9c0 1.657 2.686 3 6 3s6-1.343 6-3v-9" class="cls-1"/><path d="M12.75 9.75c0 1.657-2.686 3-6 3s-6-1.343-6-3" class="cls-1"/><ellipse cx="6.75" cy="3.75" class="cls-1" rx="6" ry="3"/><path d="M12.75 6.75c0 1.657-2.686 3-6 3s-6-1.343-6-3m19.5 12a1.5 1.5 0 0 1 1.5-1.5 1.5 1.5 0 0 1 1.5 1.5 2.136 2.136 0 0 1-.469 1.336L20.25 23.25h3M12.75 18l4.5 4.5m0-4.5-4.5 4.5" class="cls-1"/></svg>