<svg xmlns="http://www.w3.org/2000/svg" id="Regular" width="24" height="24" viewBox="0 0 24 24"><defs><style>.cls-1{fill:none;stroke:#000;stroke-linecap:round;stroke-linejoin:round;stroke-width:1.5px}</style></defs><path d="m16.5 23.25 6.53-7.065a.751.751 0 0 0 .094-.947l-2.651-3.654a.75.75 0 0 0-.624-.334h-6.7a.75.75 0 0 0-.624.334l-2.649 3.654a.751.751 0 0 0 .094.947zm-6.744-7.5h13.488m-6.744-4.5v12" class="cls-1"/><path d="M10.5 21.75H6.682A5.932 5.932 0 0 1 1.98 12.2c3.388-3.928 4.77-5.45 4.77-5.45h6s.308.453 1.137 1.5" class="cls-1"/><path d="m12.75 6.75 1.821-4.59a.75.75 0 0 0-1.006-1.006l-1.9.948a.75.75 0 0 1-.959-.255l-.601-.908a.427.427 0 0 0-.71 0l-.605.907a.75.75 0 0 1-.959.255l-1.9-.948A.75.75 0 0 0 4.929 2.16L6.75 6.75" class="cls-1"/></svg>