<svg xmlns="http://www.w3.org/2000/svg" id="Regular" width="24" height="24" viewBox="0 0 24 24"><defs><style>.cls-1{fill:none;stroke:#000;stroke-linecap:round;stroke-linejoin:round;stroke-width:1.5px}</style></defs><circle cx="17.25" cy="17.25" r="6" class="cls-1"/><circle cx="17.25" cy="17.25" r="2.25" class="cls-1"/><path d="M17.25 15v-3.75m1.949 4.875 3.247-1.875m-7.145 1.875-3.247-1.875m5.196 5.25v3.75m1.949-4.875 3.247 1.875m-7.145-1.875-3.247 1.875m-2.304 1.5H6.682A5.932 5.932 0 0 1 1.98 12.2c3.388-3.928 4.77-5.45 4.77-5.45h6s.308.453 1.137 1.5" class="cls-1"/><path d="m12.75 6.75 1.821-4.59a.75.75 0 0 0-1.006-1.006l-1.9.948a.75.75 0 0 1-.959-.255l-.601-.908a.427.427 0 0 0-.71 0l-.605.907a.75.75 0 0 1-.959.255l-1.9-.948A.75.75 0 0 0 4.929 2.16L6.75 6.75" class="cls-1"/></svg>