<svg xmlns="http://www.w3.org/2000/svg" id="Regular" width="24" height="24" viewBox="0 0 24 24"><defs><style>.cls-1{fill:none;stroke:#000;stroke-linecap:round;stroke-linejoin:round;stroke-width:1.5px}</style></defs><rect width="18" height="18" x=".75" y="5.25" class="cls-1" rx="1" ry="1"/><path d="M.75 8.25h18m-18 7.5h18m-12-7.5v7.5m6-7.5v7.5m3.75-10.5v-.375C16.5 2.6 13.478.75 9.75.75S3 2.6 3 4.875v.375m.75 15h3m15-8.25v5.25a3 3 0 0 1-3 3m-15-8.625a.375.375 0 0 1 .375.375m-.75 0a.375.375 0 0 1 .375-.375m0 .75A.375.375 0 0 1 3.375 12m.75 0a.375.375 0 0 1-.375.375m6-.75a.375.375 0 0 1 .375.375m-.75 0a.375.375 0 0 1 .375-.375m0 .75A.375.375 0 0 1 9.375 12m.75 0a.375.375 0 0 1-.375.375m6-.75a.375.375 0 0 1 .375.375m-.75 0a.375.375 0 0 1 .375-.375m0 .75a.375.375 0 0 1-.375-.375m.75 0a.375.375 0 0 1-.375.375" class="cls-1"/><circle cx="21.75" cy="10.5" r="1.5" class="cls-1"/></svg>