<svg xmlns="http://www.w3.org/2000/svg" id="Regular" width="24" height="24" viewBox="0 0 24 24"><defs><style>.cls-1{fill:none;stroke:#000;stroke-linecap:round;stroke-linejoin:round;stroke-width:1.5px}</style></defs><path d="M3.125 12.75A9.006 9.006 0 0 0 7.5 19.036v4.214m9 0V21l1.006.168A3 3 0 0 0 21 18.208V15.75l.935-.234a1.5 1.5 0 0 0 .884-2.287L21 10.5v-.75c0-3.984-3.63-7.244-8.25-7.495" class="cls-1"/><rect width="9" height="9" x=".75" y=".75" class="cls-1" rx="1" ry="1"/><path d="M7.125 3a.375.375 0 0 1 .375.375m-.75 0A.375.375 0 0 1 7.125 3m0 .75a.375.375 0 0 1-.375-.375m.75 0a.375.375 0 0 1-.375.375M3.375 3a.375.375 0 0 1 .375.375m-.75 0A.375.375 0 0 1 3.375 3m0 .75A.375.375 0 0 1 3 3.375m.75 0a.375.375 0 0 1-.375.375m3.75 3a.375.375 0 0 1 .375.375m-.75 0a.375.375 0 0 1 .375-.375m0 .75a.375.375 0 0 1-.375-.375m.75 0a.375.375 0 0 1-.375.375m-3.75-.75a.375.375 0 0 1 .375.375m-.75 0a.375.375 0 0 1 .375-.375m0 .75A.375.375 0 0 1 3 7.125m.75 0a.375.375 0 0 1-.375.375" class="cls-1"/></svg>