<svg xmlns="http://www.w3.org/2000/svg" id="Regular" width="24" height="24" viewBox="0 0 24 24"><defs><style>.cls-1{fill:none;stroke:#000;stroke-linecap:round;stroke-linejoin:round;stroke-width:1.5px}</style></defs><path d="M2.75 6.75h18.5a2 2 0 0 1 2 2v12a1 1 0 0 1-1 1H1.75a1 1 0 0 1-1-1v-12a2 2 0 0 1 2-2" class="cls-1"/><rect width="16.5" height="7.5" x="3.75" y="9.75" class="cls-1" rx="1" ry="1"/><path d="M9 9.75v7.5m6-7.5v7.5m-11.25-1.5h-3m22.5 0h-3m-3-9v-1.5a3 3 0 0 0-3-3h-4.5a3 3 0 0 0-3 3v1.5" class="cls-1"/></svg>