<svg xmlns="http://www.w3.org/2000/svg" width="24" height="24" viewBox="0 0 24 24"><defs><style>.a{fill:none;stroke:#000;stroke-linecap:round;stroke-linejoin:round;stroke-width:1.5px}</style></defs><path d="M5.808 9.471a4.961 4.961 0 0 1 3.374-3.46" class="a"/><rect width="22.5" height="7.5" x=".75" y="12.75" class="a" rx="1.5" ry="1.5"/><path d="M3.75 21.75v-1.5m16.5 1.5v-1.5m-1.538-10.5a8.246 8.246 0 0 0-16.424 0m9.66 0a1.615 1.615 0 0 0-2.9 0m10.077 6a.375.375 0 1 1-.375.375.375.375 0 0 1 .375-.375M5.25 17.25h8.25" class="a"/></svg>