<svg xmlns="http://www.w3.org/2000/svg" width="24" height="24" viewBox="0 0 24 24"><path d="M12 .75V19.5M10.5.75h3m-9 13.5a1.5 1.5 0 0 1-3 0c0-.828.672-3 1.5-3s1.5 2.172 1.5 3m18 0a1.5 1.5 0 0 1-3 0c0-.828.672-3 1.5-3s1.5 2.172 1.5 3m-4.5-6a1.5 1.5 0 0 1-3 0c0-.828.672-3 1.5-3s1.5 2.172 1.5 3m-9 0a1.5 1.5 0 0 1-3 0c0-.828.672-3 1.5-3S9 7.422 9 8.25m7.5 4.5a2.25 2.25 0 0 1-4.5 0m0 0a2.25 2.25 0 0 1-4.5 0m4.5 6a4.5 4.5 0 0 1-9 0m9 0a4.5 4.5 0 0 0 9 0" style="fill:none;stroke:#000;stroke-linecap:round;stroke-linejoin:round;stroke-width:1.5px"/></svg>