<svg xmlns="http://www.w3.org/2000/svg" width="24" height="24" viewBox="0 0 24 24"><defs><style>.a{fill:none;stroke:#000;stroke-linecap:round;stroke-linejoin:round;stroke-width:1.5px}</style></defs><path d="M11.25 17.25H.75V.75h22.5v4.5M.75 9.75l7.5 7.5m7.5-16.5 4.5 4.5m-4.013 11.233-.8 5.879a.751.751 0 0 0 1.269.666l2.049-2.05 2.049 2.05a.751.751 0 0 0 1.269-.666l-.8-5.879" class="a"/><circle cx="18.75" cy="12.75" r="4.5" class="a"/><path d="m.75 8.25 7.5-7.5m10.5 11.625a.375.375 0 1 0 .375.375.375.375 0 0 0-.375-.375" class="a"/></svg>