<svg xmlns="http://www.w3.org/2000/svg" width="24" height="24" viewBox="0 0 24 24"><defs><style>.a{fill:none;stroke:#000;stroke-linecap:round;stroke-linejoin:round;stroke-width:1.5px}</style></defs><path d="m8.25 4.949-2.7 3.6-1.8-1.8m4.5 6.9-2.7 3.6-1.8-1.8m6-7.2h3m-3 9h3" class="a"/><path d="M12.75.749H2.25a1.5 1.5 0 0 0-1.5 1.5v19.5a1.5 1.5 0 0 0 1.5 1.5h12m1.5-4.5a1.5 1.5 0 0 0 1.5 1.5h1.5a1.5 1.5 0 0 0 1.5-1.5V7.5h-4.5zm4.5-16.5h1.5a1.5 1.5 0 0 1 1.5 1.5V10.5m-3-3V2.249a1.5 1.5 0 0 0-1.5-1.5h-1.5a1.5 1.5 0 0 0-1.5 1.5V7.5M18 20.249v3" class="a"/></svg>