<svg xmlns="http://www.w3.org/2000/svg" id="Regular" width="24" height="24" viewBox="0 0 24 24"><defs><style>.cls-1{fill:none;stroke:#000;stroke-linecap:round;stroke-linejoin:round;stroke-width:1.5px}</style></defs><path d="M3.75 12.75h16.5v8a1 1 0 0 1-1 1H4.75a1 1 0 0 1-1-1z" class="cls-1"/><path d="M3.75 13.447a6 6 0 0 1 3-11.2c4.5 0 5.25 4.5 9 4.5" class="cls-1"/><path d="M20.25 13.447a6 6 0 0 0-3-11.2c-2.54 0-3.885 1.434-5.25 2.683M8.25 17.25v1.5m3.75-1.5v1.5m3.75-1.5v1.5" class="cls-1"/></svg>