<svg xmlns="http://www.w3.org/2000/svg" id="Regular" width="24" height="24" viewBox="0 0 24 24"><defs><style>.cls-1{fill:none;stroke:#000;stroke-linecap:round;stroke-linejoin:round;stroke-width:1.5px}</style></defs><path d="M21 9.19c1.413.627 2.25 1.406 2.25 2.25 0 2.072-5.037 3.75-11.25 3.75S.75 13.512.75 11.44c0-.844.837-1.623 2.25-2.25" class="cls-1"/><path d="M23.25 11.44c0 4.557-5.037 8.25-11.25 8.25S.75 16 .75 11.44" class="cls-1"/><path d="M19.3 10.994c-.826 2.344-4.029 3.352-7.154 2.25S7.16 9.35 7.986 7.006s4.03-3.352 7.155-2.25S20.13 8.65 19.3 10.994M12 7.69l3.75 2.25m-12 .75A3.694 3.694 0 0 1 6 7.442" class="cls-1"/></svg>