<svg xmlns="http://www.w3.org/2000/svg" id="Regular" width="24" height="24" viewBox="0 0 24 24"><defs><style>.cls-1{fill:none;stroke:#000;stroke-linecap:round;stroke-linejoin:round;stroke-width:1.5px}</style></defs><path d="M19.5 12.88V2.25A1.5 1.5 0 0 0 18 .75H6a1.5 1.5 0 0 0-1.5 1.5v10.63" class="cls-1"/><path d="M21.284 11.465a.75.75 0 0 1 1.216.587v9.7a1.5 1.5 0 0 1-1.5 1.5H3a1.5 1.5 0 0 1-1.5-1.5v-9.7a.75.75 0 0 1 1.216-.587l7.431 5.894a3 3 0 0 0 3.706 0zm-5.476 4.343 2.942 2.942M8.192 15.808 5.25 18.75m5.062-13.875L12 6l1.687-1.125M12 12.75v-9" class="cls-1"/><path d="M10.312 11.625 12 10.5l1.687 1.125m1.688-5.062L14.25 8.25l1.125 1.688M7.5 8.25h9M8.625 6.563 9.75 8.25 8.625 9.938" class="cls-1"/></svg>