<svg xmlns="http://www.w3.org/2000/svg" id="Regular" width="24" height="24" viewBox="0 0 24 24"><defs><style>.cls-1{fill:none;stroke:#000;stroke-linecap:round;stroke-linejoin:round;stroke-width:1.5px}</style></defs><circle cx="12" cy="14.25" r="9" class="cls-1"/><path d="m4.368 19.022 2.492-2.493a1.5 1.5 0 0 1 2.113-.008l1.991 1.959a1.5 1.5 0 0 0 2.088.017l2.077-1.982a1.5 1.5 0 0 1 2.1.025l2.436 2.435m.013-9.423-2.49 2.489a1.5 1.5 0 0 1-2.113.009l-2.006-1.976a1.5 1.5 0 0 0-2.121.017L8.973 12.1a1.5 1.5 0 0 1-2.129.008L4.31 9.571M12 2.25V.75M9 5.762V3.75a1.5 1.5 0 0 1 1.5-1.5h3a1.5 1.5 0 0 1 1.5 1.5v2.012" class="cls-1"/></svg>