<svg xmlns="http://www.w3.org/2000/svg" id="Regular" width="24" height="24" viewBox="0 0 24 24"><defs><style>.cls-1{fill:none;stroke:#000;stroke-linecap:round;stroke-linejoin:round;stroke-width:1.5px}</style></defs><path d="M16.5 16.308V21a2.25 2.25 0 0 1-4.5 0v-4.692m0-4.487V7.5a2.25 2.25 0 0 0-4.5 0v.75a2.25 2.25 0 0 1-4.5 0V7.5a6.75 6.75 0 0 1 13.5 0v4.321M8.16 5.91 4.98 2.73m6.37 3.19 3.519-2.815" class="cls-1"/><path d="m13.419 13-1.466-1.22a2.4 2.4 0 0 0-1.534-.53 2.014 2.014 0 0 0-2.169 1.808v2.009a2.013 2.013 0 0 0 2.169 1.808 2.4 2.4 0 0 0 1.534-.529l1.257-1.016" class="cls-1"/><circle cx="14.25" cy="14.25" r="1.5" class="cls-1"/><path d="m15.081 13 1.466-1.221a2.4 2.4 0 0 1 1.534-.53 2.013 2.013 0 0 1 2.169 1.808v2.009a2.013 2.013 0 0 1-2.169 1.808 2.4 2.4 0 0 1-1.534-.53l-1.237-1.032" class="cls-1"/></svg>