<svg xmlns="http://www.w3.org/2000/svg" width="24" height="24" viewBox="0 0 24 24"><path d="M5.25.917 21 16.667m-2.121 2.121-3.022-3.022c-2.051-2.05-2.763-4.662-1.591-5.834s3.783-.459 5.833 1.591l3.022 3.022m-.621 7.747a.375.375 0 1 1-.375.375.375.375 0 0 1 .375-.375m-21 0a.375.375 0 1 1-.375.375.375.375 0 0 1 .375-.375m11.25 0a.375.375 0 1 1-.375.375.375.375 0 0 1 .375-.375M3 15.542a.375.375 0 1 1-.375.375.375.375 0 0 1 .375-.375m4.5 3.75a.375.375 0 1 1-.375.375.375.375 0 0 1 .375-.375m3-4.5a.375.375 0 1 1-.375.375.375.375 0 0 1 .375-.375" style="fill:none;stroke:#000;stroke-linecap:round;stroke-linejoin:round;stroke-width:1.5px"/></svg>