<svg xmlns="http://www.w3.org/2000/svg" width="24" height="24" viewBox="0 0 24 24"><defs><style>.a{fill:none;stroke:#000;stroke-linecap:round;stroke-linejoin:round;stroke-width:1.5px}</style></defs><path d="M5.153.75a1.5 1.5 0 0 0-1.5 1.4l-1.3 19.5a1.5 1.5 0 0 0 1.5 1.6h1.726a1.5 1.5 0 0 0 1.455-1.136l.182-.727a1.5 1.5 0 0 1 1.455-1.137h6.658a1.5 1.5 0 0 1 1.455 1.137l.182.727a1.5 1.5 0 0 0 1.455 1.136h1.726a1.5 1.5 0 0 0 1.5-1.6l-1.3-19.5a1.5 1.5 0 0 0-1.5-1.4z" class="a"/><rect width="7.5" height="3" x="8.25" y="3.75" class="a" rx=".5" ry=".5"/><circle cx="12" cy="13.5" r="3.75" class="a"/><path d="m9.349 16.152 5.3-5.301" class="a"/></svg>