<svg xmlns="http://www.w3.org/2000/svg" width="24" height="24" viewBox="0 0 24 24"><defs><style>.a{fill:none;stroke:#000;stroke-linecap:round;stroke-linejoin:round;stroke-width:1.5px}</style></defs><circle cx="4.5" cy="19.5" r="3.75" class="a"/><path d="M4.5 19.125a.375.375 0 1 1-.375.375.375.375 0 0 1 .375-.375" class="a"/><path d="M8.25 12.75h-3a4.5 4.5 0 0 0-4.5 4.5v2.25a3.75 3.75 0 0 0 3.75 3.75h9.75a1.5 1.5 0 0 0 1.5-1.5v-1.5a7.5 7.5 0 0 0-7.5-7.5m10.5 7.5h1.5a3 3 0 0 1 3 3h-3a1.5 1.5 0 0 1-1.5-1.5z" class="a"/><path d="M18.75 20.25V4.5a3.75 3.75 0 0 0-7.5 0c0 2.25 3 3 3 5.25 0 1.269-.954 3.014-1.786 4.3m-1.214 3.2h3.872" class="a"/></svg>