<svg xmlns="http://www.w3.org/2000/svg" width="24" height="24" viewBox="0 0 24 24"><defs><style>.a{fill:none;stroke:#000;stroke-linecap:round;stroke-linejoin:round;stroke-width:1.5px}</style></defs><rect width="12" height="7.5" x="11.251" y="12.751" class="a" rx="1.5" ry="1.5"/><path d="M17.251 20.251v3m-2.25 0h4.5m-18.75-8.25 2.25-2.25 2.25 2.25m1.5 3 2.25 2.25-2.25 2.25M12 3.751a2.979 2.979 0 0 0-2.291 1.085 4.489 4.489 0 1 0-4.458 4.915H12a3 3 0 1 0 0-6" class="a"/><path d="M3 12.751v4.5a3 3 0 0 0 3 3h3" class="a"/></svg>