<svg xmlns="http://www.w3.org/2000/svg" width="24" height="24" viewBox="0 0 24 24"><defs><style>.a{fill:none;stroke:#000;stroke-linecap:round;stroke-linejoin:round;stroke-width:1.5px}</style></defs><rect width="9" height="7.5" x="14.25" y="15.75" class="a" rx="1.5" ry="1.5"/><path d="M18.75 11.25a3 3 0 0 0-3 3v1.5h6v-1.5a3 3 0 0 0-3-3m0 7.905a.375.375 0 1 0 .375.375.375.375 0 0 0-.375-.375" class="a"/><path d="M23.1 9.659a4.868 4.868 0 0 0-7.486-2.794A7.5 7.5 0 1 0 8.25 15.75h3" class="a"/></svg>