<svg xmlns="http://www.w3.org/2000/svg" width="24" height="24" viewBox="0 0 24 24"><defs><style>.a{fill:none;stroke:#000;stroke-linecap:round;stroke-linejoin:round;stroke-width:1.5px}</style></defs><path d="M19.5 19.876a.375.375 0 1 0 .375.375.375.375 0 0 0-.375-.375" class="a"/><rect width="7.5" height="12" x="15.75" y="11.251" class="a" rx="1.5" ry="1.5"/><path d="m3 15.001 2.25-2.25 2.25 2.25m1.5 3 2.25 2.25L9 22.501m3-18.75a2.981 2.981 0 0 0-2.292 1.085A4.489 4.489 0 1 0 5.25 9.751H12a3 3 0 0 0 0-6" class="a"/><path d="M5.25 12.751v4.5a3 3 0 0 0 3 3h3" class="a"/></svg>