<svg xmlns="http://www.w3.org/2000/svg" id="Regular" width="24" height="24" viewBox="0 0 24 24"><defs><style>.cls-1{fill:none;stroke:#000;stroke-linecap:round;stroke-linejoin:round;stroke-width:1.5px}</style></defs><path d="m7.125 11.25-2.068 8.272a3 3 0 0 0 2.91 3.728h5.816a3 3 0 0 0 2.91-3.728l-2.068-8.272m-9.75 0h12" class="cls-1"/><path d="m7.125 11.25-1.5-3.75h10.5l-1.5 3.75m.75 3h2.25a1.5 1.5 0 0 1 1.5 1.5v2.2a1.5 1.5 0 0 1-.668 1.248l-1.673 1.116M7.125.75c-1.5 1.5 1.5 2.25 0 3.75m3.75-3.75c-1.5 1.5 1.5 2.25 0 3.75m3.75-3.75c-1.5 1.5 1.5 2.25 0 3.75" class="cls-1"/></svg>