<svg xmlns="http://www.w3.org/2000/svg" width="24" height="24" viewBox="0 0 24 24"><defs><style>.a{fill:none;stroke:#000;stroke-linecap:round;stroke-linejoin:round;stroke-width:1.5px}</style></defs><path d="M5.975 12.151a1.046 1.046 0 0 0 1.551 0l.5-.556a1.045 1.045 0 0 1 1.819.754l-.039.747a1.046 1.046 0 0 0 1.1 1.1l.747-.038a1.045 1.045 0 0 1 .754 1.819l-.556.5a1.046 1.046 0 0 0 0 1.551l.556.5a1.045 1.045 0 0 1-.754 1.819l-.747-.039a1.046 1.046 0 0 0-1.1 1.1l.039.747a1.045 1.045 0 0 1-1.819.754l-.5-.556a1.046 1.046 0 0 0-1.551 0l-.5.556a1.045 1.045 0 0 1-1.819-.754l.038-.747a1.046 1.046 0 0 0-1.1-1.1l-.747.039a1.045 1.045 0 0 1-.747-1.819l.556-.5a1.046 1.046 0 0 0 0-1.551l-.556-.5a1.045 1.045 0 0 1 .754-1.819l.747.038a1.046 1.046 0 0 0 1.1-1.1l-.038-.747a1.045 1.045 0 0 1 1.811-.749z" class="a"/><circle cx="6.751" cy="17.251" r="1.5" class="a"/><path d="M16.475 1.651a1.046 1.046 0 0 0 1.551 0l.5-.556a1.045 1.045 0 0 1 1.819.754l-.039.747a1.046 1.046 0 0 0 1.1 1.1l.747-.038a1.045 1.045 0 0 1 .754 1.819l-.556.5a1.046 1.046 0 0 0 0 1.551l.556.5a1.045 1.045 0 0 1-.754 1.819l-.747-.039a1.046 1.046 0 0 0-1.1 1.1l.039.747a1.045 1.045 0 0 1-1.819.754l-.5-.556a1.046 1.046 0 0 0-1.551 0l-.5.556a1.045 1.045 0 0 1-1.819-.754l.038-.747a1.046 1.046 0 0 0-1.1-1.1l-.747.039a1.045 1.045 0 0 1-.747-1.819l.556-.5a1.046 1.046 0 0 0 0-1.551l-.556-.5a1.045 1.045 0 0 1 .754-1.819l.747.038a1.046 1.046 0 0 0 1.1-1.1l-.038-.747a1.045 1.045 0 0 1 1.811-.749z" class="a"/><circle cx="17.251" cy="6.751" r="1.5" class="a"/></svg>