<svg xmlns="http://www.w3.org/2000/svg" width="24" height="24" viewBox="0 0 24 24"><defs><style>.a{fill:none;stroke:#000;stroke-linecap:round;stroke-linejoin:round;stroke-width:1.5px}</style></defs><path d="m17.392 17.395 5.856 5.856" class="a"/><circle cx="10.498" cy="10.501" r="1.5" class="a"/><path d="M9.224 4.7a1.33 1.33 0 0 1 2.548 0l.442 1.453a.994.994 0 0 0 1.174.681l1.472-.341a1.338 1.338 0 0 1 1.274 2.218L15.1 9.82a1 1 0 0 0 0 1.362l1.03 1.111a1.338 1.338 0 0 1-1.274 2.218l-1.472-.341a.994.994 0 0 0-1.174.681l-.438 1.449a1.33 1.33 0 0 1-2.548 0l-.443-1.453a.993.993 0 0 0-1.173-.681l-1.473.341a1.338 1.338 0 0 1-1.274-2.218l1.031-1.111a1 1 0 0 0 0-1.362L4.861 8.709a1.338 1.338 0 0 1 1.274-2.218l1.473.341a.993.993 0 0 0 1.173-.681z" class="a"/><circle cx="10.498" cy="10.501" r="9.75" class="a"/></svg>