<svg xmlns="http://www.w3.org/2000/svg" width="24" height="24" viewBox="0 0 24 24"><defs><style>.a{fill:none;stroke:#000;stroke-linecap:round;stroke-linejoin:round;stroke-width:1.5px}</style></defs><path d="m21 16.508-2.012 3.722a1.966 1.966 0 0 0 .421 2.4 2.383 2.383 0 0 0 3.182 0 1.966 1.966 0 0 0 .421-2.4zM19.6 11.6 9.592 19.509a1.487 1.487 0 0 1-1.45.237 12.251 12.251 0 0 1-7.3-7.3A1.491 1.491 0 0 1 1.081 11L8.99.993" class="a"/><ellipse cx="14.294" cy="6.296" class="a" rx="2.25" ry="7.5" transform="rotate(-45 14.293 6.297)"/></svg>