<svg xmlns="http://www.w3.org/2000/svg" width="24" height="24" viewBox="0 0 24 24"><defs><style>.a{fill:none;stroke:#000;stroke-linecap:round;stroke-linejoin:round;stroke-width:1.5px}</style></defs><path d="m10.138 18.465-6.111-6.111 7.638-8.656 7.129 7.129zm-5.376.829-1.687-1.758.952-5.182 6.111 6.111z" class="a"/><path d="m21.3 7.22-6.028-6.026a1.5 1.5 0 0 0-2.121 0l-1.464 1.464a.75.75 0 0 0 0 1.061l7.086 7.087a.75.75 0 0 0 1.061 0L21.3 9.341a1.5 1.5 0 0 0 0-2.121M9.119 11.336l2.037 2.037m-8.894 8.372a1.469 1.469 0 0 0 1.5 1.5c2.25 0 5.25-1.5 8.25-1.5a9.507 9.507 0 0 1 4.5 1.5" class="a"/></svg>