<svg xmlns="http://www.w3.org/2000/svg" width="24" height="24" viewBox="0 0 24 24"><defs><style>.a{fill:none;stroke:#000;stroke-linecap:round;stroke-linejoin:round;stroke-width:1.5px}</style></defs><rect width="6" height="16.5" x="4.5" y="6" class="a" rx="1.5" ry="1.5"/><path d="M4.5 9h6v10.5h-6zM6 6h3a1.513 1.513 0 0 1 .568.111L8.25 1.5h-1.5L5.432 6.111A1.513 1.513 0 0 1 6 6" class="a"/><rect width="6" height="16.5" x="13.5" y="6" class="a" rx="1.5" ry="1.5"/><path d="M13.5 9h6v10.5h-6zM15 6h3a1.513 1.513 0 0 1 .568.111L17.25 1.5h-1.5l-1.318 4.611A1.513 1.513 0 0 1 15 6" class="a"/></svg>