<svg xmlns="http://www.w3.org/2000/svg" width="24" height="24" viewBox="0 0 24 24"><defs><style>.a{fill:none;stroke:#000;stroke-linecap:round;stroke-linejoin:round;stroke-width:1.5px}</style></defs><rect width="16.5" height="7.5" x="4.125" y=".75" class="a" rx="1.5" ry="1.5"/><path d="M4.125 4.5h-1.5a1.5 1.5 0 0 0-1.5 1.5v3.75a1.5 1.5 0 0 0 1.5 1.5h8.25a1.5 1.5 0 0 1 1.5 1.5v1.5m.75 9h-1.5a1.5 1.5 0 0 1-1.5-1.5V16.5a2.25 2.25 0 0 1 2.25-2.25 2.25 2.25 0 0 1 2.25 2.25v5.25a1.5 1.5 0 0 1-1.5 1.5m7.5-18.75h2.25" class="a"/></svg>