<svg xmlns="http://www.w3.org/2000/svg" width="24" height="24" viewBox="0 0 24 24"><path d="M2.625 4.067V2.625a1.442 1.442 0 0 1 1.442-1.442H5.51m-2.885 18.75v1.442a1.442 1.442 0 0 0 1.442 1.442H5.51m15.865-2.884v1.442a1.442 1.442 0 0 1-1.442 1.442H18.49m-5.048 0h2.164m-7.212 0h2.164m2.884-21.634h2.164m-7.212 0h2.164M2.625 9.837V7.673m0 8.654v-2.164m18.75-4.326V7.673m0 8.654v-2.164M18.49 3.346l1.443 1.442" style="fill:none;stroke:#000;stroke-linecap:round;stroke-linejoin:round;stroke-width:1.5px"/></svg>