<svg xmlns="http://www.w3.org/2000/svg" width="24" height="24" viewBox="0 0 24 24"><defs><style>.a{fill:none;stroke:#000;stroke-linecap:round;stroke-linejoin:round;stroke-width:1.5px}</style></defs><circle cx="12" cy="12" r="11.25" class="a"/><path d="M8.014 15.654a.244.244 0 0 0 .332.332L12 13.957l3.654 2.029a.244.244 0 0 0 .332-.332L13.957 12l2.029-3.654a.244.244 0 0 0-.332-.333L12 10.043l-3.654-2.03a.244.244 0 0 0-.332.333L10.043 12zM6 10.5.75 12 6 13.5M13.5 6 12 .75 10.5 6m7.5 7.5 5.25-1.5L18 10.5M10.5 18l1.5 5.25L13.5 18" class="a"/></svg>