<svg xmlns="http://www.w3.org/2000/svg" width="24" height="24" viewBox="0 0 24 24"><defs><style>.a{fill:none;stroke:#000;stroke-linecap:round;stroke-linejoin:round;stroke-width:1.5px}</style></defs><path d="M6.75 7.5v-3m3 3v-3m-6 6h-3m3 6h-3m3-3h-3m9 9v-3m9-3h-3m-9 6v-3m6 3v-3m3-6V18a1.5 1.5 0 0 1-1.5 1.5h-9a1.5 1.5 0 0 1-1.5-1.5V9a1.5 1.5 0 0 1 1.5-1.5h6" class="a"/><rect width="6" height="6" x="6.75" y="10.5" class="a" rx=".75" ry=".75"/><path d="M17.25 1.5A2.25 2.25 0 0 0 15 3.75V6" class="a"/><circle cx="16.5" cy="6" r="1.5" class="a"/><path d="M23.25 5.25h-3V4.5a3 3 0 0 1 3-3v6" class="a"/></svg>