<svg xmlns="http://www.w3.org/2000/svg" width="24" height="24" viewBox="0 0 24 24"><defs><style>.a{fill:none;stroke:#000;stroke-linecap:round;stroke-linejoin:round;stroke-width:1.5px}</style></defs><circle cx="12" cy="12" r="11.25" class="a"/><path d="M16.648 7.352a.75.75 0 0 0-.768-.181L9.348 9.348 7.171 15.88a.75.75 0 0 0 .949.949l6.532-2.177 2.177-6.532a.75.75 0 0 0-.181-.768M12 .75V3m7.955 1.045-1.591 1.591M23.25 12H21m-1.045 7.955-1.591-1.591M12 23.25V21m-7.955-1.045 1.591-1.591M.75 12H3m1.045-7.955 1.591 1.591M12 11.625a.375.375 0 0 1 .375.375m-.75 0a.375.375 0 0 1 .375-.375m0 .75a.375.375 0 0 1-.375-.375m.75 0a.375.375 0 0 1-.375.375" class="a"/></svg>