<svg xmlns="http://www.w3.org/2000/svg" width="24" height="24" viewBox="0 0 24 24"><defs><style>.a{fill:none;stroke:#000;stroke-linecap:round;stroke-linejoin:round;stroke-width:1.5px}</style></defs><rect width="22.5" height="13.5" x=".75" y="5.25" class="a" rx="3" ry="3"/><path d="M15.75 9.75a1.5 1.5 0 0 1 1.5-1.5l1.135.005A1.873 1.873 0 0 1 18.377 12a1.873 1.873 0 0 1 .008 3.745l-1.135.005a1.5 1.5 0 0 1-1.5-1.5m-7.5 1.485v-1.5m0 0V8.25a8.26 8.26 0 0 0-4.481 5.985zM12 9.375a.375.375 0 1 1-.375.375.375.375 0 0 1 .375-.375m0 4.5a.375.375 0 1 1-.375.375.375.375 0 0 1 .375-.375" class="a"/></svg>