<svg xmlns="http://www.w3.org/2000/svg" width="24" height="24" viewBox="0 0 24 24"><defs><style>.a{fill:none;stroke:#000;stroke-linecap:round;stroke-linejoin:round;stroke-width:1.5px}</style></defs><path d="M18.253 2.24A2.18 2.18 0 0 1 20.321.75 2.18 2.18 0 0 1 22.5 2.929a1.982 1.982 0 0 1-.58 1.4L18 8.25h4.5M8.25 7.5v-3m3 3v-3m-6 6h-3m3 6h-3m3-3h-3m9 9v-3m9-3h-3m-9 6v-3m6 3v-3m3-6V18a1.5 1.5 0 0 1-1.5 1.5h-9a1.5 1.5 0 0 1-1.5-1.5V9a1.5 1.5 0 0 1 1.5-1.5h6" class="a"/><rect width="6" height="6" x="8.25" y="10.5" class="a" rx=".75" ry=".75"/></svg>