<svg xmlns="http://www.w3.org/2000/svg" width="24" height="24" viewBox="0 0 24 24"><defs><style>.a{fill:none;stroke:#000;stroke-linecap:round;stroke-linejoin:round;stroke-width:1.5px}</style></defs><path d="M22.78 8.028 8.028 22.78a1.6 1.6 0 0 1-2.269 0L1.22 18.241a1.6 1.6 0 0 1 0-2.269L7.461 9.73l.477.1a1.605 1.605 0 0 0 1.888-1.892l-.1-.477 6.246-6.241a1.6 1.6 0 0 1 2.269 0l4.539 4.539a1.6 1.6 0 0 1 0 2.269" class="a"/><path d="m5.759 18.241 1.135 1.135 2.269-2.27-1.135-1.134m7.944-7.944 1.134 1.135 2.27-2.269-1.135-1.135m-7.943 7.943 1.135 1.135 3.404-3.404-1.135-1.135M2.355 14.837l1.134 1.135m1.135-3.405 1.135 1.135m6.808-9.078 1.135 1.135m1.135-3.404 1.135 1.134" class="a"/></svg>