<svg xmlns="http://www.w3.org/2000/svg" id="Regular" width="24" height="24" viewBox="0 0 24 24"><defs><style>.cls-1{fill:none;stroke:#000;stroke-linecap:round;stroke-linejoin:round;stroke-width:1.5px}</style></defs><path d="M15.25 2.25h3m-1.5-1.5v3m1.5 3.75h3M19.75 6v3" class="cls-1"/><circle cx="7.523" cy="6.001" r="4.5" class="cls-1"/><path d="m2.011 4.242 11.024 3.519M9.3 10.135l-4.354 9.41a1.5 1.5 0 0 1-1.818.8l-.335-.107a1.5 1.5 0 0 1-1.018-1.7l1.9-10.192m-.713 11.945-.913 2.858" class="cls-1"/><circle cx="14.429" cy="20.149" r="1.601" class="cls-1"/><path d="M22 18.423a1.6 1.6 0 1 1-1.6-1.6 1.6 1.6 0 0 1 1.6 1.6" class="cls-1"/><path d="M16.03 20.149v-6a1.282 1.282 0 0 1 .876-1.216l3.408-.871A1.281 1.281 0 0 1 22 13.281v5.142" class="cls-1"/></svg>