<svg xmlns="http://www.w3.org/2000/svg" width="24" height="24" viewBox="0 0 24 24"><defs><style>.a{fill:none;stroke:#000;stroke-linecap:round;stroke-linejoin:round;stroke-width:1.5px}</style></defs><path d="M.75 18.75h7.5m12 0h3m-22.5-4.5h7.5m-7.5-4.5h10.5m1.5-4.5H2.25a1.5 1.5 0 0 0-1.5 1.5v15a1.5 1.5 0 0 0 1.5 1.5h21" class="a"/><rect width="3" height="6.75" x="18.718" y=".407" class="a" rx="1" ry="1" transform="rotate(-135 20.218 3.782)"/><path d="m17.3 13.062 2.652-2.651a1.5 1.5 0 0 0 0-2.122l-2.12-2.121" class="a"/><path d="M11.58 17.81a.75.75 0 0 0 .974.974l6.981-2.775a1.5 1.5 0 0 0 .418-2.416l-3.182-3.182a1.5 1.5 0 0 0-2.416.418zm-6.33-3.56v4.5m1.5-9v4.5m3-9v4.5m-3 9v4.5m10.5-3v3" class="a"/></svg>