<svg xmlns="http://www.w3.org/2000/svg" width="24" height="24" viewBox="0 0 24 24"><defs><style>.a{fill:none;stroke:#000;stroke-linecap:round;stroke-linejoin:round;stroke-width:1.5px}</style></defs><rect width="6" height="3" x="3.331" y="8.211" class="a" rx=".75" ry=".75"/><path d="m10.936 12.968 5.834-5.833M23.134.861c-8.328-.947-12.244 7.71-10.022 9.932S24.083 9.216 23.134.861M7.831 14.414v-3.2h-3v3.253a5.608 5.608 0 0 0-4.044 5.369 5.5 5.5 0 0 0 .641 2.574 1.5 1.5 0 0 0 1.328.8h7.312a1.5 1.5 0 0 0 1.328-.8 5.5 5.5 0 0 0 .641-2.574 5.611 5.611 0 0 0-4.206-5.422m-6.93 4.297h11.022" class="a"/></svg>