<svg xmlns="http://www.w3.org/2000/svg" width="24" height="24" viewBox="0 0 24 24"><defs><style>.a{fill:none;stroke:#000;stroke-linecap:round;stroke-linejoin:round;stroke-width:1.5px}</style></defs><path d="m8.488 11.266 6.364-6.364 3.182 3.182-6.364 6.364zm13.259-6.895 1.06 1.061a1.5 1.5 0 0 1 0 2.121l-4.773 4.773m0-4.242 3.713-3.713a1.5 1.5 0 0 0 0-2.121l-1.061-1.061a1.5 1.5 0 0 0-2.121 0L14.852 4.9" class="a"/><path d="M10.079 16.039c-.878.878-4.242 1.06-4.242 1.06s.182-3.364 1.06-4.242a2.25 2.25 0 0 1 3.182 3.182M3.747 18.75H3a2.25 2.25 0 0 0 0 4.5h15.75" class="a"/></svg>