<svg xmlns="http://www.w3.org/2000/svg" width="24" height="24" viewBox="0 0 24 24"><defs><style>.a{fill:none;stroke:#000;stroke-linecap:round;stroke-linejoin:round;stroke-width:1.5px}</style></defs><path d="M23.25 5.25H.75v-3a1.5 1.5 0 0 1 1.5-1.5h19.5a1.5 1.5 0 0 1 1.5 1.5zm0 6v-3H.75v12a1.5 1.5 0 0 0 1.5 1.5h8.25M8.25.75l-1.5 4.5m10.5-4.5-1.5 4.5" class="a"/><circle cx="18.75" cy="18.75" r="4.5" class="a"/><path d="M18.75 18.375a.375.375 0 1 0 .375.375.375.375 0 0 0-.375-.375" class="a"/></svg>