<svg xmlns="http://www.w3.org/2000/svg" width="24" height="24" viewBox="0 0 24 24"><defs><style>.a{fill:none;stroke:#000;stroke-linecap:round;stroke-linejoin:round;stroke-width:1.5px}</style></defs><path d="m19.848 18.364-8.607-6.51-1.258-3.611 3.817.227 8.606 6.51a2.115 2.115 0 0 1 .411 2.963l-.008.01a2.114 2.114 0 0 1-2.961.411" class="a"/><path d="M15.746 6.042v-3a1.5 1.5 0 0 0-1.5-1.5h-12a1.5 1.5 0 0 0-1.5 1.5v15a1.5 1.5 0 0 0 1.5 1.5h7l3.5 3v-3h1.5a1.5 1.5 0 0 0 1.342-.829M3.746 4.542h4.5m-2.25 0v4.5m-2.25 3.75h3.75m-3.75 3h6" class="a"/></svg>