<svg xmlns="http://www.w3.org/2000/svg" width="24" height="24" viewBox="0 0 24 24"><defs><style>.a{fill:none;stroke:#000;stroke-linecap:round;stroke-linejoin:round;stroke-width:1.5px}</style></defs><path d="M6.75 12.75h-4.5a1.5 1.5 0 0 1-1.5-1.5v-9a1.5 1.5 0 0 1 1.5-1.5h12a1.5 1.5 0 0 1 1.5 1.5V9m3.829 1.165 2.585 1.292a.75.75 0 0 0 1.086-.671V2.714a.75.75 0 0 0-1.086-.671l-2.585 1.292a1.5 1.5 0 0 0-.829 1.342v4.146a1.5 1.5 0 0 0 .829 1.342M18.05 18.15a.75.75 0 0 0 0 1.2l4 3a.75.75 0 0 0 1.2-.6v-6a.75.75 0 0 0-1.2-.6z" class="a"/><rect width="3.001" height="9" x="11.999" y="14.25" class="a" rx=".75" ry=".75"/></svg>