<svg xmlns="http://www.w3.org/2000/svg" width="24" height="24" viewBox="0 0 24 24"><defs><style>.a{fill:none;stroke:#000;stroke-linecap:round;stroke-linejoin:round;stroke-width:1.5px}</style></defs><path d="M9 13.5H2.25A1.5 1.5 0 0 1 .75 12V3a1.5 1.5 0 0 1 1.5-1.5h12a1.5 1.5 0 0 1 1.5 1.5v6.75m3.829 1.165 2.586 1.292a.75.75 0 0 0 1.085-.671V3.464a.75.75 0 0 0-1.085-.671l-2.586 1.292a1.5 1.5 0 0 0-.829 1.342v4.146a1.5 1.5 0 0 0 .829 1.342" class="a"/><rect width="7.5" height="7.5" x="12.75" y="15" class="a" rx=".5" ry=".5"/></svg>