<svg xmlns="http://www.w3.org/2000/svg" width="24" height="24" viewBox="0 0 24 24"><defs><style>.a{fill:none;stroke:#000;stroke-linecap:round;stroke-linejoin:round;stroke-width:1.5px}</style></defs><path d="M23.25 6.75H.75v-4.5a1.5 1.5 0 0 1 1.5-1.5h19.5a1.5 1.5 0 0 1 1.5 1.5zm-22.5 3v10.5a1.5 1.5 0 0 0 1.5 1.5h4.5m16.5-10.5v-1.5m-15-9-1.5 6m10.5-6-1.5 6m1.2 11.4-4-3a.75.75 0 0 0-1.2.6v6a.75.75 0 0 0 1.2.6l4-3a.75.75 0 0 0 0-1.2" class="a"/><rect width="3.001" height="9" x="20.249" y="14.25" class="a" rx=".75" ry=".75"/></svg>