<svg xmlns="http://www.w3.org/2000/svg" width="24" height="24" viewBox="0 0 24 24"><defs><style>.a{fill:none;stroke:#000;stroke-linecap:round;stroke-linejoin:round;stroke-width:1.5px}</style></defs><path d="M17.133 2.261h1.628a1.5 1.5 0 0 1 1.5 1.5v6m-15-4.5h4.5v7.5h-4.5zm2.25-4.5a2.25 2.25 0 0 1 2.25 2.25v2.25h-4.5v-2.25a2.25 2.25 0 0 1 2.25-2.25" class="a"/><path d="M15.011.761a2.25 2.25 0 0 0-2.25 2.25v9.75h4.5v-9.75a2.25 2.25 0 0 0-2.25-2.25m-2.25 6h4.5m-16.5 16.5v-9a1.5 1.5 0 0 1 1.5-1.5h19.5a1.5 1.5 0 0 1 1.5 1.5v9" class="a"/></svg>