<svg xmlns="http://www.w3.org/2000/svg" id="Regular" width="24" height="24" viewBox="0 0 24 24"><defs><style>.cls-1{fill:none;stroke:#000;stroke-linecap:round;stroke-linejoin:round;stroke-width:1.5px}</style></defs><path d="M6 3.75H2.25a1.5 1.5 0 0 0-1.5 1.5V16.5a1.5 1.5 0 0 0 1.5 1.5H16.9a1.5 1.5 0 0 0 1.342-.829L20.25 13.5h1.5a1.5 1.5 0 0 0 1.5-1.5V9.75a1.5 1.5 0 0 0-1.5-1.5h-1.5l-2.012-3.671A1.5 1.5 0 0 0 16.9 3.75H15" class="cls-1"/><path d="M5.585 13.421 4.5 11.25h12l-1.085 2.171a1.5 1.5 0 0 1-1.342.829H6.927a1.5 1.5 0 0 1-1.342-.829M9 11.25V3c2.25 0 4.5 2.25 4.5 5.25H9M15.75 18l1.5 3M4.5 18 3 21" class="cls-1"/></svg>