<svg xmlns="http://www.w3.org/2000/svg" id="Regular" width="24" height="24" viewBox="0 0 24 24"><defs><style>.cls-1{fill:none;stroke:#000;stroke-linecap:round;stroke-linejoin:round;stroke-width:1.5px}</style></defs><path d="m7.117 10.921.858-5.939 10.392 1.5 2.125-2.118a1.5 1.5 0 0 1 2.544 1.276l-.353 2.444a3 3 0 0 1-2.265 2.487l-3.611 1.314a6.008 6.008 0 0 1-2.267.106zM1.608 7.094l2.969.428m-2.54-3.398.429-2.969M.75 13.032l.429-2.969" class="cls-1"/><path d="M15.4 6.055A3 3 0 1 0 9.46 5.2zM7.975 4.982l-1.484-.214a1.5 1.5 0 0 0-1.7 1.27l-.428 2.969a1.5 1.5 0 0 0 1.27 1.7l1.484.215m4.847.699L8.9 20.874a1.5 1.5 0 0 0 1.424 1.971H16.5" class="cls-1"/></svg>