<svg xmlns="http://www.w3.org/2000/svg" id="Regular" width="24" height="24" viewBox="0 0 24 24"><defs><style>.cls-1{fill:none;stroke:#000;stroke-linecap:round;stroke-linejoin:round;stroke-width:1.5px}</style></defs><path d="M9.793 12.811s2.683.717 3.887-.954c2.441-3.387-1.913-6.8-2.388-9.232a9.1 9.1 0 0 0-5.365 6.287c-.496 2.425.954 3.888 3.866 3.899m.017-3.882s-1.518 2.255.763 6.789" class="cls-1"/><path d="M4.5 4.125H2.25a1.5 1.5 0 0 0-1.5 1.5v11.25a1.5 1.5 0 0 0 1.5 1.5H16.9a1.5 1.5 0 0 0 1.342-.829l2.012-3.671h1.5a1.5 1.5 0 0 0 1.5-1.5v-2.25a1.5 1.5 0 0 0-1.5-1.5h-1.5l-2.016-3.671a1.5 1.5 0 0 0-1.338-.829h-1.15m0 14.25 1.5 3m-12.75-3-1.5 3" class="cls-1"/></svg>