<svg xmlns="http://www.w3.org/2000/svg" width="24" height="24" viewBox="0 0 24 24"><defs><style>.a{fill:none;stroke:#000;stroke-linecap:round;stroke-linejoin:round;stroke-width:1.5px}</style></defs><path d="M20.25 8.25v-6a1.5 1.5 0 0 0-1.5-1.5H2.25a1.5 1.5 0 0 0-1.5 1.5v12a1.5 1.5 0 0 0 1.5 1.5h9M.75 5.25h19.5M3.75 9h6m-6 3h3m7.5 1.369v9.881" class="a"/><path d="m14.25 18.869 1.29-.43a3.684 3.684 0 0 1 3.21.43 3.684 3.684 0 0 0 3.21.43l1.29-.43v-7l-1.29.43a3.684 3.684 0 0 1-3.21-.43 3.684 3.684 0 0 0-3.21-.43l-1.29.43z" class="a"/></svg>