<svg xmlns="http://www.w3.org/2000/svg" width="24" height="24" viewBox="0 0 24 24"><defs><style>.a{fill:none;stroke:#000;stroke-linecap:round;stroke-linejoin:round;stroke-width:1.5px}</style></defs><path d="M9 21h6m-3-3.75V21m5.25-12.75a1.5 1.5 0 0 1 1.5 1.5v6a1.5 1.5 0 0 1-1.5 1.5H6.75a1.5 1.5 0 0 1-1.5-1.5v-6a1.5 1.5 0 0 1 1.5-1.5" class="a"/><circle cx="2.25" cy="2.25" r="1.5" class="a"/><path d="m3.311 3.311 1.564 1.564" class="a"/><circle cx="21.75" cy="2.25" r="1.5" class="a"/><path d="m20.689 3.311-1.564 1.564" class="a"/><circle cx="2.25" cy="21.75" r="1.5" class="a"/><path d="m3.311 20.689 1.564-1.564" class="a"/><circle cx="21.75" cy="21.75" r="1.5" class="a"/><path d="m20.689 20.689-1.564-1.564M12.75 12.75a2.25 2.25 0 0 0 0-4.5 2.25 2.25 0 0 0 0-4.5h-3v9zm-3-4.5h3.187M12 3.75v-1.5m0 12v-1.5" class="a"/></svg>