<svg xmlns="http://www.w3.org/2000/svg" width="24" height="24" viewBox="0 0 24 24"><defs><style>.a{fill:none;stroke:#000;stroke-linecap:round;stroke-linejoin:round;stroke-width:1.5px}</style></defs><path d="M22.5 12a3.5 3.5 0 0 0-2.443-3.337 3.5 3.5 0 0 0-4.72-4.72 3.5 3.5 0 0 0-6.674 0 3.5 3.5 0 0 0-4.72 4.72 3.5 3.5 0 0 0 0 6.674 3.5 3.5 0 0 0 4.72 4.72 3.5 3.5 0 0 0 6.674 0 3.5 3.5 0 0 0 4.72-4.72A3.5 3.5 0 0 0 22.5 12M9 12h4.5M12 7.5V6m0 10.5V18" class="a"/><path d="M13.5 7.5a2.25 2.25 0 0 1 0 4.5 2.25 2.25 0 0 1 0 4.5H9v-9z" class="a"/></svg>