<svg xmlns="http://www.w3.org/2000/svg" width="24" height="24" viewBox="0 0 24 24"><defs><style>.a{fill:none;stroke:#000;stroke-linecap:round;stroke-linejoin:round;stroke-width:1.5px}</style></defs><path d="M16.684 10.5a6 6 0 1 0-9.368 0m3.184-.75v-6h2.25a1.5 1.5 0 0 1 0 3 1.5 1.5 0 0 1 0 3zm0-3h2.25m-.75-3V3m0 6.75v.75" class="a"/><rect width="9.75" height="6.75" x=".75" y="13.5" class="a" rx="1.5" ry="1.5"/><path d="M3 23.25h5.25m-2.625-3v3" class="a"/><rect width="9.75" height="6.75" x="13.5" y="13.5" class="a" rx="1.5" ry="1.5"/><path d="M15.75 23.25H21m-2.625-3v3" class="a"/></svg>