<svg xmlns="http://www.w3.org/2000/svg" width="24" height="24" viewBox="0 0 24 24"><defs><style>.a{fill:none;stroke:#000;stroke-linecap:round;stroke-linejoin:round;stroke-width:1.5px}</style></defs><circle cx="17.25" cy="16.5" r="6" class="a"/><path d="M15.75 19.5v-6H18a1.5 1.5 0 0 1 0 3 1.5 1.5 0 0 1 0 3zm0-3H18m-.75-3v-.75m0 6.75v.75" class="a"/><ellipse cx="6.75" cy="4.5" class="a" rx="6" ry="3"/><path d="M12.75 7.5c0 1.657-2.686 3-6 3s-6-1.343-6-3m12 1.5V4.5" class="a"/><path d="M.75 4.5v15c0 1.657 2.686 3 6 3A11.284 11.284 0 0 0 9 22.277" class="a"/><path d="M.75 16.5c0 1.657 2.686 3 6 3A11.284 11.284 0 0 0 9 19.277M.75 13.5c0 1.657 2.686 3 6 3A11.284 11.284 0 0 0 9 16.277M.75 10.5c0 1.657 2.686 3 6 3A11.284 11.284 0 0 0 9 13.277" class="a"/></svg>