<svg xmlns="http://www.w3.org/2000/svg" width="24" height="24" viewBox="0 0 24 24"><defs><style>.a{fill:none;stroke:#000;stroke-linecap:round;stroke-linejoin:round;stroke-width:1.5px}</style></defs><rect width="22.5" height="22.5" x=".752" y=".753" class="a" rx="1.5" ry="1.5"/><path d="M7.547 10.5a3 3 0 0 0-3 3V15a3 3 0 0 0 3 3m6-7.5h-1.5a1.5 1.5 0 0 0-1.5 1.5c0 2.25 3 2.25 3 4.5a1.5 1.5 0 0 1-1.5 1.5h-1.5m6-7.5v2.545a8.935 8.935 0 0 0 1.5 4.955 8.935 8.935 0 0 0 1.5-4.955V10.5" class="a"/></svg>