<svg xmlns="http://www.w3.org/2000/svg" width="24" height="24" viewBox="0 0 24 24"><defs><style>.a{fill:none;stroke:#000;stroke-linecap:round;stroke-linejoin:round;stroke-width:1.5px}</style></defs><path d="M22.5 12a3.5 3.5 0 0 0-2.443-3.337 3.5 3.5 0 0 0-4.72-4.72 3.5 3.5 0 0 0-6.674 0 3.5 3.5 0 0 0-4.72 4.72 3.5 3.5 0 0 0 0 6.674 3.5 3.5 0 0 0 4.72 4.72 3.5 3.5 0 0 0 6.674 0 3.5 3.5 0 0 0 4.72-4.72A3.5 3.5 0 0 0 22.5 12" class="a"/><path d="M9 7.5v2.25a3 3 0 0 0 6 0V7.5m-3 5.25V18m-2.25-3h4.5" class="a"/></svg>