<svg xmlns="http://www.w3.org/2000/svg" width="24" height="24" viewBox="0 0 24 24"><defs><style>.a{fill:none;stroke:#000;stroke-linecap:round;stroke-linejoin:round;stroke-width:1.5px}</style></defs><path d="M17.25 20.25a.375.375 0 1 1-.375.375.375.375 0 0 1 .375-.375m0-2.25v-3" class="a"/><path d="M23.063 20.682a1.774 1.774 0 0 1-1.587 2.568h-8.452a1.774 1.774 0 0 1-1.587-2.568l4.226-8.451a1.774 1.774 0 0 1 3.174 0zM3.75 6.75v9h4.5" class="a"/><path d="m3.75 12.75 2.689-2.689a1.5 1.5 0 0 1 2.122 0l.581.581a1.5 1.5 0 0 0 2.346-.289l.358-.6" class="a"/><path d="M7.5 20.25H2.25a1.5 1.5 0 0 1-1.5-1.5V2.25a1.5 1.5 0 0 1 1.5-1.5h10.629a1.5 1.5 0 0 1 1.06.439l2.872 2.872a1.5 1.5 0 0 1 .439 1.06V7.5" class="a"/></svg>