<svg xmlns="http://www.w3.org/2000/svg" width="24" height="24" viewBox="0 0 24 24"><defs><style>.a{fill:none;stroke:#000;stroke-linecap:round;stroke-linejoin:round;stroke-width:1.5px}</style></defs><path d="M5.955 7.5v11.25h13.5" class="a"/><path d="M11.955 18.75V10.5a.75.75 0 0 0-.75-.75h-1.5a.75.75 0 0 0-.75.75v8.25m9 0V13.5a.75.75 0 0 0-.75-.75h-1.5a.75.75 0 0 0-.75.75v5.25" class="a"/><path d="M22.455 21.75a1.5 1.5 0 0 1-1.5 1.5h-18a1.5 1.5 0 0 1-1.5-1.5V2.25a1.5 1.5 0 0 1 1.5-1.5h15A1.5 1.5 0 0 1 19 1.176l3 2.883a1.5 1.5 0 0 1 .453 1.073z" class="a"/></svg>