<svg xmlns="http://www.w3.org/2000/svg" width="24" height="24" viewBox="0 0 24 24"><defs><style>.a{fill:none;stroke:#000;stroke-linecap:round;stroke-linejoin:round;stroke-width:1.5px}</style></defs><circle cx="17.25" cy="17.25" r="6" class="a"/><path d="M17.25 20.25v-3m0-2.939a.375.375 0 1 0 .375.375.374.374 0 0 0-.375-.375M3.75 6.75v9h4.5" class="a"/><path d="m3.75 12.75 2.689-2.689a1.5 1.5 0 0 1 2.122 0l.581.581a1.5 1.5 0 0 0 2.346-.289l.358-.6" class="a"/><path d="M7.5 20.25H2.25a1.5 1.5 0 0 1-1.5-1.5V2.25a1.5 1.5 0 0 1 1.5-1.5h10.629a1.5 1.5 0 0 1 1.06.439l2.872 2.872a1.5 1.5 0 0 1 .439 1.06V8.25" class="a"/></svg>