<svg xmlns="http://www.w3.org/2000/svg" width="24" height="24" viewBox="0 0 24 24"><defs><style>.a{fill:none;stroke:#000;stroke-linecap:round;stroke-linejoin:round;stroke-width:1.5px}</style></defs><path d="M15 18.75h-3.75v3.75m11.417-3.017a5.572 5.572 0 0 1-10.74-.733m7.573-3h3.75V12m-11.417 3.017a5.572 5.572 0 0 1 10.74.733m-18.823-9v9h4.5" class="a"/><path d="m3.75 12.75 2.689-2.689a1.5 1.5 0 0 1 2.122 0l.581.581a1.5 1.5 0 0 0 2.346-.289l.358-.6" class="a"/><path d="M7.5 20.25H2.25a1.5 1.5 0 0 1-1.5-1.5V2.25a1.5 1.5 0 0 1 1.5-1.5h10.629a1.5 1.5 0 0 1 1.06.439l2.872 2.872a1.5 1.5 0 0 1 .439 1.06V7.5" class="a"/></svg>