<svg xmlns="http://www.w3.org/2000/svg" width="24" height="24" viewBox="0 0 24 24"><defs><style>.a{fill:none;stroke:#000;stroke-linecap:round;stroke-linejoin:round;stroke-width:1.5px}</style></defs><path d="M22.49 1.627a2.534 2.534 0 0 0-3.668 0L17.25 3.252l-1.572-1.625a2.534 2.534 0 0 0-3.668 0 2.747 2.747 0 0 0 0 3.793l4.682 4.841a.77.77 0 0 0 1.116 0L22.49 5.42a2.747 2.747 0 0 0 0-3.793M14.625 18a.375.375 0 0 1 .375.375m-.75 0a.375.375 0 0 1 .375-.375m0 .75a.375.375 0 0 1-.375-.375m.75 0a.375.375 0 0 1-.375.375" class="a"/><circle cx="17.25" cy="14.25" r="1.5" class="a"/><path d="M13.481 23.25a6.752 6.752 0 0 0-12.731 0m2.242-10.014v1a5.909 5.909 0 0 1-.86 3.273m9.107-4.273v1a5.918 5.918 0 0 0 .859 3.273M3 13.455a5.486 5.486 0 0 0 4.112-1.9 5.489 5.489 0 0 0 4.112 1.9" class="a"/><circle cx="7.115" cy="13.125" r="4.125" class="a"/></svg>