<svg xmlns="http://www.w3.org/2000/svg" width="24" height="24" viewBox="0 0 24 24"><path d="M16.419 11.25H7.581a1.5 1.5 0 0 0-1.272.705l-2.756 4.41a4.5 4.5 0 0 0 3.816 6.885h9.262a4.5 4.5 0 0 0 3.816-6.885l-2.756-4.41a1.5 1.5 0 0 0-1.272-.705m6.172-6.659c-.879.879-3.712 1.591-4.243 1.061s.182-3.364 1.061-4.243a2.25 2.25 0 0 1 3.182 3.182M14.25 11.25a5.329 5.329 0 0 1 3-4.5m-3-2.625a.375.375 0 1 1-.375.375.375.375 0 0 1 .375-.375m6.75 4.5a.375.375 0 1 1-.375.375.375.375 0 0 1 .375-.375M1.409 4.591c.879.879 3.712 1.591 4.243 1.061S5.47 2.288 4.591 1.409a2.25 2.25 0 0 0-3.182 3.182M9.75 11.25a5.329 5.329 0 0 0-3-4.5m3-2.625a.375.375 0 1 0 .375.375.375.375 0 0 0-.375-.375M3 8.625A.375.375 0 1 0 3.375 9 .375.375 0 0 0 3 8.625" style="fill:none;stroke:#000;stroke-linecap:round;stroke-linejoin:round;stroke-width:1.5px"/></svg>