<svg xmlns="http://www.w3.org/2000/svg" width="24" height="24" viewBox="0 0 24 24"><path d="M15.117 11.07H6.633a6.75 6.75 0 1 0 8.484 0m-10.605 7.5h12.726m-4.113 0-6-15m-3 3 4.667 1.167M10.125.945a.375.375 0 1 1-.375.375.375.375 0 0 1 .375-.375M2.625 3.2a.375.375 0 1 1-.375.375.375.375 0 0 1 .375-.375m0 6a.375.375 0 1 1-.375.375.375.375 0 0 1 .375-.375m9 1.87s4.5-3.75 4.5-7.5m-.826 3h3.826m.75-4.5a.375.375 0 1 1-.375.375.375.375 0 0 1 .375-.375m1.5 7.875a.375.375 0 1 1-.375.375.375.375 0 0 1 .375-.375" style="fill:none;stroke:#000;stroke-linecap:round;stroke-linejoin:round;stroke-width:1.5px"/></svg>