<svg xmlns="http://www.w3.org/2000/svg" id="Regular" width="24" height="24" viewBox="0 0 24 24"><defs><style>.cls-1{fill:none;stroke:#000;stroke-linecap:round;stroke-linejoin:round;stroke-width:1.5px}</style></defs><path d="M20.25 13.9v-2.65a6 6 0 0 0-4.5-5.811V4.5a3.75 3.75 0 0 0-7.5 0v.939a6 6 0 0 0-4.5 5.811v2.65a14.2 14.2 0 0 1-1.5 6.354h19.5a14.2 14.2 0 0 1-1.5-6.354" class="cls-1"/><path d="M2.25 20.25h19.5v3H2.25zm-1.5 0h22.5m-6 0H6.75v-9a3 3 0 0 1 3-3h4.5a3 3 0 0 1 3 3zM12 8.25v12" class="cls-1"/></svg>