<svg xmlns="http://www.w3.org/2000/svg" id="Regular" width="24" height="24" viewBox="0 0 24 24"><defs><style>.cls-1{fill:none;stroke:#000;stroke-linecap:round;stroke-linejoin:round;stroke-width:1.5px}</style></defs><path d="M17.029 16.713a4.946 4.946 0 0 1-.817 4.491 5.359 5.359 0 0 1-8.424 0 4.946 4.946 0 0 1-.817-4.491L9 11.25h6zM12 11.25l4.355-7.799" class="cls-1"/><circle cx="17.25" cy="2.25" r="1.5" class="cls-1"/><path d="M12 11.25 7.645 3.451" class="cls-1"/><circle cx="6.75" cy="2.25" r="1.5" class="cls-1"/><path d="m14.761 6.307 3.392 2.035" class="cls-1"/><circle cx="19.5" cy="9" r="1.5" class="cls-1"/><path d="M9.239 6.307 5.847 8.342" class="cls-1"/><circle cx="4.5" cy="9" r="1.5" class="cls-1"/><path d="M9.581 6.919 12 4.5" class="cls-1"/></svg>