<svg xmlns="http://www.w3.org/2000/svg" width="24" height="24" viewBox="0 0 24 24"><defs><style>.a{fill:none;stroke:#000;stroke-linecap:round;stroke-linejoin:round;stroke-width:1.5px}</style></defs><rect width="9" height="8.25" x="14.25" y="15" class="a" rx=".677" ry=".677"/><path d="M17.25 15h3v4.5h-3zm-15 5.25v-18a1.5 1.5 0 0 1 1.5-1.5h12a1.5 1.5 0 0 1 1.5 1.5V12m-6 8.25H1.5a.75.75 0 0 0-.75.75v1.5a.75.75 0 0 0 .75.75h9.75" class="a"/><path d="M13.5 9.375a.375.375 0 1 1-.375.375.375.375 0 0 1 .375-.375" class="a"/></svg>