<svg xmlns="http://www.w3.org/2000/svg" width="24" height="24" viewBox="0 0 24 24"><defs><style>.a{fill:none;stroke:#000;stroke-linecap:round;stroke-linejoin:round;stroke-width:1.5px}</style></defs><path d="M9 5.657a.3.3 0 0 1-.163.267.336.336 0 0 1-.324 0L6.75 5.125l-1.78.84a.335.335 0 0 1-.315-.009.3.3 0 0 1-.155-.262V.75H9z" class="a"/><path d="M9.75 12.75h-8.2a.8.8 0 0 1-.8-.8V1.55a.8.8 0 0 1 .8-.8h10.4" class="a"/><circle cx="18" cy="3.75" r="3" class="a"/><path d="M23.25 13.5a5.25 5.25 0 0 0-10.5 0v2.25H15l.75 7.5h4.5l.75-7.5h2.25zM21 3.75h-8.25" class="a"/></svg>