<svg xmlns="http://www.w3.org/2000/svg" width="24" height="24" viewBox="0 0 24 24"><defs><style>.a{fill:none;stroke:#000;stroke-linecap:round;stroke-linejoin:round;stroke-width:1.5px}</style></defs><path d="m13.5 17.931-7.425-7.425L15.1 2.345a3 3 0 0 1 4.134.1l2.328 2.328a3 3 0 0 1 .1 4.134z" class="a"/><path d="m6.075 10.506-1.356 1.357a1.5 1.5 0 0 0-.281 1.737 2.582 2.582 0 0 1 0 2.308l-.484.967 3.182 3.182.968-.484a2.58 2.58 0 0 1 2.307 0 1.5 1.5 0 0 0 1.731-.281l1.358-1.361z" class="a"/><path d="M4.382 17.298.75 20.931h4.5l1.382-1.383M9 22.431h14.25" class="a"/></svg>