<svg xmlns="http://www.w3.org/2000/svg" width="24" height="24" viewBox="0 0 24 24"><defs><style>.a{fill:none;stroke:#000;stroke-linecap:round;stroke-linejoin:round;stroke-width:1.5px}</style></defs><path d="M19.594.75s.025 1.572 2 3.712a4.139 4.139 0 0 1 .315.36 2.9 2.9 0 1 1-5.221 1.741A6.851 6.851 0 0 1 19.594.75" class="a"/><path d="M19.594 23.25a2.146 2.146 0 0 0 2.139-2.318L20.726 9.24a2.908 2.908 0 0 1-2.3-.018l-.968 11.71a2.147 2.147 0 0 0 2.136 2.318M13.5 6 11.25.75 9 6v15a2.25 2.25 0 0 0 2.25 2.25A2.25 2.25 0 0 0 13.5 21z" class="a"/><path d="m9 6 2.25 1.5L13.5 6M9 19.5h4.5m-4.5-3h4.5M6 18l-2.25 5.25L1.5 18V3A2.25 2.25 0 0 1 3.75.75 2.25 2.25 0 0 1 6 3zm-4.5 0H6M1.5 4.5H6M1.5 12H6" class="a"/></svg>