<svg xmlns="http://www.w3.org/2000/svg" width="24" height="24" viewBox="0 0 24 24"><defs><style>.a{fill:none;stroke:#000;stroke-linecap:round;stroke-linejoin:round;stroke-width:1.5px}</style></defs><path d="m16.02 13.8-5.278-9.077 6.484-3.77a1.5 1.5 0 0 1 2.051.543l3.77 6.484a1.5 1.5 0 0 1-.543 2.051z" class="a"/><path d="m16.02 13.8-5.278-9.077L8.36 9.578l2.262 3.891z" class="a"/><path d="m4.681 15.188-.754-1.297L8.36 9.578l2.262 3.891zm-1.993 1.791L.955 20.446a1.936 1.936 0 0 0 .363 2.236 1.937 1.937 0 0 0 2.74 0 1.936 1.936 0 0 0 .363-2.236z" class="a"/></svg>