<svg xmlns="http://www.w3.org/2000/svg" width="24" height="24" viewBox="0 0 24 24"><defs><style>.a{fill:none;stroke:#000;stroke-linecap:round;stroke-linejoin:round;stroke-width:1.5px}</style></defs><path d="M13.189 7.811 7.811 13.19" class="a"/><circle cx="14.25" cy="6.75" r="1.5" class="a"/><path d="M7.811 15.312a1.5 1.5 0 1 1 0-2.122 1.5 1.5 0 0 1 0 2.122M16.5 12h-2.008A2.492 2.492 0 0 0 12 14.492V16.5" class="a"/><rect width="3" height="3" x="16.5" y="10.5" class="a" rx=".75" ry=".75"/><rect width="3" height="3" x="10.5" y="16.5" class="a" rx=".75" ry=".75"/><path d="M22.5 21.75a1.5 1.5 0 0 1-1.5 1.5H3a1.5 1.5 0 0 1-1.5-1.5V2.25A1.5 1.5 0 0 1 3 .75h15a1.5 1.5 0 0 1 1.047.426l3 2.883a1.5 1.5 0 0 1 .453 1.074z" class="a"/></svg>