<svg xmlns="http://www.w3.org/2000/svg" width="24" height="24" viewBox="0 0 24 24"><defs><style>.a{fill:none;stroke:#000;stroke-linecap:round;stroke-linejoin:round;stroke-width:1.5px}</style></defs><path d="M15.75 23.25h-7.5l.75-3h6zm-9.75 0h12m-17.25-6h22.5m-3-13.5a3 3 0 0 1 3 3v10.5a3 3 0 0 1-3 3H3.75a3 3 0 0 1-3-3V6.75a3 3 0 0 1 3-3" class="a"/><path d="M12 7.875a.375.375 0 1 0 .375.375.375.375 0 0 0-.375-.375" class="a"/><rect width="9" height="6" x="7.5" y="5.25" class="a" rx=".375" ry=".375"/><path d="M9 5.25v-1.5a3 3 0 0 1 6 0v1.5" class="a"/></svg>