<svg xmlns="http://www.w3.org/2000/svg" width="24" height="24" viewBox="0 0 24 24"><defs><style>.a{fill:none;stroke:#000;stroke-linecap:round;stroke-linejoin:round;stroke-width:1.5px}</style></defs><path d="M21 18.75v-18H4.957A1.957 1.957 0 0 0 3 2.707V21" class="a"/><path d="M21 18.75H5.25A2.25 2.25 0 0 0 3 21a2.25 2.25 0 0 0 2.25 2.25H19.5v-4.5M6.844 10.435a.559.559 0 0 1 0-.62A6.522 6.522 0 0 1 12 6.75a6.522 6.522 0 0 1 5.156 3.065.559.559 0 0 1 0 .62A6.522 6.522 0 0 1 12 13.5a6.522 6.522 0 0 1-5.156-3.065m7.632-3.074-4.952 5.528" class="a"/></svg>