<svg xmlns="http://www.w3.org/2000/svg" width="24" height="24" viewBox="0 0 24 24"><path d="M6.844 4.435a.559.559 0 0 1 0-.62A6.522 6.522 0 0 1 12 .75a6.522 6.522 0 0 1 5.156 3.065.559.559 0 0 1 0 .62A6.522 6.522 0 0 1 12 7.5a6.522 6.522 0 0 1-5.156-3.065m7.632-3.074L9.524 6.889M12 23.25l-8.778-3.34a1.406 1.406 0 0 1-.972-1.338V11.25a1.406 1.406 0 0 1 1.841-1.337L12 12.971zm8.778-3.34L12 23.25V12.971l7.909-3.058a1.406 1.406 0 0 1 1.841 1.337v7.322a1.406 1.406 0 0 1-.972 1.338m-5.028-4.16L18 15" style="fill:none;stroke:#000;stroke-linecap:round;stroke-linejoin:round;stroke-width:1.5px"/></svg>