<svg xmlns="http://www.w3.org/2000/svg" id="Regular" width="24" height="24" viewBox="0 0 24 24"><defs><style>.cls-1{fill:none;stroke:#000;stroke-linecap:round;stroke-linejoin:round;stroke-width:1.5px}</style></defs><circle cx="19.5" cy="12.5" r="2.25" class="cls-1"/><path d="M5.266 13.263a.752.752 0 0 1 .45.149L9.5 16.25h6.25a1.506 1.506 0 0 1 .744.2l5.25 3a1.5 1.5 0 1 1-1.488 2.6l-4.9-2.8H9a1.493 1.493 0 0 1-.9-.3l-5.784-4.339a.75.75 0 0 1 .45-1.35zm8.984-.763a.75.75 0 0 1-.75.75H9.75a1.5 1.5 0 0 1 0-3h3.75a.75.75 0 0 1 .75.75zm-9.396 4.014 2.644-1.763M.75 3.9A4.668 4.668 0 0 0 4.5 2a4.668 4.668 0 0 0 3.75 1.9A4.668 4.668 0 0 0 12 2a4.668 4.668 0 0 0 3.75 1.9A4.668 4.668 0 0 0 19.5 2a4.668 4.668 0 0 0 3.75 1.9" class="cls-1"/></svg>