<svg xmlns="http://www.w3.org/2000/svg" id="Regular" width="24" height="24" viewBox="0 0 24 24"><defs><style>.cls-1{fill:none;stroke:#000;stroke-linecap:round;stroke-linejoin:round;stroke-width:1.5px}</style></defs><path d="m1.043 17.675 1.214-1.213a1 1 0 0 1 1.414 0l2.97 2.97-1.92 1.92a1 1 0 0 1-1.415 0L1.043 19.09a1 1 0 0 1 0-1.414M11.169 14.905l-4.527 4.527-2.628-2.627L12.422 8.4a5.911 5.911 0 0 1-1.253 6.505" class="cls-1"/><path d="M12.889 10.367 23.246.75H19.53M22.2 1.8 22 5.158c-.188 3.187-3.557 5.5-6.741 5.713l-2.364.153M9.4 20.609a1.486 1.486 0 0 1-.315 1.637l-.363.363a1.487 1.487 0 0 1-2.422-.465l-.711-1.661 2.627-2.627zm.706-4.641 1.25 1.875" class="cls-1"/></svg>