<svg xmlns="http://www.w3.org/2000/svg" id="Regular" width="24" height="24" viewBox="0 0 24 24"><defs><style>.cls-1{fill:none;stroke:#000;stroke-linecap:round;stroke-linejoin:round;stroke-width:1.5px}</style></defs><circle cx="11.973" cy="12" r="11.25" class="cls-1"/><circle cx="11.973" cy="12" r="3.75" class="cls-1"/><path d="M8.353 12.983a4.5 4.5 0 0 1-7.546-2.364m22.332 0a4.5 4.5 0 0 1-7.546 2.364" class="cls-1"/><circle cx="14.973" cy="5.25" r="1.5" class="cls-1"/><path d="M19.473 8.625A.375.375 0 1 1 19.1 9a.375.375 0 0 1 .375-.375m-10.502-4.5A.375.375 0 1 1 8.6 4.5a.375.375 0 0 1 .375-.375m-3.752 3.75a.375.375 0 1 1-.375.375.375.375 0 0 1 .375-.375" class="cls-1"/></svg>