<svg xmlns="http://www.w3.org/2000/svg" id="Regular" width="24" height="24" viewBox="0 0 24 24"><defs><style>.cls-1{fill:none;stroke:#000;stroke-linecap:round;stroke-linejoin:round;stroke-width:1.5px}</style></defs><path d="M17.25 20.25H6.75a1.5 1.5 0 0 1-1.5-1.5v-3h13.5v3a1.5 1.5 0 0 1-1.5 1.5m-10.5 0v3m10.5-3v3" class="cls-1"/><rect width="16.5" height="3" x="3.75" y="12.75" class="cls-1" rx=".75" ry=".75"/><path d="M16.8 12.75a8.745 8.745 0 0 0 1.2-4.5c0-4.142-2.686-7.5-6-7.5s-6 3.358-6 7.5a8.745 8.745 0 0 0 1.2 4.5z" class="cls-1"/></svg>