<svg xmlns="http://www.w3.org/2000/svg" id="Regular" width="24" height="24" viewBox="0 0 24 24"><defs><style>.cls-1{fill:none;stroke:#000;stroke-linecap:round;stroke-linejoin:round;stroke-width:1.5px}</style></defs><rect width="19.514" height="13.939" x="2.243" y="5.031" class="cls-1" rx="1.394" ry="1.394" transform="rotate(-45 12 12)"/><path d="M12.986 5.1a1.394 1.394 0 0 1 1.971 1.971l-1.971 1.972a1.394 1.394 0 0 1-1.972-1.971zm3.942 3.943a1.394 1.394 0 0 1 1.972 1.971l-1.971 1.972a1.394 1.394 0 0 1-1.971-1.972zm-9.856 1.971a1.394 1.394 0 0 1 1.971 1.972l-1.971 1.971A1.394 1.394 0 0 1 5.1 12.986zm3.942 3.943a1.394 1.394 0 0 1 1.972 1.971L11.014 18.9a1.394 1.394 0 0 1-1.971-1.971z" class="cls-1"/></svg>