<svg xmlns="http://www.w3.org/2000/svg" width="24" height="24" viewBox="0 0 24 24"><defs><style>.a{fill:none;stroke:#000;stroke-linecap:round;stroke-linejoin:round;stroke-width:1.5px}</style></defs><path d="m16.356 16.355 2.651 6.895 1.591-2.652 2.652-1.591zm6.894 6.895-2.652-2.652M4.5 12V4.5m0 0H6A1.5 1.5 0 0 1 7.5 6v.75A1.5 1.5 0 0 1 6 8.25H4.5m0 0H6a1.5 1.5 0 0 1 1.5 1.5v.75A1.5 1.5 0 0 1 6 12H4.5m6-7.5v6a1.5 1.5 0 0 0 3 0v-6m3 0v2.25a1.5 1.5 0 0 0 3 0V4.5M18 8.25V12" class="a"/><path d="M12.75 15.75h-9a3 3 0 0 1-3-3v-9a3 3 0 0 1 3-3h16.5a3 3 0 0 1 3 3v9a3 3 0 0 1-1.541 2.622" class="a"/></svg>