<svg xmlns="http://www.w3.org/2000/svg" width="24" height="24" viewBox="0 0 24 24"><defs><style>.a{fill:none;stroke:#000;stroke-linecap:round;stroke-linejoin:round;stroke-width:1.5px}</style></defs><path d="M19.5 21.75h2.25a1.5 1.5 0 0 0 1.5-1.5V3.865a1.62 1.62 0 0 0-1.616-1.615H2.357A1.612 1.612 0 0 0 .75 3.857v16.277a1.62 1.62 0 0 0 1.615 1.616H4.5m-3.75-15h22.5" class="a"/><path d="M15.749 15.75H8.078a1.5 1.5 0 0 0-1.4 2.026l1.308 3.487a.748.748 0 0 0 .7.487h6.46a.751.751 0 0 0 .7-.487l1.307-3.487a1.5 1.5 0 0 0-1.404-2.026m-7.586 0 1.5-3.75m6 3.75-1.5-3.75M10.5 19.5V18m3 1.5V18" class="a"/></svg>