<svg xmlns="http://www.w3.org/2000/svg" width="24" height="24" viewBox="0 0 24 24"><defs><style>.a{fill:none;stroke:#000;stroke-linecap:round;stroke-linejoin:round;stroke-width:1.5px}</style></defs><path d="M15.75 4.126v3.959l-3 .916-3-.916V4.126" class="a"/><path d="m18.75 3.001-6-2.25-6 2.25 6 2.25zm-12 0v3m13.5-.75v9a1.5 1.5 0 0 1-1.5 1.5H5.25a1.5 1.5 0 0 1-1.5-1.5v-9" class="a"/><path d="M21.748 23.251H2.252A1.5 1.5 0 0 1 .91 21.08l1.836-3.67a3 3 0 0 1 2.683-1.659h13.142a3 3 0 0 1 2.683 1.659l1.836 3.67a1.5 1.5 0 0 1-1.342 2.171m-11.248-3h3" class="a"/></svg>