<svg xmlns="http://www.w3.org/2000/svg" width="24" height="24" viewBox="0 0 24 24"><defs><style>.a{fill:none;stroke:#000;stroke-linecap:round;stroke-linejoin:round;stroke-width:1.5px}</style></defs><path d="M14.25 16.745V15m-3-3.375a.375.375 0 1 0 .375.375.375.375 0 0 0-.375-.375" class="a"/><path d="M17.25 12v10.5a.75.75 0 0 1-.75.75H15a.75.75 0 0 1-.75-.75v-5.755a5.255 5.255 0 0 1-6-1.071V8.326a5.25 5.25 0 0 1 9 3.674M.75 8.25a7.5 7.5 0 0 1 7.5-7.5m-4.5 7.5a4.5 4.5 0 0 1 4.5-4.5m15 4.5a7.5 7.5 0 0 0-7.5-7.5m4.5 7.5a4.5 4.5 0 0 0-4.5-4.5" class="a"/></svg>