<svg xmlns="http://www.w3.org/2000/svg" width="24" height="24" viewBox="0 0 24 24"><defs><style>.a{fill:none;stroke:#000;stroke-linecap:round;stroke-linejoin:round;stroke-width:1.5px}</style></defs><path d="M9.651 23a11.251 11.251 0 1 1 13.5-12.5M7.079 15.75a1.5 1.5 0 0 0 1.455-1.864l-.75-3A1.5 1.5 0 0 0 6.329 9.75H.976a11.246 11.246 0 0 0 4.016 11.042L6 15.75z" class="a"/><path d="M20.985 5.25h-4.064a1.5 1.5 0 0 0-1.455 1.136L14.987 8.3" class="a"/><ellipse cx="17.25" cy="17.25" class="a" rx="6.017" ry="5.975" transform="rotate(-45 17.25 17.25)"/><path d="m13.008 21.491 8.484-8.483" class="a"/></svg>