<svg xmlns="http://www.w3.org/2000/svg" id="Regular" width="24" height="24" viewBox="0 0 24 24"><defs><style>.cls-1{fill:none;stroke:#000;stroke-linecap:round;stroke-linejoin:round;stroke-width:1.5px}</style></defs><path d="M8.25 19.415a8.42 8.42 0 0 1-4.806-1.859c-1.569-1.569-3.328-7.132 0-10.456C7.244 3.3 19.135-.032 20.086.919c.479.479-.128 3.736-1.336 7.335M7.875 13.125.75 20.25" class="cls-1"/><path d="M23.25 15.75a7.669 7.669 0 0 1-6 7.5 7.669 7.669 0 0 1-6-7.5V13.5a1.5 1.5 0 0 1 1.5-1.5h9a1.5 1.5 0 0 1 1.5 1.5zm-6-.75v4.5M15 17.25h4.5" class="cls-1"/></svg>