<svg xmlns="http://www.w3.org/2000/svg" id="Regular" width="24" height="24" viewBox="0 0 24 24"><defs><style>.cls-1{fill:none;stroke:#000;stroke-linecap:round;stroke-linejoin:round;stroke-width:1.5px}</style></defs><path d="M12.75.75a10.485 10.485 0 0 0-8.917 16.025L.75 23.25l6.475-3.084A10.5 10.5 0 1 0 12.75.75" class="cls-1"/><circle cx="12.75" cy="11.25" r="6" class="cls-1"/><path d="M7.552 8.251H9a1.5 1.5 0 0 1 1.5 1.5v.7a1.5 1.5 0 0 0 .668 1.248l.958.639a1.4 1.4 0 0 1 0 2.332L9.6 16.354m8.348-8.103h-.7a1.5 1.5 0 0 0-1.342 2.171c.427.854.525.895.79 1.054l1.9 1.138" class="cls-1"/></svg>