<svg xmlns="http://www.w3.org/2000/svg" width="24" height="24" viewBox="0 0 24 24"><defs><style>.a{fill:none;stroke:#000;stroke-linecap:round;stroke-linejoin:round;stroke-width:1.5px}</style></defs><rect width="9" height="9" x="7.5" y="1.5" class="a" rx="1.5" ry="1.5"/><rect width="9" height="9" x="1.5" y="13.5" class="a" rx="1.5" ry="1.5"/><rect width="9" height="9" x="13.5" y="13.5" class="a" rx="1.5" ry="1.5"/><path d="M12 5.625a.375.375 0 0 1 .375.375m-.75 0A.375.375 0 0 1 12 5.625m0 .75A.375.375 0 0 1 11.625 6m.75 0a.375.375 0 0 1-.375.375m-6 11.25a.375.375 0 0 1 .375.375m-.75 0A.375.375 0 0 1 6 17.625m0 .75A.375.375 0 0 1 5.625 18m.75 0a.375.375 0 0 1-.375.375m12-.75a.375.375 0 0 1 .375.375m-.75 0a.375.375 0 0 1 .375-.375m0 .75a.375.375 0 0 1-.375-.375m.75 0a.375.375 0 0 1-.375.375" class="a"/></svg>