<svg xmlns="http://www.w3.org/2000/svg" width="24" height="24" viewBox="0 0 24 24"><defs><style>.a{fill:none;stroke:#000;stroke-linecap:round;stroke-linejoin:round;stroke-width:1.5px}</style></defs><rect width="22.5" height="22.5" x=".75" y=".75" class="a" rx="1.5" ry="1.5"/><circle cx="17.238" cy="17.25" r="3" class="a"/><path d="m3.75 20.25 3-6 3 6zm0-15.75h6v6h-6zm13.517-.508.867 2.289h1.687a.414.414 0 0 1 .292.719l-1.465 1.024.812 1.864a.442.442 0 0 1-.63.552l-1.961-1.1-1.961 1.1a.442.442 0 0 1-.63-.552l.812-1.864L13.625 7a.413.413 0 0 1 .29-.722H15.6l.868-2.289a.448.448 0 0 1 .799.003" class="a"/></svg>