<svg xmlns="http://www.w3.org/2000/svg" width="24" height="24" viewBox="0 0 24 24"><defs><style>.a{fill:none;stroke:#000;stroke-linecap:round;stroke-linejoin:round;stroke-width:1.5px}</style></defs><path d="M7.97.75h7.5v12h-7.5zm7.5 0 5.36 5.36a.375.375 0 0 1-.266.64H15.47m0 0 5.36 5.36a.375.375 0 0 1-.266.64H15.47" class="a"/><path d="M7.97 6.75H2.875a.375.375 0 0 1-.265-.64L7.97.75m0 6-5.36 5.36a.375.375 0 0 0 .265.64h5.1m7.495 0-7.5-12m0 12 7.5-12m-12 22.5 4.5-10.5m12 10.5-4.5-10.5m-8.162 1.544 11.23 5.615m-2.407-5.615-11.23 5.615" class="a"/></svg>