<svg xmlns="http://www.w3.org/2000/svg" width="24" height="24" viewBox="0 0 24 24"><defs><style>.a{fill:none;stroke:#000;stroke-linecap:round;stroke-linejoin:round;stroke-width:1.5px}</style></defs><path d="M17.947 11.68 19.488 15h3a.735.735 0 0 1 .518 1.283l-2.6 2.563 1.442 3.313a.786.786 0 0 1-1.119.982l-3.489-1.958-3.487 1.961a.786.786 0 0 1-1.119-.982l1.443-3.313-2.6-2.563A.734.734 0 0 1 11.988 15h3l1.544-3.323a.8.8 0 0 1 1.415.003" class="a"/><path d="M7.5 15.75H2.25a1.5 1.5 0 0 1-1.5-1.5v-12a1.5 1.5 0 0 1 1.5-1.5h18a1.5 1.5 0 0 1 1.5 1.5v7.5" class="a"/><path d="m21.411 1.3-8.144 6.264a3.308 3.308 0 0 1-4.034 0L1.089 1.3" class="a"/></svg>