<svg xmlns="http://www.w3.org/2000/svg" width="24" height="24" viewBox="0 0 24 24"><defs><style>.a{fill:none;stroke:#000;stroke-linecap:round;stroke-linejoin:round;stroke-width:1.5px}</style></defs><path d="M4.5 15.75H2.25a1.5 1.5 0 0 1-1.5-1.5v-12a1.5 1.5 0 0 1 1.5-1.5h18a1.5 1.5 0 0 1 1.5 1.5v9" class="a"/><path d="m1.118 1.269 8.111 6.2a3 3 0 0 0 4.041 0l8.11-6.2M17.25 12l-6 4.5 6 4.5v-2.25h4.5a1.5 1.5 0 0 0 1.5-1.5v-1.5a1.5 1.5 0 0 0-1.5-1.5h-4.5z" class="a"/><path d="m12.75 12-6 4.5 6 4.5" class="a"/></svg>