<svg xmlns="http://www.w3.org/2000/svg" width="24" height="24" viewBox="0 0 24 24"><defs><style>.a{fill:none;stroke:#000;stroke-linecap:round;stroke-linejoin:round;stroke-width:1.5px}</style></defs><path d="M19.5 12.88V2.25A1.5 1.5 0 0 0 18 .75H6a1.5 1.5 0 0 0-1.5 1.5v10.63" class="a"/><path d="M21.284 11.465a.75.75 0 0 1 1.216.587v9.7a1.5 1.5 0 0 1-1.5 1.5H3a1.5 1.5 0 0 1-1.5-1.5v-9.7a.75.75 0 0 1 1.216-.587l7.431 5.894a3 3 0 0 0 3.706 0z" class="a"/><circle cx="8.999" cy="11.301" r="1.5" class="a"/><circle cx="14.999" cy="9.801" r="1.5" class="a"/><path d="M16.5 9.8V4.972a1.5 1.5 0 0 0-1.864-1.455l-3 .75A1.5 1.5 0 0 0 10.5 5.722V11.3" class="a"/></svg>