<svg xmlns="http://www.w3.org/2000/svg" width="24" height="24" viewBox="0 0 24 24"><defs><style>.a{fill:none;stroke:#000;stroke-linecap:round;stroke-linejoin:round;stroke-width:1.5px}</style></defs><rect width="22.5" height="13.5" x=".75" y="9.75" class="a" rx="1.449" ry="1.449"/><path d="M8.25.75h-4.5a1.5 1.5 0 0 0-1.5 1.5v7.5h7.5v-7.5a1.5 1.5 0 0 0-1.5-1.5" class="a"/><circle cx="6" cy="5.25" r="1.5" class="a"/><path d="M20.25.75h-4.5a1.5 1.5 0 0 0-1.5 1.5v7.5h7.5v-7.5a1.5 1.5 0 0 0-1.5-1.5" class="a"/><circle cx="18" cy="5.25" r="1.5" class="a"/><path d="M4.125 20.25a.375.375 0 1 1-.375.375.375.375 0 0 1 .375-.375m3.75 0a.375.375 0 1 1-.375.375.375.375 0 0 1 .375-.375m-4.125-7.5h16.5v4.5H3.75zm12 7.5h4.5m-10.5-7.5v4.5" class="a"/></svg>