<svg xmlns="http://www.w3.org/2000/svg" id="Regular" width="24" height="24" viewBox="0 0 24 24"><defs><style>.cls-1{fill:none;stroke:#000;stroke-linecap:round;stroke-linejoin:round;stroke-width:1.5px}</style></defs><ellipse cx="5.25" cy="3" class="cls-1" rx="4.5" ry="2.25"/><path d="M.75 3v2.25a4.5 4.5 0 0 0 9 0V3m10.5 14.25 3 1.5-10.5 4.5-10.5-4.5 3-1.5" class="cls-1"/><path d="M16.165 18.75a1.5 1.5 0 0 0 1.3-2.244l-3.416-5.977a1.5 1.5 0 0 0-2.6 0l-3.417 5.977a1.5 1.5 0 0 0 1.3 2.244zm-5.665 0s4.36-2.848 4.36-6.807" class="cls-1"/></svg>