<svg xmlns="http://www.w3.org/2000/svg" id="Regular" width="24" height="24" viewBox="0 0 24 24"><defs><style>.cls-1{fill:none;stroke:#000;stroke-linecap:round;stroke-linejoin:round;stroke-width:1.5px}</style></defs><path d="M13.915 9.738a1.5 1.5 0 0 0 1.3-2.244L11.8 1.517a1.5 1.5 0 0 0-2.6 0L5.782 7.494a1.5 1.5 0 0 0 1.3 2.244zm-5.665 0s4.36-2.848 4.36-6.807M10.5 14.238c-5.385 0-9.75-2.015-9.75-4.5a3.1 3.1 0 0 1 1.5-2.4m16.5.001a3.1 3.1 0 0 1 1.5 2.4 2.476 2.476 0 0 1-.593 1.548" class="cls-1"/><ellipse cx="18" cy="16.488" class="cls-1" rx="5.25" ry="2.25"/><path d="M12.75 16.488v1.5a5.25 5.25 0 0 0 10.5 0v-1.5" class="cls-1"/></svg>