<svg xmlns="http://www.w3.org/2000/svg" id="Regular" width="24" height="24" viewBox="0 0 24 24"><defs><style>.cls-1{fill:none;stroke:#000;stroke-linecap:round;stroke-linejoin:round;stroke-width:1.5px}</style></defs><path d="M21.75 13.5a2.9 2.9 0 0 1 1.5 2.246c0 2.485-5.037 4.5-11.25 4.5S.75 18.235.75 15.75a2.269 2.269 0 0 1 .64-1.5" class="cls-1"/><path d="M5.59 11.808a1.572 1.572 0 0 0-.34.942c0 1.657 3.022 3 6.75 3s6.75-1.343 6.75-3c0-.8-.7-1.521-1.84-2.058" class="cls-1"/><path d="M6.836 7.23C4.979 7.764 3.75 8.694 3.75 9.75c0 1.657 3.022 3 6.75 3s6.75-1.343 6.75-3a1.417 1.417 0 0 0-.086-.48" class="cls-1"/><ellipse cx="13.5" cy="6.75" class="cls-1" rx="6.75" ry="3"/><path d="M15 6.375a.375.375 0 1 1-.375.375.375.375 0 0 1 .375-.375" class="cls-1"/></svg>