<svg xmlns="http://www.w3.org/2000/svg" width="24" height="24" viewBox="0 0 24 24"><defs><style>.a{fill:none;stroke:#000;stroke-linecap:round;stroke-linejoin:round;stroke-width:1.5px}</style></defs><circle cx="21" cy="3" r="2.25" class="a"/><path d="M17.706 17.221a1.5 1.5 0 0 1-1.177-1.765l.75-3.75A1.5 1.5 0 0 1 18.75 10.5h1.5V8.25a1.5 1.5 0 0 1 3 0V12a1.5 1.5 0 0 1-1.5 1.5h-1.771l-.508 2.545a1.515 1.515 0 0 1-1.765 1.176" class="a"/><circle cx="3" cy="6.75" r="2.25" class="a"/><path d="m4.529 19.8-.508-2.55H2.25a1.5 1.5 0 0 1-1.5-1.5V12a1.5 1.5 0 0 1 3 0v2.25h1.5a1.5 1.5 0 0 1 1.471 1.206l.75 3.75a1.5 1.5 0 0 1-2.942.589zm-3.779.45 1.438-.297M12 17.923v5.327m-2.25 0h4.5m-4.569-4.847 4.461-.924m7.49-1.549 1.587-.329" class="a"/></svg>