<svg xmlns="http://www.w3.org/2000/svg" width="24" height="24" viewBox="0 0 24 24"><defs><style>.a{fill:none;stroke:#000;stroke-linecap:round;stroke-linejoin:round;stroke-width:1.5px}</style></defs><path d="M13.342 1.756a1.5 1.5 0 0 0-2.683 0L1.086 20.9a1.5 1.5 0 0 0 1.341 2.171h19.146a1.5 1.5 0 0 0 1.342-2.171z" class="a"/><circle cx="14.25" cy="11.073" r="1.5" class="a"/><path d="M8.25 15.2a.375.375 0 1 1-.375.375.374.374 0 0 1 .375-.375m1.5-2.627 1.055 1.582a1.5 1.5 0 0 0 1.248.668h2.894a1.5 1.5 0 0 1 1.248.667l1.055 1.583" class="a"/><path d="m13.5 14.823-1.207 3.62a1.5 1.5 0 0 0 .363 1.535l.844.845" class="a"/><path d="m9 20.073.408-1.225a1.5 1.5 0 0 1 1.423-1.025H12.5" class="a"/></svg>