<svg xmlns="http://www.w3.org/2000/svg" width="24" height="24" viewBox="0 0 24 24"><defs><style>.a{fill:none;stroke:#000;stroke-linecap:round;stroke-linejoin:round;stroke-width:1.5px}</style></defs><path d="M2.083 12a9.927 9.927 0 0 1 19.853 0l-.716-.6a4.158 4.158 0 0 0-5.9.6 4.678 4.678 0 0 0-6.62 0 4.154 4.154 0 0 0-5.9-.6zm9.926-9.926V.75" class="a"/><circle cx="3.384" cy="17.142" r="2.625" class="a"/><circle cx="20.634" cy="17.142" r="2.625" class="a"/><circle cx="12.009" cy="17.142" r="2.625" class="a"/><path d="M.759 21.363a4.5 4.5 0 0 1 6.765 1.887h.346a4.5 4.5 0 0 1 8.279 0h.351a4.5 4.5 0 0 1 6.764-1.887" class="a"/></svg>