<svg xmlns="http://www.w3.org/2000/svg" width="24" height="24" viewBox="0 0 24 24"><defs><style>.a{fill:none;stroke:#000;stroke-linecap:round;stroke-linejoin:round;stroke-width:1.5px}</style></defs><circle cx="19.5" cy="5.25" r="3" class="a"/><path d="m17.812 20.25.188 1.5h3l.75-6h1.5V13.5a3.75 3.75 0 0 0-6-3" class="a"/><circle cx="4.5" cy="5.25" r="3" class="a"/><path d="M6.188 20.25 6 21.75H3l-.75-6H.75V13.5a3.75 3.75 0 0 1 6-3" class="a"/><circle cx="12" cy="9" r="2.25" class="a"/><path d="M12 12.75a3.75 3.75 0 0 0-3.75 3.75v.75h1.5l.75 4.5H12m0-9a3.75 3.75 0 0 1 3.75 3.75v.75h-1.5l-.75 4.5H12" class="a"/></svg>