<svg xmlns="http://www.w3.org/2000/svg" id="Regular" width="24" height="24" viewBox="0 0 24 24"><defs><style>.cls-1{fill:none;stroke:#000;stroke-linecap:round;stroke-linejoin:round;stroke-width:1.5px}</style></defs><path d="M21.148.75H2.852a.751.751 0 0 0-.733.587L.75 6a2.25 2.25 0 0 0 4.5 0 2.25 2.25 0 0 0 4.5 0 2.25 2.25 0 0 0 4.5 0 2.25 2.25 0 0 0 4.5 0 2.25 2.25 0 0 0 4.5 0l-1.369-4.663a.751.751 0 0 0-.733-.587M2.25 10.5v12.75m19.5-12.75v12.75m0-3.75H2.25" class="cls-1"/><circle cx="7.5" cy="17.25" r="2.25" class="cls-1"/><path d="M7.5 15 9 12.75" class="cls-1"/><circle cx="12" cy="17.25" r="2.25" class="cls-1"/><path d="m12 15 1.5-2.25" class="cls-1"/><circle cx="16.5" cy="17.25" r="2.25" class="cls-1"/><path d="m16.5 15 1.5-2.25" class="cls-1"/></svg>