<svg xmlns="http://www.w3.org/2000/svg" id="Regular" width="24" height="24" viewBox="0 0 24 24"><defs><style>.cls-1{fill:none;stroke:#000;stroke-linecap:round;stroke-linejoin:round;stroke-width:1.5px}</style></defs><path d="M2.25 11.25h19.5v12H2.25z" class="cls-1"/><path d="M7.75 14.25h8.5a1 1 0 0 1 1 1v8H6.75v-8a1 1 0 0 1 1-1m14-3h1.5l-3.5-6.99a1.5 1.5 0 0 0-.785-.722L12.557.973a1.5 1.5 0 0 0-1.114 0L5.029 3.538a1.5 1.5 0 0 0-.784.722L.75 11.25h1.5" class="cls-1"/><path d="M14.25 8.25h-4.5v-3L12 4.5l2.25.75zm-6.75 15 8.975-8.975m.025 8.975-8.975-8.975" class="cls-1"/></svg>