<svg xmlns="http://www.w3.org/2000/svg" id="Regular" width="24" height="24" viewBox="0 0 24 24"><defs><style>.cls-1{fill:none;stroke:#000;stroke-linecap:round;stroke-linejoin:round;stroke-width:1.5px}</style></defs><circle cx="8.25" cy="8.597" r="6.75" class="cls-1"/><path d="M10.11 11.82a3.788 3.788 0 0 0 1.19-1.005m-5.538.546a3.752 3.752 0 0 0 1.321.827M4.85 7.084A3.716 3.716 0 0 0 4.474 8.6m4.165-3.706a3.723 3.723 0 0 0-1.555.113m4.808 2.816A3.733 3.733 0 0 0 11.3 6.38" style="fill:none;stroke:#000;stroke-linecap:round;stroke-linejoin:round;stroke-width:1.5px;stroke-dasharray:1.046 2.091"/><path d="M8.25 1.847H15a6.75 6.75 0 0 1 0 13.5H8.25m-7.5 0h22.5M.75 19.1l1.607 2.636a.75.75 0 0 0 1.286 0L5.25 19.1m4.5 0 1.607 2.636a.75.75 0 0 0 1.286 0L14.25 19.1m4.5 0 1.607 2.636a.75.75 0 0 0 1.286 0L23.25 19.1" class="cls-1"/></svg>