<svg xmlns="http://www.w3.org/2000/svg" id="Regular" width="24" height="24" viewBox="0 0 24 24"><defs><style>.cls-1{fill:none;stroke:#000;stroke-linecap:round;stroke-linejoin:round;stroke-width:1.5px}</style></defs><path d="m21.359 6.14.27.27a4.294 4.294 0 0 1-.016 6.072l-9.131 9.132a4.294 4.294 0 0 1-6.073.015l-.27-.27m-3.498-3.498-.27-.27a4.294 4.294 0 0 1 .016-6.072l9.131-9.132a4.294 4.294 0 0 1 6.073-.015l.27.27" class="cls-1"/><rect width="24.393" height="5.71" x="-.197" y="9.145" class="cls-1" rx="2.855" ry="2.855" transform="rotate(-45 12 12)"/><path d="M6.417 18.593 6.74 17a1.442 1.442 0 0 1 1.126-1.126l.659-.133a1.44 1.44 0 0 0 1.125-1.128l.134-.659a1.442 1.442 0 0 1 1.125-1.126l.66-.133a1.442 1.442 0 0 0 1.125-1.126l.134-.659a1.44 1.44 0 0 1 1.125-1.126l.659-.133a1.442 1.442 0 0 0 1.126-1.126l.134-.659A1.437 1.437 0 0 1 17 6.741l1.595-.323" class="cls-1"/></svg>