<svg xmlns="http://www.w3.org/2000/svg" width="24" height="24" viewBox="0 0 24 24"><defs><style>.a{fill:none;stroke:#000;stroke-linecap:round;stroke-linejoin:round;stroke-width:1.5px}</style></defs><circle cx="8.25" cy="15.75" r="7.5" class="a"/><circle cx="8.25" cy="14.25" r="3" class="a"/><path d="M13.137 21.439a5.462 5.462 0 0 0-9.774 0M3.75 5.25v-3a1.5 1.5 0 0 1 1.5-1.5h10.629a1.5 1.5 0 0 1 1.06.439l5.872 5.872a1.5 1.5 0 0 1 .439 1.06V21.75a1.5 1.5 0 0 1-1.5 1.5h-4.5" class="a"/><path d="M23.25 8.25h-6a1.5 1.5 0 0 1-1.5-1.5v-6" class="a"/></svg>