<svg xmlns="http://www.w3.org/2000/svg" width="24" height="24" viewBox="0 0 24 24"><defs><style>.a{fill:none;stroke:#000;stroke-linecap:round;stroke-linejoin:round;stroke-width:1.5px}</style></defs><circle cx="17.249" cy="17.254" r="6" class="a"/><path d="m19.499 15.003-4.5 4.5m0-4.5 4.5 4.5m-11.25.751h-6a1.5 1.5 0 0 1-1.5-1.5v-16.5a1.5 1.5 0 0 1 1.5-1.5h10.629a1.5 1.5 0 0 1 1.06.439l2.872 2.871a1.5 1.5 0 0 1 .439 1.061v3.129" class="a"/><rect width="3" height="4.5" x="6.749" y="5.254" class="a" rx=".75" ry=".75"/><path d="M3.749 5.254v4.5m9-4.5v4.5" class="a"/><rect width="3" height="4.5" x="3.749" y="12.754" class="a" rx=".75" ry=".75"/></svg>