<svg xmlns="http://www.w3.org/2000/svg" width="24" height="24" viewBox="0 0 24 24"><defs><style>.a{fill:none;stroke:#000;stroke-linecap:round;stroke-linejoin:round;stroke-width:1.5px}</style></defs><circle cx="13.488" cy="18.004" r="2.25" class="a"/><circle cx="20.988" cy="21.004" r="2.25" class="a"/><circle cx="20.988" cy="13.504" r="2.25" class="a"/><path d="m15.412 16.849 3.65-2.19m-3.486 4.18 3.324 1.33m-10.662.085h-6a1.5 1.5 0 0 1-1.5-1.5v-16.5a1.5 1.5 0 0 1 1.5-1.5h10.628a1.5 1.5 0 0 1 1.061.439L16.8 4.064a1.5 1.5 0 0 1 .44 1.061v3.129" class="a"/><path d="m8.988 6.004 2.25 2.25-2.25 2.25m-3-4.5-2.25 2.25 2.25 2.25" class="a"/></svg>