<svg xmlns="http://www.w3.org/2000/svg" width="24" height="24" viewBox="0 0 24 24"><defs><style>.a{fill:none;stroke:#000;stroke-linecap:round;stroke-linejoin:round;stroke-width:1.5px}</style></defs><rect width="9" height="7.5" x="14.247" y="15.754" class="a" rx="1.5" ry="1.5"/><path d="M18.747 11.254a3 3 0 0 0-3 3v1.5h6v-1.5a3 3 0 0 0-3-3m0 7.904a.375.375 0 1 1-.375.375.375.375 0 0 1 .375-.375M10.5 20.254H2.247a1.5 1.5 0 0 1-1.5-1.5v-16.5a1.5 1.5 0 0 1 1.5-1.5h10.629a1.5 1.5 0 0 1 1.06.439l2.872 2.871a1.5 1.5 0 0 1 .439 1.061v3.129" class="a"/><rect width="3" height="4.5" x="6.747" y="5.254" class="a" rx=".75" ry=".75"/><path d="M3.747 5.254v4.5m9-4.5v4.5" class="a"/><rect width="3" height="4.5" x="3.747" y="12.754" class="a" rx=".75" ry=".75"/><path d="M9.747 12.754v4.5" class="a"/></svg>