<svg xmlns="http://www.w3.org/2000/svg" width="24" height="24" viewBox="0 0 24 24"><defs><style>.a{fill:none;stroke:#000;stroke-linecap:round;stroke-linejoin:round;stroke-width:1.5px}</style></defs><path d="M7.5 20.253H2.247a1.5 1.5 0 0 1-1.5-1.5v-16.5a1.5 1.5 0 0 1 1.5-1.5h10.629a1.5 1.5 0 0 1 1.06.44l2.872 2.871a1.5 1.5 0 0 1 .439 1.061v1.628" class="a"/><rect width="3" height="4.5" x="6.747" y="5.253" class="a" rx=".75" ry=".75"/><path d="M3.747 5.253v4.5m9-4.5v3" class="a"/><rect width="3" height="4.5" x="3.747" y="12.753" class="a" rx=".75" ry=".75"/><circle cx="15.747" cy="15.753" r="5.25" class="a"/><path d="m23.247 23.253-3.788-3.787" class="a"/></svg>