<svg xmlns="http://www.w3.org/2000/svg" width="24" height="24" viewBox="0 0 24 24"><defs><style>.a{fill:none;stroke:#000;stroke-linecap:round;stroke-linejoin:round;stroke-width:1.5px}</style></defs><circle cx="17.25" cy="17.254" r="6" class="a"/><path d="m19.924 15.509-2.905 3.874a.75.75 0 0 1-1.13.08l-1.5-1.5M8.25 20.254h-6a1.5 1.5 0 0 1-1.5-1.5v-16.5a1.5 1.5 0 0 1 1.5-1.5h10.629a1.5 1.5 0 0 1 1.061.439l2.871 2.871a1.5 1.5 0 0 1 .439 1.061v3.129" class="a"/><path d="m9 6.004 2.25 2.25L9 10.504m-3-4.5-2.25 2.25L6 10.504" class="a"/></svg>