<svg xmlns="http://www.w3.org/2000/svg" width="24" height="24" viewBox="0 0 24 24"><defs><style>.a{fill:none;stroke:#000;stroke-linecap:round;stroke-linejoin:round;stroke-width:1.5px}</style></defs><path d="M22.618 14.873 14.987 22.5l-3.75.75.75-3.75 7.631-7.631a2.115 2.115 0 0 1 2.991 0l.009.009a2.115 2.115 0 0 1 0 2.995M8.237 20.254h-6a1.5 1.5 0 0 1-1.5-1.5v-16.5a1.5 1.5 0 0 1 1.5-1.5h10.629a1.5 1.5 0 0 1 1.061.439L16.8 4.064a1.5 1.5 0 0 1 .439 1.061v3.129" class="a"/><path d="m8.987 6.004 2.25 2.25-2.25 2.25m-3-4.5-2.25 2.25 2.25 2.25" class="a"/></svg>