<svg xmlns="http://www.w3.org/2000/svg" width="24" height="24" viewBox="0 0 24 24"><defs><style>.a{fill:none;stroke:#000;stroke-linecap:round;stroke-linejoin:round;stroke-width:1.5px}</style></defs><path d="M3.75 6.75v-4.5a1.5 1.5 0 0 1 1.5-1.5h10.629a1.5 1.5 0 0 1 1.06.439l5.872 5.872a1.5 1.5 0 0 1 .439 1.06V21.75a1.5 1.5 0 0 1-1.5 1.5h-4.5" class="a"/><path d="M23.25 8.25h-6a1.5 1.5 0 0 1-1.5-1.5v-6M9 18.75h-.75a3.009 3.009 0 0 1-3-3 3.009 3.009 0 0 1 3-3H9m6.75 6H15a3.009 3.009 0 0 1-3-3 3.009 3.009 0 0 1 3-3h.75m-3 9.001a7.5 7.5 0 1 1 0-12" class="a"/></svg>