<svg xmlns="http://www.w3.org/2000/svg" id="Regular" width="24" height="24" viewBox="0 0 24 24"><defs><style>.cls-1{fill:none;stroke:#000;stroke-linecap:round;stroke-linejoin:round;stroke-width:1.5px}</style></defs><path d="M21.034 2.183a.717.717 0 0 0-.717-.717L13.941.75a.716.716 0 0 0-.506 1.223l7.092 7.092a.716.716 0 0 0 1.223-.506z" class="cls-1"/><path d="m14.449 2.987 5.066 5.066-6.893 6.892a1 1 0 0 1-1.414 0l-3.651-3.652a1 1 0 0 1 0-1.414zM9.382 13.118l-7.801 7.801m9.319-6.281a3.582 3.582 0 0 0 0 5.066m7.828-1.52-1.52 1.52m-2.026 2.026-1.52 1.52m5.066 0-1.52-1.52m-2.026-2.026-1.52-1.52" class="cls-1"/></svg>