<svg xmlns="http://www.w3.org/2000/svg" id="Regular" width="24" height="24" viewBox="0 0 24 24"><defs><style>.cls-1{fill:none;stroke:#000;stroke-linecap:round;stroke-linejoin:round;stroke-width:1.5px}</style></defs><path d="M.75 2.25h12m9 0h1.5m-6-1.5V3" class="cls-1"/><circle cx="17.25" cy="4.5" r="1.5" class="cls-1"/><path d="M12.75 8.25V9a2.25 2.25 0 0 0 4.5 0V6M.75 15s3.75 8.25 10.5 8.25c6 0 6.75-4.5 6.75-4.5s-.75-4.5-6.75-4.5C4.5 14.25.75 22.5.75 22.5m13.5-4.125a.375.375 0 0 1 .375.375m-.75 0a.375.375 0 0 1 .375-.375m0 .75a.375.375 0 0 1-.375-.375m.75 0a.375.375 0 0 1-.375.375" class="cls-1"/></svg>