<svg xmlns="http://www.w3.org/2000/svg" id="Regular" width="24" height="24" viewBox="0 0 24 24"><defs><style>.cls-1{fill:none;stroke:#000;stroke-linecap:round;stroke-linejoin:round;stroke-width:1.5px}</style></defs><circle cx="11.853" cy="3.751" r="3" class="cls-1"/><path d="m8.853 3.751-2.689 7.926M5.131 21.722A2.25 2.25 0 1 1 .87 20.276l2.681-7.9a1.5 1.5 0 0 1 1.9-.938l1.42.482a1.5 1.5 0 0 1 .939 1.9zm9.722-17.971 2.69 7.926m1.033 10.045a2.25 2.25 0 1 0 4.261-1.446l-2.681-7.9a1.5 1.5 0 0 0-1.9-.938l-1.42.482a1.5 1.5 0 0 0-.939 1.9z" class="cls-1"/></svg>