<svg xmlns="http://www.w3.org/2000/svg" id="Regular" width="24" height="24" viewBox="0 0 24 24"><defs><style>.cls-1{fill:none;stroke:#000;stroke-linecap:round;stroke-linejoin:round;stroke-width:1.5px}</style></defs><path d="M16.318 1.189a1.5 1.5 0 0 0 0 2.121l4.371 4.371a1.5 1.5 0 0 0 2.122-2.121l-4.372-4.371a1.5 1.5 0 0 0-2.121 0" class="cls-1"/><path d="M12.075 1.188a1.5 1.5 0 0 0 0 2.122l8.615 8.615A1.5 1.5 0 1 0 22.811 9.8L14.2 1.188a1.5 1.5 0 0 0-2.125 0M1.189 16.318a1.5 1.5 0 0 1 2.122 0l4.371 4.371a1.5 1.5 0 0 1-2.121 2.121l-4.372-4.371a1.5 1.5 0 0 1 0-2.121" class="cls-1"/><path d="M1.189 12.074a1.5 1.5 0 0 1 2.121 0l8.615 8.615A1.5 1.5 0 0 1 9.8 22.811L1.189 14.2a1.5 1.5 0 0 1 0-2.126" class="cls-1"/><path d="m6.556 15.321 8.765-8.764 2.12 2.121-8.764 8.765z" class="cls-1"/></svg>