<svg xmlns="http://www.w3.org/2000/svg" id="Regular" width="24" height="24" viewBox="0 0 24 24"><defs><style>.cls-1{fill:none;stroke:#000;stroke-linecap:round;stroke-linejoin:round;stroke-width:1.5px}</style></defs><ellipse cx="16.84" cy="20.789" class="cls-1" rx="4.987" ry="2.113" transform="rotate(-20.883 16.842 20.789)"/><ellipse cx="7.521" cy="20.789" class="cls-1" rx="2.113" ry="4.987" transform="rotate(-69.117 7.52 20.79)"/><path d="m18.515.906-.663.441a6 6 0 0 0-2.671 4.993v-.726a6 6 0 0 0-1.758-4.243l-.182-.182a1.5 1.5 0 0 0-2.121 0l-.182.182a6 6 0 0 0-1.757 4.243v.726a6 6 0 0 0-2.672-4.993L5.847.906a.75.75 0 0 0-1.166.624v6.4a7.717 7.717 0 0 0 6.763 7.787 7.5 7.5 0 0 0 8.237-7.467V1.53a.75.75 0 0 0-1.166-.624M12.181 15.75v7.5" class="cls-1"/></svg>