<svg xmlns="http://www.w3.org/2000/svg" width="24" height="24" viewBox="0 0 24 24"><defs><style>.a{fill:none;stroke:#000;stroke-linecap:round;stroke-linejoin:round;stroke-width:1.5px}</style></defs><path d="M.75 12.75V2.25a1.5 1.5 0 0 1 1.5-1.5h19.5a1.5 1.5 0 0 1 1.5 1.5v10.5M3 12.75h2.25m3 0h2.25m3 0h2.25m3 0H21m-15.75 3v7.5h-3a1.5 1.5 0 0 1-1.5-1.5v-6m9 0v7.5h-4.5v-7.5m9 0v6a1.5 1.5 0 0 1-1.5 1.5h-3v-7.5" class="a"/><rect width="6" height="6" x="3.75" y="3.75" class="a" rx=".5" ry=".5"/><path d="M12.75 3.75h7.5m-7.5 3h7.5m-4.5 3h4.5" class="a"/></svg>