<svg xmlns="http://www.w3.org/2000/svg" width="24" height="24" viewBox="0 0 24 24"><path d="M16.522 10.411V4.875a.751.751 0 0 0-.415-.671l-3.75-1.875a.752.752 0 0 0-.67 0L7.937 4.2a.749.749 0 0 0-.415.671v5.536l4.5 2.25zm-4.5 8.25v-6l-4.5-2.25-4.085 2.043a.749.749 0 0 0-.415.671V18.2a.749.749 0 0 0 .415.671l3.75 1.875a.752.752 0 0 0 .67 0zm8.585.208a.751.751 0 0 0 .415-.671v-5.073a.751.751 0 0 0-.415-.671l-4.085-2.043-4.5 2.25v6l4.165 2.083a.752.752 0 0 0 .67 0z" style="fill:none;stroke:#000;stroke-linecap:round;stroke-linejoin:round;stroke-width:1.5px"/></svg>