<svg xmlns="http://www.w3.org/2000/svg" id="Regular" width="24" height="24" viewBox="0 0 24 24"><defs><style>.cls-1{fill:none;stroke:#000;stroke-linecap:round;stroke-linejoin:round;stroke-width:1.5px}</style></defs><rect width="3" height="9" x="10.522" y="1" class="cls-1" rx="1" ry="1"/><path d="M14.57 7.75h-1.048V4h8.467a1.282 1.282 0 0 1 1.283 1.282 1.284 1.284 0 0 1-.93 1.234l-.28.08A24.907 24.907 0 0 1 14.57 7.75m-4.048 0-8.169 3.4a1.349 1.349 0 0 0-.831 1.25 1.349 1.349 0 0 0 1.35 1.35h1.65a6 6 0 0 0 6-6" class="cls-1"/><path d="m13.522 7.75 8.169 3.4a1.349 1.349 0 0 1 .831 1.246 1.349 1.349 0 0 1-1.35 1.35h-1.65a6 6 0 0 1-6-6zm-4.048 0h1.048V4H2.055A1.282 1.282 0 0 0 .772 5.282 1.284 1.284 0 0 0 1.7 6.516l.28.08A24.907 24.907 0 0 0 9.474 7.75M12.022 10v12.75" class="cls-1"/></svg>