<svg xmlns="http://www.w3.org/2000/svg" width="24" height="24" viewBox="0 0 24 24"><path d="M10.875 7.936a2.25 2.25 0 1 1 2.294 0m.925 4.039a19.25 19.25 0 0 0-.572 4.67v5.105a1.5 1.5 0 0 1-3 0v-5.105a19.4 19.4 0 0 0-.572-4.67 5.6 5.6 0 0 1-.178-1.35c0-1.726 1.007-3.125 2.25-3.125s2.25 1.4 2.25 3.125a5.6 5.6 0 0 1-.178 1.35M12.022 3.75v-3m-1.5 18h3m.75-8s3-2.375 5.25-2.375c3.75 0 3.75 4.5 0 4.5-2.25 0-5.25-2.125-5.25-2.125m-4.5 0s-3-2.375-5.25-2.375c-3.75 0-3.75 4.5 0 4.5 2.25 0 5.25-2.125 5.25-2.125m7.5-4.75a5.958 5.958 0 0 1 5.25-3m-4.5 12.75s1.929 3 4.5 3m-6-.75a5.454 5.454 0 0 0 3.75 3.75M6.772 6a5.958 5.958 0 0 0-5.25-3m4.5 12.75s-1.929 3-4.5 3m6-.75a5.454 5.454 0 0 1-3.75 3.75" style="fill:none;stroke:#000;stroke-linecap:round;stroke-linejoin:round;stroke-width:1.5px"/></svg>