<svg xmlns="http://www.w3.org/2000/svg" width="24" height="24" viewBox="0 0 24 24"><defs><style>.a{fill:none;stroke:#000;stroke-linecap:round;stroke-linejoin:round;stroke-width:1.5px}</style></defs><path d="M9.75 17.25V11.8A2.155 2.155 0 0 1 12 9.75a2.155 2.155 0 0 1 2.25 2.05v5.45m-4.5-3h4.5" class="a"/><path d="m17.52 6-1.477-2.309A1.5 1.5 0 0 0 14.779 3H9.221a1.5 1.5 0 0 0-1.263.691L6.48 6H2.25a1.5 1.5 0 0 0-1.5 1.5v12a1.5 1.5 0 0 0 1.5 1.5h19.5a1.5 1.5 0 0 0 1.5-1.5v-12a1.5 1.5 0 0 0-1.5-1.5z" class="a"/></svg>