<svg xmlns="http://www.w3.org/2000/svg" width="24" height="24" viewBox="0 0 24 24"><defs><style>.a{fill:none;stroke:#000;stroke-linecap:round;stroke-linejoin:round;stroke-width:1.5px}</style></defs><path d="M18.75 7.875a.375.375 0 1 1-.375.375.375.375 0 0 1 .375-.375" class="a"/><rect width="9" height="6" x="14.25" y="5.25" class="a" rx=".25" ry=".25"/><path d="M15.75 5.25v-1.5a3 3 0 0 1 6 0v1.5m-4.5 18a1.5 1.5 0 0 0 1.5-1.5v-6a1.5 1.5 0 0 0-1.5-1.5h-9v-1.5a1.5 1.5 0 0 0-1.5-1.5h-4.5a1.5 1.5 0 0 0-1.5 1.5v9a1.5 1.5 0 0 0 1.5 1.5zm6-9v4.5a1.5 1.5 0 0 1-1.5 1.5h-3m-12-9v-9a1.5 1.5 0 0 1 1.5-1.5h4.5" class="a"/></svg>