<svg xmlns="http://www.w3.org/2000/svg" width="24" height="24" viewBox="0 0 24 24"><defs><style>.a{fill:none;stroke:#000;stroke-linecap:round;stroke-linejoin:round;stroke-width:1.5px}</style></defs><path d="M11.25 18.75H2.447M20.25 8.25v-3a1.5 1.5 0 0 0-1.5-1.5H8.25v-1.5a1.5 1.5 0 0 0-1.5-1.5h-4.5a1.5 1.5 0 0 0-1.5 1.5v14.8a1.7 1.7 0 0 0 3.336.438l2.351-8.154A1.5 1.5 0 0 1 7.879 8.25H21.75" class="a"/><rect width="9" height="7.5" x="14.25" y="15.75" class="a" rx="1" ry="1"/><path d="M18.75 11.25a3 3 0 0 0-3 3v1.5h6v-1.5a3 3 0 0 0-3-3m0 7.904a.375.375 0 1 1-.375.375.375.375 0 0 1 .375-.375" class="a"/></svg>