<svg xmlns="http://www.w3.org/2000/svg" width="24" height="24" viewBox="0 0 24 24"><defs><style>.a{fill:none;stroke:#000;stroke-linecap:round;stroke-linejoin:round;stroke-width:1.5px}</style></defs><path d="M18.75 6.75v-1.5a1.5 1.5 0 0 0-1.5-1.5h-9v-1.5a1.5 1.5 0 0 0-1.5-1.5h-4.5a1.5 1.5 0 0 0-1.5 1.5v16.3" class="a"/><path d="M3.75 20.25v-12a1.5 1.5 0 0 1 1.5-1.5h15a1.5 1.5 0 0 1 1.5 1.5v1.5" class="a"/><rect width="16.5" height="13.5" x="6.75" y="9.75" class="a" rx="1.5" ry="1.5"/><path d="M11.25 13.875a.375.375 0 1 1-.375.375.375.375 0 0 1 .375-.375m9 6.375-2.91-4.365a.75.75 0 0 0-1.24-.015l-2 2.851-1.236-.989a.751.751 0 0 0-1.093.17l-1.559 2.348" class="a"/></svg>