<svg xmlns="http://www.w3.org/2000/svg" width="24" height="24" viewBox="0 0 24 24"><defs><style>.a{fill:none;stroke:#000;stroke-linecap:round;stroke-linejoin:round;stroke-width:1.5px}</style></defs><path d="M8.25 18.75H2.447M20.25 8.25v-3a1.5 1.5 0 0 0-1.5-1.5H8.25v-1.5a1.5 1.5 0 0 0-1.5-1.5h-4.5a1.5 1.5 0 0 0-1.5 1.5v14.8a1.7 1.7 0 0 0 3.336.438l2.351-8.154A1.5 1.5 0 0 1 7.879 8.25H21.75" class="a"/><circle cx="13.5" cy="18" r="2.25" class="a"/><circle cx="21" cy="21" r="2.25" class="a"/><circle cx="21" cy="13.5" r="2.25" class="a"/><path d="m15.425 16.845 3.65-2.19m-3.487 4.18 3.324 1.33" class="a"/></svg>