<svg xmlns="http://www.w3.org/2000/svg" width="24" height="24" viewBox="0 0 24 24"><defs><style>.a{fill:none;stroke:#000;stroke-linecap:round;stroke-linejoin:round;stroke-width:1.5px}</style></defs><path d="M21.75 9V6a1.5 1.5 0 0 0-1.5-1.5h-12V3a1.5 1.5 0 0 0-1.5-1.5h-4.5A1.5 1.5 0 0 0 .75 3v17.8a1.7 1.7 0 0 0 3.336.438l2.352-11.154A1.5 1.5 0 0 1 7.879 9za1.5 1.5 0 0 1 1.45 1.886l-2.2 10.5a1.5 1.5 0 0 1-1.45 1.114H2.447" class="a"/><circle cx="10.5" cy="18" r="1.5" class="a"/><circle cx="16.5" cy="17.25" r="1.5" class="a"/><path d="M18 17.25V13.5a1.5 1.5 0 0 0-1.863-1.455l-3 .75A1.5 1.5 0 0 0 12 14.25V18" class="a"/></svg>