<svg xmlns="http://www.w3.org/2000/svg" id="Regular" width="24" height="24" viewBox="0 0 24 24"><defs><style>.cls-1{fill:none;stroke:#000;stroke-linecap:round;stroke-linejoin:round;stroke-width:1.5px}</style></defs><path d="m7.5 11.25 7.5 7.5m0-7.5-7.5 7.5m12 2.25a1.5 1.5 0 0 1-1.5 1.5H4.5A1.5 1.5 0 0 1 3 21V6a1.5 1.5 0 0 1 1.5-1.5h9.75l5.25 5.25zM4.5 4.5V3A1.5 1.5 0 0 1 6 1.5h4.5A1.5 1.5 0 0 1 12 3v1.5" class="cls-1"/><path d="m15 5.25 1.189-1.189a1.5 1.5 0 0 1 2.122 0l1.628 1.628a1.5 1.5 0 0 1 0 2.122L18.75 9" class="cls-1"/></svg>