<svg xmlns="http://www.w3.org/2000/svg" id="Regular" width="24" height="24" viewBox="0 0 24 24"><defs><style>.cls-1{fill:none;stroke:#000;stroke-linecap:round;stroke-linejoin:round;stroke-width:1.5px}</style></defs><circle cx="12" cy="12" r="11.25" class="cls-1"/><path d="M9.531 6.6a2.053 2.053 0 0 0-2.9 2.9c.8.8 3.873.969 3.873.969S10.334 7.4 9.531 6.6m4.937 0a2.054 2.054 0 1 1 2.905 2.9c-.8.8-3.873.969-3.873.969s.166-3.069.968-3.869M9.531 17.373a2.054 2.054 0 0 1-2.9-2.905c.8-.8 3.873-.968 3.873-.968s-.17 3.071-.973 3.873m4.937 0a2.054 2.054 0 0 0 2.905-2.905c-.8-.8-3.873-.968-3.873-.968s.166 3.071.968 3.873" class="cls-1"/></svg>