<svg xmlns="http://www.w3.org/2000/svg" id="Regular" width="24" height="24" viewBox="0 0 24 24"><defs><style>.cls-1{fill:none;stroke:#000;stroke-linecap:round;stroke-linejoin:round;stroke-width:1.5px}</style></defs><path d="M12.881 19h-7.76M2.25 17.631V16a3 3 0 0 1 3-3h7.5a3 3 0 0 1 3 3v1.631M6 13v-1.5A1.5 1.5 0 0 1 7.5 10h3a1.5 1.5 0 0 1 1.5 1.5V13" class="cls-1"/><path d="M15.75 16v-5.42a1.5 1.5 0 0 1 .39-1.009l7.11-7.821" class="cls-1"/><circle cx="3" cy="19.75" r="2.25" class="cls-1"/><circle cx="15" cy="19.75" r="2.25" class="cls-1"/><path d="M21.211 3.993 18.75 2.062" class="cls-1"/></svg>