<svg xmlns="http://www.w3.org/2000/svg" id="Regular" width="24" height="24" viewBox="0 0 24 24"><defs><style>.cls-1{fill:none;stroke:#000;stroke-linecap:round;stroke-linejoin:round;stroke-width:1.5px}</style></defs><path d="m7.62 7.553 6.895 6.895M10.98 17.984l7.07-7.071a1 1 0 0 1 1.414 0l1.415 1.414-8.486 8.485-1.414-1.414a1 1 0 0 1 0-1.414M12.393 20.812l2.122 2.121m.53-4.773 2.121 2.121m1.061-5.303 2.121 2.121m.531-4.773L23 14.448M8.151 5.962a.75.75 0 0 1 0 1.061L7.09 8.084a.751.751 0 0 1-1.061 0L1.256 3.311a1.5 1.5 0 0 1 2.122-2.122z" class="cls-1"/></svg>