<svg xmlns="http://www.w3.org/2000/svg" id="Regular" width="24" height="24" viewBox="0 0 24 24"><defs><style>.cls-1{fill:none;stroke:#000;stroke-linecap:round;stroke-linejoin:round;stroke-width:1.5px}</style></defs><path d="m12.861 9.622 4.274-8.547a.59.59 0 0 1 .976-.121 4.567 4.567 0 0 1 .565 5.1l-3.567 6.727m-3.932-3.159L6.9 1.075a.591.591 0 0 0-.972-.121 4.563 4.563 0 0 0-.565 5.1l3.567 6.73" class="cls-1"/><path d="m16.391 22.3-4.372-7.275L7.647 22.3a1.875 1.875 0 0 1-3.256-1.86l6-10.125a1.95 1.95 0 0 1 3.256 0l6 10.125a1.875 1.875 0 1 1-3.256 1.86" class="cls-1"/></svg>