<svg xmlns="http://www.w3.org/2000/svg" width="24" height="24" viewBox="0 0 24 24"><defs><style>.a{fill:none;stroke:#000;stroke-linecap:round;stroke-linejoin:round;stroke-width:1.5px}</style></defs><path d="M15.75.75a3 3 0 0 0-3 3v3h-9a3 3 0 0 0-3 3v10.5a3 3 0 0 0 3 3h16.5a3 3 0 0 0 3-3V3.75a3 3 0 0 0-3-3z" class="a"/><path d="M20.25 5.25a1.5 1.5 0 0 0-1.5-1.5h-1.5a1.5 1.5 0 0 0 0 3h1.5a1.5 1.5 0 0 0 1.5-1.5m-15.5-1.5h4a1 1 0 0 1 1 1v2h-6v-2a1 1 0 0 1 1-1m2 6 10.5 10.5m-10.5 0 10.5-10.5" class="a"/></svg>