<svg xmlns="http://www.w3.org/2000/svg" width="24" height="24" viewBox="0 0 24 24"><path d="m3.94 15.715 1.46-.342m4.92 7.875-2.169-9.287a3.75 3.75 0 0 0-7.3 1.705l1.77 7.582m17.436-7.533-1.46-.342m2.782 7.875 1.77-7.582a3.75 3.75 0 1 0-7.3-1.7l-2.169 9.287M6.561 6.748l2.645-3.317L5.888.786m3.318 2.658A35.959 35.959 0 0 0 .749 5.133m16.687 1.615-2.645-3.317L18.109.786m-3.318 2.658a35.977 35.977 0 0 1 8.458 1.689" style="fill:none;stroke:#000;stroke-linecap:round;stroke-linejoin:round;stroke-width:1.5px"/></svg>