<svg xmlns="http://www.w3.org/2000/svg" width="24" height="24" viewBox="0 0 24 24"><path d="m3.939 15.715 1.461-.342m4.92 7.875-2.169-9.287a3.75 3.75 0 0 0-7.3 1.705l1.771 7.582m17.435-7.533-1.46-.342m2.782 7.875 1.77-7.582a3.75 3.75 0 1 0-7.3-1.7l-2.169 9.287m5.778-16.604 3.79-1.906-1.906-3.79m1.906 3.811a26.941 26.941 0 0 0-9-2.353M4.539 6.649.748 4.743 2.654.953M.748 4.764a26.953 26.953 0 0 1 9-2.353" style="fill:none;stroke:#000;stroke-linecap:round;stroke-linejoin:round;stroke-width:1.5px"/></svg>