<svg xmlns="http://www.w3.org/2000/svg" width="24" height="24" viewBox="0 0 24 24"><defs><style>.a{fill:none;stroke:#000;stroke-linecap:round;stroke-linejoin:round;stroke-width:1.5px}</style></defs><path d="M20.248 23.248h-6v-6" class="a"/><path d="M23.248 20.248h-6v-6m1.569 6a20.282 20.282 0 0 0 .826-19.5M.748 10.609 3.842 6.82a1.639 1.639 0 0 1 1.676-.566 1.637 1.637 0 0 1 1.067 2.321L6 9.749h6.75a1.5 1.5 0 0 1 1.5 1.5 1.5 1.5 0 0 1-1.5 1.5h-4.5l-.332 1.993a3 3 0 0 1-2.959 2.507H.748" class="a"/></svg>