<svg xmlns="http://www.w3.org/2000/svg" width="24" height="24" viewBox="0 0 24 24"><path d="m3.939 11.964 1.461-.341m3.7 2.634-.945-4.046a3.75 3.75 0 0 0-7.3 1.705L2.618 19.5m17.439-7.536-1.461-.341m2.782 7.877 1.771-7.582a3.75 3.75 0 0 0-7.3-1.7l-.949 4.026m-4.116 3.028-2.722 3.254 3.253 2.722m-3.238-2.741a26.961 26.961 0 0 0 9.171-1.407m-4.16-12.352 3.406-2.529L13.965.813m2.516 3.422a26.95 26.95 0 0 0-9.253-.767" style="fill:none;stroke:#000;stroke-linecap:round;stroke-linejoin:round;stroke-width:1.5px"/></svg>