<svg xmlns="http://www.w3.org/2000/svg" id="Regular" width="24" height="24" viewBox="0 0 24 24"><defs><style>.cls-1{fill:none;stroke:#000;stroke-linecap:round;stroke-linejoin:round;stroke-width:1.5px}</style></defs><path d="M11.249 2.25a7.5 7.5 0 1 1 0 12m3.008-10.51 1.575 1.065a1.5 1.5 0 0 1 .668 1.248V7.77a1.5 1.5 0 0 1-1.206 1.471l-2.544.509.544 2.176" class="cls-1"/><path d="m23.212 9.013-3.206 1.068a1.5 1.5 0 0 0-1 1.717l.592 2.888m-11.348.732V3.75a3 3 0 0 0-6 0v11.668a4.493 4.493 0 1 0 7.5 3.332 4.47 4.47 0 0 0-1.5-3.332m-3-10.168v12" class="cls-1"/><circle cx="5.25" cy="18.75" r="1.5" class="cls-1"/></svg>