<svg xmlns="http://www.w3.org/2000/svg" id="Regular" width="24" height="24" viewBox="0 0 24 24"><defs><style>.cls-1{fill:none;stroke:#000;stroke-linecap:round;stroke-linejoin:round;stroke-width:1.5px}</style></defs><path d="M20.158 12a6 6 0 0 1 3.092 5.25 6 6 0 0 1-6 6h-7.5a9 9 0 0 1-9-9V6A5.251 5.251 0 0 1 6 .75a5.251 5.251 0 0 1 5.2 4.5" class="cls-1"/><circle cx="6" cy="6" r="2.25" class="cls-1"/><path d="M17.25 14.25a3 3 0 0 1 3 3 3 3 0 0 1-3 3h-7.5a6 6 0 0 1-6-6v-1.5a1.5 1.5 0 0 1 1.5-1.5" class="cls-1"/><path d="M14.765 12.417a2.25 2.25 0 1 1-3.182-3.182l4.773-4.773 3.182 3.182zm-3.182 0-2.122 2.122M17.947.75l5.303 5.303m-3.712-3.712-2.652 2.652m4.773-.531-2.652 2.652" class="cls-1"/></svg>