<svg xmlns="http://www.w3.org/2000/svg" id="Regular" width="24" height="24" viewBox="0 0 24 24"><defs><style>.cls-1{fill:none;stroke:#000;stroke-linecap:round;stroke-linejoin:round;stroke-width:1.5px}</style></defs><path d="M.75 23.25v-1.5a1.5 1.5 0 0 1 1.5-1.5h19.5a1.5 1.5 0 0 1 1.5 1.5v1.5m-16.5-6v3M17.25 18v2.25" class="cls-1"/><circle cx="3.75" cy="3.375" r="2.625" class="cls-1"/><path d="M21.75 11.25h-5.12l5.379-4.89a1.5 1.5 0 0 0-2.018-2.22l-7.467 6.786a.227.227 0 0 1-.018.025L8.782 9.089l5.779-5.778a1.5 1.5 0 0 0-2.122-2.122L6.568 7.061a4.472 4.472 0 0 0-1.318 3.181v5.508a1.5 1.5 0 0 0 3 0v-3.573l3.2 1.6a4.516 4.516 0 0 0 2.012.475h8.288a1.5 1.5 0 0 0 0-3z" class="cls-1"/></svg>