<svg xmlns="http://www.w3.org/2000/svg" id="Regular" width="24" height="24" viewBox="0 0 24 24"><defs><style>.cls-1{fill:none;stroke:#000;stroke-linecap:round;stroke-linejoin:round;stroke-width:1.5px}</style></defs><circle cx="11.625" cy="6.375" r="2.625" class="cls-1"/><circle cx="10.5" cy="10.5" r="9.75" class="cls-1"/><path d="M12.75 16.875V14.25a5.176 5.176 0 0 1 1.975.643c.266.121.55.251.856.381" class="cls-1"/><path d="M16.966 12.6c-.351-.144-.679-.293-1-.438a7.528 7.528 0 0 0-3.219-.913h-3a4.505 4.505 0 0 1-4.5-4.5V6a1.5 1.5 0 0 0-3 0v.75a7.509 7.509 0 0 0 7.5 7.5v3m11.159-.769c.272.012.552.019.844.019a1.5 1.5 0 0 0 .36-2.956m-8.778 8.619A5.118 5.118 0 0 0 16.5 23.25h5.25a1.5 1.5 0 0 0 0-3H17.5m-7.75 3v-.75" class="cls-1"/></svg>