<svg xmlns="http://www.w3.org/2000/svg" id="Regular" width="24" height="24" viewBox="0 0 24 24"><defs><style>.cls-1{fill:none;stroke:#000;stroke-linecap:round;stroke-linejoin:round;stroke-width:1.5px}</style></defs><rect width="15.85" height="6.935" x="7.27" y="5.337" class="cls-1" rx=".991" ry=".991" transform="rotate(-44.998 15.195 8.805)"/><path d="M16.946 2.151 15.545.75m-4.203 7.004L9.941 6.353M8.54 10.556 7.139 9.155m7.005-4.202-1.401-1.401m3.503 9.105 1.401 1.401m-4.203 1.401 1.401 1.401m4.203-7.004 1.401 1.401m1.401-4.203 1.4 1.401M12.64 11.36a.374.374 0 0 1 0 .53m-.53-.53a.374.374 0 0 1 .53 0m-.53.53a.374.374 0 0 1 0-.53m.53.53a.374.374 0 0 1-.53 0m3.35-3.35a.374.374 0 0 1 0 .53m-.53-.53a.374.374 0 0 1 .53 0m-.53.53a.374.374 0 0 1 0-.53m.53.53a.374.374 0 0 1-.53 0m3.35-3.35a.375.375 0 0 1 0 .53m-.53-.53a.374.374 0 0 1 .53 0m-.53.53a.374.374 0 0 1 0-.53m.53.53a.374.374 0 0 1-.53 0M1.185 22.815a1.487 1.487 0 0 1 0-2.1l7.355-7.357 2.1 2.1-7.353 7.357a1.487 1.487 0 0 1-2.102 0" class="cls-1"/></svg>