<svg xmlns="http://www.w3.org/2000/svg" id="Regular" width="24" height="24" viewBox="0 0 24 24"><defs><style>.cls-1{fill:none;stroke:#000;stroke-miterlimit:10;stroke-width:1.5px}</style></defs><ellipse cx="12.25" cy="4.5" class="cls-1" rx="6.75" ry="3.75"/><path d="M19 9.75c0 2.071-3.022 3.75-6.75 3.75S5.5 11.821 5.5 9.75M19 15c0 2.071-3.022 3.75-6.75 3.75S5.5 17.071 5.5 15" class="cls-1"/><path d="M5.5 4.5v15c0 2.071 3.022 3.75 6.75 3.75S19 21.571 19 19.5v-15" class="cls-1"/><path d="M22 9.75h-3m3-5.25h-3M22 15h-3m3 4.5h-3m-16.5 0h3m-3-9.75h3m-3-5.25h3M2.5 15h3m6.75-6.75v15" style="fill:none;stroke:#000;stroke-miterlimit:10;stroke-width:1.5px;stroke-linecap:round"/></svg>