<svg xmlns="http://www.w3.org/2000/svg" width="24" height="24" viewBox="0 0 24 24"><defs><style>.a{fill:none;stroke:#000;stroke-linecap:round;stroke-linejoin:round;stroke-width:1.5px}</style></defs><path d="m.75 19.371 2.95-2.952a6 6 0 0 0 8.613-2.919H7.5a2.25 2.25 0 0 1 0-4.5h4.813a6 6 0 1 0-10.732 5.3l-.831.831M17.25.75a1.5 1.5 0 0 0 0 3h4.5a1.5 1.5 0 0 0 0-3zm3.75 9h-3a.75.75 0 0 1-.75-.75V3.75h4.5V9a.75.75 0 0 1-.75.75m-5.25-3h7.5m-4.744 6.709a1.5 1.5 0 0 0-1.428 2.641l3.958 2.141a1.5 1.5 0 0 0 1.428-2.641z" class="a"/><path d="m17.521 23.16-2.638-1.428a.75.75 0 0 1-.3-1.017l2.5-4.617 3.958 2.141-2.5 4.618a.751.751 0 0 1-1.02.303m-3.19-5.138 6.597 3.57" class="a"/></svg>