<svg xmlns="http://www.w3.org/2000/svg" width="24" height="24" viewBox="0 0 24 24"><defs><style>.a{fill:none;stroke:#000;stroke-linecap:round;stroke-linejoin:round;stroke-width:1.5px}</style></defs><path d="m8.999 7.501 3 3 3-3m-3 3V.751m-3 18h-3.75m13.5 4.5h-13.5a4.5 4.5 0 0 1-4.5-4.5 4.5 4.5 0 0 1 4.5-4.5h13.5a4.5 4.5 0 0 1 4.5 4.5 4.5 4.5 0 0 1-4.5 4.5" class="a"/><path d="M15.374 18.376a.375.375 0 1 0 .375.375.375.375 0 0 0-.375-.375m3.75 0a.375.375 0 1 0 .375.375.375.375 0 0 0-.375-.375" class="a"/></svg>