<svg xmlns="http://www.w3.org/2000/svg" width="24" height="24" viewBox="0 0 24 24"><defs><style>.a{fill:none;stroke:#000;stroke-linecap:round;stroke-linejoin:round;stroke-width:1.5px}</style></defs><path d="M8.25 17.25h-1.5V6.75h1.5a1.5 1.5 0 0 1 1.5 1.5v7.5a1.5 1.5 0 0 1-1.5 1.5m-1.5-.75a4.5 4.5 0 0 1 0-9m7.5 9.75h1.5V6.75h-1.5a1.5 1.5 0 0 0-1.5 1.5v7.5a1.5 1.5 0 0 0 1.5 1.5m1.5-.75a4.5 4.5 0 0 0 0-9" class="a"/><path d="M2.25 12V9.75a9 9 0 0 1 18 0V12M.75 21.75h3m3 1.5a1.5 1.5 0 0 0 0-3h-3v3z" class="a"/><path d="M21 17.25a2.25 2.25 0 0 1 0 4.5H8.25" class="a"/></svg>