<svg xmlns="http://www.w3.org/2000/svg" width="24" height="24" viewBox="0 0 24 24"><defs><style>.a{fill:none;stroke:#000;stroke-linecap:round;stroke-linejoin:round;stroke-width:1.5px}</style></defs><path d="M4.588 20.25h4.5v2a1 1 0 0 1-1 1h-2.5a1 1 0 0 1-1-1zm10.5 0h4.5v2a1 1 0 0 1-1 1h-2.5a1 1 0 0 1-1-1z" class="a"/><path d="M21.937 18.321A1.5 1.5 0 0 1 20.5 20.25H3.676a1.5 1.5 0 0 1-1.438-1.929 24.124 24.124 0 0 0 1-8.479 1.5 1.5 0 0 1 1.5-1.592h14.703a1.5 1.5 0 0 1 1.5 1.592 24.147 24.147 0 0 0 .996 8.479M6.088 8.25V4.5m12 3.75V4.5m-12-3V.75m12 .75V.75" class="a"/><path d="M15.838 8.25h-7.5L8.9 2.038A1.5 1.5 0 0 1 10.389.75h3.4a1.5 1.5 0 0 1 1.485 1.288zm-3.75 4.5v3m4.5-3 .75 3m-9.75-3-.75 3M8.68 4.557a8.729 8.729 0 0 0 6.81 0" class="a"/></svg>