<svg xmlns="http://www.w3.org/2000/svg" width="24" height="24" viewBox="0 0 24 24"><defs><style>.a{fill:none;stroke:#000;stroke-linecap:round;stroke-linejoin:round;stroke-width:1.5px}</style></defs><rect width="15" height="6" x="8.25" y="17.25" class="a" rx="2" ry="2"/><path d="M12 19.875a.375.375 0 0 1 .375.375m-.75 0a.375.375 0 0 1 .375-.375m0 .75a.375.375 0 0 1-.375-.375m.75 0a.375.375 0 0 1-.375.375m3.75-.75a.375.375 0 0 1 .375.375m-.75 0a.375.375 0 0 1 .375-.375m0 .75a.375.375 0 0 1-.375-.375m.75 0a.375.375 0 0 1-.375.375m3.75-.75a.375.375 0 0 1 .375.375m-.75 0a.375.375 0 0 1 .375-.375m0 .75a.375.375 0 0 1-.375-.375m.75 0a.375.375 0 0 1-.375.375m2.25-3.311V12.75a1.5 1.5 0 0 0-1.5-1.5h-1.5a1.5 1.5 0 0 1-1.5-1.5v-1.5a1.5 1.5 0 0 0-1.5-1.5h-4.5a1.5 1.5 0 0 0-1.5 1.5V17m-6-11.013v5.263" class="a"/><circle cx="3.75" cy="14.25" r="3" class="a"/><path d="M7.3 9.35 1.274 3.643a1.675 1.675 0 0 1-.185-2.227 1.675 1.675 0 0 1 2.194-.43l9.692 5.764m4.408 3.617-1.944 1.944a1.5 1.5 0 0 1-1.06.439H9.75" class="a"/></svg>