<svg xmlns="http://www.w3.org/2000/svg" width="24" height="24" viewBox="0 0 24 24"><defs><style>.a{fill:none;stroke:#000;stroke-linecap:round;stroke-linejoin:round;stroke-width:1.5px}</style></defs><circle cx="3" cy="21" r="2.25" class="a"/><path d="M4.679 19.502 6.749 18" class="a"/><circle cx="3" cy="3" r="2.25" class="a"/><path d="M4.679 4.499 6.749 6" class="a"/><circle cx="21" cy="21" r="2.25" class="a"/><path d="M19.322 19.502 17.252 18" class="a"/><circle cx="21" cy="3" r="2.25" class="a"/><path d="M19.322 4.499 17.252 6M12 17.25a.375.375 0 1 1-.375.375.375.375 0 0 1 .375-.375m-3-7.5a3 3 0 1 1 4 2.829 1.5 1.5 0 0 0-1 1.415v.631" class="a"/></svg>