<svg xmlns="http://www.w3.org/2000/svg" width="24" height="24" viewBox="0 0 24 24"><defs><style>.a{fill:none;stroke:#000;stroke-linecap:round;stroke-linejoin:round;stroke-width:1.5px}</style></defs><rect width="10.5" height="13.5" x=".75" y="7.125" class="a" rx="2" ry="2"/><path d="M11.25 10.875H.75m10.5 6H.75M3 20.625v2.25m3-2.25v2.25m3-2.25v2.25M3.75 7.125v-2.25a.75.75 0 0 1 .75-.75h3a.75.75 0 0 1 .75.75v2.25m-2.25-6v3" class="a"/><rect width="9" height="11.25" x="14.25" y="3.375" class="a" rx="1.5" ry="1.5"/><path d="M18.75 3.375v-2.25m-3 13.5v2.25m3-2.25v2.25m3-2.25v2.25m-7.5-9.75h9m-9 3.75h9" class="a"/></svg>