<svg xmlns="http://www.w3.org/2000/svg" width="24" height="24" viewBox="0 0 24 24"><defs><style>.a{fill:none;stroke:#000;stroke-linecap:round;stroke-linejoin:round;stroke-width:1.5px}</style></defs><circle cx="12" cy="13.5" r="7.5" class="a"/><path d="M16.499 7.501 18.75 5.25m-18 18L6 18M18.75 5.25V3.331a1.5 1.5 0 0 1 1.026-1.423L23.25.75l-1.158 3.474a1.5 1.5 0 0 1-1.423 1.026zM7.502 7.502 5.25 5.25m18 18-5.249-5.249M5.25 5.25H3.331a1.5 1.5 0 0 1-1.423-1.026L.75.75l3.474 1.158A1.5 1.5 0 0 1 5.25 3.331zM9 16.5l2.315-5.555a.75.75 0 0 1 1.37 0L15 16.5" class="a"/></svg>