<svg xmlns="http://www.w3.org/2000/svg" width="24" height="24" viewBox="0 0 24 24"><defs><style>.a{fill:none;stroke:#000;stroke-linecap:round;stroke-linejoin:round;stroke-width:1.5px}</style></defs><path d="m3.75 15.75 3-3 3 3" class="a"/><path d="M6.75 12.75v6a1.5 1.5 0 0 0 1.5 1.5h3m10.5-3.75v5.25a1.5 1.5 0 0 1-1.5 1.5h-4.5a1.5 1.5 0 0 1-1.5-1.5V16.5" class="a"/><path d="m23.25 18-4.72-4.719a.749.749 0 0 0-1.06 0L12.75 18M12 3.75a2.982 2.982 0 0 0-2.292 1.086A4.489 4.489 0 1 0 5.25 9.75H12a3 3 0 0 0 0-6m6 19.5v-3" class="a"/></svg>