<svg xmlns="http://www.w3.org/2000/svg" id="Regular" width="24" height="24" viewBox="0 0 24 24"><defs><style>.cls-1{fill:none;stroke:#000;stroke-linecap:round;stroke-linejoin:round;stroke-width:1.5px}</style></defs><rect width="15" height="3" x=".723" y="15.75" class="cls-1" rx="1.5" ry="1.5"/><path d="M9.723 23.25h-3a4.5 4.5 0 0 1-4.5-4.5h12a4.5 4.5 0 0 1-4.5 4.5" class="cls-1"/><circle cx="21.723" cy="2.25" r="1.5" class="cls-1"/><path d="M11.973 10.413A1.881 1.881 0 0 1 10.12 12a1.881 1.881 0 0 1-1.875-1.875v.75A1.881 1.881 0 0 1 6.37 12.75a1.881 1.881 0 0 1-1.87-1.875v-.75m15.793-7.42-5.717 1.822" class="cls-1"/><rect width="3" height="6" x="11.647" y="1.982" class="cls-1" rx="1.5" ry="1.5" transform="rotate(-17.671 13.147 4.982)"/><path d="m6.038 7.375-.492-1.546a1.5 1.5 0 0 1 .974-1.884 1.5 1.5 0 0 1 1.88.974l.705 2.212M8.876 6.4l-.928-2.914A1.5 1.5 0 0 1 8.921 1.6a1.505 1.505 0 0 1 1.885.974l.594 1.867" class="cls-1"/></svg>