<svg xmlns="http://www.w3.org/2000/svg" id="Regular" width="24" height="24" viewBox="0 0 24 24"><defs><style>.cls-1{fill:none;stroke:#000;stroke-linecap:round;stroke-linejoin:round;stroke-width:1.5px}</style></defs><path d="M18.75 11.25v10.5s-1.5 1.5-6.75 1.5-6.75-1.5-6.75-1.5v-10.5" class="cls-1"/><path d="m6.75 2.25-1.818.779a6 6 0 0 0-3.632 5.2l-.508 9.732a.749.749 0 0 0 .749.789H5.25m13.5 0h3.709a.749.749 0 0 0 .749-.789L22.7 8.229a6 6 0 0 0-3.628-5.2L17.25 2.25m0 0a3 3 0 0 1-3 3h-4.5a3 3 0 0 1-3-3 1.5 1.5 0 0 1 1.5-1.5h7.5a1.5 1.5 0 0 1 1.5 1.5m-7.5 3v3m4.5-3v6" class="cls-1"/></svg>