<svg xmlns="http://www.w3.org/2000/svg" id="Regular" width="24" height="24" viewBox="0 0 24 24"><defs><style>.cls-1{fill:none;stroke:#000;stroke-linecap:round;stroke-linejoin:round;stroke-width:1.5px}</style></defs><circle cx="7.5" cy="16.5" r="2.25" class="cls-1"/><path d="M12 14.25h8.5a2 2 0 0 1 2 2v2.5H12zm-10.5 4.5h21v3h-21zm0 4.5v-9m21 9v-1.5" class="cls-1"/><rect width="15" height="9" x="4.5" y=".75" class="cls-1" rx="1" ry="1"/><path d="M4.5 5.25h3.349a.75.75 0 0 0 .624-.334l.77-1.155a.75.75 0 0 1 1.157-.114l3.32 3.323a.749.749 0 0 0 1.06 0l1.5-1.5a.751.751 0 0 1 .531-.22H19.5" class="cls-1"/></svg>