<svg xmlns="http://www.w3.org/2000/svg" id="Regular" width="24" height="24" viewBox="0 0 24 24"><defs><style>.cls-1{fill:none;stroke:#000;stroke-linecap:round;stroke-linejoin:round;stroke-width:1.5px}</style></defs><circle cx="16.5" cy="3" r="2.25" class="cls-1"/><circle cx="8.25" cy="16.5" r="2.25" class="cls-1"/><path d="M12.75 14.25h8.5a2 2 0 0 1 2 2v2.5h-10.5zm-10.5 4.5h21v3h-21zm0 4.5v-9m21 9v-1.5m-10.5-10.5a3 3 0 0 1 3-3h1.5a3 3 0 0 1 3 3M9 3.75H6.75V1.5A.75.75 0 0 0 6 .75H4.5a.75.75 0 0 0-.75.75v2.25H1.5a.75.75 0 0 0-.75.75V6a.75.75 0 0 0 .75.75h2.25V9a.75.75 0 0 0 .75.75H6A.75.75 0 0 0 6.75 9V6.75H9A.75.75 0 0 0 9.75 6V4.5A.75.75 0 0 0 9 3.75" class="cls-1"/></svg>