<svg xmlns="http://www.w3.org/2000/svg" id="Regular" width="24" height="24" viewBox="0 0 24 24"><defs><style>.cls-1{fill:none;stroke:#000;stroke-linecap:round;stroke-linejoin:round;stroke-width:1.5px}</style></defs><rect width="22.5" height="22.5" x=".75" y=".75" class="cls-1" rx="3" ry="3"/><path d="M14.25 6v3.75h-4.5V6A.75.75 0 0 0 9 5.25H6a.75.75 0 0 0-.75.75v12a.75.75 0 0 0 .75.75h3a.75.75 0 0 0 .75-.75v-3.75h4.5V18a.75.75 0 0 0 .75.75h3a.75.75 0 0 0 .75-.75V6a.75.75 0 0 0-.75-.75h-3a.75.75 0 0 0-.75.75" class="cls-1"/></svg>