<svg xmlns="http://www.w3.org/2000/svg" width="24" height="24" viewBox="0 0 24 24"><defs><style>.a{fill:none;stroke:#000;stroke-linecap:round;stroke-linejoin:round;stroke-width:1.5px}</style></defs><path d="M.75 13.125v3m7.5-3H.75v-2.25a3 3 0 0 1 3-3H18" class="a"/><path d="M18 7.875v-5.25a1.5 1.5 0 0 0-1.5-1.5h-12a1.5 1.5 0 0 0-1.5 1.5V7.97" class="a"/><path d="M8.5 4.875h4a1 1 0 0 1 1 1v2h-6v-2a1 1 0 0 1 1-1" class="a"/><circle cx="17.25" cy="16.875" r="6" class="a"/><path d="M17.25 13.875v6m0 0 2.25-2.25m-2.25 2.25L15 17.625" class="a"/></svg>