<svg xmlns="http://www.w3.org/2000/svg" width="24" height="24" viewBox="0 0 24 24"><defs><style>.a{fill:none;stroke:#000;stroke-linecap:round;stroke-linejoin:round;stroke-width:1.5px}</style></defs><path d="M3.75 18v3.75a1.5 1.5 0 0 0 1.5 1.5h4.5v-6a1.5 1.5 0 0 1 1.5-1.5h1.5a1.5 1.5 0 0 1 1.5 1.5v6h4.5a1.5 1.5 0 0 0 1.5-1.5V18" class="a"/><path d="M.75 16.5 10.939 6.311a1.5 1.5 0 0 1 2.122 0L23.25 16.5" class="a"/><path d="M16.5 9.75v-1.5h3.75v5.25M17.122.75l-.407.543a1.045 1.045 0 0 0 .16 1.436 1.045 1.045 0 0 1 .16 1.436l-.407.543M20.872.75l-.407.543a1.045 1.045 0 0 0 .16 1.436 1.045 1.045 0 0 1 .16 1.436l-.407.543" class="a"/></svg>