<svg xmlns="http://www.w3.org/2000/svg" width="24" height="24" viewBox="0 0 24 24"><defs><style>.a{fill:none;stroke:#000;stroke-linecap:round;stroke-linejoin:round;stroke-width:1.5px}</style></defs><path d="M.749 14.25v9m0-1.5h15a3 3 0 0 0-3-3H9a3 3 0 0 0-3-3H.749m5.25 3h3m3.377-13.764v1a5.9 5.9 0 0 1-.86 3.272m9.107-4.272v1a5.9 5.9 0 0 0 .859 3.272M12.387 5.2a5.483 5.483 0 0 0 4.112-1.9 5.483 5.483 0 0 0 4.112 1.9" class="a"/><circle cx="16.499" cy="4.875" r="4.125" class="a"/><path d="M17.249 17.25h6a6.742 6.742 0 0 0-4.243-6.257L16.5 13.5l-2.507-2.507a6.783 6.783 0 0 0-3.374 2.949" class="a"/></svg>