<svg xmlns="http://www.w3.org/2000/svg" id="Regular" width="24" height="24" viewBox="0 0 24 24"><defs><style>.cls-1{fill:none;stroke:#000;stroke-linecap:round;stroke-linejoin:round;stroke-width:1.5px}</style></defs><path d="M14.1 21.876a2.293 2.293 0 0 1-4.2 0L5.71 12.3a.75.75 0 0 1 .69-1.05h11.2a.75.75 0 0 1 .69 1.05z" class="cls-1"/><path d="M11.25.75a1.5 1.5 0 0 0 1.5 1.5 3 3 0 0 1 2.829 2 .75.75 0 0 1-.707 1H9.75a3 3 0 0 0-2.829 2 .75.75 0 0 0 .707 1h6.622a3 3 0 0 1 3 3" class="cls-1"/></svg>