<svg xmlns="http://www.w3.org/2000/svg" width="24" height="24" viewBox="0 0 24 24"><defs><style>.a{fill:none;stroke:#000;stroke-linecap:round;stroke-linejoin:round;stroke-width:1.5px}</style></defs><path d="M3.375 23.25h-.75a1.5 1.5 0 0 1-1.5-1.5V2.25a1.5 1.5 0 0 1 1.5-1.5h10.629a1.5 1.5 0 0 1 1.06.439l5.872 5.872a1.5 1.5 0 0 1 .439 1.06v4.629" class="a"/><path d="M20.625 8.25h-6a1.5 1.5 0 0 1-1.5-1.5v-6m-6.75 22.5v-7.5m0 0h1.5a1.5 1.5 0 0 1 1.5 1.5V18a1.5 1.5 0 0 1-1.5 1.5h-1.5m0 0h1.5a1.5 1.5 0 0 1 1.5 1.5v.75a1.5 1.5 0 0 1-1.5 1.5h-1.5m10.5 0v-7.5l-2.25 3.75-2.25-3.75v7.5m7.5 0v-7.5m0 0h.75a2.25 2.25 0 0 1 0 4.5h-.75" class="a"/></svg>