<svg xmlns="http://www.w3.org/2000/svg" width="24" height="24" viewBox="0 0 24 24"><defs><style>.a{fill:none;stroke:#000;stroke-linecap:round;stroke-linejoin:round;stroke-width:1.5px}</style></defs><path d="M22.477 21.75a1.5 1.5 0 0 1-1.5 1.5H3.023a1.5 1.5 0 0 1-1.5-1.5V2.25a1.5 1.5 0 0 1 1.5-1.5h15a1.5 1.5 0 0 1 1.047.426l2.955 2.883a1.5 1.5 0 0 1 .452 1.074z" class="a"/><circle cx="8.273" cy="7.5" r="2.25" class="a"/><path d="m18.813 18.2-3.925-5.888a1.011 1.011 0 0 0-1.671-.019l-2.691 3.845L8.858 14.8a1.011 1.011 0 0 0-1.474.229L5.273 18.2" class="a"/></svg>