<svg xmlns="http://www.w3.org/2000/svg" width="24" height="24" viewBox="0 0 24 24"><defs><style>.a{fill:none;stroke:#000;stroke-linecap:round;stroke-linejoin:round;stroke-width:1.5px}</style></defs><circle cx="17.25" cy="17.25" r="6" class="a"/><path d="M17.25 14.25v6m0 0L15 18m2.25 2.25L19.5 18M8.25 20.25h-6a1.5 1.5 0 0 1-1.5-1.5V2.25a1.5 1.5 0 0 1 1.5-1.5h10.629a1.5 1.5 0 0 1 1.06.439l2.872 2.872a1.5 1.5 0 0 1 .439 1.06V8.25" class="a"/><path d="M5.25 5.625A.375.375 0 1 1 4.875 6a.375.375 0 0 1 .375-.375m6.835 3.961L11.25 8.25a.749.749 0 0 0-1.238-.014l-2 2.851L6.78 10.1a.75.75 0 0 0-1.093.169L3.75 14.25h4.5" class="a"/></svg>