<svg xmlns="http://www.w3.org/2000/svg" id="Regular" width="24" height="24" viewBox="0 0 24 24"><defs><style>.cls-1{fill:none;stroke:#000;stroke-linecap:round;stroke-linejoin:round;stroke-width:1.5px}</style></defs><circle cx="5.491" cy="4.253" r="1.5" class="cls-1"/><ellipse cx="3.53" cy="11.103" class="cls-1" rx="2.625" ry="1.5" transform="rotate(-74.017 3.53 11.103)"/><path d="M5.216 2.778 4.876.956m1.63 2.192L7.76 1.782M5.581 5.751a1.884 1.884 0 0 0 2.336.931M4.882 8.62a1.964 1.964 0 0 0 2.254.78M4.623 5.476a1.882 1.882 0 0 1-2.474-.447M3.7 8.281a1.967 1.967 0 0 1-2.329-.528" class="cls-1"/><circle cx="19.36" cy="6.579" r="1.5" class="cls-1"/><ellipse cx="20.444" cy="13.621" class="cls-1" rx="1.5" ry="2.625" transform="rotate(-8.75 20.458 13.63)"/><path d="m18.493 5.354-1.072-1.512m2.398 1.308.568-1.765M20.068 7.9a1.884 1.884 0 0 0 2.511-.132M20.638 10.8a1.966 1.966 0 0 0 2.372-.233m-3.927-2.514a1.882 1.882 0 0 1-2.434.629m2.763 2.31a1.967 1.967 0 0 1-2.332.491" class="cls-1"/><circle cx="13.15" cy="16.95" r="1.5" class="cls-1"/><ellipse cx="7.324" cy="21.053" class="cls-1" rx="2.625" ry="1.5" transform="rotate(-35.159 7.325 21.053)"/><path d="m13.86 15.629.878-1.633m-.105 2.73 1.833-.277m-4.186 1.724c-.132.759-.017 1.517 1.235 2.19m-3.581-.392a1.968 1.968 0 0 0 1.266 2.023m.505-4.636c-.759-.132-1.433-.5-1.646-1.9m-.837 3.502a1.965 1.965 0 0 1-1.479-1.871" class="cls-1"/><circle cx="19.819" cy="9.561" r=".75" class="cls-1"/><circle cx="10.697" cy="18.678" r=".75" class="cls-1"/><circle cx="4.665" cy="7.137" r=".75" class="cls-1"/></svg>