<svg xmlns="http://www.w3.org/2000/svg" width="24" height="24" viewBox="0 0 24 24"><defs><style>.a{fill:none;stroke:#000;stroke-linecap:round;stroke-linejoin:round;stroke-width:1.5px}</style></defs><path d="m5.278 16.738 2.028 2.014" class="a"/><circle cx="7.299" cy="16.701" r="6.549" class="a"/><path d="m12.844 13.214 5.261-5.26.514.514a.728.728 0 0 0 1.029 0l3.087-3.087a.726.726 0 0 0 0-1.029l-3.087-3.087a.726.726 0 0 0-1.029 0l-3.087 3.087a.728.728 0 0 0 0 1.029l.514.514-5.26 5.261m7.319-9.377L17.075.75m-1.029 3.087-1.029-1.029m8.233 4.117-1.029-1.03m-1.029 3.088-1.029-1.029" class="a"/></svg>