<svg xmlns="http://www.w3.org/2000/svg" width="24" height="24" viewBox="0 0 24 24"><defs><style>.a{fill:none;stroke:#000;stroke-linecap:round;stroke-linejoin:round;stroke-width:1.5px}</style></defs><path d="M4.5 4.5H3A1.5 1.5 0 0 0 1.5 6v13.5A1.5 1.5 0 0 0 3 21h18a1.5 1.5 0 0 0 1.5-1.5V6A1.5 1.5 0 0 0 21 4.5h-1.5" class="a"/><rect width="3" height="9.75" x="4.5" y="3" class="a" rx="1.5" ry="1.5"/><rect width="3" height="9.75" x="10.5" y="3" class="a" rx="1.5" ry="1.5"/><rect width="3" height="9.75" x="16.5" y="3" class="a" rx="1.5" ry="1.5"/><path d="M6 12.75V21m6-8.25V21m6-8.25V21M10.5 4.5h-3zm6 0h-3z" class="a"/></svg>