<svg xmlns="http://www.w3.org/2000/svg" width="24" height="24" viewBox="0 0 24 24"><defs><style>.b{fill:none;stroke:#000;stroke-width:1.5px;stroke-linecap:round;stroke-linejoin:round}</style></defs><circle cx="12" cy="12" r="1.5" style="fill:none;stroke:#000;stroke-width:1.5px;stroke-miterlimit:10"/><path d="M12 4.5c-4.031-.075-8.2 3.057-10.821 6.26a2 2 0 0 0 0 2.473C3.742 16.372 7.9 19.575 12 19.5c4.1.077 8.257-3.126 10.823-6.264a2 2 0 0 0 0-2.473C20.2 7.558 16.031 4.426 12 4.5" class="b"/><circle cx="12" cy="12" r="5.25" class="b"/><path d="M12 4.5v3.75m0 7.5v3.75m3.75-7.5h3m-13.5 0h3" class="b"/></svg>