<svg xmlns="http://www.w3.org/2000/svg" width="24" height="24" viewBox="0 0 24 24"><defs><style>.a{fill:none;stroke:#000;stroke-linecap:round;stroke-linejoin:round;stroke-width:1.5px}</style></defs><path d="m19.636 23.25.1-1.122a3 3 0 0 0-2.337-3.2l-3.651-.811v-5.742a1.875 1.875 0 0 0-3.75 0v9.2l-1.475-1.103a1.533 1.533 0 0 0-2.146 2.145l.475.633" class="a"/><circle cx="11.5" cy="3.375" r="2.625" class="a"/><path d="M13.787 7.415A4.263 4.263 0 0 0 9.235 7.4" class="a"/><circle cx="4.75" cy="10.125" r="2.625" class="a"/><path d="M6.651 13.949A4.25 4.25 0 0 0 1 15.75M6.25 4.5h-1.5m1.5-3L4.75.75m12 3.75h1.5m-1.5-3 1.5-.75" class="a"/><circle cx="19" cy="10.125" r="2.625" class="a"/><path d="M17.1 13.949a4.25 4.25 0 0 1 5.651 1.8" class="a"/></svg>