<svg xmlns="http://www.w3.org/2000/svg" id="Regular" width="24" height="24" viewBox="0 0 24 24"><defs><style>.cls-1{fill:none;stroke:#000;stroke-linecap:round;stroke-linejoin:round;stroke-width:1.5px}</style></defs><path d="m9.257 12.957-7.615 7.616a1.537 1.537 0 0 0 0 2.175 1.538 1.538 0 0 0 2.176 0l7.611-7.619m-6.524 2.18 2.176 2.176" class="cls-1"/><path d="M21.174 1.04 9.257 12.957 14 17.7a1.534 1.534 0 0 0 2.308-.149c4.954-6.581 7.364-12.228 6.215-16.185a.813.813 0 0 0-1.349-.326m-7.699 16.135C17.9 11.3 20.407 6.007 20.055 2.159" class="cls-1"/></svg>