<svg xmlns="http://www.w3.org/2000/svg" id="Regular" width="24" height="24" viewBox="0 0 24 24"><defs><style>.cls-1{fill:none;stroke:#000;stroke-linecap:round;stroke-linejoin:round;stroke-width:1.5px}</style></defs><path d="m18.256 2.996 4.808 4.808a.972.972 0 0 1 0 1.374l-9.965 9.965a.972.972 0 0 1-1.374 0l-5.496-5.496L16.881 2.996a.972.972 0 0 1 1.375 0" class="cls-1"/><path d="M21.692 6.431 10.353 17.77M16.82 6.135a.375.375 0 1 1 0 .53.374.374 0 0 1 0-.53M1.076 20.862a1.458 1.458 0 0 1 0-2.061l5.154-5.154 2.062 2.061-5.154 5.154a1.459 1.459 0 0 1-2.062 0" class="cls-1"/></svg>