<svg xmlns="http://www.w3.org/2000/svg" id="Regular" width="24" height="24" viewBox="0 0 24 24"><defs><style>.cls-1{fill:none;stroke:#000;stroke-linecap:round;stroke-linejoin:round;stroke-width:1.5px}</style></defs><path d="M2.548 21.077a1.5 1.5 0 0 0 1.5 1.5H15.21A1.5 1.5 0 0 0 16.7 20.9 14.256 14.256 0 0 0 4.224 8.425a1.5 1.5 0 0 0-1.676 1.49zm3-4.5 3-3m0 6 3-3M15.715 1.611l.559.5a.75.75 0 0 1 .058 1.06L12.33 7.64 10.653 6.14l4.003-4.47a.75.75 0 0 1 1.059-.059" class="cls-1"/><path d="m7.8 9.327 2.851-3.185L13.5 8.7a.887.887 0 0 1 .146 1.137c-.017.027-.782.887-1.761 1.983M20.646 6.866l.558.5a.75.75 0 0 1 .061 1.057l-4.002 4.47-1.676-1.501 4.002-4.47a.75.75 0 0 1 1.057-.056M13.611 13.594l1.971-2.2 2.851 2.553a.888.888 0 0 1 .147 1.137c-.021.033-1.226 1.385-2.551 2.866" class="cls-1"/></svg>