<svg xmlns="http://www.w3.org/2000/svg" width="24" height="24" viewBox="0 0 24 24"><defs><style>.a,.b{fill:none;stroke:#000;stroke-linecap:round;stroke-linejoin:round;stroke-width:1.5px}.b{fill-rule:evenodd}</style></defs><path d="M16.125 9.75a.375.375 0 0 1 .375.375m-.75 0a.375.375 0 0 1 .375-.375m0 .75a.375.375 0 0 1-.375-.375m.75 0a.375.375 0 0 1-.375.375m-9 3a.375.375 0 0 1 .375.375m-.75 0a.375.375 0 0 1 .375-.375m0 .75a.375.375 0 0 1-.375-.375m.75 0a.375.375 0 0 1-.375.375m.75-4.5a.375.375 0 0 1 .375.375m-.75 0a.375.375 0 0 1 .375-.375m0 .75a.375.375 0 0 1-.375-.375m.75 0a.375.375 0 0 1-.375.375m9 3a.375.375 0 0 1 .375.375m-.75 0a.375.375 0 0 1 .375-.375m0 .75a.375.375 0 0 1-.375-.375m.75 0a.375.375 0 0 1-.375.375" class="a"/><path d="M10.5 15.75a3 3 0 0 1-6 0v-15h6zm9 0a3 3 0 0 1-6 0v-15h6z" class="b"/><path d="M22.5 10.5v9.75a3 3 0 0 1-3 3h-15a3 3 0 0 1-3-3V10.5" class="b"/><path d="M1.5 14.25h3m6 0h3m6 0h3m-18-7.5h6m3 0h6" class="a"/></svg>