<svg xmlns="http://www.w3.org/2000/svg" id="Regular" width="24" height="24" viewBox="0 0 24 24"><defs><style>.cls-1{fill:none;stroke:#000;stroke-linecap:round;stroke-linejoin:round;stroke-width:1.5px}</style></defs><circle cx="12" cy="12" r="11.25" class="cls-1"/><path d="M10.146 15.532c.8.949.939 2.151.306 2.686s-1.795.2-2.6-.75-.939-2.152-.306-2.686 1.797-.199 2.6.75" class="cls-1"/><path d="M7.548 14.782S3.349 12.394 5.25 9s6-.75 8.25-3" class="cls-1"/><circle cx="15.75" cy="14.25" r="1.5" class="cls-1"/><path d="M18 7.875a.375.375 0 0 1 .375.375m-.75 0A.375.375 0 0 1 18 7.875m0 .75a.375.375 0 0 1-.375-.375m.75 0a.375.375 0 0 1-.375.375" class="cls-1"/></svg>