<svg xmlns="http://www.w3.org/2000/svg" width="24" height="24" viewBox="0 0 24 24"><defs><style>.a{fill:none;stroke:#000;stroke-linecap:round;stroke-linejoin:round;stroke-width:1.5px}</style></defs><path d="M13.5 23.25h-3v-3a1.5 1.5 0 0 1 3 0zm6 0h-3v-3a1.5 1.5 0 0 1 3 0zm-15 0h3v-3a1.5 1.5 0 0 0-3 0zm11.25-19.5h7.5v12h-7.5zm-15 0h7.5v12H.75zm0 6h22.5" class="a"/><path d="M.75 15.75h22.5v7a.5.5 0 0 1-.5.5H1.25a.5.5 0 0 1-.5-.5zm0-12V1.5A.75.75 0 0 1 1.5.75h6a.75.75 0 0 1 .75.75v2.25m7.5 0V1.5a.75.75 0 0 1 .75-.75h6a.75.75 0 0 1 .75.75v2.25M12 12.375a.375.375 0 1 1-.375.375.375.375 0 0 1 .375-.375" class="a"/></svg>