<svg xmlns="http://www.w3.org/2000/svg" id="Regular" width="24" height="24" viewBox="0 0 24 24"><defs><style>.cls-1{fill:none;stroke:#000;stroke-linecap:round;stroke-linejoin:round;stroke-width:1.5px}</style></defs><circle cx="7.693" cy="3.75" r="2.625" class="cls-1"/><path d="M9.943 17.25V13.5a1.5 1.5 0 0 0 1.5-1.5v-.75a3 3 0 0 0-3-3h-1.5a3 3 0 0 0-3 3V12a1.5 1.5 0 0 0 1.5 1.5v3.75m-3 0h10.5m-1.418 5.343a.75.75 0 0 1-.744.657H4.605a.75.75 0 0 1-.744-.657l-.668-5.343h9zM15.943.75 21.5 3.012 19.803 7.18l-5.557-2.262zM14.246 4.918l-2.803 6.886" class="cls-1"/></svg>