<svg xmlns="http://www.w3.org/2000/svg" width="24" height="24" viewBox="0 0 24 24"><defs><style>.a{fill:none;stroke:#000;stroke-linecap:round;stroke-linejoin:round;stroke-width:1.5px}</style></defs><circle cx="12" cy="12" r="3" class="a"/><circle cx="12" cy="3" r="2.25" class="a"/><circle cx="3" cy="6" r="2.25" class="a"/><circle cx="3.75" cy="15.75" r="2.25" class="a"/><path d="m9.75 23.25 1.508-8.343m2.992 8.343-1.508-8.343M.75 23.25 3 18m.75-4.5L3 8.25m9-3V9m-6.61 8.29 5.114 1.789M5.25 6l4.5-3m-.382 7.561L4.699 7.474" class="a"/><circle cx="21" cy="6" r="2.25" class="a"/><circle cx="20.25" cy="15.75" r="2.25" class="a"/><path d="M23.25 23.25 21 18m-.75-4.5L21 8.25m-2.39 9.04-5.114 1.789M18.75 6l-4.5-3m.382 7.561 4.669-3.087M5.91 15.121l3.475-1.65m8.705 1.65-3.475-1.65" class="a"/></svg>