<svg xmlns="http://www.w3.org/2000/svg" width="24" height="24" viewBox="0 0 24 24"><defs><style>.a{fill:none;stroke:#000;stroke-linecap:round;stroke-linejoin:round;stroke-width:1.5px}</style></defs><path d="M9 21.75a.75.75 0 0 1-.75.75H6.829a.752.752 0 0 1-.747-.825L7.5 7.5H9zm6 0a.75.75 0 0 0 .75.75h1.421a.752.752 0 0 0 .747-.825L16.5 7.5H15z" class="a"/><path d="m22.5 1.5-1.885 5.027a1.5 1.5 0 0 1-1.4.973H4.79a1.5 1.5 0 0 1-1.405-.973L1.5 1.5a35.853 35.853 0 0 0 20.986 0zM9 12h6M4.5 12h2.526M19.5 12h-2.526M12 7.5V12" class="a"/></svg>