<svg xmlns="http://www.w3.org/2000/svg" width="24" height="24" viewBox="0 0 24 24"><defs><style>.a{fill:none;stroke:#000;stroke-linecap:round;stroke-linejoin:round;stroke-width:1.5px}</style></defs><path d="M.75 23.25h22.5m-16.5 0 3.891-8.337a1.5 1.5 0 0 1 2.718 0l3.891 8.337" class="a"/><circle cx="12" cy="3" r="2.25" class="a"/><circle cx="18.75" cy="6.75" r="2.25" class="a"/><circle cx="19.5" cy="14.25" r="2.25" class="a"/><path d="M19.852 8.71a8.3 8.3 0 0 1 .353 3.4M14.228 3.3a8.239 8.239 0 0 1 3.138 1.679" class="a"/><circle cx="5.25" cy="6.75" r="2.25" class="a"/><circle cx="4.5" cy="14.25" r="2.25" class="a"/><path d="M5.463 16.284a8.252 8.252 0 0 0 13.074 0M4.148 8.71a8.3 8.3 0 0 0-.353 3.4M9.772 3.3a8.239 8.239 0 0 0-3.138 1.683" class="a"/></svg>