<svg xmlns="http://www.w3.org/2000/svg" width="24" height="24" viewBox="0 0 24 24"><defs><style>.a{fill:none;stroke:#000;stroke-linecap:round;stroke-linejoin:round;stroke-width:1.5px}</style></defs><path d="M5.25 6.75a1.5 1.5 0 0 0-1.5 1.5v13.5h6V8.25a1.5 1.5 0 0 0-1.5-1.5zm14.906 13.411a1.5 1.5 0 0 1-1.5 1.589h-2.992a1.5 1.5 0 0 1-1.5-1.411l-1.407-9.756A1.5 1.5 0 0 1 14.257 9h2.995a1.5 1.5 0 0 1 1.5 1.417z" class="a"/><rect width="21" height="4.5" x=".75" y="2.25" class="a" rx="1" ry="1"/><path d="M.75 21.75h22.5" class="a"/></svg>