<svg xmlns="http://www.w3.org/2000/svg" width="24" height="24" viewBox="0 0 24 24"><defs><style>.a{fill:none;stroke:#000;stroke-linecap:round;stroke-linejoin:round;stroke-width:1.5px}</style></defs><path d="M2.25 7.812h3V20.25h-3zm-.5 12.438h4a1 1 0 0 1 1 1v1.5a.5.5 0 0 1-.5.5h-5a.5.5 0 0 1-.5-.5v-1.5a1 1 0 0 1 1-1m17-12.438h3V20.25h-3zm-.5 12.438h4a1 1 0 0 1 1 1v1.5a.5.5 0 0 1-.5.5h-5a.5.5 0 0 1-.5-.5v-1.5a1 1 0 0 1 1-1m5-19.5-.75 7.062h-21L.75.75c6.637 2.798 14.385 4.114 22.5 0M.75 12.312h22.5" class="a"/><path d="M9.75 7.812h4.5v4.5h-4.5z" class="a"/></svg>