<svg xmlns="http://www.w3.org/2000/svg" id="Regular" width="24" height="24" viewBox="0 0 24 24"><defs><style>.cls-1{fill:none;stroke:#000;stroke-linecap:round;stroke-linejoin:round;stroke-width:1.5px}</style></defs><path d="M4.875 23.25s1.5-3 6.75-3 6.75 3 6.75 3zm3.25-6.75h7a1 1 0 0 1 1 1v2.75h-9V17.5a1 1 0 0 1 1-1m8 1.5h3m0-1.5v2.25m-5.25-7.5a2.25 2.25 0 0 1-4.5 0c0-1.243 1.5-3.75 2.25-3.75s2.25 2.507 2.25 3.75" class="cls-1"/><path d="M7.875.75v6.867a5.187 5.187 0 0 0-1.5 3.633 5.25 5.25 0 0 0 10.5 0 5.187 5.187 0 0 0-1.5-3.633V.75z" class="cls-1"/></svg>