<svg xmlns="http://www.w3.org/2000/svg" width="24" height="24" viewBox="0 0 24 24"><defs><style>.a{fill:none;stroke:#000;stroke-linecap:round;stroke-linejoin:round;stroke-width:1.5px}</style></defs><path d="M20.25 5.25a1.5 1.5 0 0 1 1.5 1.5v10.5m-19.5 0V6.75a1.5 1.5 0 0 1 1.5-1.5m10.834 12a2.976 2.976 0 0 1-5.168 0H.75v1.5a3 3 0 0 0 3 3h16.5a3 3 0 0 0 3-3v-1.5zM12 9.375a.375.375 0 1 0 .375.375.375.375 0 0 0-.375-.375" class="a"/><rect width="9" height="6" x="7.5" y="6.75" class="a" rx=".375" ry=".375"/><path d="M9 6.75v-1.5a3 3 0 0 1 6 0v1.5" class="a"/></svg>