<svg xmlns="http://www.w3.org/2000/svg" width="24" height="24" viewBox="0 0 24 24"><defs><style>.a{fill:none;stroke:#000;stroke-linecap:round;stroke-linejoin:round;stroke-width:1.5px}</style></defs><path d="M12 8.625a.375.375 0 1 0 .375.375.375.375 0 0 0-.375-.375" class="a"/><rect width="9" height="6" x="7.5" y="6" class="a" rx=".375" ry=".375"/><path d="M9 6V4.5a3 3 0 0 1 6 0V6M4.5 6A1.5 1.5 0 0 0 3 7.5v8.25h18V7.5A1.5 1.5 0 0 0 19.5 6m3.621 14.391A1.5 1.5 0 0 1 21.75 22.5H2.25a1.5 1.5 0 0 1-1.371-2.109L3 15.75h18zM10.5 19.5h3" class="a"/></svg>