<svg xmlns="http://www.w3.org/2000/svg" width="24" height="24" viewBox="0 0 24 24"><defs><style>.a{fill:none;stroke:#000;stroke-linecap:round;stroke-linejoin:round;stroke-width:1.5px}</style></defs><path d="M22.371 19.978a1.226 1.226 0 0 1-1.1 1.775H2.727a1.225 1.225 0 0 1-1.1-1.775L3 15.749h18z" class="a"/><path d="M19.5 3.753a1.5 1.5 0 0 1 1.5 1.5v10.5H3.006v-10.5a1.5 1.5 0 0 1 1.5-1.5m6.744 14.998h1.5" class="a"/><path d="M13.919 9.753H9v-4.5h7.5l-1.158 3.475a1.5 1.5 0 0 1-1.423 1.025M9 5.253v-2.25l-1.5-.75M9.75 12a.375.375 0 1 1-.375.375A.375.375 0 0 1 9.75 12m4.5 0a.375.375 0 1 1-.375.375.375.375 0 0 1 .375-.375" class="a"/></svg>