<svg xmlns="http://www.w3.org/2000/svg" width="24" height="24" viewBox="0 0 24 24"><defs><style>.a{fill:none;stroke:#000;stroke-linecap:round;stroke-linejoin:round;stroke-width:1.5px}</style></defs><path d="M17.786 11.25H6.214a.941.941 0 0 0-.964.916v6.417a.942.942 0 0 0 .964.917h11.572a.942.942 0 0 0 .964-.917v-6.417a.941.941 0 0 0-.964-.916" class="a"/><path d="m5.25 19.5-1.868 1.616a1.214 1.214 0 0 0 0 1.768 1.335 1.335 0 0 0 .922.366H19.7a1.335 1.335 0 0 0 .922-.366 1.214 1.214 0 0 0 0-1.768L18.75 19.5z" class="a"/><rect width="9" height="6" x=".75" y=".75" class="a" rx="1" ry="1"/><path d="m.75 2.25 4.5 2.25 4.5-2.25" class="a"/><rect width="9" height="6" x="14.25" y=".75" class="a" rx="1" ry="1"/><path d="m14.25 2.25 4.5 2.25 4.5-2.25" class="a"/></svg>