<svg xmlns="http://www.w3.org/2000/svg" width="24" height="24" viewBox="0 0 24 24"><defs><style>.a{fill:none;stroke:#000;stroke-linecap:round;stroke-linejoin:round;stroke-width:1.5px}</style></defs><rect width="19.5" height="22.5" x="2.25" y=".75" class="a" rx="1" ry="1"/><path d="M2.25 6.75h19.5" class="a"/><circle cx="12" cy="15" r="5.25" class="a"/><path d="M12.75 9.804 12 15m3.927 3.485L12 15m-5.118 1.174L12 15M9.75.75v6m4.125-3.375a.375.375 0 1 1-.375.375.375.375 0 0 1 .375-.375m4.5 0A.375.375 0 1 1 18 3.75a.375.375 0 0 1 .375-.375" class="a"/></svg>