<svg xmlns="http://www.w3.org/2000/svg" width="24" height="24" viewBox="0 0 24 24"><defs><style>.a{fill:none;stroke:#000;stroke-linecap:round;stroke-linejoin:round;stroke-width:1.5px}</style></defs><rect width="9" height="7.5" x="14.25" y="15.75" class="a" rx="1" ry="1"/><path d="M18.75 11.25a3 3 0 0 0-3 3v1.5h6v-1.5a3 3 0 0 0-3-3m0 7.904a.375.375 0 1 1-.375.375.375.375 0 0 1 .375-.375m-7.5-.404h-7.5a3 3 0 0 1-3-3v-12a3 3 0 0 1 3-3h12a3 3 0 0 1 3 3v4.5m-12-7.5v18m6-18v12m6-6h-18m12 6h-12" class="a"/></svg>