<svg xmlns="http://www.w3.org/2000/svg" width="24" height="24" viewBox="0 0 24 24"><defs><style>.a{fill:none;stroke:#000;stroke-linecap:round;stroke-linejoin:round;stroke-width:1.5px}</style></defs><path d="M15.75 23.25h-12a3 3 0 0 1-3-3v-12" class="a"/><path d="M5.25 16.5v.75a1.5 1.5 0 0 0 1.5 1.5h.75m0-18h-.75a1.5 1.5 0 0 0-1.5 1.5V3m18 0v-.75a1.5 1.5 0 0 0-1.5-1.5H21m0 18h.75a1.5 1.5 0 0 0 1.5-1.5v-.75M10.5.75h2.25m3 0H18m-7.5 18h2.25m3 0H18M23.25 6v2.25m0 3v2.25M5.25 6v2.25m0 3v2.25" class="a"/></svg>