<svg xmlns="http://www.w3.org/2000/svg" width="24" height="24" viewBox="0 0 24 24"><defs><style>.a{fill:none;stroke:#000;stroke-linecap:round;stroke-linejoin:round;stroke-width:1.5px}</style></defs><path d="M16.156.751a5.251 5.251 0 1 0 7.094 4.918" class="a"/><circle cx="18" cy="6.419" r="1.5" class="a"/><path d="M19.5 6.419v-5.25l2.25 1.5m-6 10.831v8.25a1.5 1.5 0 0 1-1.5 1.5h-12a1.5 1.5 0 0 1-1.5-1.5V5.251a1.5 1.5 0 0 1 1.5-1.5h7.5m-9 9.75h15" class="a"/><path d="M.75 7.501h3v6h-3zm3-.001h2.493a.5.5 0 0 1 .5.5v5.5H3.75zm-3 9.751h2.5a.5.5 0 0 1 .5.5v5.5m3.5-6h2a.5.5 0 0 1 .5.5v5.5h-3v-5.5a.5.5 0 0 1 .5-.5m-3.5.75h3v5.25h-3z" class="a"/><rect width="2.759" height="5.519" x="8.703" y="7.891" class="a" rx=".5" ry=".5" transform="rotate(-13.535 10.084 10.652)"/></svg>