<svg xmlns="http://www.w3.org/2000/svg" width="24" height="24" viewBox="0 0 24 24"><defs><style>.a{fill:none;stroke:#000;stroke-linecap:round;stroke-linejoin:round;stroke-width:1.5px}</style></defs><path d="M18.008.814v.864m3.723.655-.611.611m2.13 3.112h-.864m-.655 3.611-.611-.611m-3.112 2.13v-.864m-3.611-.655.611-.611m-2.13-3h.864m.655-3.723.611.611" class="a"/><circle cx="18" cy="6.064" r="2.25" class="a"/><path d="M12.75 23.186a6.018 6.018 0 0 0-6-6 6.018 6.018 0 0 0-6 6m2.768-13.154a6.235 6.235 0 0 0 6.948 1.4" class="a"/><circle cx="6.75" cy="11.936" r="3.75" class="a"/></svg>