<svg xmlns="http://www.w3.org/2000/svg" width="24" height="24" viewBox="0 0 24 24"><path d="M9.052 8.506a3 3 0 0 1 3-3 3.755 3.755 0 0 1 3.758 3.751 4.693 4.693 0 0 1-4.693 4.693A5.867 5.867 0 0 1 5.25 8.083 7.333 7.333 0 0 1 12.583.75a9.167 9.167 0 0 1 9.167 9.167V21c0 2.25-3.277 2.816-5.25 1.5a13.427 13.427 0 0 1-3.75-4.5" style="fill:none;stroke:#000;stroke-linecap:round;stroke-linejoin:round;stroke-width:1.5px"/><path d="m7.54 12.734-.04.016s-3.75 1.5-4.5 10.5M21.75 9.917s-3.059 2.889-6.088.515m2.713 5.318a.375.375 0 0 1 .375.375m-.75 0a.375.375 0 0 1 .375-.375m0 .75a.375.375 0 0 1-.375-.375m.75 0a.375.375 0 0 1-.375.375" style="fill:none;stroke:#000;stroke-linecap:round;stroke-linejoin:round;stroke-width:1.5px;fill-rule:evenodd"/></svg>