<svg xmlns="http://www.w3.org/2000/svg" width="24" height="24" viewBox="0 0 24 24"><defs><style>.a{fill:none;stroke:#000;stroke-linecap:round;stroke-linejoin:round;stroke-width:1.5px}</style></defs><rect width="16.5" height="13.5" x="3.75" y="9.75" class="a" rx="1.5" ry="1.5"/><path d="M6.75 9.75V6a5.25 5.25 0 0 1 10.5 0v3.75m-8.625 4.5a.375.375 0 1 0 .375.375.375.375 0 0 0-.375-.375m3.375 0a.375.375 0 1 0 .375.375.375.375 0 0 0-.375-.375m3.375 0a.375.375 0 1 0 .375.375.375.375 0 0 0-.375-.375M8.625 18a.375.375 0 1 0 .375.375.375.375 0 0 0-.375-.375M12 18a.375.375 0 1 0 .375.375A.375.375 0 0 0 12 18m3.375 0a.375.375 0 1 0 .375.375.375.375 0 0 0-.375-.375" class="a"/></svg>