<svg xmlns="http://www.w3.org/2000/svg" width="24" height="24" viewBox="0 0 24 24"><defs><style>.a{fill:none;stroke:#000;stroke-linecap:round;stroke-linejoin:round;stroke-width:1.5px}</style></defs><path d="M9.75 23.254h-6a1.5 1.5 0 0 1-1.5-1.5v-19.5a1.5 1.5 0 0 1 1.5-1.5h10.5a1.5 1.5 0 0 1 1.5 1.5V7.5" class="a"/><path d="M5.625 11.629A.375.375 0 1 0 6 12a.375.375 0 0 0-.375-.375" class="a"/><rect width="9" height="7.5" x="12.75" y="15.754" class="a" rx="1.5" ry="1.5"/><path d="M14.25 15.754v-1.5a3 3 0 0 1 3-3 3 3 0 0 1 3 3v1.5m-3 3.375a.375.375 0 1 0 .375.375.375.375 0 0 0-.375-.375" class="a"/></svg>