<svg xmlns="http://www.w3.org/2000/svg" width="24" height="24" viewBox="0 0 24 24"><defs><style>.a{fill:none;stroke:#000;stroke-linecap:round;stroke-linejoin:round;stroke-width:1.5px}</style></defs><path d="M20.25 18.754v1.5a1.5 1.5 0 0 1-1.5 1.5h-4.5m0-18h4.5a1.5 1.5 0 0 1 1.5 1.5v1.5m-9.856 16.492-9-1.286a.749.749 0 0 1-.644-.742V3.725a.75.75 0 0 1 .593-.734l9-2.221a.75.75 0 0 1 .907.734v21a.75.75 0 0 1-.856.742M18 9.753l-3 3h8.25m-5.25 3-3-3m-7.125-1.124" class="a"/><path d="M7.875 11.629A.375.375 0 1 0 8.25 12a.374.374 0 0 0-.375-.375" class="a"/></svg>