<svg xmlns="http://www.w3.org/2000/svg" width="24" height="24" viewBox="0 0 24 24"><defs><style>.a{fill:none;stroke:#000;stroke-linecap:round;stroke-linejoin:round;stroke-width:1.5px}</style></defs><path d="M9 4 5.25 7.75v10.5L9 22h6l3.75-3.75V7.75L15 4z" class="a"/><path d="M10.5 7.75 9 9.25v7.5l1.5 1.5h3l1.5-1.5v-7.5l-1.5-1.5zm0 10.5L9 22m4.5-3.75L15 22m0-5.25 3.75 1.5m-3.75-9 3.75-1.5M15 4l-1.5 3.75M9 4l1.5 3.75m-5.25 0L9 9.25m0 7.5-3.75 1.5M3 1v4.5M.75 3.25h4.5m16.5 19.5v-3m-1.5 1.5h3" class="a"/></svg>