<svg xmlns="http://www.w3.org/2000/svg" width="24" height="24" viewBox="0 0 24 24"><defs><style>.a{fill:none;stroke:#000;stroke-linecap:round;stroke-linejoin:round;stroke-width:1.5px}</style></defs><path d="M4.807 13.042.75 18l3.75.75 1.5 4.5 3.944-6.258m9.249-3.95L23.25 18l-3.75.75-1.5 4.5-3.944-6.258" class="a"/><circle cx="12" cy="9" r="8.25" class="a"/><path d="m12 13.5-3.835-4a2.268 2.268 0 0 1-.425-2.62 2.269 2.269 0 0 1 3.634-.59l.626.626.626-.626a2.269 2.269 0 0 1 3.634.59 2.268 2.268 0 0 1-.425 2.62z" class="a"/></svg>