<svg xmlns="http://www.w3.org/2000/svg" width="24" height="24" viewBox="0 0 24 24"><defs><style>.a{fill:none;stroke:#000;stroke-linecap:round;stroke-linejoin:round;stroke-width:1.5px}</style></defs><path d="M17.947 11.679 19.488 15h3a.735.735 0 0 1 .518 1.283l-2.6 2.563 1.442 3.313a.785.785 0 0 1-1.119.982l-3.486-1.96-3.487 1.96a.785.785 0 0 1-1.119-.982l1.443-3.313-2.6-2.563A.734.734 0 0 1 11.988 15h3l1.544-3.322a.8.8 0 0 1 1.415.001" class="a"/><path d="m8.223 16.5-5.811-6.063a5.673 5.673 0 0 1-1.063-6.549 5.673 5.673 0 0 1 9.085-1.474L12 3.98l1.566-1.566a5.673 5.673 0 0 1 9.085 1.474A5.676 5.676 0 0 1 22.632 9" class="a"/></svg>