<svg xmlns="http://www.w3.org/2000/svg" width="24" height="24" viewBox="0 0 24 24"><path d="M3.75 16.5v-3m3 3a1.5 1.5 0 0 1-3 0v3a1.5 1.5 0 0 1-3 0V8.25a2.247 2.247 0 0 1 .793-1.715M20.25 16.5v-3m-3 3a1.5 1.5 0 0 0 3 0v3a1.5 1.5 0 0 0 3 0V8.25a2.247 2.247 0 0 0-.793-1.715M12 16.125 5.608 9.457A3.785 3.785 0 0 1 4.9 5.091a3.782 3.782 0 0 1 6.057-.983L12 5.152l1.044-1.044a3.782 3.782 0 0 1 6.057.983 3.783 3.783 0 0 1-.709 4.366z" style="fill:none;stroke:#000;stroke-linecap:round;stroke-linejoin:round;stroke-width:1.5px"/></svg>