<svg xmlns="http://www.w3.org/2000/svg" id="Regular" width="24" height="24" viewBox="0 0 24 24"><defs><style>.cls-1{fill:none;stroke:#000;stroke-linecap:round;stroke-linejoin:round;stroke-width:1.5px}</style></defs><path d="m18.783 15.085-2.022 7.078a1.5 1.5 0 0 1-1.442 1.087H8.581a1.5 1.5 0 0 1-1.442-1.087l-2.022-7.078a2.99 2.99 0 0 1 1.759-3.609 13.677 13.677 0 0 1 10.148 0 2.99 2.99 0 0 1 1.759 3.609" class="cls-1"/><path d="m8.924 10.842.723-9.4A.75.75 0 0 1 10.4.75h3.111a.75.75 0 0 1 .747.693l.723 9.4M14.2 20.25H9.7l-.75-6h6z" class="cls-1"/></svg>