<svg xmlns="http://www.w3.org/2000/svg" id="Regular" width="24" height="24" viewBox="0 0 24 24"><defs><style>.cls-1{fill:none;stroke:#000;stroke-linecap:round;stroke-linejoin:round;stroke-width:1.5px}</style></defs><path d="m7.988 11.124 5.798 5.799a.5.5 0 0 1 0 .707l-5.08 5.08a1 1 0 0 1-1.415 0l-5.09-5.09a1 1 0 0 1 0-1.415l5.08-5.08a.5.5 0 0 1 .707 0" class="cls-1"/><path d="m13.045 7.513 4.35 4.35a.5.5 0 0 1 0 .708l-3.981 3.98-5.057-5.057 3.98-3.98a.5.5 0 0 1 .708 0" class="cls-1"/><path d="m20.7 7.82-3.675 3.674-3.611-3.612 6.714-6.714a.511.511 0 0 1 .872.361V7.1a1.026 1.026 0 0 1-.3.72" class="cls-1"/></svg>