<svg xmlns="http://www.w3.org/2000/svg" width="24" height="24" viewBox="0 0 24 24"><defs><style>.a{fill:none;stroke:#000;stroke-linecap:round;stroke-linejoin:round;stroke-width:1.5px}</style></defs><rect width="22.5" height="22.5" x=".75" y=".75" class="a" rx="1" ry="1"/><path d="M19.5 12a2.61 2.61 0 0 0-1.645-2.425 2.611 2.611 0 0 0-3.43-3.43 2.61 2.61 0 0 0-4.85 0 2.611 2.611 0 0 0-3.43 3.43 2.61 2.61 0 0 0 0 4.85 2.611 2.611 0 0 0 3.43 3.43 2.61 2.61 0 0 0 4.85 0 2.611 2.611 0 0 0 3.43-3.43A2.61 2.61 0 0 0 19.5 12" class="a"/></svg>