<svg xmlns="http://www.w3.org/2000/svg" id="Regular" width="24" height="24" viewBox="0 0 24 24"><defs><style>.cls-1{fill:none;stroke:#000;stroke-linecap:round;stroke-linejoin:round;stroke-width:1.5px}</style></defs><circle cx="5.25" cy="5.25" r="4.5" class="cls-1"/><path d="M5.25 3v2.25h1.5m16.5 18v-3m-22.5 3v-3h6m1.5 0h-1.5a1.5 1.5 0 0 1-1.138-.524l-4.5-5.25a1.5 1.5 0 0 1 2.276-1.952L7.44 17.25h.81" class="cls-1"/><circle cx="16.5" cy="4.875" r="2.625" class="cls-1"/><path d="M14.25 18.75h-3l1.5-4.5V12a3 3 0 0 1 3-3h1.5a3 3 0 0 1 3 3v2.25l1.5 4.5h-3v3a1.5 1.5 0 0 1-1.5 1.5h-1.5a1.5 1.5 0 0 1-1.5-1.5z" class="cls-1"/></svg>