<svg xmlns="http://www.w3.org/2000/svg" id="Regular" width="24" height="24" viewBox="0 0 24 24"><defs><style>.cls-1{fill:none;stroke:#000;stroke-linecap:round;stroke-linejoin:round;stroke-width:1.5px}</style></defs><path d="M14.75 20.811a4.5 4.5 0 1 0 5.821-6.178 6 6 0 0 1-3.244-3.53 31.251 31.251 0 0 1-1.57-9.6c0-.246-.007-.5-.007-.75M8.25.75c0 .253 0 .5-.007.75a31.281 31.281 0 0 1-1.57 9.6 6 6 0 0 1-3.244 3.53 4.5 4.5 0 1 0 5.821 6.181" class="cls-1"/><path d="M18 19.5c-3 0-3 2.25-6 2.25S9 19.5 6 19.5" class="cls-1"/></svg>