<svg xmlns="http://www.w3.org/2000/svg" id="Regular" width="24" height="24" viewBox="0 0 24 24"><defs><style>.cls-1{fill:none;stroke:#000;stroke-linecap:round;stroke-linejoin:round;stroke-width:1.5px}</style></defs><path d="M10.5 9.75H9a1.5 1.5 0 0 1-1.5-1.5v-3A1.5 1.5 0 0 1 9 3.75h1.5m-3 3h3" class="cls-1"/><path d="M17.25 17.25v4.5a1.5 1.5 0 0 1-1.5 1.5H2.25a1.5 1.5 0 0 1-1.5-1.5V2.25a1.5 1.5 0 0 1 1.5-1.5h13.5a1.5 1.5 0 0 1 1.5 1.5v3m-13.5 7.5h10.5m0-4.5 9 9m-16.5-1.5v3" class="cls-1"/><path d="M9.75 15.75h3l-3 3h3" class="cls-1"/></svg>