<svg xmlns="http://www.w3.org/2000/svg" id="Regular" width="24" height="24" viewBox="0 0 24 24"><defs><style>.cls-1{fill:none;stroke:#000;stroke-linecap:round;stroke-linejoin:round;stroke-width:1.5px}</style></defs><circle cx="10.5" cy="10.501" r="9.75" class="cls-1"/><path d="m17.394 17.395 5.856 5.856m-9-12.751-3.75 2.25-3.75-2.25V6.85a1.5 1.5 0 0 1 .728-1.286l2.25-1.35a1.5 1.5 0 0 1 1.544 0l2.25 1.35a1.5 1.5 0 0 1 .728 1.286zm-3.75 2.251v3M6.75 10.5l-1 .668a1.5 1.5 0 0 0-.416 2.08l.668 1M14.25 10.5l1 .668a1.5 1.5 0 0 1 .416 2.08l-.668 1M9.75 8.251h1.5" class="cls-1"/></svg>