<svg xmlns="http://www.w3.org/2000/svg" id="Regular" width="24" height="24" viewBox="0 0 24 24"><defs><style>.cls-1{fill:none;stroke:#000;stroke-linecap:round;stroke-linejoin:round;stroke-width:1.5px}</style></defs><rect width="13.5" height="22.5" x="5.25" y=".75" class="cls-1" rx="2.25" ry="2.25"/><path d="M5.25 18.75h13.5m-3-9.75a.75.75 0 0 0-.75-.75h-1.5v-1.5a.75.75 0 0 0-.75-.75h-1.5a.75.75 0 0 0-.75.75v1.5H9a.75.75 0 0 0-.75.75v1.5a.75.75 0 0 0 .75.75h1.5v1.5a.75.75 0 0 0 .75.75h1.5a.75.75 0 0 0 .75-.75v-1.5H15a.75.75 0 0 0 .75-.75z" class="cls-1"/></svg>