<svg xmlns="http://www.w3.org/2000/svg" id="Regular" width="24" height="24" viewBox="0 0 24 24"><defs><style>.cls-1{fill:none;stroke:#000;stroke-linecap:round;stroke-linejoin:round;stroke-width:1.5px}</style></defs><path d="m7.894 19.038-3.182-3.182a1.5 1.5 0 0 1 0-2.122l9.016-9.015 5.3 5.3-9.015 9.016a1.5 1.5 0 0 1-2.119.003" class="cls-1"/><path d="m2.592 19.039 2.651-2.652 2.121 2.121-2.651 2.652zM1 22.75l2.652-2.652m8.485-16.97 8.485 8.485M15.32 6.31l3.711-3.713 2.122 2.122L17.44 8.43zM17.44 1.006l5.304 5.304m-9.016 4.773 2.121 2.121m-5.303 1.061 2.121 2.121" class="cls-1"/></svg>