<svg xmlns="http://www.w3.org/2000/svg" id="Regular" width="24" height="24" viewBox="0 0 24 24"><defs><style>.cls-1{fill:none;stroke:#000;stroke-linecap:round;stroke-linejoin:round;stroke-width:1.5px}</style></defs><circle cx="12" cy="3.375" r="2.625" class="cls-1"/><circle cx="20.25" cy="20.25" r="3" class="cls-1"/><path d="M3.75 15.75v3m8.25-3v3m2.25-7.371-.311.31a1.5 1.5 0 0 0 2.122 2.122l.75-.75A1.5 1.5 0 0 0 17.25 12v-1.5a3 3 0 0 0-3-3h-4.5a3 3 0 0 0-3 3V12a1.5 1.5 0 0 0 .439 1.061l.75.75a1.5 1.5 0 0 0 2.122-2.122l-.311-.31m-9 7.371H13.5a2.25 2.25 0 0 1 0 4.5H.75" class="cls-1"/></svg>