<svg xmlns="http://www.w3.org/2000/svg" id="Regular" width="24" height="24" viewBox="0 0 24 24"><defs><style>.cls-1{fill:none;stroke:#000;stroke-linecap:round;stroke-linejoin:round;stroke-width:1.5px}</style></defs><path d="M14.422 3.75a1.5 1.5 0 0 1 0-3h6a1.5 1.5 0 0 1 0 3z" class="cls-1"/><circle cx="19.672" cy="21" r="2.25" class="cls-1"/><path d="M5.939 22.318a.75.75 0 0 1-.728.932H2.633a.75.75 0 0 1-.728-.932l.375-1.5a.749.749 0 0 1 .728-.568h1.828a.749.749 0 0 1 .728.568z" class="cls-1"/><path d="M3.922 20.25 6.3 6.01a4.5 4.5 0 0 1 4.439-3.76h2.188" class="cls-1"/><path d="M5.172 12.75h9.987a3 3 0 0 1 2.885 2.176l.948 3.93" class="cls-1"/></svg>