<svg xmlns="http://www.w3.org/2000/svg" id="Regular" width="24" height="24" viewBox="0 0 24 24"><defs><style>.cls-1{fill:none;stroke:#000;stroke-linecap:round;stroke-linejoin:round;stroke-width:1.5px}</style></defs><path d="M9.267 19.069a3 3 0 1 0 3.938-1.578 3 3 0 0 0-3.938 1.578" class="cls-1"/><path d="m9.267 19.069 1.756-4.1a12.037 12.037 0 0 1 2.7-3.919c2.385-2.3 5.81-4.1 8.558-4.194M6.509 17.889a3 3 0 1 1-1.578-3.939 3 3 0 0 1 1.578 3.939M22.8 6.506a.374.374 0 0 0-.492.2M23 7a.374.374 0 0 0-.2-.492m-.294.692A.375.375 0 0 0 23 7m-.691-.3a.375.375 0 0 0 .2.492" class="cls-1"/><path d="m6.509 17.889 1.316-3.076A3 3 0 0 1 10.478 13l1.654-.058a7.779 7.779 0 0 1 2.347-7.954c2.479-2.1 3.645-2.721 4.16-2.9m.516-.406a.375.375 0 0 0-.492.2m.689.292a.376.376 0 0 0-.2-.492m-.292.689a.374.374 0 0 0 .492-.2m-.689-.292a.373.373 0 0 0 .2.492" class="cls-1"/></svg>