<svg xmlns="http://www.w3.org/2000/svg" id="Regular" width="24" height="24" viewBox="0 0 24 24"><defs><style>.cls-1{fill:none;stroke:#000;stroke-linecap:round;stroke-linejoin:round;stroke-width:1.5px}</style></defs><rect width="12" height="9" x="11.25" y="14.25" class="cls-1" rx="1" ry="1"/><path d="M16 11.25h2.5a1 1 0 0 1 1 1v2H15v-2a1 1 0 0 1 1-1m1.25 6v3m-1.5-1.5h3m-18-1.5a6.753 6.753 0 0 1 9.4-6.208M3.945 2.781a6.848 6.848 0 0 0 4.93 2.094 6.843 6.843 0 0 0 2.712-.558" class="cls-1"/><circle cx="7.5" cy="4.875" r="4.125" class="cls-1"/><path d="M7.5 10.5v6.75" class="cls-1"/></svg>