<svg xmlns="http://www.w3.org/2000/svg" width="24" height="24" viewBox="0 0 24 24"><defs><style>.a{fill:none;stroke:#000;stroke-linecap:round;stroke-linejoin:round;stroke-width:1.5px}</style></defs><path d="M15 11.261H9a3 3 0 0 1 3-3 3 3 0 0 1 3 3" class="a"/><circle cx="12" cy="6.011" r="2.25" class="a"/><rect width="16.5" height="10.5" x="3.75" y=".761" class="a" rx="3" ry="3"/><circle cx="4.5" cy="18.011" r="2.25" class="a"/><path d="M8.25 23.261a4.25 4.25 0 0 0-7.5 0" class="a"/><circle cx="19.5" cy="18.011" r="2.25" class="a"/><path d="M23.25 23.261a4.25 4.25 0 0 0-7.5 0" class="a"/><circle cx="12" cy="18.011" r="2.25" class="a"/><path d="M15.75 23.261a4.25 4.25 0 0 0-7.5 0" class="a"/></svg>