<svg xmlns="http://www.w3.org/2000/svg" width="24" height="24" viewBox="0 0 24 24"><defs><style>.a{fill:none;stroke:#000;stroke-linecap:round;stroke-linejoin:round;stroke-width:1.5px}</style></defs><path d="M16.875 12.75a.375.375 0 1 0 .375.375.375.375 0 0 0-.375-.375m-2.625 2.625a.375.375 0 0 0-.375-.375m-.375.375a.375.375 0 0 0 .75 0M13.875 15a.375.375 0 0 0-.375.375m-.75-5.625h6a4.5 4.5 0 1 0-4.458-4.915A2.988 2.988 0 0 0 9 6.75" class="a"/><circle cx="6.75" cy="13.125" r="3.375" class="a"/><path d="M12.75 23.25a6.054 6.054 0 0 0-12 0" class="a"/></svg>