<svg xmlns="http://www.w3.org/2000/svg" width="24" height="24" viewBox="0 0 24 24"><defs><style>.a{fill:none;stroke:#000;stroke-linecap:round;stroke-linejoin:round;stroke-width:1.5px}</style></defs><path d="M6.76 17.427a2.908 2.908 0 0 1-2.985 2.823 2.908 2.908 0 0 1-3-2.8L.75 11.823A2.908 2.908 0 0 1 3.735 9a2.909 2.909 0 0 1 3.005 2.8zM.753 13.5h2.996m-2.989 3h2.989m.001 3.75.01 2.993m-1.51.007h3m4.275-8.456A6.751 6.751 0 0 1 20.25 20.25M9.945 5.781a6.857 6.857 0 0 0 7.642 1.536" class="a"/><circle cx="13.5" cy="7.875" r="4.125" class="a"/><path d="M6.944 5.884A6.754 6.754 0 0 1 13.5.75a6.75 6.75 0 0 1 6.75 6.75V9" class="a"/><rect width="3" height="3.75" x="20.25" y="7.5" class="a" rx="1" ry="1"/></svg>