<svg xmlns="http://www.w3.org/2000/svg" width="24" height="24" viewBox="0 0 24 24"><defs><style>.a{fill:none;stroke:#000;stroke-linecap:round;stroke-linejoin:round;stroke-width:1.5px}</style></defs><path d="M18.75.75v1.5h-4.5V.75H3.75a3 3 0 0 0-3 3V15h1.5v3H.75v2.25a3 3 0 0 0 3 3h16.5a3 3 0 0 0 3-3V3.75a3 3 0 0 0-3-3zm0 14.25H21m-2.25-3H21M7.5 15h2.25M7.5 12h2.25m6 6v2.25m-3-2.25v2.25m3-13.5V9m-3-2.25V9" class="a"/><rect width="9" height="9" x="9.75" y="9" class="a" rx="1.5" ry="1.5"/><path d="M3.75 3.75v3m3-3v3" class="a"/></svg>