<svg xmlns="http://www.w3.org/2000/svg" width="24" height="24" viewBox="0 0 24 24"><defs><style>.a{fill:none;stroke:#000;stroke-linecap:round;stroke-linejoin:round;stroke-width:1.5px}</style></defs><path d="m21.294 10.662 1.454.476a.718.718 0 0 1 .494.679.839.839 0 0 1-.46.751l-1.143.576a.838.838 0 0 0 .006 1.5l1.472.729m-11.86 7.877 4.5-6m4.5 6-4.5-6" class="a"/><path d="M20.757 9.236a1.126 1.126 0 0 1-.84 2.08l-4.965-1.54L16.115 6.9z" class="a"/><path d="M16.115 6.9c.388-.96-.6-1.917-1.338-2.215a3.106 3.106 0 1 0-2.326 5.76c.738.3 2.114.295 2.5-.665z" class="a"/><path d="M20.257 5.25v-3a1.5 1.5 0 0 0-1.5-1.5h-13.5a1.5 1.5 0 0 0-1.5 1.5v7.5a1.5 1.5 0 0 0 1.5 1.5h.179m5.821 7.5h-9a1.5 1.5 0 0 1-1.34-2.171l1.836-3.671a3 3 0 0 1 2.683-1.658h3.571m2.25 4.5h1.5m7.5 3h1.5a1.482 1.482 0 0 0 1.094-.473m-7.094-8.251V23.25" class="a"/></svg>