<svg xmlns="http://www.w3.org/2000/svg" width="24" height="24" viewBox="0 0 24 24"><defs><style>.a{fill:none;stroke:#000;stroke-linecap:round;stroke-linejoin:round;stroke-width:1.5px}</style></defs><path d="M13.7 8.2a.375.375 0 1 1-.375.375.375.375 0 0 1 .375-.375m2.915 3.113a2.487 2.487 0 0 1-.963.2 2.46 2.46 0 0 1-1.467-.489M9.783 6.619a5.847 5.847 0 0 0 4.574-2.029" class="a"/><path d="M13.7 1.083c0 8.748 7.456 1.962 3.712 20.754a.49.49 0 0 0 .847.42C22.551 17.382 26.129.75 15.652.75a5.869 5.869 0 0 0-5.869 5.869v1.957a5.87 5.87 0 0 0 5.869 5.87 6.18 6.18 0 0 0 2.807-.7" class="a"/><rect width="6" height="9" x="1.5" y="11.25" class="a" rx="2.25" ry="2.25"/><path d="M4.5 20.25v3m-3-6h6m-6-3H3m3 0h1.5" class="a"/></svg>