<svg xmlns="http://www.w3.org/2000/svg" width="24" height="24" viewBox="0 0 24 24"><defs><style>.a{fill:none;stroke:#000;stroke-linecap:round;stroke-linejoin:round;stroke-width:1.5px}</style></defs><path d="M13.875 13.875v6.267a2.733 2.733 0 0 1-2.732 2.733H4.608a2.734 2.734 0 0 1-2.733-2.733V4.607a2.733 2.733 0 0 1 2.733-2.732h6.267m-9 16.5h12" class="a"/><path d="M20.624 4.875h-7.671a1.5 1.5 0 0 0-1.4 2.026l1.307 3.487a.75.75 0 0 0 .7.487h6.461a.75.75 0 0 0 .7-.487L22.029 6.9a1.5 1.5 0 0 0-1.405-2.025m-7.585 0 1.5-3.75m6 3.75-1.5-3.75m-3.664 7.5v-1.5m3 1.5v-1.5" class="a"/></svg>