<svg xmlns="http://www.w3.org/2000/svg" width="24" height="24" viewBox="0 0 24 24"><defs><style>.a{fill:none;stroke:#000;stroke-linecap:round;stroke-linejoin:round;stroke-width:1.5px}</style></defs><path d="M15.375 15v4.767a2.734 2.734 0 0 1-2.733 2.733H6.107a2.733 2.733 0 0 1-2.732-2.733V4.232A2.732 2.732 0 0 1 6.107 1.5h7.768M3.375 18h12" class="a"/><path d="M20.625 1.5 18.375 9h-6l-1.5-4.5h8.85m-6.975 6.75a.375.375 0 1 1-.375.375.375.375 0 0 1 .375-.375m5.25 0a.375.375 0 1 1-.375.375.375.375 0 0 1 .375-.375" class="a"/></svg>