<svg xmlns="http://www.w3.org/2000/svg" width="24" height="24" viewBox="0 0 24 24"><defs><style>.a{fill:none;stroke:#000;stroke-linecap:round;stroke-linejoin:round;stroke-width:1.5px}</style></defs><path d="M5.25 3.795V17.25m4.5-13.5v6m-9-1.5h10.5M9 12.75H.75m6 4.5h-4.5a1.5 1.5 0 0 1-1.5-1.5v-11a.989.989 0 0 1 .975-1H14.25" class="a"/><ellipse cx="15.722" cy="8.272" class="a" rx="1.506" ry="1.478"/><ellipse cx="21.744" cy="6.499" class="a" rx="1.506" ry="1.478"/><path d="M17.228 8.272V2.917a1.185 1.185 0 0 1 .823-1.117l3.614-.989a1.224 1.224 0 0 1 1.085.162 1.175 1.175 0 0 1 .5.959V6.5m-1.523 16.75a3.906 3.906 0 0 0-3.913-3.75H15.75v-5.625a1.875 1.875 0 0 0-3.75 0v7.473l-1.3-1.3A1.875 1.875 0 0 0 8.049 22.7l.549.549" class="a"/></svg>