<svg xmlns="http://www.w3.org/2000/svg" width="24" height="24" viewBox="0 0 24 24"><defs><style>.a{fill:none;stroke:#000;stroke-linecap:round;stroke-linejoin:round;stroke-width:1.5px}</style></defs><path d="M.97 6.22A.75.75 0 0 0 1.5 7.5h21a.75.75 0 0 0 .75-.75V4.5a.75.75 0 0 0-.75-.75H5.925a6 6 0 0 0-4.243 1.757zM6.75 7.5v15a.75.75 0 0 1-.75.75H3a.75.75 0 0 1-.75-.75v-15m12 0v15a.75.75 0 0 1-.75.75h-3a.75.75 0 0 1-.75-.75v-15m12 0v15a.75.75 0 0 1-.75.75h-3a.75.75 0 0 1-.75-.75v-15" class="a"/><path d="M6.5.75h2a.5.5 0 0 1 .5.5v2.5H6v-2.5a.5.5 0 0 1 .5-.5m12 0h2a.5.5 0 0 1 .5.5v2.5h-3v-2.5a.5.5 0 0 1 .5-.5M2.25 11.25h1.5m-1.5 3h1.5m-1.5 3h1.5m6-6h1.5m-1.5 3h1.5m-1.5 3h1.5m6-6h1.5m-1.5 3h1.5m-1.5 3h1.5" class="a"/></svg>