<svg xmlns="http://www.w3.org/2000/svg" width="24" height="24" viewBox="0 0 24 24"><defs><style>.a{fill:none;stroke:#000;stroke-linecap:round;stroke-linejoin:round;stroke-width:1.5px}</style></defs><path d="M15 13.5a3 3 0 0 0 3-3V9a3 3 0 0 0-3-3h-1.5v7.5zm-9-6A1.5 1.5 0 0 1 7.5 6h1.135a1.873 1.873 0 0 1-.008 3.75 1.873 1.873 0 0 1 .008 3.75H7.5A1.5 1.5 0 0 1 6 12" class="a"/><rect width="22.5" height="16.5" x=".75" y="1.5" class="a" rx="1" ry="1"/><path d="M14.25 22.5h-4.5l.75-4.5h3zm-7.5 0h10.5" class="a"/></svg>