<svg xmlns="http://www.w3.org/2000/svg" width="24" height="24" viewBox="0 0 24 24"><defs><style>.a{fill:none;stroke:#000;stroke-linecap:round;stroke-linejoin:round;stroke-width:1.5px}</style></defs><circle cx="13.875" cy="11.044" r="1.875" class="a"/><circle cx="21.375" cy="8.794" r="1.875" class="a"/><path d="M15.75 11.044V4.25a1.5 1.5 0 0 1 1.026-1.423l4.5-1.25A1.5 1.5 0 0 1 23.25 3v5.794" class="a"/><path d="M18.75 13.5V21a1.5 1.5 0 0 1-1.5 1.5h-15A1.5 1.5 0 0 1 .75 21V6a1.5 1.5 0 0 1 1.5-1.5h10.5m-6 0v18m6-6.75v6.75m-12-6h18m-18-6H9" class="a"/></svg>