<svg xmlns="http://www.w3.org/2000/svg" width="24" height="24" viewBox="0 0 24 24"><path d="M2.75 7.75h6.5a.5.5 0 0 1 .5.5v14.5h-7.5V8.25a.5.5 0 0 1 .5-.5m1-3h4.5v3h-4.5zm2.921-3.158a.75.75 0 0 0-1.342 0L3.75 4.75h4.5zM5.25 10.75h1.5m-1.5 3h1.5m-1.5 3h1.5m-1.5 3h1.5m8-12h6.5a.5.5 0 0 1 .5.5v14.5h-7.5V8.25a.5.5 0 0 1 .5-.5m1-3h4.5v3h-4.5zm2.921-3.158a.75.75 0 0 0-1.342 0L15.75 4.75h4.5zM17.25 10.75h1.5m-1.5 3h1.5m-1.5 3h1.5m-1.5 3h1.5m-18 3h22.5m-13.5-12h4.5v3h-4.5z" style="fill:none;stroke:#000;stroke-linecap:round;stroke-linejoin:round;stroke-width:1.5px"/></svg>