<svg xmlns="http://www.w3.org/2000/svg" width="24" height="24" viewBox="0 0 24 24"><defs><style>.a{fill:none;stroke:#000;stroke-linecap:round;stroke-linejoin:round;stroke-width:1.5px}</style></defs><path d="M18.75 14.25h-2.033a1.342 1.342 0 0 0-.5 2.587l2.064.825a1.342 1.342 0 0 1-.5 2.588H15.75m1.5-6v-.75m0 7.5v-.75" class="a"/><circle cx="17.25" cy="17.25" r="6" class="a"/><path d="M4.5 23.25 8.25 21 6 17.25M.9 15.81a6.752 6.752 0 0 0 6.884 4.417M19.5.75 15.75 3 18 6.75m5.1 1.439a6.752 6.752 0 0 0-6.884-4.417M11.25 4.5A3.75 3.75 0 1 0 6 7.933V9.75h3V7.933A3.746 3.746 0 0 0 11.25 4.5M6 12h3" class="a"/></svg>