<svg xmlns="http://www.w3.org/2000/svg" width="24" height="24" viewBox="0 0 24 24"><defs><style>.a{fill:none;stroke:#000;stroke-linecap:round;stroke-linejoin:round;stroke-width:1.5px}</style></defs><path d="M13.125 2.25H10.5a1.341 1.341 0 0 0-.5 2.587l2.655.825a1.342 1.342 0 0 1-.5 2.588H9m2.25-6V.75m0 9.75V8.25" class="a"/><circle cx="4.5" cy="17.625" r="2.625" class="a"/><path d="M8.25 23.25a4.25 4.25 0 0 0-7.5 0" class="a"/><circle cx="12" cy="17.625" r="2.625" class="a"/><path d="M15.75 23.25a4.25 4.25 0 0 0-7.5 0" class="a"/><circle cx="19.5" cy="17.625" r="2.625" class="a"/><path d="M23.25 23.25a4.25 4.25 0 0 0-7.5 0M6.375 10.5a6.895 6.895 0 0 1 0-9.75m9.75 0a6.895 6.895 0 0 1 0 9.75" class="a"/></svg>