<svg xmlns="http://www.w3.org/2000/svg" width="24" height="24" viewBox="0 0 24 24"><defs><style>.a{fill:none;stroke:#000;stroke-linecap:round;stroke-linejoin:round;stroke-width:1.5px}</style></defs><path d="M17.25 14.452c0-1.492 2.662-2.353 5.479-2.448a.565.565 0 0 1 .367.113.38.38 0 0 1 .154.3v6.552a.457.457 0 0 1-.48.409A9.633 9.633 0 0 0 17.25 21a9.633 9.633 0 0 0-5.52-1.629.458.458 0 0 1-.48-.409v-6.549a.38.38 0 0 1 .154-.3.565.565 0 0 1 .367-.113c2.817.1 5.479.96 5.479 2.452m0 0v6.551" class="a"/><path d="M8.25 17.253h-6.5a1.012 1.012 0 0 1-1-1.017V4.021A1.013 1.013 0 0 1 1.75 3h16a1.012 1.012 0 0 1 1 1.018v5.09M4.663 21.003H8.25m0-3.75v3.75" class="a"/><path d="m3.75 6.753 3 2.25-3 2.25m6-2.25h3.75" class="a"/></svg>