<svg xmlns="http://www.w3.org/2000/svg" width="24" height="24" viewBox="0 0 24 24"><defs><style>.a{fill:none;stroke:#000;stroke-linecap:round;stroke-linejoin:round;stroke-width:1.5px}</style></defs><path d="M15 23.253H9l.75-4.5h4.5zm-8.25 0h10.5" class="a"/><rect width="22.5" height="18" x=".75" y=".753" class="a" rx="3" ry="3"/><path d="M18.75 5.253h-2.033a1.342 1.342 0 0 0-.5 2.588l2.064.825a1.342 1.342 0 0 1-.5 2.587H15.75m1.5-6v-.75m0 7.5v-.75m-16.5 0 3.97-3.969a.749.749 0 0 1 1.06 0l1.94 1.939a.749.749 0 0 0 1.06 0l3.97-3.97m-12 10.5h22.5" class="a"/></svg>