<svg xmlns="http://www.w3.org/2000/svg" width="24" height="24" viewBox="0 0 24 24"><defs><style>.a{fill:none;stroke:#000;stroke-linecap:round;stroke-linejoin:round;stroke-width:1.5px}</style></defs><path d="M10.5 3.75H6.75a1.5 1.5 0 0 0-1.5 1.5v4.5" class="a"/><path d="m3 7.5 2.25 2.25L7.5 7.5m9.75-5.25V1.5a.75.75 0 0 0-.75-.75h-2.25a.75.75 0 0 0-.75.75v5.25a1.5 1.5 0 0 0 1.5 1.5h6.75a1.5 1.5 0 0 0 1.5-1.5V3a.75.75 0 0 0-.75-.75z" class="a"/><rect width="12" height="7.5" x=".75" y="12.75" class="a" rx="1.5" ry="1.5"/><path d="M6.75 20.25v3m-2.25 0H9" class="a"/></svg>