<svg xmlns="http://www.w3.org/2000/svg" width="24" height="24" viewBox="0 0 24 24"><defs><style>.a{fill:none;stroke:#000;stroke-linecap:round;stroke-linejoin:round;stroke-width:1.5px}</style></defs><path d="M4.5 23.25v-6.265A9.365 9.365 0 0 1 10.875.75c7.5 0 8.823 6.5 11.625 13.5h-3v3a3 3 0 0 1-3 3H15v3" class="a"/><rect width="9" height="7.5" x="7.5" y="9.75" class="a" rx="1.5" ry="1.5"/><path d="M12 5.25a3 3 0 0 0-3 3v1.5h6v-1.5a3 3 0 0 0-3-3m0 7.904a.375.375 0 1 0 .375.375.375.375 0 0 0-.375-.375" class="a"/></svg>