<svg xmlns="http://www.w3.org/2000/svg" width="24" height="24" viewBox="0 0 24 24"><path d="M.75 11h22.5m-1.5 0H2.25a9.741 9.741 0 0 0 5.265 8.653.752.752 0 0 1 .29 1.066 10.27 10.27 0 0 0-.648 1.223A.75.75 0 0 0 7.841 23h8.318a.751.751 0 0 0 .684-1.058 10.27 10.27 0 0 0-.648-1.223.753.753 0 0 1 .29-1.066A9.741 9.741 0 0 0 21.75 11m-7.5-3 3.957-6.595a1.316 1.316 0 0 1 1.545-.571 1.316 1.316 0 0 1 .832 1.666L18.75 8" style="fill:none;stroke:#000;stroke-linecap:round;stroke-linejoin:round;stroke-width:1.5px"/></svg>