<svg xmlns="http://www.w3.org/2000/svg" width="24" height="24" viewBox="0 0 24 24"><path d="M22.875 11.25a.375.375 0 0 1-.375-.375m.75 0a.375.375 0 0 1-.375.375m0-.75a.375.375 0 0 1 .375.375m-.75 0a.375.375 0 0 1 .375-.375m0 4.5a.375.375 0 0 1-.375-.375m.75 0a.375.375 0 0 1-.375.375m0-.75a.375.375 0 0 1 .375.375m-.75 0a.375.375 0 0 1 .375-.375m0 4.5a.375.375 0 0 1-.375-.375m.75 0a.375.375 0 0 1-.375.375m0-.75a.375.375 0 0 1 .375.375m-.75 0a.375.375 0 0 1 .375-.375m-21.75-6.75a.375.375 0 0 1-.375-.375m.75 0a.375.375 0 0 1-.375.375m0-.75a.375.375 0 0 1 .375.375m-.75 0a.375.375 0 0 1 .375-.375m0 4.5a.375.375 0 0 1-.375-.375m.75 0a.375.375 0 0 1-.375.375m0-.75a.375.375 0 0 1 .375.375m-.75 0a.375.375 0 0 1 .375-.375m0 4.5a.375.375 0 0 1-.375-.375m.75 0a.375.375 0 0 1-.375.375m0-.75a.375.375 0 0 1 .375.375m-.75 0A.375.375 0 0 1 1.125 18M.75 21.75a1.5 1.5 0 0 0 1.5 1.5h19.5a1.5 1.5 0 0 0 1.5-1.5M23.049 7.5a1.5 1.5 0 0 0-1.3-.75H18a6 6 0 0 0-12 0H2.25a1.5 1.5 0 0 0-1.3.75m11.58 2.573 1.249 2.458h2.127a.582.582 0 0 1 .419 1l-1.953 1.922 1.082 2.485a.589.589 0 0 1-.839.737L12 17.2l-2.615 1.471a.589.589 0 0 1-.839-.737l1.082-2.485-1.953-1.922a.582.582 0 0 1 .419-1h2.127l1.248-2.458a.6.6 0 0 1 1.061.004" style="fill:none;stroke:#000;stroke-linecap:round;stroke-linejoin:round;stroke-width:1.5px"/></svg>