<svg xmlns="http://www.w3.org/2000/svg" width="24" height="24" viewBox="0 0 24 24"><defs><style>.a{fill:none;stroke:#000;stroke-linecap:round;stroke-linejoin:round;stroke-width:1.5px}</style></defs><rect width="19.5" height="12" x="2.25" y=".75" class="a" rx=".639" ry=".639"/><path d="M14.25 15.75h-4.5l1.125-3h2.25zM9 18.375a.375.375 0 1 1-.375.375.375.375 0 0 1 .375-.375" class="a"/><rect width="22.5" height="6" x=".75" y="15.75" class="a" rx="1" ry="1"/><path d="M3.75 21.75v1.5m16.5-1.5v1.5M12 15.75h10.25a1 1 0 0 1 1 1v2H12zm0 3h11.25v2a1 1 0 0 1-1 1H12z" class="a"/></svg>