<svg xmlns="http://www.w3.org/2000/svg" id="Regular" width="24" height="24" viewBox="0 0 24 24"><defs><style>.cls-1{fill:none;stroke:#000;stroke-linecap:round;stroke-linejoin:round;stroke-width:1.5px}</style></defs><path d="M8.25 17.25V15a3.75 3.75 0 0 1 7.5 0v2.25h-1.5l-.75 6h-3l-.75-6z" class="cls-1"/><circle cx="12" cy="6.75" r="3" class="cls-1"/><path d="m.75 23.25 4.5-12.75m18 12.75-4.5-12.75m3.439-8.689L23.25.75m-1.061 4.243 1.061 1.06m-4.243-1.06-1.06 1.06m1.06-4.242L17.947.75M4.993 3.311l1.06-1.061m-1.06 4.243 1.06 1.06m-4.242-1.06L.75 7.553m1.061-4.242L.75 2.25" class="cls-1"/></svg>