<svg xmlns="http://www.w3.org/2000/svg" id="Regular" width="24" height="24" viewBox="0 0 24 24"><defs><style>.cls-1{fill:none;stroke:#000;stroke-linecap:round;stroke-linejoin:round;stroke-width:1.5px}</style></defs><path d="M17.25 20.25a.375.375 0 1 0 .375.375.375.375 0 0 0-.375-.375m0-2.25v-3" class="cls-1"/><path d="M23.063 20.682a1.774 1.774 0 0 1-1.587 2.568h-8.452a1.774 1.774 0 0 1-1.586-2.568l4.226-8.452a1.774 1.774 0 0 1 3.173 0z" class="cls-1"/><circle cx="6" cy="3.75" r="3" class="cls-1"/><path d="M11.25 14.25v-.75a5.25 5.25 0 0 0-10.5 0v2.25H3l.75 7.5h4.5l.387-3.862" class="cls-1"/><circle cx="16.5" cy="3.375" r="2.625" class="cls-1"/><path d="M20.4 9a4.5 4.5 0 0 0-7.285-.71" class="cls-1"/></svg>