<svg xmlns="http://www.w3.org/2000/svg" id="Regular" width="24" height="24" viewBox="0 0 24 24"><defs><style>.cls-1{fill:none;stroke:#000;stroke-linecap:round;stroke-linejoin:round;stroke-width:1.5px}</style></defs><path d="M12.75 14.25a6 6 0 0 0-6-5.25 6 6 0 0 0-6 5.25" class="cls-1"/><circle cx="6.75" cy="4.125" r="3.375" class="cls-1"/><circle cx="16.5" cy="3.375" r="2.625" class="cls-1"/><path d="M19.888 8.29a4.5 4.5 0 0 0-6.776 0" class="cls-1"/><rect width="9" height="7.5" x="14.25" y="15.75" class="cls-1" rx="1.5" ry="1.5"/><path d="M18.75 11.25a3 3 0 0 0-3 3v1.5h6v-1.5a3 3 0 0 0-3-3m0 7.904a.375.375 0 1 0 .375.375.374.374 0 0 0-.375-.375" class="cls-1"/></svg>