<svg xmlns="http://www.w3.org/2000/svg" id="Regular" width="24" height="24" viewBox="0 0 24 24"><defs><style>.cls-1{fill:none;stroke:#000;stroke-linecap:round;stroke-linejoin:round;stroke-width:1.5px}</style></defs><circle cx="12" cy="3.75" r="3" class="cls-1"/><path d="M15.75 14.25V12a3.75 3.75 0 0 0-7.5 0v2.25h1.5l.75 6h3l.75-6z" class="cls-1"/><circle cx="4.5" cy="6" r="2.25" class="cls-1"/><path d="M5.7 9.947A3.753 3.753 0 0 0 .75 13.5v.75h1.5l.75 4.5h3l.376-2.256" class="cls-1"/><circle cx="19.5" cy="6" r="2.25" class="cls-1"/><path d="M18.3 9.947a3.753 3.753 0 0 1 4.95 3.553v.75h-1.5l-.75 4.5h-3l-.376-2.256M23.25 21c0 1.243-5.037 2.25-11.25 2.25S.75 22.243.75 21" class="cls-1"/></svg>