<svg xmlns="http://www.w3.org/2000/svg" id="Regular" width="24" height="24" viewBox="0 0 24 24"><defs><style>.cls-1{fill:none;stroke:#000;stroke-linecap:round;stroke-linejoin:round;stroke-width:1.5px}</style></defs><rect width="12" height="12" x="11.25" y="11.25" class="cls-1" rx="1.5" ry="1.5"/><path d="M15.75 17.25v-1.82a.431.431 0 0 1 .652-.369l3.033 1.82a.429.429 0 0 1 0 .737l-3.035 1.82a.43.43 0 0 1-.652-.368z" class="cls-1"/><circle cx="6" cy="3.75" r="3" class="cls-1"/><path d="M9.174 9.317A5.251 5.251 0 0 0 .75 13.5v2.25H3l.75 7.5h4.5l.45-4.537" class="cls-1"/><circle cx="16.5" cy="3.375" r="2.625" class="cls-1"/><path d="M20.4 9a4.5 4.5 0 0 0-7.285-.71" class="cls-1"/></svg>