<svg xmlns="http://www.w3.org/2000/svg" id="Regular" width="24" height="24" viewBox="0 0 24 24"><defs><style>.cls-1{fill:none;stroke:#000;stroke-linecap:round;stroke-linejoin:round;stroke-width:1.5px}</style></defs><path d="M9.5 9.645A6.111 6.111 0 0 0 6.75 9a6 6 0 0 0-6 5.25" class="cls-1"/><circle cx="6.75" cy="4.125" r="3.375" class="cls-1"/><circle cx="16.5" cy="3.375" r="2.625" class="cls-1"/><path d="M19.823 8.25a4.446 4.446 0 0 0-6.66 0m8.587 12h-3l-4.5 3v-3h-1.5a1.5 1.5 0 0 1-1.5-1.5v-6a1.5 1.5 0 0 1 1.5-1.5h9a1.5 1.5 0 0 1 1.5 1.5v6a1.5 1.5 0 0 1-1.5 1.5m-7.5-6h6m-6 3h6" class="cls-1"/></svg>