<svg xmlns="http://www.w3.org/2000/svg" id="Regular" width="24" height="24" viewBox="0 0 24 24"><defs><style>.cls-1{fill:none;stroke:#000;stroke-linecap:round;stroke-linejoin:round;stroke-width:1.5px}</style></defs><path d="M10.781 10.519A6.048 6.048 0 0 0 6.75 9.006a6 6 0 0 0-6 5.25" class="cls-1"/><circle cx="6.75" cy="4.131" r="3.375" class="cls-1"/><circle cx="16.5" cy="3.381" r="2.625" class="cls-1"/><path d="M20.4 9.006a4.5 4.5 0 0 0-7.284-.71m5.634 7.147a.375.375 0 1 1-.375.375.375.375 0 0 1 .375-.375" class="cls-1"/><path d="M18.75 11.318a4.5 4.5 0 0 1 4.5 4.5c0 1.92-2.688 5.576-3.909 7.138a.751.751 0 0 1-1.183 0c-1.221-1.561-3.908-5.217-3.908-7.137a4.5 4.5 0 0 1 4.5-4.501" class="cls-1"/></svg>