<svg xmlns="http://www.w3.org/2000/svg" id="Regular" width="24" height="24" viewBox="0 0 24 24"><defs><style>.cls-1{fill:none;stroke:#000;stroke-linecap:round;stroke-linejoin:round;stroke-width:1.5px}</style></defs><path d="M.75 20.25a6.75 6.75 0 0 1 13.5 0M3.945 5.781a6.857 6.857 0 0 0 7.642 1.536" class="cls-1"/><circle cx="7.5" cy="7.875" r="4.125" class="cls-1"/><path d="M15 13.667a6.757 6.757 0 0 1 8.25 6.583M14.251 4.416a4.125 4.125 0 1 1 .756 7.305" class="cls-1"/><path d="m20.612 8.2.011.778a5.9 5.9 0 0 0 .86 3.272" class="cls-1"/><path d="M14.247 7.867A5.56 5.56 0 0 0 16.5 6.305a5.483 5.483 0 0 0 4.112 1.9" class="cls-1"/></svg>