<svg xmlns="http://www.w3.org/2000/svg" id="Regular" width="24" height="24" viewBox="0 0 24 24"><defs><style>.cls-1{fill:none;stroke:#000;stroke-linecap:round;stroke-linejoin:round;stroke-width:1.5px}</style></defs><path d="M10.781 10.513A6.049 6.049 0 0 0 6.75 9a6 6 0 0 0-6 5.25" class="cls-1"/><circle cx="6.75" cy="4.124" r="3.375" class="cls-1"/><circle cx="16.5" cy="3.374" r="2.625" class="cls-1"/><path d="M20.4 9a4.5 4.5 0 0 0-7.284-.709m-.366 7.656v5.8a1.5 1.5 0 0 0 1.5 1.5h6a1.5 1.5 0 0 0 1.5-1.5v-5.8" class="cls-1"/><path d="m11.25 17.26 4.518-3.954a2.25 2.25 0 0 1 2.963 0l4.519 3.954m-4.5 5.989h-3v-3a1.5 1.5 0 1 1 3 0z" class="cls-1"/></svg>