<svg xmlns="http://www.w3.org/2000/svg" id="Regular" width="24" height="24" viewBox="0 0 24 24"><defs><style>.cls-1{fill:none;stroke:#000;stroke-linecap:round;stroke-linejoin:round;stroke-width:1.5px}</style></defs><path d="M23.25 15.75a7.669 7.669 0 0 1-6 7.5 7.668 7.668 0 0 1-6-7.5v-3a1.5 1.5 0 0 1 1.5-1.5h9a1.5 1.5 0 0 1 1.5 1.5zm-6-.75v4.5M15 17.25h4.5m-10-7.605A6.094 6.094 0 0 0 6.75 9a6 6 0 0 0-6 5.25" class="cls-1"/><circle cx="6.75" cy="4.125" r="3.375" class="cls-1"/><circle cx="16.5" cy="3.375" r="2.625" class="cls-1"/><path d="M19.822 8.25a4.445 4.445 0 0 0-6.659 0" class="cls-1"/></svg>