<svg xmlns="http://www.w3.org/2000/svg" id="Regular" width="24" height="24" viewBox="0 0 24 24"><defs><style>.cls-1{fill:none;stroke:#000;stroke-linecap:round;stroke-linejoin:round;stroke-width:1.5px}</style></defs><path d="M12.75 15.948v5.8a1.5 1.5 0 0 0 1.5 1.5h6a1.5 1.5 0 0 0 1.5-1.5v-5.8" class="cls-1"/><path d="m11.25 17.26 4.518-3.953a2.249 2.249 0 0 1 2.964 0l4.518 3.953m-4.5 5.99h-3v-3a1.5 1.5 0 0 1 3 0z" class="cls-1"/><circle cx="6" cy="3.75" r="3" class="cls-1"/><path d="M10.555 10.888A5.251 5.251 0 0 0 .75 13.5v2.25H3l.75 7.5h4.5l.323-3.232" class="cls-1"/><circle cx="16.5" cy="3.375" r="2.625" class="cls-1"/><path d="M20.4 9a4.5 4.5 0 0 0-7.285-.71" class="cls-1"/></svg>