<svg xmlns="http://www.w3.org/2000/svg" id="Regular" width="24" height="24" viewBox="0 0 24 24"><defs><style>.cls-1{fill:none;stroke:#000;stroke-linecap:round;stroke-linejoin:round;stroke-width:1.5px}</style></defs><path d="M9.749 9.778A6.1 6.1 0 0 0 6.75 9a6 6 0 0 0-6 5.25" class="cls-1"/><circle cx="6.75" cy="4.125" r="3.375" class="cls-1"/><circle cx="16.5" cy="3.375" r="2.625" class="cls-1"/><path d="M20.4 9a4.5 4.5 0 0 0-7.285-.71" class="cls-1"/><rect width="12" height="12" x="11.25" y="11.25" class="cls-1" rx="1.5" ry="1.5"/><path d="M15.75 17.25v-1.82a.43.43 0 0 1 .651-.369l3.034 1.82a.431.431 0 0 1 0 .738l-3.035 1.82a.43.43 0 0 1-.651-.369z" class="cls-1"/></svg>