<svg xmlns="http://www.w3.org/2000/svg" id="Regular" width="24" height="24" viewBox="0 0 24 24"><defs><style>.cls-1{fill:none;stroke:#000;stroke-linecap:round;stroke-linejoin:round;stroke-width:1.5px}</style></defs><circle cx="6" cy="3.75" r="3" class="cls-1"/><path d="M11.25 13.5a5.25 5.25 0 0 0-10.5 0v2.25H3l.75 7.5h4.5l.75-7.5h2.25zM6 8.25v6" class="cls-1"/><circle cx="18" cy="3.75" r="3" class="cls-1"/><path d="M13.5 15.75H15l.75 7.5h4.5l.75-7.5h2.25V13.5a5.246 5.246 0 0 0-2.364-4.386L18 13.5l-2.886-4.386A5.292 5.292 0 0 0 13.5 10.8M15 3.75s0 3.75-2.25 3.75M21 3.75s0 3.75 2.25 3.75" class="cls-1"/></svg>