<svg xmlns="http://www.w3.org/2000/svg" width="24" height="24" viewBox="0 0 24 24"><defs><style>.a{fill:none;stroke:#000;stroke-linecap:round;stroke-linejoin:round;stroke-width:1.5px}</style></defs><path d="M7.875 11.25a.375.375 0 1 1-.375.375.375.375 0 0 1 .375-.375m8.25 0a.375.375 0 1 1-.375.375.375.375 0 0 1 .375-.375M14.1 17.564l5.369 5.4a.979.979 0 0 0 1.453-.083l.617-.77a.98.98 0 0 0-.213-1.42l-5.735-4.111" class="a"/><path d="M13.5 20.864a8.251 8.251 0 1 1 6.75-8.114 8.217 8.217 0 0 1-.9 3.75M7.256 15a5.251 5.251 0 0 0 9.488 0M3 9.75a9 9 0 0 1 18 0" class="a"/><path d="M2.25 15.75h1.5v-6h-1.5a1.5 1.5 0 0 0-1.5 1.5v3a1.5 1.5 0 0 0 1.5 1.5m19.5 0h-1.5v-6h1.5a1.5 1.5 0 0 1 1.5 1.5v3a1.5 1.5 0 0 1-1.5 1.5" class="a"/></svg>