<svg xmlns="http://www.w3.org/2000/svg" width="24" height="24" viewBox="0 0 24 24"><defs><style>.a{fill:none;stroke:#000;stroke-linecap:round;stroke-linejoin:round;stroke-width:1.5px}</style></defs><rect width="22.5" height="19.5" x=".75" y="3.75" class="a" rx="1" ry="1"/><path d="M.75 9.75h22.5M6.75 6V.75M17.25 6V.75M13.5 18a1.5 1.5 0 0 1-3 0v-3a1.5 1.5 0 0 1 3 0zm5.25-3h-1.125a1.032 1.032 0 0 0-1.125.9c0 1.35 2.25 1.35 2.25 2.7a1.032 1.032 0 0 1-1.125.9H16.5m-9-4.5v2.25a2.25 2.25 0 0 1-2.25 2.25" class="a"/><circle cx="6" cy="15" r="1.5" class="a"/></svg>