<svg xmlns="http://www.w3.org/2000/svg" width="24" height="24" viewBox="0 0 24 24"><defs><style>.a{fill:none;stroke:#000;stroke-linecap:round;stroke-linejoin:round;stroke-width:1.5px}</style></defs><path d="M.75 12.75h12" class="a"/><circle cx="6.75" cy="18" r="2.25" class="a"/><path d="M3.75 9.75v-4.5m3 4.5V7.5m3 2.25V6m3 14.25h4.5a3 3 0 0 0 3-3v-12m3-.75a.75.75 0 0 1-.75.75h-2.25V1.5A.75.75 0 0 1 21 .75h1.5a.75.75 0 0 1 .75.75zm-6-3v3" class="a"/><rect width="12" height="22.5" x=".75" y=".75" class="a" rx="1" ry="1"/></svg>