<svg xmlns="http://www.w3.org/2000/svg" width="24" height="24" viewBox="0 0 24 24"><defs><style>.a{fill:none;stroke:#000;stroke-linecap:round;stroke-linejoin:round;stroke-width:1.5px}</style></defs><circle cx="13.875" cy="21.375" r="1.875" class="a"/><circle cx="21.375" cy="19.125" r="1.875" class="a"/><path d="M15.75 21.375v-6.794a1.5 1.5 0 0 1 1.026-1.423l4.5-1.25a1.5 1.5 0 0 1 1.974 1.423v5.794" class="a"/><path d="M8.641 21.6 5.48 23.163a.812.812 0 0 1-1.151-.934l1.965-7.138L.99 9.837a.805.805 0 0 1 .5-1.374l6.44-.638L11.271 1.2a.818.818 0 0 1 1.458 0l3.346 6.628 6.44.638a.8.8 0 0 1 .662.472" class="a"/></svg>