<svg xmlns="http://www.w3.org/2000/svg" id="Regular" width="24" height="24" viewBox="0 0 24 24"><defs><style>.cls-1{fill:none;stroke:#000;stroke-linecap:round;stroke-linejoin:round;stroke-width:1.5px}</style></defs><path d="M8.283.75h14.804M9.913 4.5H23.25M12.033 8.25h9.717M12.033 12h8.608m-4.858 3.75H21m-2.609 3.75H22.5m-1.859 3.75h2.609M2.283 15.948v5.8a1.5 1.5 0 0 0 1.5 1.5h6a1.5 1.5 0 0 0 1.5-1.5v-5.8" class="cls-1"/><path d="M.783 17.26 5.3 13.307a2.248 2.248 0 0 1 2.963 0l4.519 3.953m-4.499 5.99h-3v-3a1.5 1.5 0 1 1 3 0z" class="cls-1"/></svg>