<svg xmlns="http://www.w3.org/2000/svg" width="24" height="24" viewBox="0 0 24 24"><defs><style>.a{fill:none;stroke:#000;stroke-linecap:round;stroke-linejoin:round;stroke-width:1.5px}</style></defs><path d="M.751 1.5a.75.75 0 0 1 1.3-.511l8.8 9.987a1.5 1.5 0 0 1 0 2.047l-8.8 9.986a.75.75 0 0 1-1.3-.512z" class="a"/><path d="M6.751 17.671V22.5a.75.75 0 0 0 1.3.512l8.8-9.986a1.5 1.5 0 0 0 0-2.047L8.049.987a.75.75 0 0 0-1.3.511v4.826" class="a"/><path d="M12.751 17.671V22.5a.75.75 0 0 0 1.3.512l8.8-9.986a1.5 1.5 0 0 0 0-2.047L14.049.987a.75.75 0 0 0-1.3.511v4.826" class="a"/></svg>