<svg xmlns="http://www.w3.org/2000/svg" width="24" height="24" viewBox="0 0 24 24"><path d="M14.251 8.969V2.247a1.5 1.5 0 0 1 1.5-1.5H21a1.5 1.5 0 0 1 1.5 1.5v10.06a10.792 10.792 0 0 1-10.176 10.935A10.5 10.5 0 0 1 1.5 12.747v-10.5A1.5 1.5 0 0 1 3 .747h5.25a1.5 1.5 0 0 1 1.5 1.5V8.97" style="fill:none;stroke:#000;stroke-width:1.5px;stroke-linecap:round;stroke-linejoin:round"/><path d="m14.253 8.969.922-.923a1.875 1.875 0 1 1 2.651 2.654l-4.5 4.5a1.875 1.875 0 0 1-2.651 0l-4.5-4.5a1.875 1.875 0 0 1 2.651-2.654l.924.924" style="fill:none;stroke:#000;stroke-width:1.5px;stroke-miterlimit:10"/></svg>