<svg xmlns="http://www.w3.org/2000/svg" width="24" height="24" viewBox="0 0 24 24"><path d="M8.972 9.747H2.251a1.5 1.5 0 0 1-1.5-1.5V3a1.5 1.5 0 0 1 1.5-1.5H12.31a10.792 10.792 0 0 1 10.936 10.174A10.5 10.5 0 0 1 12.751 22.5h-10.5a1.5 1.5 0 0 1-1.5-1.5v-5.25a1.5 1.5 0 0 1 1.5-1.5h6.723" style="fill:none;stroke:#000;stroke-width:1.5px;stroke-linecap:round;stroke-linejoin:round"/><path d="m8.972 9.745-.922-.922a1.875 1.875 0 1 1 2.65-2.652l4.5 4.5a1.874 1.874 0 0 1 0 2.652l-4.5 4.5a1.875 1.875 0 0 1-2.65-2.652l.924-.924" style="fill:none;stroke:#000;stroke-width:1.5px;stroke-miterlimit:10"/></svg>