<svg xmlns="http://www.w3.org/2000/svg" width="24" height="24" viewBox="0 0 24 24"><path d="M15.029 14.247h6.722a1.5 1.5 0 0 1 1.5 1.5V21a1.5 1.5 0 0 1-1.5 1.5h-10.06A10.792 10.792 0 0 1 .755 12.32 10.5 10.5 0 0 1 11.251 1.5h10.5a1.5 1.5 0 0 1 1.5 1.5v5.25a1.5 1.5 0 0 1-1.5 1.5h-6.724" style="fill:none;stroke:#000;stroke-width:1.5px;stroke-linecap:round;stroke-linejoin:round"/><path d="m15.029 14.249.922.922a1.875 1.875 0 1 1-2.651 2.652l-4.5-4.5a1.874 1.874 0 0 1 0-2.652l4.5-4.5a1.875 1.875 0 0 1 2.651 2.652l-.924.924" style="fill:none;stroke:#000;stroke-width:1.5px;stroke-miterlimit:10"/></svg>