<svg xmlns="http://www.w3.org/2000/svg" width="24" height="24" viewBox="0 0 24 24"><defs><style>.a{fill:none;stroke:#000;stroke-linecap:round;stroke-linejoin:round;stroke-width:1.5px}</style></defs><path d="M1.5.747a.75.75 0 0 0-.512 1.3l9.988 8.8a1.5 1.5 0 0 0 2.047 0l9.986-8.8a.75.75 0 0 0-.509-1.3z" class="a"/><path d="M17.674 6.747H22.5a.75.75 0 0 1 .512 1.3l-9.986 8.8a1.5 1.5 0 0 1-2.047 0L.99 8.045a.75.75 0 0 1 .512-1.3h4.826" class="a"/><path d="M17.674 12.747H22.5a.75.75 0 0 1 .512 1.3l-9.986 8.8a1.5 1.5 0 0 1-2.047 0L.99 14.045a.75.75 0 0 1 .512-1.3h4.826" class="a"/></svg>