<svg xmlns="http://www.w3.org/2000/svg" width="24" height="24" viewBox="0 0 24 24"><defs><style>.a{fill:none;stroke:#000;stroke-linecap:round;stroke-linejoin:round;stroke-width:1.5px}</style></defs><path d="M23.251 22.5a.75.75 0 0 1-1.3.511l-8.8-9.987a1.5 1.5 0 0 1 0-2.047l8.8-9.986a.75.75 0 0 1 1.3.511z" class="a"/><path d="M17.251 6.323V1.5a.75.75 0 0 0-1.3-.511l-8.8 9.986a1.5 1.5 0 0 0 0 2.047l8.8 9.987a.75.75 0 0 0 1.3-.511V17.67" class="a"/><path d="M11.251 6.323V1.5a.75.75 0 0 0-1.3-.511l-8.8 9.986a1.5 1.5 0 0 0 0 2.047l8.8 9.987a.75.75 0 0 0 1.3-.511V17.67" class="a"/></svg>