<svg xmlns="http://www.w3.org/2000/svg" width="24" height="24" viewBox="0 0 24 24"><defs><style>.a{fill:none;stroke:#000;stroke-linecap:round;stroke-linejoin:round;stroke-width:1.5px}</style></defs><circle cx="12" cy="4.125" r="3.375" class="a"/><path d="M14.92 9.75a6.059 6.059 0 0 0-5.84 0M12 23.25s3.514-3.126 6.986-3.479a1.464 1.464 0 0 0 1.264-1.481v-5.528a1.471 1.471 0 0 0-1.625-1.5c-3.259.364-6.625 3.01-6.625 3.01s-3.366-2.646-6.625-3.01a1.471 1.471 0 0 0-1.625 1.5v5.528a1.464 1.464 0 0 0 1.264 1.481C8.485 20.124 12 23.25 12 23.25m0-8.981v8.978" class="a"/></svg>