<svg xmlns="http://www.w3.org/2000/svg" width="24" height="24" viewBox="0 0 24 24"><path d="m.75 23.259 22.5-22.5m-13.789 0 2.652 2.652a5.972 5.972 0 0 1 1.528 2.6M9.992 1.29 1.506 9.775m10.607-6.364-8.485 8.485m6.894-2.651-4.2 4.205a5.964 5.964 0 0 1-2.694-1.55L.976 9.245m13.789 13.788-2.652-2.651a5.975 5.975 0 0 1-1.652-3.123m3.773 5.244 8.486-8.485m-10.607 6.364 8.485-8.486M13.7 14.548l4.2-4.2a5.965 5.965 0 0 1 2.7 1.552l2.652 2.652" style="fill:none;stroke:#000;stroke-linecap:round;stroke-linejoin:round;stroke-width:1.5px"/></svg>