<svg xmlns="http://www.w3.org/2000/svg" width="24" height="24" viewBox="0 0 24 24"><path d="M15.75 9.759v2.25L23.043 21a1.5 1.5 0 0 1-1.293 2.26H2.25A1.5 1.5 0 0 1 .957 21l7.293-8.99V9.759m3.75 6v-9m4.286-1.714A6.971 6.971 0 0 1 12 6.759a6.967 6.967 0 0 1 1.714-4.285A6.975 6.975 0 0 1 18 .759a6.971 6.971 0 0 1-1.714 4.286m-8.572 0A6.971 6.971 0 0 0 12 6.759a6.967 6.967 0 0 0-1.714-4.285A6.975 6.975 0 0 0 6 .759a6.971 6.971 0 0 0 1.714 4.286m8.411 12.964a.375.375 0 0 1 .375.375m-.75 0a.375.375 0 0 1 .375-.375m0 .75a.375.375 0 0 1-.375-.375m.75 0a.375.375 0 0 1-.375.375m-7.5-2.25a.375.375 0 0 1 .375.375m-.75 0a.375.375 0 0 1 .375-.375m0 .75a.375.375 0 0 1-.375-.375m.75 0a.375.375 0 0 1-.375.375m3 2.25a.375.375 0 0 1 .375.375m-.75 0a.375.375 0 0 1 .375-.375m0 .75a.375.375 0 0 1-.375-.375m.75 0a.375.375 0 0 1-.375.375" style="fill:none;stroke:#000;stroke-linecap:round;stroke-linejoin:round;stroke-width:1.5px"/></svg>