<svg xmlns="http://www.w3.org/2000/svg" width="24" height="24" viewBox="0 0 24 24"><defs><style>.a{fill:none;stroke:#000;stroke-linecap:round;stroke-linejoin:round;stroke-width:1.5px}</style></defs><path d="m17.25 23.25-5.114-5.335a3.025 3.025 0 0 1-.567-3.492 3.026 3.026 0 0 1 4.846-.786l.835.835.835-.835a3.026 3.026 0 0 1 4.846.786 3.025 3.025 0 0 1-.567 3.492z" class="a"/><path d="M8.25 20.25h-6a1.464 1.464 0 0 1-1.5-1.5V3.857a1.556 1.556 0 0 1 1.5-1.607h15a1.556 1.556 0 0 1 1.5 1.607V8.25M5.25.75v4.5m4.5-4.5v4.5m4.5-4.5v4.5" class="a"/></svg>