<svg xmlns="http://www.w3.org/2000/svg" width="24" height="24" viewBox="0 0 24 24"><defs><style>.a{fill:none;stroke:#000;stroke-linecap:round;stroke-linejoin:round;stroke-width:1.5px}</style></defs><path d="M14.689 19.811a1.5 1.5 0 0 1-1.06.439H2.25a1.5 1.5 0 0 1-1.5-1.5v-15a1.5 1.5 0 0 1 1.5-1.5h16.5a1.5 1.5 0 0 1 1.5 1.5v9.879a1.5 1.5 0 0 1-.439 1.06zM5.25.75v3m10.5-3v3" class="a"/><path d="M20.115 14.25H15.75a1.5 1.5 0 0 0-1.5 1.5v4.365" class="a"/><path d="M23.25 10.5v11.25a1.5 1.5 0 0 1-1.5 1.5h-15" class="a"/></svg>