<svg xmlns="http://www.w3.org/2000/svg" id="Regular" width="24" height="24" viewBox="0 0 24 24"><defs><style>.cls-1{fill:none;stroke:#000;stroke-linecap:round;stroke-linejoin:round;stroke-width:1.5px}</style></defs><path d="M16.5 6.375a.375.375 0 0 1 .375.375m-.75 0a.375.375 0 0 1 .375-.375m0 .75a.375.375 0 0 1-.375-.375m.75 0a.375.375 0 0 1-.375.375m-1.43-2.997L13.282.851A6.72 6.72 0 0 0 9.75 6.75h3.75a2.987 2.987 0 0 1 1.57-2.622m2.86 5.244a2.894 2.894 0 0 1-2.86 0l-1.788 3.277a6.51 6.51 0 0 0 6.436 0zM19.718.851 17.93 4.128A2.987 2.987 0 0 1 19.5 6.75h3.75A6.72 6.72 0 0 0 19.718.851M9.75 11.25h-1.5a1.5 1.5 0 0 0-1.5 1.5v6.788m11.212 2.212h.788a1.5 1.5 0 0 0 1.5-1.5v-3m-13.5-4.5h-3a3 3 0 0 0-3 3v4.5a1.5 1.5 0 0 0 1.5 1.5h2.3" class="cls-1"/><circle cx="6.375" cy="21.375" r="1.875" class="cls-1"/><circle cx="16.125" cy="21.375" r="1.875" class="cls-1"/><path d="M8.212 21.75h6.076M.75 17.351h6" class="cls-1"/></svg>