<svg xmlns="http://www.w3.org/2000/svg" width="24" height="24" viewBox="0 0 24 24"><defs><style>.a{fill:none;stroke:#000;stroke-linecap:round;stroke-linejoin:round;stroke-width:1.5px}</style></defs><path d="M17.249 14.999h2.25m-3.75-4.5h3.75m-5.25 9h5.25" class="a"/><circle cx="8.999" cy="14.249" r="4.5" class="a"/><path d="m5.294 16.718 3.705-2.469v-4.5" class="a"/><path d="M22.809 5.559a1.5 1.5 0 0 1 .44 1.061V21A2.251 2.251 0 0 1 21 23.249H3A2.25 2.25 0 0 1 .749 21V3A2.25 2.25 0 0 1 3 .749h14.377a1.5 1.5 0 0 1 1.061.439z" class="a"/><path d="M17.249.749v4.5a1.5 1.5 0 0 0 1.5 1.5h4.5" class="a"/></svg>