<svg xmlns="http://www.w3.org/2000/svg" width="24" height="24" viewBox="0 0 24 24"><defs><style>.a{fill:none;stroke:#000;stroke-linecap:round;stroke-linejoin:round;stroke-width:1.5px}</style></defs><path d="M2.7 14.846 13.962 1.8a3 3 0 0 1 4.23-.326l.524.449a1.5 1.5 0 0 1 .163 2.115L7.5 17.226" class="a"/><path d="M7.5 17.248a3 3 0 0 0-3-3 3 3 0 0 0-3 3v1.5a1.5 1.5 0 0 0 1.5 1.5h18.749a.75.75 0 0 0 .6-1.2l-.45-.6a3 3 0 0 0-2.4-1.2zM18.384 4.612l2.278 1.952-5.875 6.857-2.277-1.951m9.24 8.778-.608 2.432a.749.749 0 0 1-.728.568H4.336a.749.749 0 0 1-.728-.568L3 20.248" class="a"/></svg>