<svg xmlns="http://www.w3.org/2000/svg" width="24" height="24" viewBox="0 0 24 24"><defs><style>.a{fill:none;stroke:#000;stroke-linecap:round;stroke-linejoin:round;stroke-width:1.5px}</style></defs><path d="M21.748 21.748a1.5 1.5 0 0 1-1.5 1.5h-18a1.5 1.5 0 0 1-1.5-1.5v-19.5a1.5 1.5 0 0 1 1.5-1.5h15a1.5 1.5 0 0 1 1.047.426l3 2.883a1.5 1.5 0 0 1 .453 1.074zm-5.25-12h.75m-2.25-4.5h2.25m-3.75 9h3.75m-12 4.5h12" class="a"/><circle cx="8.248" cy="8.998" r="4.5" class="a"/><path d="m4.544 11.467 3.704-2.469v-4.5" class="a"/></svg>