<svg xmlns="http://www.w3.org/2000/svg" width="24" height="24" viewBox="0 0 24 24"><defs><style>.a{fill:none;stroke:#000;stroke-linecap:round;stroke-linejoin:round;stroke-width:1.5px}</style></defs><rect width="4.5" height="4.5" x="5.999" y="15.748" class="a" rx="1" ry="1"/><rect width="6" height="4.5" x="8.999" y="5.248" class="a" rx="1" ry="1"/><rect width="4.5" height="4.5" x="13.499" y="15.748" class="a" rx="1" ry="1"/><path d="M6.749 12.748h10.5m-5.25 0v1.5m10.501 7.5a1.5 1.5 0 0 1-1.5 1.5H3a1.5 1.5 0 0 1-1.5-1.5v-19.5A1.5 1.5 0 0 1 3 .748h15a1.5 1.5 0 0 1 1.047.426l3 2.883a1.5 1.5 0 0 1 .453 1.074z" class="a"/></svg>