<svg xmlns="http://www.w3.org/2000/svg" width="24" height="24" viewBox="0 0 24 24"><defs><style>.a{fill:none;stroke:#000;stroke-linecap:round;stroke-linejoin:round;stroke-width:1.5px}</style></defs><path d="M4.503 19.498v-7.5M4.5 12h.75a2.25 2.25 0 0 1 0 4.5H4.5m6.003 2.998v-7.5M10.5 12h.75a2.25 2.25 0 0 1 0 4.5h-.75m7.503 2.998v-7.5m-1.5 0h3" class="a"/><path d="M22.814 5.559a1.5 1.5 0 0 1 .439 1.06V21A2.25 2.25 0 0 1 21 23.248H3A2.25 2.25 0 0 1 .753 21V3A2.25 2.25 0 0 1 3 .748h14.382a1.5 1.5 0 0 1 1.06.439z" class="a"/><path d="M17.253.748v4.5a1.5 1.5 0 0 0 1.5 1.5h4.5" class="a"/></svg>