<svg xmlns="http://www.w3.org/2000/svg" width="24" height="24" viewBox="0 0 24 24"><defs><style>.a{fill:none;stroke:#000;stroke-linecap:round;stroke-linejoin:round;stroke-width:1.5px}</style></defs><path d="M5.249 23.248h-3a1.5 1.5 0 0 1-1.5-1.5v-19.5a1.5 1.5 0 0 1 1.5-1.5h10.629a1.5 1.5 0 0 1 1.061.439l5.871 5.872a1.5 1.5 0 0 1 .439 1.06v4.629" class="a"/><path d="M20.249 8.248h-6a1.5 1.5 0 0 1-1.5-1.5v-6m3 22.5v-7.5m-1.5 0h3m3 7.5v-6a1.5 1.5 0 0 1 1.5-1.5h1.5m-3 4.5h2.25m-14.25 3v-7.5m0 0h1.125a1.875 1.875 0 0 1 0 3.75H8.249m3 3.75-2.25-3.75" class="a"/></svg>