<svg xmlns="http://www.w3.org/2000/svg" width="24" height="24" viewBox="0 0 24 24"><defs><style>.a{fill:none;stroke:#000;stroke-linecap:round;stroke-linejoin:round;stroke-width:1.5px}</style></defs><rect width="4.5" height="4.5" x="5.251" y="12.749" class="a" rx="1" ry="1"/><rect width="6" height="4.5" x="8.251" y="5.249" class="a" rx="1" ry="1"/><path d="M14.251 17.249a1.5 1.5 0 0 1-1.5-1.5v-1.5a1.5 1.5 0 0 1 1.5-1.5h1.5a1.5 1.5 0 0 1 1.5 1.5m1.029 8.494-2.529.506.506-2.529 4.552-4.552a1.43 1.43 0 0 1 2.023 0 1.43 1.43 0 0 1 0 2.023z" class="a"/><path d="M12.751 23.249h-10.5a1.5 1.5 0 0 1-1.5-1.5v-19.5a1.5 1.5 0 0 1 1.5-1.5h15a1.5 1.5 0 0 1 1.048.426l3 2.883a1.5 1.5 0 0 1 .452 1.074v7.617" class="a"/></svg>