<svg xmlns="http://www.w3.org/2000/svg" width="24" height="24" viewBox="0 0 24 24"><defs><style>.a{fill:none;stroke:#000;stroke-linecap:round;stroke-linejoin:round;stroke-width:1.5px}</style></defs><path d="M11.624 11.828a3.221 3.221 0 0 1-3.194 2.8 3.223 3.223 0 0 1-3.1-2.336l-.521-1.826a1.5 1.5 0 0 0-1.44-1.093H2.25a1.5 1.5 0 0 0-1.5 1.5v4.5a4.5 4.5 0 0 0 4.5 4.5h15a3 3 0 0 0 3-3v-7.1a5.652 5.652 0 0 0-5.65-5.65 5.64 5.64 0 0 0-3.349 1.1" class="a"/><circle cx="17.625" cy="9.748" r="2.625" class="a"/><path d="M16.754 7.271 4.955 10.966" class="a"/></svg>