<svg xmlns="http://www.w3.org/2000/svg" width="24" height="24" viewBox="0 0 24 24"><defs><style>.a{fill:none;stroke:#000;stroke-linecap:round;stroke-linejoin:round;stroke-width:1.5px}</style></defs><path d="M.75 4.5h10.5M.75 8.25h10.5m-9 3.75h7.5v11.25h-7.5zM.75 23.25h22.5" class="a"/><path d="M4.5 15h3v3h-3zm15.75 8.25h-4.5L15 19.5h6zM18 19.5v-6" class="a"/><rect width="10.5" height="11.25" x=".75" y=".75" class="a" rx="1.303" ry="1.303"/><path d="M15.751 16.536a6.183 6.183 0 0 1-2.1-4.861C13.646 8.541 15.6 6 18 6s4.354 2.541 4.354 5.675a6.183 6.183 0 0 1-2.1 4.86M5.25 20.25h1.5" class="a"/></svg>