<svg xmlns="http://www.w3.org/2000/svg" width="24" height="24" viewBox="0 0 24 24"><defs><style>.a{fill:none;stroke:#000;stroke-linecap:round;stroke-linejoin:round;stroke-width:1.5px}</style></defs><rect width="4.5" height="4.5" x="4.498" y="13.498" class="a" rx="1" ry="1"/><rect width="6" height="4.5" x="7.498" y="5.998" class="a" rx="1" ry="1"/><path d="M13.5 18a1.5 1.5 0 0 1-1.5-1.5V15a1.5 1.5 0 0 1 1.5-1.5H15a1.5 1.5 0 0 1 1.5 1.5m1.777 7.742-2.529.506.506-2.529 4.552-4.552a1.43 1.43 0 0 1 2.023 0 1.43 1.43 0 0 1 0 2.023z" class="a"/><path d="M12 23.248H3A2.25 2.25 0 0 1 .748 21V3A2.25 2.25 0 0 1 3 .748h14.377a1.5 1.5 0 0 1 1.061.439l4.371 4.372a1.5 1.5 0 0 1 .439 1.06v6.129" class="a"/><path d="M17.248.748v4.5a1.5 1.5 0 0 0 1.5 1.5h4.5" class="a"/></svg>