<svg xmlns="http://www.w3.org/2000/svg" width="24" height="24" viewBox="0 0 24 24"><defs><style>.a{fill:none;stroke:#000;stroke-linecap:round;stroke-linejoin:round;stroke-width:1.5px}</style></defs><path d="M17.907 8.947a6.367 6.367 0 0 1 .327 9.415 6.648 6.648 0 0 1-9.281 0 6.405 6.405 0 0 1-1.617-2.612" class="a"/><path d="M15.837 10.98a.949.949 0 0 1-1.326 0l-1.326-1.3a.909.909 0 0 1 0-1.3l3.977-3.91a.949.949 0 0 1 1.326 0l1.326 1.3a.909.909 0 0 1 0 1.3zm3.131-6.04 2.688-2.69-1.5-1.5m3 3-1.5-1.5M5.089 15.75h5.25m-4.433 7.5h14.25m-6.75-3v3m-3-22.5h3v3" class="a"/><path d="M13.406.75 7.272 6.774a.951.951 0 0 1-1.326 0l-1.252-1.23a.949.949 0 0 0-1.326 0L.75 8.115" class="a"/></svg>