<svg xmlns="http://www.w3.org/2000/svg" id="Regular" width="24" height="24" viewBox="0 0 24 24"><defs><style>.cls-1{fill:none;stroke:#000;stroke-linecap:round;stroke-linejoin:round;stroke-width:1.5px}</style></defs><path d="M21.323 6.75a7.193 7.193 0 0 0-14.149-.207A4.457 4.457 0 1 0 5.242 15h4.771" class="cls-1"/><path d="M12.462 12.847a1.5 1.5 0 0 1 .117-1.619L15.3 7.6a1.5 1.5 0 0 1 2.4 0l2.721 3.628a1.5 1.5 0 0 1 .117 1.619L16.5 20.25zM16.5 20.25v1.279a1.722 1.722 0 0 0 2.676 1.432l.869-.579a1.72 1.72 0 0 1 1.91 0l1.3.863" class="cls-1"/></svg>