<svg xmlns="http://www.w3.org/2000/svg" id="Regular" width="24" height="24" viewBox="0 0 24 24"><defs><style>.cls-1{fill:none;stroke:#000;stroke-linecap:round;stroke-linejoin:round;stroke-width:1.5px}</style></defs><path d="M20.25 23.25H3.75V9a8.25 8.25 0 0 1 16.5 0zm-13.5-6h10.5m-9 0v2.25" class="cls-1"/><path d="M12 .75a8.238 8.238 0 0 0-6.5 3.168l.742 3.461A3 3 0 0 0 9.175 9.75h5.65a3 3 0 0 0 2.933-2.371l.742-3.461A8.238 8.238 0 0 0 12 .75M.75 20.25a3 3 0 0 0 3 3V15a3 3 0 0 0-3 3zm22.5 0a3 3 0 0 1-3 3V15a3 3 0 0 1 3 3zm-13.5-12v3m4.5-3v3" class="cls-1"/></svg>