<svg xmlns="http://www.w3.org/2000/svg" id="Regular" width="24" height="24" viewBox="0 0 24 24"><defs><style>.cls-1{fill:none;stroke:#000;stroke-linecap:round;stroke-linejoin:round;stroke-width:1.5px}</style></defs><path d="M7.374 1.084a.75.75 0 0 0-1.248 0L2.25 7.5H4.5l-2.9 4.128a.75.75 0 0 0 .65 1.122h9a.75.75 0 0 0 .651-1.122L9 7.5h2.25zM6.75 12.75v4.582M19.262 1.023a.614.614 0 0 0-1.021 0L15.069 6h1.841l-2.578 3.582a.613.613 0 0 0 .533.918h7.77a.613.613 0 0 0 .533-.918L20.592 6h1.841zm-.511 9.477v4.035M.805 18a13.517 13.517 0 0 1 15.673 5.254" class="cls-1"/><path d="M10.969 18.518A15.7 15.7 0 0 1 21.75 14.25q.759 0 1.5.07" class="cls-1"/></svg>