<svg xmlns="http://www.w3.org/2000/svg" id="Regular" width="24" height="24" viewBox="0 0 24 24"><defs><style>.cls-1{fill:none;stroke:#000;stroke-linecap:round;stroke-linejoin:round;stroke-width:1.5px}</style></defs><path d="M16.5 3.654v6.721a.75.75 0 0 1-.75.75h-7.5a.75.75 0 0 1-.75-.75V3.654" class="cls-1"/><path d="M5.25 5.125 11.1 1.3a1.5 1.5 0 0 1 1.8 0l5.85 3.825m-6.75 3v15" class="cls-1"/><circle cx="4.5" cy="15.625" r="3" class="cls-1"/><circle cx="19.5" cy="17.125" r="3" class="cls-1"/><path d="M7.414 16.34A6.656 6.656 0 0 1 12 22.375m0 .75c.75-3 3-4.5 4.5-4.5h.4" class="cls-1"/></svg>