<svg xmlns="http://www.w3.org/2000/svg" id="Regular" width="24" height="24" viewBox="0 0 24 24"><defs><style>.cls-1{fill:none;stroke:#000;stroke-linecap:round;stroke-linejoin:round;stroke-width:1.5px}</style></defs><path d="M19.089 10.621 16.814 12.9a1.5 1.5 0 0 1-2.121 0l-3.677-3.682a1.5 1.5 0 0 1 0-2.121l2.274-2.275a.75.75 0 0 1 1.061 0l4.738 4.738a.75.75 0 0 1 0 1.061" class="cls-1"/><path d="m14.787 12.99-9.57 9.571a1.5 1.5 0 0 1-2.122 0l-1.744-1.745a1.5 1.5 0 0 1 0-2.121l9.57-9.571m-3.382 3.383-.967-.967M19.25 4.661l2.25-2.25m-.75 4.5 2.25-.75m-6-3 .75-2.25" class="cls-1"/></svg>