<svg xmlns="http://www.w3.org/2000/svg" id="Regular" width="24" height="24" viewBox="0 0 24 24"><defs><style>.cls-1{fill:none;stroke:#000;stroke-linecap:round;stroke-linejoin:round;stroke-width:1.5px}</style></defs><path d="M20.249 3.754a45.5 45.5 0 0 0-16.5 0M23.25 5.25a1.5 1.5 0 0 1-3 0v-3a1.5 1.5 0 0 1 3 0z" class="cls-1"/><path d="M3.75 5.25a1.5 1.5 0 0 1-3 0v-3a1.5 1.5 0 0 1 3 0zm13.939 1.19a1.5 1.5 0 0 0-.433 1.185c0 .036.243 3.644-1.7 5.759a4.538 4.538 0 0 1-1.13.866H9.575a4.6 4.6 0 0 1-1.118-.85C6.5 11.278 6.74 7.689 6.746 7.62a1.5 1.5 0 0 0-.435-1.181" class="cls-1"/><path d="M3.837 9.739a10.226 10.226 0 0 0 2.4 5.677A7.582 7.582 0 0 0 9 17.32v4.43a1.5 1.5 0 0 0 3 0 1.5 1.5 0 0 0 3 0v-4.43a7.582 7.582 0 0 0 2.76-1.9 10.226 10.226 0 0 0 2.4-5.677" class="cls-1"/><circle cx="12" cy="9.375" r="2.625" class="cls-1"/><path d="M9 18.75h6" class="cls-1"/></svg>