<svg xmlns="http://www.w3.org/2000/svg" id="Regular" width="24" height="24" viewBox="0 0 24 24"><defs><style>.cls-1{fill:none;stroke:#000;stroke-linecap:round;stroke-linejoin:round;stroke-width:1.5px}</style></defs><path d="M13.412 21.75a1.5 1.5 0 0 1-3 0V16.5a1.5 1.5 0 0 1 3 0zm-7.723-2.036a1.5 1.5 0 0 1-2.934-.626l.94-4.4a1.5 1.5 0 1 1 2.934.627zM6.055 18h4.357m7.727 1.714a1.5 1.5 0 1 0 2.934-.626l-.939-4.4a1.5 1.5 0 1 0-2.934.627zM17.773 18h-4.357" class="cls-1"/><circle cx="11.914" cy="3.375" r="2.625" class="cls-1"/><path d="M6.881 6.646a11.254 11.254 0 0 1-2.17-1.419 1.5 1.5 0 0 0-1.922 2.3A14.229 14.229 0 0 0 8.913 10.5v3m6 0v-3a14.277 14.277 0 0 0 5.9-2.789 1.5 1.5 0 0 0-1.872-2.341 11.391 11.391 0 0 1-2 1.282" class="cls-1"/><circle cx="11.912" cy="11.25" r="1.5" class="cls-1"/><path d="m9.662 7.5 2.25 2.25 2.25-2.25" class="cls-1"/></svg>