<svg xmlns="http://www.w3.org/2000/svg" id="Regular" width="24" height="24" viewBox="0 0 24 24"><defs><style>.cls-1{fill:none;stroke:#000;stroke-linecap:round;stroke-linejoin:round;stroke-width:1.5px}</style></defs><path d="M12.686 17.839a1.5 1.5 0 0 1 1.24-1.651 3.012 3.012 0 0 0 1.658-.83c1.465-1.464 1.1-4.206-.819-6.123s-4.659-2.284-6.123-.819a3.012 3.012 0 0 0-.83 1.658 1.5 1.5 0 0 1-1.651 1.24 4.738 4.738 0 0 0-3.98 1.248c-2.05 2.05-1.64 5.784.919 8.338s6.291 2.966 8.341.916a4.738 4.738 0 0 0 1.245-3.977" class="cls-1"/><rect width="5.25" height="3" x="17.708" y="2.167" class="cls-1" rx="1.5" ry="1.5" transform="rotate(-45 20.334 3.666)"/><path d="m18.477 5.523-3.712 3.712M19.007.75l1.061 1.061m2.121 2.121 1.061 1.061m-2.652.53 1.061 1.061m-4.243-4.243 1.061 1.061" class="cls-1"/><circle cx="11.052" cy="12.948" r="1.5" class="cls-1"/><path d="m5.219 16.66 2.121 2.121M9.492 5.259 6.77 2A3.394 3.394 0 1 0 2 6.771L4.5 8.87m11.788 9.875 1.722 1.442-.5.5a1.5 1.5 0 0 0 2.122 2.122l3.182-3.182a1.5 1.5 0 0 0-2.122-2.122l-.537.538-1.292-1.543" class="cls-1"/></svg>