<svg xmlns="http://www.w3.org/2000/svg" id="Regular" width="24" height="24" viewBox="0 0 24 24"><defs><style>.cls-1{fill:none;stroke:#000;stroke-linecap:round;stroke-linejoin:round;stroke-width:1.5px}</style></defs><path d="M5.552 15.408a2.625 2.625 0 1 1-4.359.007m6.321 7.569A4.5 4.5 0 0 0 .75 21.1m15.965 2.15a6.066 6.066 0 0 0-9.429 0M16.5 4.5h3M18 3v3M4.5 2.25h3M6 .75v3" class="cls-1"/><path d="M1.194 15.416 3.375 9l2.181 6.415zm17.254-.008a2.625 2.625 0 1 0 4.359.007m-6.321 7.569A4.5 4.5 0 0 1 23.25 21.1" class="cls-1"/><path d="M22.806 15.416 20.625 9l-2.181 6.415zM9.194 14.25 12 6l2.806 8.25zm5.612 0a3.375 3.375 0 1 1-5.612 0" class="cls-1"/></svg>