<svg xmlns="http://www.w3.org/2000/svg" width="24" height="24" viewBox="0 0 24 24"><defs><style>.a{fill:none;stroke:#000;stroke-linecap:round;stroke-linejoin:round;stroke-width:1.5px}</style></defs><rect width="9" height="7.5" x="14.25" y="10.5" class="a" rx="1.5" ry="1.5"/><path d="M15.75 10.5V9a3 3 0 0 1 3-3 3 3 0 0 1 3 3v1.5m-3 3.375a.375.375 0 1 0 .375.375.374.374 0 0 0-.375-.375m-14.625 0a.375.375 0 1 0 .375.375.374.374 0 0 0-.375-.375m3.75 0a.375.375 0 1 0 .375.375.374.374 0 0 0-.375-.375" class="a"/><path d="M11.25 18h-9a1.5 1.5 0 0 1-1.5-1.5v-6A1.5 1.5 0 0 1 2.25 9h9" class="a"/></svg>