<svg xmlns="http://www.w3.org/2000/svg" width="24" height="24" viewBox="0 0 24 24"><defs><style>.a{fill:none;stroke:#000;stroke-linecap:round;stroke-linejoin:round;stroke-width:1.5px}</style></defs><path d="M5.25 6A.75.75 0 0 1 6 5.25h7.5a.75.75 0 0 0 .75-.75v-3a.75.75 0 0 0-.75-.75H2.25a1.5 1.5 0 0 0-1.5 1.5V13.5a.75.75 0 0 0 .75.75h3a.75.75 0 0 0 .75-.75zm13.5 12a.75.75 0 0 1-.75.75h-7.5a.75.75 0 0 0-.75.75v3a.75.75 0 0 0 .75.75h11.25a1.5 1.5 0 0 0 1.5-1.5V10.5a.75.75 0 0 0-.75-.75h-3a.75.75 0 0 0-.75.75z" class="a"/><rect width="7.5" height="7.5" x="8.25" y="8.25" class="a" rx="1" ry="1"/></svg>