<svg xmlns="http://www.w3.org/2000/svg" id="Regular" width="24" height="24" viewBox="0 0 24 24"><defs><style>.cls-1{fill:none;stroke:#000;stroke-linecap:round;stroke-linejoin:round;stroke-width:1.5px}</style></defs><path d="M15.707 11.187a3.847 3.847 0 0 0-.1-1.814 3.7 3.7 0 0 0-2.565-2.489 3.753 3.753 0 0 0-4.725 4.18 5.542 5.542 0 0 1-.645 4.019A5.247 5.247 0 1 0 17.271 18a5.157 5.157 0 0 0-.816-2.793 5.519 5.519 0 0 1-.748-4.02M12.021 12v1.5" class="cls-1"/><path d="m6.818 17.3-5.185-5.831A2.95 2.95 0 0 1 .9 9.01C1.729 4.333 6.392.75 12.021.75s10.292 3.583 11.12 8.26a2.957 2.957 0 0 1-.731 2.459L17.225 17.3M3.532 4.102 5.973 8.17M8.22 1.321l.916 3.207m11.374-.426L18.069 8.17m-2.247-6.849-.916 3.207" class="cls-1"/></svg>