<svg xmlns="http://www.w3.org/2000/svg" id="Regular" width="24" height="24" viewBox="0 0 24 24"><defs><style>.cls-1{fill:none;stroke:#000;stroke-linecap:round;stroke-linejoin:round;stroke-width:1.5px}</style></defs><path d="M.75 21.75c1.5 0 2.25 1.5 3.75 1.5s2.25-1.5 3.75-1.5 2.25 1.5 3.75 1.5 2.25-1.5 3.75-1.5 2.25 1.5 3.75 1.5 2.25-1.5 3.75-1.5m-12-7.5 4.091-10.226a1.5 1.5 0 0 0-.531-1.785A7.71 7.71 0 0 0 10.5.75 3.742 3.742 0 0 0 6.75 3l-6 3.75S.75 12 5.25 12s5.25-4.5 5.25-4.5m-9.689 0H6" class="cls-1"/><path d="m12.44 11.275 7.749-.775s0 7.5-6.75 7.5" class="cls-1"/><path d="m20.021 12.042 3.168-.792s.75 6.75-3 8.25m-12.03-8.323L7.5 12s-3 3.75-.75 7.5m4.125-15.75a.375.375 0 0 1 .375.375m-.75 0a.375.375 0 0 1 .375-.375m0 .75a.375.375 0 0 1-.375-.375m.75 0a.375.375 0 0 1-.375.375" class="cls-1"/></svg>