<svg xmlns="http://www.w3.org/2000/svg" width="24" height="24" viewBox="0 0 24 24"><defs><style>.a{fill:none;stroke:#000;stroke-linecap:round;stroke-linejoin:round;stroke-width:1.5px}</style></defs><path d="m8.492 11.265-1.06 4.243 4.242-1.061 6.364-6.364-3.182-3.182zm13.259-6.894 1.06 1.06a1.5 1.5 0 0 1 0 2.122l-3.311 3.31" class="a"/><path d="m18.038 8.083 3.713-3.712a1.5 1.5 0 0 0 0-2.122l-1.061-1.06a1.5 1.5 0 0 0-2.121 0L14.856 4.9" class="a"/><path d="M20.251 13.5v3.128a1.5 1.5 0 0 1-.44 1.061L14.69 22.81a1.5 1.5 0 0 1-1.061.44H2.25a1.5 1.5 0 0 1-1.5-1.5V2.25a1.5 1.5 0 0 1 1.5-1.5H13.5" class="a"/><path d="M14.251 23.115V18.75a1.5 1.5 0 0 1 1.5-1.5h4.365" class="a"/></svg>