<svg xmlns="http://www.w3.org/2000/svg" width="24" height="24" viewBox="0 0 24 24"><defs><style>.a{fill:none;stroke:#000;stroke-linecap:round;stroke-linejoin:round;stroke-width:1.5px}</style></defs><path d="m8.492 12.764-1.061 4.243 4.243-1.061 6.364-6.364L14.856 6.4zM21.75 5.87l1.061 1.061a1.5 1.5 0 0 1 0 2.121L19.5 12.363" class="a"/><path d="M18.038 9.582 21.75 5.87a1.5 1.5 0 0 0 0-2.121l-1.061-1.061a1.5 1.5 0 0 0-2.121 0L14.856 6.4M4.5 15.749H2.25a1.5 1.5 0 0 0-1.5 1.5v3a1.5 1.5 0 0 0 1.5 1.5h19.5a1.5 1.5 0 0 0 1.5-1.5v-3a1.5 1.5 0 0 0-1.5-1.5H16.5" class="a"/></svg>