<svg xmlns="http://www.w3.org/2000/svg" width="24" height="24" viewBox="0 0 24 24"><defs><style>.a{fill:none;stroke:#000;stroke-linecap:round;stroke-linejoin:round;stroke-width:1.5px}</style></defs><path d="M8.25 17.189V18a3.75 3.75 0 0 0 7.5 0v-.811M6.754 8.808a3.346 3.346 0 0 0 1.871.567A3.744 3.744 0 0 0 12 6.75a3.744 3.744 0 0 0 3.375 2.625 3.346 3.346 0 0 0 1.871-.567" class="a"/><circle cx="12" cy="9" r="5.25" class="a"/><path d="M21.809 23.25a10.5 10.5 0 0 0-19.618 0m14.34-11.597a16.005 16.005 0 0 0 5.246 2.6 52.5 52.5 0 0 1-1.5-9.75 3.75 3.75 0 0 0-7.437-.683" class="a"/></svg>