<svg xmlns="http://www.w3.org/2000/svg" width="24" height="24" viewBox="0 0 24 24"><defs><style>.a{fill:none;stroke:#000;stroke-linecap:round;stroke-linejoin:round;stroke-width:1.5px}</style></defs><circle cx="12" cy="9" r="5.25" class="a"/><path d="M7.476 6.334A8.722 8.722 0 0 0 17.2 8.289m-8.95 8.96V18a3.75 3.75 0 0 0 7.5 0v-.751m5.529 6.001a9.753 9.753 0 0 0-18.558 0M3.75 10.5a.75.75 0 0 0 .75.75h2.25v-4.5H4.5a.75.75 0 0 0-.75.75zm15.75.75h-2.25v-4.5h2.25a.75.75 0 0 1 .75.75v3a.75.75 0 0 1-.75.75m-.792-4.5a6.75 6.75 0 0 0-13.416 0" class="a"/></svg>