<svg xmlns="http://www.w3.org/2000/svg" width="24" height="24" viewBox="0 0 24 24"><defs><style>.a{fill:none;stroke:#000;stroke-linecap:round;stroke-linejoin:round;stroke-width:1.5px}</style></defs><path d="M23.25 23.25H.75m17.25-6h3a.75.75 0 0 1 .75.75v5.25h-4.5V18a.75.75 0 0 1 .75-.75m-7.5-7.5h3a.75.75 0 0 1 .75.75v12.75h-4.5V10.5a.75.75 0 0 1 .75-.75m-7.5 3h3a.75.75 0 0 1 .75.75v9.75h-4.5V13.5a.75.75 0 0 1 .75-.75m20.25-5.997v4.5h-4.5" class="a"/><path d="M23.25 11.253 18.2 6.2a2.249 2.249 0 0 0-2.237-.564l-5.709 1.529a2.251 2.251 0 0 1-2.172-.583L2.25.75" class="a"/></svg>