<svg xmlns="http://www.w3.org/2000/svg" width="24" height="24" viewBox="0 0 24 24"><defs><style>.a{fill:none;stroke:#000;stroke-linecap:round;stroke-linejoin:round;stroke-width:1.5px}</style></defs><circle cx="5.25" cy="3.75" r="3" class="a"/><path d="M5.25 8.25v6m2.25 9 .75-7.5h1.5v-3a4.5 4.5 0 0 0-9 0v3h1.5l.75 7.5zm5.25-9h9a1.5 1.5 0 0 0 1.5-1.5V2.25a1.5 1.5 0 0 0-1.5-1.5h-10.5" class="a"/><path d="m12 9 2.25-2.25L16.5 9l3.75-3.75" class="a"/><path d="M17.25 5.25h3v3m-4.5 6v5.25m-3 0h6" class="a"/></svg>