<svg xmlns="http://www.w3.org/2000/svg" width="24" height="24" viewBox="0 0 24 24"><defs><style>.a{fill:none;stroke:#000;stroke-linecap:round;stroke-linejoin:round;stroke-width:1.5px}</style></defs><path d="M21.75 11.25 14.4 3.9a1.5 1.5 0 0 0-1.933-.16L9.173 6.09a1.5 1.5 0 0 1-1.809-.049L.75.75" class="a"/><path d="M15.75 11.25h6v-6" class="a"/><rect width="9" height="3" x=".75" y="20.25" class="a" rx=".75" ry=".75"/><rect width="9" height="3" x="12.75" y="20.25" class="a" rx=".75" ry=".75"/><rect width="9" height="3" x="14.25" y="17.25" class="a" rx=".75" ry=".75"/><rect width="9" height="3" x="12.75" y="14.25" class="a" rx=".75" ry=".75"/><rect width="9" height="3" x="2.25" y="17.25" class="a" rx=".75" ry=".75"/><rect width="9" height="3" x=".75" y="14.25" class="a" rx=".75" ry=".75"/><rect width="9" height="3" x=".75" y="11.25" class="a" rx=".75" ry=".75"/></svg>