<svg xmlns="http://www.w3.org/2000/svg" id="Regular" width="24" height="24" viewBox="0 0 24 24"><defs><style>.cls-1{fill:none;stroke:#000;stroke-linecap:round;stroke-linejoin:round;stroke-width:1.5px}</style></defs><path d="M14.752 8.25H6a2.25 2.25 0 0 0 0 4.5h2.25m-1.5 0v6m-2.18-6.512-.82 6.512" class="cls-1"/><path d="M4.362 8.957 1.682 6a3.181 3.181 0 0 1 0-4.5 2.546 2.546 0 0 1 3.6 0 2.037 2.037 0 0 1 0 2.88M20.25 9.15a2.848 2.848 0 0 0 1.5-2.4V2.311a.75.75 0 0 0-1.219-.586L18.937 3a1.5 1.5 0 0 1-1.874 0l-1.594-1.275a.75.75 0 0 0-1.219.586V6.75a2.581 2.581 0 0 0 .625 1.659" class="cls-1"/><circle cx="15.75" cy="15.75" r="5.25" class="cls-1"/><path d="m23.25 23.25-3.788-3.787" class="cls-1"/></svg>