<svg xmlns="http://www.w3.org/2000/svg" id="Regular" width="24" height="24" viewBox="0 0 24 24"><defs><style>.cls-1{fill:none;stroke:#000;stroke-linecap:round;stroke-linejoin:round;stroke-width:1.5px}</style></defs><path d="M12 12.342a.375.375 0 0 1 .375.375m-.75 0a.375.375 0 0 1 .375-.375m0 .75a.375.375 0 0 1-.375-.375m.75 0a.375.375 0 0 1-.375.375m-3 .75a.375.375 0 0 1 .375.375m-.75 0A.375.375 0 0 1 9 13.842m0 .75a.375.375 0 0 1-.375-.375m.75 0a.375.375 0 0 1-.375.375m6-.75a.375.375 0 0 1 .375.375m-.75 0a.375.375 0 0 1 .375-.375m0 .75a.375.375 0 0 1-.375-.375m.75 0a.375.375 0 0 1-.375.375m-2.47 1.688a.749.749 0 0 0-1.06 0l-1.5 1.189a.751.751 0 0 0 .53 1.281h3a.751.751 0 0 0 .53-1.281z" class="cls-1"/><rect width="12" height="15" x="6" y="8.25" class="cls-1" rx="1" ry="1"/><path d="M12 .75v4.5m-3.75 3 1.085-2.171a1.5 1.5 0 0 1 1.342-.829h2.646a1.5 1.5 0 0 1 1.342.829L15.75 8.25m-8.25-6 .75-1.5H15" class="cls-1"/></svg>