<svg xmlns="http://www.w3.org/2000/svg" width="24" height="24" viewBox="0 0 24 24"><defs><style>.a{fill:none;stroke:#000;stroke-linecap:round;stroke-linejoin:round;stroke-width:1.5px}</style></defs><path d="M12.75 14.25v6.268a2.732 2.732 0 0 1-2.732 2.732H3.483A2.733 2.733 0 0 1 .75 20.518V4.983A2.734 2.734 0 0 1 3.483 2.25H6M.75 18.75h12" class="a"/><path d="M20.25.75H12a3 3 0 0 0-3 3v4.5a3 3 0 0 0 3 3h3.75V15l3.75-3.75h.75a3 3 0 0 0 3-3v-4.5a3 3 0 0 0-3-3m-7.875 4.875" class="a"/><path d="M12.375 5.625A.375.375 0 1 0 12.75 6a.375.375 0 0 0-.375-.375m3.75 0A.375.375 0 1 0 16.5 6a.375.375 0 0 0-.375-.375m3.75 0A.375.375 0 1 0 20.25 6a.375.375 0 0 0-.375-.375" class="a"/></svg>