<svg xmlns="http://www.w3.org/2000/svg" width="24" height="24" viewBox="0 0 24 24"><path d="m12.37 22.54.01.007a4.5 4.5 0 0 0 5.6-.615l.629-.629a1.5 1.5 0 0 0 0-2.122l-2.653-2.651a1.5 1.5 0 0 0-2.122 0 1.5 1.5 0 0 1-2.121 0l-4.242-4.243a1.5 1.5 0 0 1 0-2.121 1.5 1.5 0 0 0 0-2.122L4.819 5.393a1.5 1.5 0 0 0-2.121 0l-.63.629a4.5 4.5 0 0 0-.614 5.6l.006.01A40.606 40.606 0 0 0 12.37 22.54M11.25 8.25a4.5 4.5 0 0 1 4.5 4.5m-4.5-8.25a8.25 8.25 0 0 1 8.25 8.25m-8.25-12a12 12 0 0 1 12 12" style="fill:none;stroke:#000;stroke-linecap:round;stroke-linejoin:round;stroke-width:1.5px"/></svg>