<svg xmlns="http://www.w3.org/2000/svg" width="24" height="24" viewBox="0 0 24 24"><defs><style>.a{fill:none;stroke:#000;stroke-linecap:round;stroke-linejoin:round;stroke-width:1.5px}</style></defs><path d="M17.25 21.765v-4.5" class="a"/><rect width="9" height="7.5" x="14.25" y="6.736" class="a" rx="1.5" ry="1.5"/><path d="M18.75 2.236a3 3 0 0 0-3 3v1.5h6v-1.5a3 3 0 0 0-3-3m0 7.904a.375.375 0 1 0 .375.375.375.375 0 0 0-.375-.375m3 7.125v1.5a3 3 0 0 1-3 3h-15a3 3 0 0 1-3-3v-6a3 3 0 0 1 3-3h7.5" class="a"/></svg>