<svg xmlns="http://www.w3.org/2000/svg" width="24" height="24" viewBox="0 0 24 24"><path d="m12.745 22.165.01.007a4.5 4.5 0 0 0 5.6-.615l.629-.629a1.5 1.5 0 0 0 0-2.122l-2.651-2.651a1.5 1.5 0 0 0-2.122 0 1.5 1.5 0 0 1-2.121 0l-4.244-4.243a1.5 1.5 0 0 1 0-2.121 1.5 1.5 0 0 0 0-2.122L5.194 5.018a1.5 1.5 0 0 0-2.121 0l-.63.629a4.5 4.5 0 0 0-.614 5.6l.006.01a40.606 40.606 0 0 0 10.91 10.908m.38-11.29 9.75-9.75m-3.75 9.75h-6v-6" style="fill:none;stroke:#000;stroke-linecap:round;stroke-linejoin:round;stroke-width:1.5px"/></svg>