<svg xmlns="http://www.w3.org/2000/svg" width="24" height="24" viewBox="0 0 24 24"><defs><style>.a{fill:none;stroke:#000;stroke-linecap:round;stroke-linejoin:round;stroke-width:1.5px}</style></defs><path d="m12.37 22.54.01.006a4.5 4.5 0 0 0 5.6-.614l.629-.63a1.5 1.5 0 0 0 0-2.121l-2.651-2.652a1.5 1.5 0 0 0-2.122 0 1.5 1.5 0 0 1-2.121 0l-4.244-4.242a1.5 1.5 0 0 1 0-2.121 1.5 1.5 0 0 0 0-2.122L4.819 5.393a1.5 1.5 0 0 0-2.121 0l-.63.629a4.5 4.5 0 0 0-.614 5.6l.006.01A40.606 40.606 0 0 0 12.37 22.54" class="a"/><rect width="9" height="7.5" x="14.25" y="5.25" class="a" rx="1.5" ry="1.5"/><path d="M18.75.75a3 3 0 0 0-3 3v1.5h6v-1.5a3 3 0 0 0-3-3m0 7.905a.375.375 0 1 0 .375.375.375.375 0 0 0-.375-.375" class="a"/></svg>