<svg xmlns="http://www.w3.org/2000/svg" width="24" height="24" viewBox="0 0 24 24"><defs><style>.a{fill:none;stroke:#000;stroke-linecap:round;stroke-linejoin:round;stroke-width:1.5px}</style></defs><path d="M16.5 8.25a3 3 0 0 1 3 3v12h-15v-12a3 3 0 0 1 3-3" class="a"/><path d="M12 7.5a.375.375 0 1 1-.375.375A.375.375 0 0 1 12 7.5m-3-3L6.75 2.25M15 4.5l2.25-2.25M12 3.75v-3m4.224 22.5a4.522 4.522 0 0 0-8.449 0" class="a"/><circle cx="12" cy="15.75" r="3" class="a"/><path d="M9 15.75s0 3.75-2.25 3.75M15 15.75s0 3.75 2.25 3.75" class="a"/></svg>