<svg xmlns="http://www.w3.org/2000/svg" width="24" height="24" viewBox="0 0 24 24"><defs><style>.a{fill:none;stroke:#000;stroke-linecap:round;stroke-linejoin:round;stroke-width:1.5px}</style></defs><rect width="17.25" height="12" x="3.375" y=".75" class="a" rx="1" ry="1"/><path d="M17.136 18.325a1.5 1.5 0 0 1-1.464 1.175H8.328a1.5 1.5 0 0 1-1.464-1.175L5.625 12.75h12.75z" class="a"/><path d="M13.5 15.75a.375.375 0 1 1-.375.375.375.375 0 0 1 .375-.375m-6-11.978a.375.375 0 1 1-.375.375.375.375 0 0 1 .375-.375m4.5 0a.375.375 0 1 1-.375.375.375.375 0 0 1 .375-.375m4.5-.022a.375.375 0 1 1-.375.375.375.375 0 0 1 .375-.375m-9 4.522a.375.375 0 1 1-.375.375.375.375 0 0 1 .375-.375m4.5 0a.375.375 0 1 1-.375.375.375.375 0 0 1 .375-.375m4.5-.022a.375.375 0 1 1-.375.375.375.375 0 0 1 .375-.375M13.875 19.5v3a.75.75 0 0 1-.75.75h-2.25a.75.75 0 0 1-.75-.75v-3" class="a"/></svg>