<svg xmlns="http://www.w3.org/2000/svg" width="24" height="24" viewBox="0 0 24 24"><path d="M22.15 1.724A1.487 1.487 0 0 0 20.744.75h-3.251a8.994 8.994 0 0 0-4.631 1.283L11.25 3 2.038 4.316A1.5 1.5 0 0 0 .75 5.8v4.9a1.5 1.5 0 0 0 1.288 1.485L11.25 13.5l1.612.967a8.994 8.994 0 0 0 4.631 1.283h3.251a1.487 1.487 0 0 0 1.406-.974 19.5 19.5 0 0 0 1.1-6.526 19.5 19.5 0 0 0-1.1-6.526M8.642 19.01 5.25 23.25m5.608-4.24 3.392 4.24m-4.5-3.75v3.75m-1.5-7.5V18a1.5 1.5 0 0 0 3 0v-.75" style="fill:none;stroke:#000;stroke-linecap:round;stroke-linejoin:round;stroke-width:1.5px"/></svg>