<svg xmlns="http://www.w3.org/2000/svg" width="24" height="24" viewBox="0 0 24 24"><defs><style>.a{fill:none;stroke:#000;stroke-linecap:round;stroke-linejoin:round;stroke-width:1.5px}</style></defs><path d="M21.75 23.25H8.068a1.5 1.5 0 0 1-1.5-1.388l-2.961-19.5A1.5 1.5 0 0 1 5.1.75h13.685a1.5 1.5 0 0 1 1.5 1.388l2.965 19.5a1.5 1.5 0 0 1-1.5 1.612M5.15 12.512.75 23.25" class="a"/><path d="m7.236 3.75 2.44 16.5h9.941l-2.441-16.5z" class="a"/><path d="m12.867 20.25 2.75-4.4a1.5 1.5 0 0 1 2.333-.266l1.15 1.151m-7.924-5.86a.375.375 0 1 1-.375.375.375.375 0 0 1 .375-.375" class="a"/></svg>