<svg xmlns="http://www.w3.org/2000/svg" width="24" height="24" viewBox="0 0 24 24"><defs><style>.a{fill:none;stroke:#000;stroke-linecap:round;stroke-linejoin:round;stroke-width:1.5px}</style></defs><rect width="12" height="19.5" x=".75" y="3.75" class="a" rx="1" ry="1"/><path d="M5.5.75H8a1 1 0 0 1 1 1v2H4.5v-2a1 1 0 0 1 1-1m-1 6.75v15.75M.75 7.5h12m0-2.25h9a1.5 1.5 0 0 1 1.5 1.5v3.75a1.5 1.5 0 0 1-1.5 1.5 4.5 4.5 0 0 0-4.5 4.5v3.75a1.5 1.5 0 0 1-1.5 1.5h-3" class="a"/><path d="M16.125 8.25a.375.375 0 1 1-.375.375.375.375 0 0 1 .375-.375m3.75 0a.375.375 0 1 1-.375.375.375.375 0 0 1 .375-.375" class="a"/></svg>