<svg xmlns="http://www.w3.org/2000/svg" width="24" height="24" viewBox="0 0 24 24"><defs><style>.a{fill:none;stroke:#000;stroke-linecap:round;stroke-linejoin:round;stroke-width:1.5px}</style></defs><rect width="16.5" height="10.5" x="3.75" y=".75" class="a" rx="1.5" ry="1.5"/><path d="M15.115 20.25h-6.23a.749.749 0 0 1-.739-.627L6.75 11.25h10.5l-1.4 8.373a.749.749 0 0 1-.735.627m-1.615 3h-3a.75.75 0 0 1-.75-.75v-2.25h4.5v2.25a.75.75 0 0 1-.75.75M6.75 3.75h10.5v4.5H6.75z" class="a"/><path d="M13.125 16.125a.375.375 0 1 1-.375.375.375.375 0 0 1 .375-.375" class="a"/></svg>