<svg xmlns="http://www.w3.org/2000/svg" width="24" height="24" viewBox="0 0 24 24"><defs><style>.a{fill:none;stroke:#000;stroke-linecap:round;stroke-linejoin:round;stroke-width:1.5px}</style></defs><path d="M14.573 9.044 15 7.955l3.2-1.076a2.412 2.412 0 0 0-1.54-4.573L5.228 6.149 3.7 4.627l-2.273.763a.965.965 0 0 0-.412 1.558l3.073 3.44a1.931 1.931 0 0 0 2.054.543L9.508 9.8l-.682 4.864" class="a"/><path d="M13.459 3.382 9.883.92A.962.962 0 0 0 9.028.8l-1.721.578a.965.965 0 0 0-.373 1.6l1.952 1.941" class="a"/><circle cx="17.242" cy="17.26" r="5.989" class="a"/><path d="M19.889 17.26h-2.647v-2.647" class="a"/></svg>