<svg xmlns="http://www.w3.org/2000/svg" width="24" height="24" viewBox="0 0 24 24"><defs><style>.a{fill:none;stroke:#000;stroke-linecap:round;stroke-linejoin:round;stroke-width:1.5px}</style></defs><path d="m7.5 15 1.673-1.256a1.57 1.57 0 0 1 2.247.385 1.571 1.571 0 0 1 0 1.741l-1.645 2.467A4.5 4.5 0 0 1 7.7 20.019L5.25 21m3-11.25-3.595 1.54a4.5 4.5 0 0 0-2.364 2.364L1.114 16.4a4.5 4.5 0 0 0-.364 1.773v5.077" class="a"/><path d="M8.25 19.755V21a2.25 2.25 0 0 0 2.25 2.25H21A2.25 2.25 0 0 0 23.25 21V3A2.25 2.25 0 0 0 21 .75h-2.25a3 3 0 0 1-6 0H10.5A2.25 2.25 0 0 0 8.25 3v11.437" class="a"/><path d="m12.286 9.525 1.384.803 5.83-2.853m-2.431 1.19L13.786 6.75m9.464 12h-3m-3 0H15" class="a"/></svg>