<svg xmlns="http://www.w3.org/2000/svg" width="24" height="24" viewBox="0 0 24 24"><path d="M16.033 23.266H6.967a.92.92 0 0 1-.868-.835l-.587-4a.969.969 0 0 1 .868-1.165h10.24a.969.969 0 0 1 .868 1.165l-.587 4a.92.92 0 0 1-.868.835M16 7.516a4.5 4.5 0 0 0-9 0v9.75h9zm-4.5-4.5V.766m3.535 3.965 1.715-1.715M8.027 4.655 6.25 3.766M16 9.016l1.5-.75M7 9.016l-1.5-.75m1.5 4.5H5.5m10.5 1.5h1.5m-5.25-5.25.75-1.5m-2.25 6.75-.75-1.5" style="fill:none;stroke:#000;stroke-linecap:round;stroke-linejoin:round;stroke-width:1.5px"/></svg>