<svg xmlns="http://www.w3.org/2000/svg" width="24" height="24" viewBox="0 0 24 24"><defs><style>.a{fill:none;stroke:#000;stroke-linecap:round;stroke-linejoin:round;stroke-width:1.5px}</style></defs><path d="M21.75 9.75v-7.5a1.5 1.5 0 0 0-1.5-1.5h-18a1.5 1.5 0 0 0-1.5 1.5V16.5a1.5 1.5 0 0 0 1.5 1.5h6m15 0A5.25 5.25 0 1 1 18 12.75" class="a"/><path d="m23.25 14.062-4.786 4.786a.657.657 0 0 1-.928 0l-1.5-1.5m-3.989-9.381-6.835 4.62M6.219 7.38l3.343 2.267.857 3.947m-6.669-1.83 1.462.823.218 1.663M.75 4.5h21" class="a"/></svg>