<svg xmlns="http://www.w3.org/2000/svg" width="24" height="24" viewBox="0 0 24 24"><defs><style>.a{fill:none;stroke:#000;stroke-linecap:round;stroke-linejoin:round;stroke-width:1.5px}</style></defs><path d="M20.25 11.25V3a1.5 1.5 0 0 0-1.5-1.5H2.25A1.5 1.5 0 0 0 .75 3v15a1.5 1.5 0 0 0 1.5 1.5h6" class="a"/><circle cx="6.375" cy="13.875" r="1.875" class="a"/><path d="M8.25 13.875V7.081a1.5 1.5 0 0 1 1.026-1.423l4.5-1.25a1.5 1.5 0 0 1 1.974 1.423v5.794" class="a"/><circle cx="13.875" cy="11.625" r="1.875" class="a"/><path d="M23.25 22.5h-10.5m10.5-3h-10.5m10.5-3h-10.5" class="a"/></svg>