<svg xmlns="http://www.w3.org/2000/svg" width="24" height="24" viewBox="0 0 24 24"><defs><style>.a{fill:none;stroke:#000;stroke-linecap:round;stroke-linejoin:round;stroke-width:1.5px}</style></defs><path d="M20.25 10.5V2.25a1.5 1.5 0 0 0-1.5-1.5H2.25a1.5 1.5 0 0 0-1.5 1.5v15a1.5 1.5 0 0 0 1.5 1.5h6" class="a"/><circle cx="6.375" cy="13.125" r="1.875" class="a"/><path d="M8.25 13.125V6.331a1.5 1.5 0 0 1 1.026-1.423l4.5-1.25a1.5 1.5 0 0 1 1.974 1.423v5.794" class="a"/><circle cx="13.875" cy="10.875" r="1.875" class="a"/><path d="M23.25 21.75h-3a3.565 3.565 0 0 1-2.961-2.091l-1.1-2.091a3 3 0 0 0-2.757-1.818H11.25" class="a"/><path d="m21.75 23.25 1.5-1.502-1.5-1.5m1.5-4.498h-3a3.565 3.565 0 0 0-2.961 2.091l-1.1 2.091a3 3 0 0 1-2.757 1.818H11.25" class="a"/><path d="m21.75 14.25 1.5 1.498-1.5 1.5" class="a"/></svg>