<svg xmlns="http://www.w3.org/2000/svg" id="Regular" width="24" height="24" viewBox="0 0 24 24"><defs><style>.cls-1{fill:none;stroke:#000;stroke-linecap:round;stroke-linejoin:round;stroke-width:1.5px}</style></defs><circle cx="12" cy="12" r="11.25" class="cls-1"/><path d="M9 8.25a3 3 0 0 0-3 3v1.5a3 3 0 0 0 3 3m3.75-7.5a1.5 1.5 0 0 0-1.5 1.5v4.5a1.5 1.5 0 0 0 3 0v-4.5a1.5 1.5 0 0 0-1.5-1.5m3.75 5.625a1.125 1.125 0 0 1 1.125-1.125 1.125 1.125 0 0 1 1.125 1.125 1.608 1.608 0 0 1-.351 1L16.5 17.25h2.25" class="cls-1"/></svg>