<svg xmlns="http://www.w3.org/2000/svg" width="24" height="24" viewBox="0 0 24 24"><defs><style>.a{fill:none;stroke:#000;stroke-linecap:round;stroke-linejoin:round;stroke-width:1.5px}</style></defs><path d="M8.78 3.047a3.75 3.75 0 1 0-5.3 5.3l7.553 7.5 5.25-5.25zm2.031 13.023 6.219-6.219 3.75 3.75-5.25 8.25-4.719-4.72a.75.75 0 0 1 0-1.061" class="a"/><path d="m15.53 21.851.419.419a3 3 0 0 0 4.941-1.1l.737-2.028a3 3 0 0 0-.7-3.147l-1.024-1.023M17.03 9.851l1.5-1.5a1.5 1.5 0 0 1 2.122 0l1.628 1.628a1.5 1.5 0 0 1 0 2.122l-1.5 1.5m-6.75 3 2.25-2.25m-15-13.5 2.197 2.196m.027 5.33L2.03 9.851m4.484 1.515L5.03 12.851m5.25-11.25L8.807 3.074m4.473 1.527-1.484 1.484" class="a"/></svg>