<svg xmlns="http://www.w3.org/2000/svg" width="24" height="24" viewBox="0 0 24 24"><defs><style>.a{fill:none;stroke:#000;stroke-linecap:round;stroke-linejoin:round;stroke-width:1.5px}</style></defs><rect width="21" height="3" x=".75" y=".75" class="a" rx=".75" ry=".75"/><path d="M2.25 17.25V3.75h18v4.5m-19.5 9h7.5" class="a"/><rect width="12" height="12" x="11.25" y="11.25" class="a" rx="1.5" ry="1.5"/><path d="M15.375 14.25a.375.375 0 1 1-.375.375.375.375 0 0 1 .375-.375M23.25 21l-2.391-3.587a.749.749 0 0 0-1.238-.014l-2 2.851-1.236-.989a.749.749 0 0 0-.584-.156.758.758 0 0 0-.509.325l-2.542 3.82" class="a"/></svg>