<svg xmlns="http://www.w3.org/2000/svg" width="24" height="24" viewBox="0 0 24 24"><defs><style>.a{fill:none;stroke:#000;stroke-linecap:round;stroke-linejoin:round;stroke-width:1.5px}</style></defs><path d="M4.5 11.25h15m-11.7 3-.3-3h9l-.3 3" class="a"/><circle cx="12" cy="3.375" r="2.625" class="a"/><path d="M15.249 8.25a4.269 4.269 0 0 0-6.5 0" class="a"/><circle cx="3.999" cy="18.375" r="2.625" class="a"/><path d="M7.248 23.25a4.269 4.269 0 0 0-6.5 0" class="a"/><circle cx="12" cy="18.375" r="2.625" class="a"/><path d="M15.249 23.25a4.269 4.269 0 0 0-6.5 0" class="a"/><circle cx="20.001" cy="18.375" r="2.625" class="a"/><path d="M23.25 23.25a4.269 4.269 0 0 0-6.5 0" class="a"/></svg>