<svg xmlns="http://www.w3.org/2000/svg" width="24" height="24" viewBox="0 0 24 24"><defs><style>.a{fill:none;stroke:#000;stroke-linecap:round;stroke-linejoin:round;stroke-width:1.5px}</style></defs><circle cx="17.25" cy="16.5" r="1.5" class="a"/><path d="m18.524 10.7.442 1.453a.994.994 0 0 0 1.174.681l1.472-.342a1.339 1.339 0 0 1 1.275 2.219l-1.031 1.111a1 1 0 0 0 0 1.362l1.031 1.111a1.339 1.339 0 0 1-1.275 2.218l-1.472-.341a.993.993 0 0 0-1.174.681l-.442 1.447a1.33 1.33 0 0 1-2.548 0l-.442-1.452a.993.993 0 0 0-1.174-.681l-1.472.341a1.339 1.339 0 0 1-1.275-2.218l1.031-1.111a1 1 0 0 0 0-1.362l-1.031-1.111a1.339 1.339 0 0 1 1.275-2.219l1.472.342a.994.994 0 0 0 1.174-.681l.442-1.453a1.33 1.33 0 0 1 2.548.005" class="a"/><rect width="21" height="3" x=".75" y=".75" class="a" rx=".75" ry=".75"/><path d="M2.25 17.25V3.75h18V7.5M.75 17.25h7.5" class="a"/></svg>