<svg xmlns="http://www.w3.org/2000/svg" width="24" height="24" viewBox="0 0 24 24"><defs><style>.a{fill:none;stroke:#000;stroke-linecap:round;stroke-linejoin:round;stroke-width:1.5px}</style></defs><path d="m21.2 12.075 1.16 4.89a5.123 5.123 0 0 1-5.016 6.285H6.655a5.123 5.123 0 0 1-5.016-6.285l1.161-4.89" class="a"/><path d="M9.75 14.25H6.583a4.289 4.289 0 0 1-4.333-4.243V6.75a1.5 1.5 0 0 1 1.5-1.5h16.5a1.5 1.5 0 0 1 1.5 1.5v3.257a4.289 4.289 0 0 1-4.333 4.243H14.25" class="a"/><circle cx="12" cy="14.25" r="2.25" class="a"/><path d="M10.25.75h3.5a2 2 0 0 1 2 2v2.5h-7.5v-2.5a2 2 0 0 1 2-2" class="a"/></svg>