<svg xmlns="http://www.w3.org/2000/svg" width="24" height="24" viewBox="0 0 24 24"><defs><style>.a{fill:none;stroke:#000;stroke-linecap:round;stroke-linejoin:round;stroke-width:1.5px}</style></defs><path d="M2.193 23.25a9.754 9.754 0 0 1 6.749-9.28l3 2.53 3-2.53a9.754 9.754 0 0 1 6.751 9.28" class="a"/><path d="M17.6 15.306a9.724 9.724 0 0 0-2.655-1.336l-3 2.53 3.4 4.075zM11.943 16.5l-3-2.53a9.746 9.746 0 0 0-2.654 1.336l2.258 5.269zm2.25 6.75 1.146-2.675m-6.793 0 1.147 2.675" class="a"/><circle cx="11.943" cy="6" r="5.25" class="a"/><path d="M7.419 3.334A8.711 8.711 0 0 0 13.693 6a8.725 8.725 0 0 0 3.452-.71" class="a"/></svg>