<svg xmlns="http://www.w3.org/2000/svg" width="24" height="24" viewBox="0 0 24 24"><defs><style>.a{fill:none;stroke:#000;stroke-linecap:round;stroke-linejoin:round;stroke-width:1.5px}</style></defs><circle cx="3.375" cy="16.876" r="2.625" class="a"/><path d="M7.514 22.984A4.5 4.5 0 0 0 .75 21.1" class="a"/><circle cx="20.625" cy="16.876" r="2.625" class="a"/><path d="M16.486 22.984A4.5 4.5 0 0 1 23.25 21.1" class="a"/><circle cx="12" cy="16.126" r="3.375" class="a"/><path d="M16.715 23.25a6.066 6.066 0 0 0-9.429 0m8.464-13.5h-7.5V12L4.5 9.75h-3v-9h14.25z" class="a"/><path d="m6 3.75-1.5 1.5L6 6.75m5.25-3 1.5 1.5-1.5 1.5M9 3.75l-.75 3" class="a"/></svg>