<svg xmlns="http://www.w3.org/2000/svg" width="24" height="24" viewBox="0 0 24 24"><defs><style>.a{fill:none;stroke:#000;stroke-linecap:round;stroke-linejoin:round;stroke-width:1.5px}</style></defs><path d="m13.533 16.35 7.545-.575a1.554 1.554 0 0 1 1.509 2.244 1.559 1.559 0 0 1-.845.76l-10.434 3.912a2.991 2.991 0 0 1-2 .037l-7.994-2.664" class="a"/><path d="M6.564 17.064h5.788a1.335 1.335 0 0 0 1.266-.912 1.335 1.335 0 0 0-.915-1.709l-5.938-1.619a4.512 4.512 0 0 0-1.924-.1l-3.527.588M8.73 2.966l-3.666 2.75 3.666 2.75m9.167-5.5 3.667 2.75-3.667 2.75M14.23 1.132l-1.833 9.167" class="a"/></svg>