<svg xmlns="http://www.w3.org/2000/svg" width="24" height="24" viewBox="0 0 24 24"><defs><style>.a{fill:none;stroke:#000;stroke-linecap:round;stroke-linejoin:round;stroke-width:1.5px}</style></defs><path d="M.75 23.253V.753m0 17.62L3.9 17.4a9.607 9.607 0 0 1 7.864 1 9.615 9.615 0 0 0 7.679 1.056l2.987-.854a1.125 1.125 0 0 0 .816-1.082V4.651a1.126 1.126 0 0 0-1.434-1.082l-2.369.677a9.611 9.611 0 0 1-7.675-1.056 9.614 9.614 0 0 0-7.864-1L.75 3.16z" class="a"/><path d="m15.424 7.601 2.935 2.935-2.935 2.935m-6.848-5.87-2.935 2.935 2.935 2.935m4.402-5.87-1.956 5.87" class="a"/></svg>