<svg xmlns="http://www.w3.org/2000/svg" width="24" height="24" viewBox="0 0 24 24"><defs><style>.a{fill:none;stroke:#000;stroke-linecap:round;stroke-linejoin:round;stroke-width:1.5px}</style></defs><path d="M15 12.095v5.75H9v-5.75" class="a"/><path d="m7.5 13.345 4.5-3.75 4.5 3.75" class="a"/><path d="M15.75 4.5h3.75A1.5 1.5 0 0 1 21 6v15.75a1.5 1.5 0 0 1-1.5 1.5h-15a1.5 1.5 0 0 1-1.5-1.5V6a1.5 1.5 0 0 1 1.5-1.5h3.75a3.75 3.75 0 0 1 7.5 0M12 3.75a.375.375 0 0 1 .375.375m-.75 0A.375.375 0 0 1 12 3.75m0 .75a.375.375 0 0 1-.375-.375m.75 0A.375.375 0 0 1 12 4.5" class="a"/></svg>