<svg xmlns="http://www.w3.org/2000/svg" width="24" height="24" viewBox="0 0 24 24"><defs><style>.a{fill:none;stroke:#000;stroke-linecap:round;stroke-linejoin:round;stroke-width:1.5px}</style></defs><circle cx="3.75" cy="20.25" r="3" class="a"/><path d="M.75 20.25V3.75a3 3 0 0 1 6 0v16.5" class="a"/><path d="M3.75 23.25h18a1.5 1.5 0 0 0 1.5-1.5V6a1.5 1.5 0 0 0-1.5-1.5h-15" class="a"/><path d="M12 18.75h6V9a.75.75 0 0 0-.75-.75h-4.5A.75.75 0 0 0 12 9zM15 12h3m-3 3h3m1.5 3.75H18m-6 0h-1.5" class="a"/></svg>