<svg xmlns="http://www.w3.org/2000/svg" width="24" height="24" viewBox="0 0 24 24"><defs><style>.a{fill:none;stroke:#000;stroke-linecap:round;stroke-linejoin:round;stroke-width:1.5px}</style></defs><path d="M7.5 18.5H3A2.25 2.25 0 0 0 3 23h4.5a2.25 2.25 0 0 0 0-4.5" class="a"/><path d="M16.5 18.5H12a2.25 2.25 0 0 0 0 4.5h4.5a2.25 2.25 0 0 0 0-4.5m-3-4.5H9a2.25 2.25 0 0 0 0 4.5h4.5a2.25 2.25 0 0 0 0-4.5" class="a"/><path d="M9 14H6.177a1.5 1.5 0 0 1-1.342-.829L3.75 11H12M.75 9.5V11h3m17.925-4.5a3.75 3.75 0 1 1-7.35 0m8.925 0a5.25 5.25 0 0 0-10.5 0z" class="a"/><path d="M18 11a5.251 5.251 0 0 1 5.25 5.25V23" class="a"/></svg>