<svg xmlns="http://www.w3.org/2000/svg" width="24" height="24" viewBox="0 0 24 24"><defs><style>.a{fill:none;stroke:#000;stroke-linecap:round;stroke-linejoin:round;stroke-width:1.5px}</style></defs><path d="M.75 23.25h4.5a2.25 2.25 0 0 0 0-4.5H.75m22.5 0h-4.5a2.25 2.25 0 0 0 0 4.5h4.5" class="a"/><path d="M14.25 18.75h-4.5a2.25 2.25 0 0 0 0 4.5h4.5a2.25 2.25 0 0 0 0-4.5m-13.5-4.5H3a2.25 2.25 0 0 1 0 4.5H.75m22.5-4.5H21a2.25 2.25 0 0 0 0 4.5h2.25m-21-7.5a4.5 4.5 0 0 1 4.5-4.5h10.5a4.5 4.5 0 0 1 4.5 4.5m-15 0h10.5M12.75.75h4a.5.5 0 0 1 .5.5v2a.5.5 0 0 1-.5.5h-4zm0 3v3" class="a"/></svg>