<svg xmlns="http://www.w3.org/2000/svg" width="24" height="24" viewBox="0 0 24 24"><defs><style>.a{fill:none;stroke:#000;stroke-linecap:round;stroke-linejoin:round;stroke-width:1.5px}</style></defs><circle cx="17.25" cy="17.963" r="1.5" class="a"/><circle cx="5.25" cy="17.963" r="1.5" class="a"/><path d="M18 11.963H3.75m12 6h-9m-3 0h-1.5a1.5 1.5 0 0 1-1.5-1.5v-1.5a3 3 0 0 1 3-3l1.835-3.671a1.5 1.5 0 0 1 1.342-.829h7.9a1.5 1.5 0 0 1 1.342.829L18 11.963h2.25a3 3 0 0 1 3 3v1.5a1.5 1.5 0 0 1-1.5 1.5h-3" class="a"/><path d="M12.75 3.713a1.5 1.5 0 0 1 1.5 1.5v2.25h-3v-2.25a1.5 1.5 0 0 1 1.5-1.5" class="a"/></svg>