<svg xmlns="http://www.w3.org/2000/svg" width="24" height="24" viewBox="0 0 24 24"><defs><style>.a{fill:none;stroke:#000;stroke-linecap:round;stroke-linejoin:round;stroke-width:1.5px}</style></defs><path d="M3 20.263v1.5a1.5 1.5 0 0 0 3 0v-1.5m15 0v1.5a1.5 1.5 0 1 1-3 0v-1.5M6 12.388a.375.375 0 0 1 .375.375m-.75 0A.375.375 0 0 1 6 12.388m0 .75a.375.375 0 0 1-.375-.375m.75 0a.375.375 0 0 1-.375.375m12-.75a.375.375 0 0 1 .375.375m-.75 0a.375.375 0 0 1 .375-.375m0 .75a.375.375 0 0 1-.375-.375m.75 0a.375.375 0 0 1-.375.375" class="a"/><rect width="21" height="4.5" x="1.5" y="15.763" class="a" rx=".5" ry=".5"/><path d="M3 9.763h18v6H3zm7.5 3h3m-9.5-9h16a1 1 0 0 1 1 1v5H3v-5a1 1 0 0 1 1-1m8 6v-6m-9 3H1.5m4.5-3v-1.5m12 1.5v-1.5m4.5 4.5H21m-11-6h4a1 1 0 0 1 1 1v2H9v-2a1 1 0 0 1 1-1m-5.5 19.5 3-4.5m1.5 4.5 3-4.5m7.5 4.5-3-4.5m-1.5 4.5-3-4.5" class="a"/></svg>