<svg xmlns="http://www.w3.org/2000/svg" width="24" height="24" viewBox="0 0 24 24"><defs><style>.a{fill:none;stroke:#000;stroke-linecap:round;stroke-linejoin:round;stroke-width:1.5px}</style></defs><path d="M3.727 7.5 21 .75M.75 13.5h22.5M4.124 9.75a.375.375 0 1 1-.374.376.375.375 0 0 1 .374-.376m15.75 0a.375.375 0 1 1-.374.376.375.375 0 0 1 .374-.376M15 10.5h1.5m-9 0H12" class="a"/><circle cx="6" cy="18" r="2.25" class="a"/><path d="M12.75 16.5H18m-5.25 3H18" class="a"/><rect width="22.5" height="15.75" x=".75" y="7.5" class="a" rx="1" ry="1"/></svg>