<svg xmlns="http://www.w3.org/2000/svg" width="24" height="24" viewBox="0 0 24 24"><defs><style>.a{fill:none;stroke:#000;stroke-linecap:round;stroke-linejoin:round;stroke-width:1.5px}</style></defs><path d="M12 11.625a.375.375 0 1 0 .375.375.375.375 0 0 0-.375-.375" class="a"/><circle cx="12" cy="12" r="11.25" class="a"/><path d="M10.313 9.078 7.874 4.855A8.246 8.246 0 0 0 3.75 12h4.875a3.371 3.371 0 0 1 1.688-2.922m0 5.845-2.439 4.223a8.246 8.246 0 0 0 8.251 0l-2.438-4.222a3.372 3.372 0 0 1-3.374-.001M15.375 12h4.876a8.246 8.246 0 0 0-4.126-7.144l-2.438 4.221A3.376 3.376 0 0 1 15.375 12" class="a"/></svg>