<svg xmlns="http://www.w3.org/2000/svg" width="24" height="24" viewBox="0 0 24 24"><defs><style>.a{fill:none;stroke:#000;stroke-linecap:round;stroke-linejoin:round;stroke-width:1.5px}</style></defs><path d="M20.273 6.742 3 .75" class="a"/><rect width="22.5" height="16.508" x=".75" y="6.742" class="a" rx="1" ry="1" transform="rotate(-180 12 14.996)"/><path d="M11.887 17.634A4.469 4.469 0 0 1 10.292 19m-3.432.271a4.658 4.658 0 0 1-1.792-1.1M3.75 14.992a4.587 4.587 0 0 1 .493-2.042m2.617-2.237a4.526 4.526 0 0 1 2.093-.161m2.934 1.798a4.363 4.363 0 0 1 .8 1.939" class="a"/><circle cx="18" cy="11.992" r="2.25" class="a"/><path d="M16.5 17.242h3m-3 3h3" class="a"/></svg>