<svg xmlns="http://www.w3.org/2000/svg" id="Regular" width="24" height="24" viewBox="0 0 24 24"><defs><style>.cls-1{fill:none;stroke:#000;stroke-linecap:round;stroke-linejoin:round;stroke-width:1.5px}</style></defs><path d="M20.25 5.25a4.927 4.927 0 0 0-3.75-1.5 4.927 4.927 0 0 0-3.75 1.5M20.25 9a4.927 4.927 0 0 0-3.75-1.5A4.927 4.927 0 0 0 12.75 9m3.75-5.25v7.5" class="cls-1"/><circle cx="5.25" cy="3.75" r="3" class="cls-1"/><path d="M5.25 8.25v6m2.25 9 .75-7.5h1.5v-3a4.5 4.5 0 0 0-9 0v3h1.5l.75 7.5zM11.25.75h10.5a1.5 1.5 0 0 1 1.5 1.5v10.5a1.5 1.5 0 0 1-1.5 1.5H13.5" class="cls-1"/></svg>