<svg xmlns="http://www.w3.org/2000/svg" width="24" height="24" viewBox="0 0 24 24"><defs><style>.a{fill:none;stroke:#000;stroke-linecap:round;stroke-linejoin:round;stroke-width:1.5px}</style></defs><path d="M2.159 19.875A1.409 1.409 0 0 1 .75 18.466V4.5a1 1 0 0 1 1-1H11v8h10.25a2 2 0 0 1 2 2v4.375a2 2 0 0 1-2 2h-.409" class="a"/><circle cx="4.5" cy="20.75" r="2.5" class="a"/><circle cx="11.5" cy="20.75" r="2.5" class="a"/><circle cx="18.5" cy="20.75" r="2.5" class="a"/><path d="M20.5 11.5v-5H16v5m-5-8h1.5M11 7H4.5v4.5H11" class="a"/></svg>