<svg xmlns="http://www.w3.org/2000/svg" width="24" height="24" viewBox="0 0 24 24"><defs><style>.a{fill:none;stroke:#000;stroke-linecap:round;stroke-linejoin:round;stroke-width:1.5px}</style></defs><rect width="5.25" height="7.5" x="1.125" y="15.75" class="a" rx=".75" ry=".75"/><rect width="5.25" height="4.5" x="17.625" y="18.75" class="a" rx=".75" ry=".75"/><rect width="5.25" height="10.5" x="9.375" y="12.75" class="a" rx=".75" ry=".75"/><path d="m12.905 1.076 1.249 2.455h2.127a.582.582 0 0 1 .419 1l-1.953 1.918 1.082 2.485a.589.589 0 0 1-.839.737L12.375 8.2 9.76 9.671a.589.589 0 0 1-.839-.737L10 6.449 8.05 4.527a.582.582 0 0 1 .419-1H10.6l1.249-2.455a.594.594 0 0 1 1.056.004" class="a"/></svg>