<svg xmlns="http://www.w3.org/2000/svg" width="24" height="24" viewBox="0 0 24 24"><defs><style>.a{fill:none;stroke:#000;stroke-linecap:round;stroke-linejoin:round;stroke-width:1.5px}</style></defs><path d="M8.25 17.25h-6a1.5 1.5 0 0 0-1.5 1.5v4.5h7.5zm13.5 0h-6v6h7.5v-4.5a1.5 1.5 0 0 0-1.5-1.5m-7.5-6h-4.5a1.5 1.5 0 0 0-1.5 1.5v10.5h7.5v-10.5a1.5 1.5 0 0 0-1.5-1.5" class="a"/><circle cx="12" cy="3.375" r="2.625" class="a"/><path d="M15.249 8.25a4.269 4.269 0 0 0-6.5 0" class="a"/><circle cx="20.001" cy="10.125" r="2.625" class="a"/><path d="M23.25 15a4.26 4.26 0 0 0-4.5-1.311" class="a"/><circle cx="3.999" cy="10.125" r="2.625" class="a"/><path d="M.75 15A4.286 4.286 0 0 1 4 13.5a4.237 4.237 0 0 1 1.245.188" class="a"/></svg>