<svg xmlns="http://www.w3.org/2000/svg" width="24" height="24" viewBox="0 0 24 24"><defs><style>.a{fill:none;stroke:#000;stroke-linecap:round;stroke-linejoin:round;stroke-width:1.5px}</style></defs><path d="m12.593 6.8 1.4 2.95h2.377a.651.651 0 0 1 .469 1.114l-2.187 1.946 1.209 2.778a.658.658 0 0 1-.938.823L12 14.767l-2.923 1.644a.658.658 0 0 1-.938-.823l1.209-2.778-2.183-1.946a.651.651 0 0 1 .469-1.114h2.377l1.4-2.95a.665.665 0 0 1 1.182 0" class="a"/><circle cx="12" cy="12" r="11.25" class="a"/></svg>