<svg xmlns="http://www.w3.org/2000/svg" width="24" height="24" viewBox="0 0 24 24"><defs><style>.a{fill:none;stroke:#000;stroke-linecap:round;stroke-linejoin:round;stroke-width:1.5px}</style></defs><rect width="22.5" height="22.5" x=".752" y=".753" class="a" rx="1.5" ry="1.5"/><path d="M7.502 18.004v-7.5M7.5 10.5h1.127a1.875 1.875 0 0 1 0 3.75H7.5m3.002 3.754-2.25-3.75m5.25 3.75v-7.5M13.5 10.5H15a1.5 1.5 0 0 1 1.5 1.5v.75a1.5 1.5 0 0 1-1.5 1.5h-1.5m0 .004H15a1.5 1.5 0 0 1 1.5 1.5v.75A1.5 1.5 0 0 1 15 18h-1.5" class="a"/></svg>