<svg xmlns="http://www.w3.org/2000/svg" width="24" height="24" viewBox="0 0 24 24"><defs><style>.a{fill:none;stroke:#000;stroke-linecap:round;stroke-linejoin:round;stroke-width:1.5px}</style></defs><rect width="10.5" height="7.5" x="6.75" y="8.25" class="a" rx="1.5" ry="1.5"/><path d="m6.75 9.75 5.25 3 5.25-3m-12 9-4.5 4.5m18-4.5 4.5 4.5m-18-18L.75.75m18 4.5 4.5-4.5m-1.461 16.797a11.261 11.261 0 0 0 0-11.094M6.453 21.789a11.261 11.261 0 0 0 11.094 0M2.211 6.453a11.261 11.261 0 0 0 0 11.094M17.547 2.211a11.261 11.261 0 0 0-11.094 0" class="a"/></svg>