<svg xmlns="http://www.w3.org/2000/svg" id="Regular" width="24" height="24" viewBox="0 0 24 24"><defs><style>.cls-1{fill:none;stroke:#000;stroke-linecap:round;stroke-linejoin:round;stroke-width:1.5px}</style></defs><path d="m19.167 19.453-5.239 1.048m.572-5.918L12.028 15.6a1.6 1.6 0 0 1-1.309-2.916l2.47-1.2a2.215 2.215 0 0 1 1.745-.1l4.509 1.726" class="cls-1"/><path d="M4.5 20.583h1.865l3.106 2.362a.911.911 0 0 0 1.258.1L15.39 19.3a.912.912 0 0 0 .141-1.266l-2.563-2.823m-2.454-2.394-.334-.275a1.957 1.957 0 0 0-1.887-.242L4.5 13.917" class="cls-1"/><path d="M1.167 21.917h2A1.333 1.333 0 0 0 4.5 20.583v-6.666a1.333 1.333 0 0 0-1.333-1.334h-2M22.5 21.917h-2a1.333 1.333 0 0 1-1.333-1.334v-6.666a1.333 1.333 0 0 1 1.333-1.334h2M21.583 9 11.833.75 2.083 9m15-7.5h3v3" class="cls-1"/></svg>