<svg xmlns="http://www.w3.org/2000/svg" id="Regular" width="24" height="24" viewBox="0 0 24 24"><defs><style>.cls-1{fill:none;stroke:#000;stroke-linecap:round;stroke-linejoin:round;stroke-width:1.5px}</style></defs><path d="M8.25 19.535h-3a1.5 1.5 0 0 1-1.5-1.5v-7.5m-3-1.5 8.781-7.43a1.5 1.5 0 0 1 1.938 0l5.78 4.895M15.75 1.535h3v3" class="cls-1"/><circle cx="17.25" cy="15.785" r="1.5" class="cls-1"/><path d="m18.524 9.982.442 1.453a.994.994 0 0 0 1.174.681l1.472-.341a1.339 1.339 0 0 1 1.275 2.218L21.856 15.1a1 1 0 0 0 0 1.362l1.031 1.111a1.339 1.339 0 0 1-1.275 2.227l-1.472-.341a.994.994 0 0 0-1.174.681l-.442 1.453a1.33 1.33 0 0 1-2.548 0l-.442-1.453a.994.994 0 0 0-1.174-.681l-1.472.341a1.339 1.339 0 0 1-1.275-2.218l1.031-1.111a1 1 0 0 0 0-1.362l-1.031-1.111a1.339 1.339 0 0 1 1.275-2.218l1.472.341a.994.994 0 0 0 1.174-.681l.442-1.453a1.33 1.33 0 0 1 2.548-.005" class="cls-1"/></svg>