<svg xmlns="http://www.w3.org/2000/svg" id="Regular" width="24" height="24" viewBox="0 0 24 24"><defs><style>.cls-1{fill:none;stroke:#000;stroke-linecap:round;stroke-linejoin:round;stroke-width:1.5px}</style></defs><path d="M8.25 19.535h-3a1.5 1.5 0 0 1-1.5-1.5v-7.5m-3-1.5 8.781-7.43a1.5 1.5 0 0 1 1.938 0l7.279 6.159M15.75 1.535h3v3M15.64 18.21a.375.375 0 1 1-.53 0 .374.374 0 0 1 .53 0" class="cls-1"/><path d="m19.087 17 3.687-3.687a1.624 1.624 0 0 0-2.3-2.3L16.79 14.7a4.06 4.06 0 1 0 2.3 2.3z" class="cls-1"/></svg>