<svg xmlns="http://www.w3.org/2000/svg" id="Regular" width="24" height="24" viewBox="0 0 24 24"><defs><style>.cls-1{fill:none;stroke:#000;stroke-linecap:round;stroke-linejoin:round;stroke-width:1.5px}</style></defs><path d="M21.75 18.75h-10.5l-6 4.5v-4.5h-3a1.5 1.5 0 0 1-1.5-1.5v-15a1.5 1.5 0 0 1 1.5-1.5h19.5a1.5 1.5 0 0 1 1.5 1.5v15a1.5 1.5 0 0 1-1.5 1.5" class="cls-1"/><path d="M15 7.75v5a.75.75 0 0 1-.75.75h-4.5a.75.75 0 0 1-.75-.75v-5" class="cls-1"/><path d="M7.5 9 12 5.25 16.5 9" class="cls-1"/></svg>