<svg xmlns="http://www.w3.org/2000/svg" width="24" height="24" viewBox="0 0 24 24"><path d="M8.229 19.535h-3a1.5 1.5 0 0 1-1.5-1.5v-7.5m-3-1.5 8.781-7.43a1.5 1.5 0 0 1 1.937 0l7.3 6.177m-3.018-6.247h3v3m-.782 6.43 1.541 4.07h3a.735.735 0 0 1 .518 1.283l-2.6 1.816 1.442 3.313a.785.785 0 0 1-1.119.982l-3.489-1.961-3.487 1.961a.785.785 0 0 1-1.119-.982l1.443-3.313-2.6-1.816a.734.734 0 0 1 .515-1.283h3l1.544-4.07a.8.8 0 0 1 1.411 0" style="fill:none;stroke:#000;stroke-linecap:round;stroke-linejoin:round;stroke-width:1.5px"/></svg>