<svg xmlns="http://www.w3.org/2000/svg" id="Regular" width="24" height="24" viewBox="0 0 24 24"><defs><style>.cls-1{fill:none;stroke:#000;stroke-linecap:round;stroke-linejoin:round;stroke-width:1.5px}</style></defs><path d="M11.25 18.232v3.518a1.5 1.5 0 0 0 1.5 1.5h6a1.5 1.5 0 0 0 1.5-1.5v-3.518m3-.75-6.5-5.847a1.5 1.5 0 0 0-2.006 0l-6.5 5.847m13.506-1.35V12" class="cls-1"/><circle cx="8.25" cy="8.25" r="3.75" class="cls-1"/><path d="M8.25 23.25a.749.749 0 0 1-.625-.336C5.824 20.2.75 11.657.75 8.25a7.5 7.5 0 0 1 15 0" class="cls-1"/></svg>