<svg xmlns="http://www.w3.org/2000/svg" id="Regular" width="24" height="24" viewBox="0 0 24 24"><defs><style>.cls-1{fill:none;stroke:#000;stroke-linecap:round;stroke-linejoin:round;stroke-width:1.5px}</style></defs><path d="M8.25 19.535h-3a1.5 1.5 0 0 1-1.5-1.5v-7.5m-3-1.5 8.781-7.43a1.5 1.5 0 0 1 1.938 0l7.284 6.164M15.75 1.535h3v3" class="cls-1"/><circle cx="17.25" cy="16.535" r="6" class="cls-1"/><path d="m15 18.784 4.5-4.499M15 13.91a.375.375 0 1 1-.375.375.375.375 0 0 1 .375-.375m4.5 4.5a.375.375 0 1 1-.375.375.375.375 0 0 1 .375-.375" class="cls-1"/></svg>