<svg xmlns="http://www.w3.org/2000/svg" id="Regular" width="24" height="24" viewBox="0 0 24 24"><defs><style>.cls-1{fill:none;stroke:#000;stroke-linecap:round;stroke-linejoin:round;stroke-width:1.5px}</style></defs><path d="M10.5 19.5H6A1.5 1.5 0 0 1 4.5 18v-7.5M1.5 9l8.781-7.43a1.5 1.5 0 0 1 1.938 0l7.3 6.177M16.5 1.5h3v3" class="cls-1"/><rect width="9" height="7.5" x="13.5" y="15" class="cls-1" rx="1" ry="1"/><path d="M18 10.5a3 3 0 0 0-3 3V15h6v-1.5a3 3 0 0 0-3-3m0 7.9a.375.375 0 1 1-.375.375A.375.375 0 0 1 18 18.4" class="cls-1"/></svg>