<svg xmlns="http://www.w3.org/2000/svg" id="Regular" width="24" height="24" viewBox="0 0 24 24"><defs><style>.cls-1{fill:none;stroke:#000;stroke-linecap:round;stroke-linejoin:round;stroke-width:1.5px}</style></defs><path d="M3 23.25V7.5M.75 21 3 23.25 5.25 21m0-11.25L3 7.5.75 9.75M7.5 3h15.75M9.75.75 7.5 3l2.25 2.25m11.25 0L23.25 3 21 .75m-9.75 12.3v7.2a1.5 1.5 0 0 0 1.5 1.5h6a1.5 1.5 0 0 0 1.5-1.5v-7.2" class="cls-1"/><path d="M23.25 15.75 16.753 9.9a1.5 1.5 0 0 0-2.006 0L8.25 15.75" class="cls-1"/></svg>