<svg xmlns="http://www.w3.org/2000/svg" id="Regular" width="24" height="24" viewBox="0 0 24 24"><defs><style>.cls-1{fill:none;stroke:#000;stroke-linecap:round;stroke-linejoin:round;stroke-width:1.5px}</style></defs><path d="M10.5 18v4.5a.75.75 0 0 1-.75.75H1.5a.75.75 0 0 1-.75-.75V2.251a.75.75 0 0 1 1.013-.7L7.5 4.517M3 6.001H.75m3.75 3H.75m6-4.872V1.501" class="cls-1"/><path d="M16.25.75a6.989 6.989 0 0 0-5.944 10.683L8.25 15.75l4.317-2.056A7 7 0 1 0 16.25.75" class="cls-1"/><path d="M17.625 4.5h-2.033a1.342 1.342 0 0 0-.5 2.587l2.064.826a1.342 1.342 0 0 1-.5 2.587h-2.031m1.5-6v-.75m0 7.5v-.75" class="cls-1"/></svg>