<svg xmlns="http://www.w3.org/2000/svg" id="Regular" width="24" height="24" viewBox="0 0 24 24"><defs><style>.cls-1{fill:none;stroke:#000;stroke-linecap:round;stroke-linejoin:round;stroke-width:1.5px}</style></defs><path d="M15 3.75v5a.75.75 0 0 1-.75.75h-4.5A.75.75 0 0 1 9 8.75v-5" class="cls-1"/><path d="M7.5 5 12 1.25 16.5 5m5.25 12.25v5A.75.75 0 0 1 21 23h-4.5a.75.75 0 0 1-.75-.75v-5" class="cls-1"/><path d="m14.25 18.5 4.5-3.75 4.5 3.75m-15-1.25v5a.75.75 0 0 1-.75.75H3a.75.75 0 0 1-.75-.75v-5" class="cls-1"/><path d="m.75 18.5 4.5-3.75 4.5 3.75" class="cls-1"/></svg>