<svg xmlns="http://www.w3.org/2000/svg" id="Regular" width="24" height="24" viewBox="0 0 24 24"><defs><style>.cls-1{fill:none;stroke:#000;stroke-linecap:round;stroke-linejoin:round;stroke-width:1.5px}</style></defs><circle cx="19.5" cy="6.75" r="3" class="cls-1"/><path d="M23.25 17.25V15a3.75 3.75 0 0 0-7.5 0v2.25h1.5l.75 6h3l.75-6zM9 13.5H2.25V5.75a.5.5 0 0 1 .5-.5H8.5a.5.5 0 0 1 .5.5z" class="cls-1"/><path d="M9 13.5h5.25v-12a.75.75 0 0 0-.75-.75H6.75A.75.75 0 0 0 6 1.5v3.75M2.25 13.5H.75M6 8.25h3m3-3h2.25m-2.25 3h2.25" class="cls-1"/></svg>