<svg xmlns="http://www.w3.org/2000/svg" width="24" height="24" viewBox="0 0 24 24"><defs><style>.a{fill:none;stroke:#000;stroke-linecap:round;stroke-linejoin:round;stroke-width:1.5px}</style></defs><path d="M7.062 13.438a.375.375 0 1 1-.375.375.374.374 0 0 1 .375-.375m5.25 0a.375.375 0 1 1-.375.375.374.374 0 0 1 .375-.375m5.25 0a.375.375 0 1 1-.375.375.374.374 0 0 1 .375-.375" class="a"/><rect width="22.5" height="6" x=".75" y="17.25" class="a" rx="1.5" ry="1.5"/><path d="M17.25 6.75v-3" class="a"/><rect width="6" height="3" x="14.25" y=".75" class="a" rx="1.5" ry="1.5"/><path d="M6.75 9.75h6m-7.5-3H4.4a1.5 1.5 0 0 0-1.5 1.393l-.65 9.107m19.5 0-.65-9.107a1.5 1.5 0 0 0-1.5-1.393h-5.35m-3-3-3 .75v5.25h3zm-1.5 16.5h4.5" class="a"/></svg>