<svg xmlns="http://www.w3.org/2000/svg" width="24" height="24" viewBox="0 0 24 24"><defs><style>.a{fill:none;stroke:#000;stroke-linecap:round;stroke-linejoin:round;stroke-width:1.5px}</style></defs><path d="M17.625 18h3a1.5 1.5 0 0 1 1.5 1.5v2.25a1.5 1.5 0 0 1-1.5 1.5H3.375a1.5 1.5 0 0 1-1.5-1.5V18h5.25m4.328-.966L8.707 14.35" class="a"/><ellipse cx="12.483" cy="18.114" class="a" rx="1.5" ry="1.487"/><path d="M1.875 4.5h6.75l1.189-1.189A1.5 1.5 0 0 0 8.754.75H3.375a1.5 1.5 0 0 0-1.5 1.5V18M13.717 7.598l.987.489m1.681 1.204.837.712m1.181 1.587.558.943" class="a"/><path d="M8.625 4.5v3.237A12.219 12.219 0 0 1 18.917 18" class="a"/><circle cx="7.125" cy="12.75" r="2.25" class="a"/></svg>