<svg xmlns="http://www.w3.org/2000/svg" width="24" height="24" viewBox="0 0 24 24"><defs><style>.a{fill:none;stroke:#000;stroke-linecap:round;stroke-linejoin:round;stroke-width:1.5px}</style></defs><path d="M16.66.75H7.34L.75 7.34v9.32l6.59 6.59h9.32l6.59-6.59V7.34z" class="a"/><path d="M14.796 5.25H9.204L5.25 9.204v5.592l3.954 3.954h5.592l3.954-3.954V9.204z" class="a"/><path d="M12.932 9.75h-1.864L9.75 11.068v1.864l1.318 1.318h1.864l1.318-1.318v-1.864zM7.34.75l3.728 9m5.592-9-3.728 9m1.318 1.318 9-3.728m-10.318 6.91 3.728 9m-2.41-10.318 9 3.728m-12.182-2.41-3.728 9m2.41-10.318-9 3.728m9-5.592-9-3.728" class="a"/></svg>