<svg xmlns="http://www.w3.org/2000/svg" width="24" height="24" viewBox="0 0 24 24"><path d="M18.749 11.25a1.5 1.5 0 0 0-1.5-1.5h-3v-3a1.5 1.5 0 0 0-1.5-1.5h-1.5a1.5 1.5 0 0 0-1.5 1.5v3h-3a1.5 1.5 0 0 0-1.5 1.5v1.5a1.5 1.5 0 0 0 1.5 1.5h3v7.5a1.5 1.5 0 0 0 1.5 1.5h1.5a1.5 1.5 0 0 0 1.5-1.5v-7.5h3a1.5 1.5 0 0 0 1.5-1.5zM9.747 7.215A9.015 9.015 0 0 1 3.284.756M20.716.75a9.016 9.016 0 0 1-6.467 6.466" style="fill:none;stroke:#000;stroke-linecap:round;stroke-linejoin:round;stroke-width:1.5px"/></svg>