<svg xmlns="http://www.w3.org/2000/svg" width="24" height="24" viewBox="0 0 24 24"><path d="M17.25 11.25v-1.5A.75.75 0 0 0 16.5 9h-2.25a.75.75 0 0 1-.75-.75V6a.75.75 0 0 0-.75-.75h-1.5a.75.75 0 0 0-.75.75v2.25a.75.75 0 0 1-.75.75H7.5a.75.75 0 0 0-.75.75v1.5a.75.75 0 0 0 .75.75h2.25a.75.75 0 0 1 .75.75v6a.75.75 0 0 0 .75.75h1.5a.75.75 0 0 0 .75-.75v-6a.75.75 0 0 1 .75-.75h2.25a.75.75 0 0 0 .75-.75M7.5 4.5 4.5.75M.75 7.5 4.5 9M.75 17.25 4.5 15m3 4.5-3 3.75m12-18.75 3-3.75m3.75 6.75L19.5 9m3.75 8.25L19.5 15m-3 4.5 3 3.75" style="fill:none;stroke:#000;stroke-linecap:round;stroke-linejoin:round;stroke-width:1.5px"/></svg>