<svg xmlns="http://www.w3.org/2000/svg" width="24" height="24" viewBox="0 0 24 24"><defs><style>.a{fill:none;stroke:#000;stroke-linecap:round;stroke-linejoin:round;stroke-width:1.5px}</style></defs><path d="M12 8.276c-3.225-.052-6.561 2.134-8.657 4.371a1.261 1.261 0 0 0 0 1.727C5.394 16.565 8.718 18.8 12 18.748c3.283.054 6.606-2.183 8.659-4.374a1.261 1.261 0 0 0 0-1.727C18.561 10.41 15.225 8.224 12 8.276" class="a"/><circle cx="12" cy="13.512" r="2.25" class="a"/><path d="M2.448 18 .909 21.078a1.5 1.5 0 0 0 1.341 2.171h19.5a1.5 1.5 0 0 0 1.342-2.171L21.552 18m-6-12-2.21-4.421a1.5 1.5 0 0 0-2.683 0L8.448 6" class="a"/></svg>