<svg xmlns="http://www.w3.org/2000/svg" id="Regular" width="24" height="24" viewBox="0 0 24 24"><defs><style>.cls-1{fill:none;stroke:#000;stroke-linecap:round;stroke-linejoin:round;stroke-width:1.5px}</style></defs><path d="M13.5 12.75a.75.75 0 0 0-.75-.75H1.5a.75.75 0 0 0-.75.75v9.75a.75.75 0 0 0 .75.75h1.709a.751.751 0 0 0 .712-.513l.408-1.224A.751.751 0 0 1 5.041 21h4.168a.751.751 0 0 1 .712.513l.408 1.224a.751.751 0 0 0 .712.513h1.709a.75.75 0 0 0 .75-.75z" class="cls-1"/><path d="m3 12 .75 3h6.75l.75-3m-6 6H9m9.75-3.75v3a1.5 1.5 0 0 1-1.5 1.5H13.5" class="cls-1"/><rect width="10.5" height="7.5" x="12.75" y=".75" class="cls-1" rx="1.5" ry="1.5"/><path d="M18 8.25v3m-2.25 0h4.5" class="cls-1"/></svg>