<svg xmlns="http://www.w3.org/2000/svg" id="Regular" width="24" height="24" viewBox="0 0 24 24"><defs><style>.cls-1{fill:none;stroke:#000;stroke-linecap:round;stroke-linejoin:round;stroke-width:1.5px}</style></defs><path d="M6.75 6.75a3 3 0 0 0 0-6H4.5v6zM4.5 2.25h-3m3 3h-3" class="cls-1"/><path d="M9.75 3.75H18a4.5 4.5 0 0 1 0 9H6.75a3.75 3.75 0 0 0 0 7.5h10.5" class="cls-1"/><path d="M14.1 23.25a3 3 0 0 1-2.959-3.5 3.112 3.112 0 0 1 3.12-2.5h2.522a6 6 0 0 1 3.329 1.008l2.052 1.368a.75.75 0 0 1 0 1.248l-2.052 1.368a6 6 0 0 1-3.329 1.008z" class="cls-1"/></svg>