<svg xmlns="http://www.w3.org/2000/svg" width="24" height="24" viewBox="0 0 24 24"><defs><style>.a{fill:none;stroke:#000;stroke-linecap:round;stroke-linejoin:round;stroke-width:1.5px}</style></defs><path d="M18.75 3.75v16.5m-4.5-12 3.97-4.28a.749.749 0 0 1 1.06 0l3.97 4.28" class="a"/><rect width="9" height="9" x=".75" y="14.25" class="a" rx="1" ry="1"/><path d="M2.25.75a1.5 1.5 0 0 0-1.5 1.5m0 6a1.5 1.5 0 0 0 1.5 1.5m6-9a1.5 1.5 0 0 1 1.5 1.5m0 6a1.5 1.5 0 0 1-1.5 1.5M4.5.75H6m-1.5 9H6M.75 6V4.5m9 1.5V4.5" class="a"/></svg>