<svg xmlns="http://www.w3.org/2000/svg" width="24" height="24" viewBox="0 0 24 24"><defs><style>.a{fill:none;stroke:#000;stroke-linecap:round;stroke-linejoin:round;stroke-width:1.5px}</style></defs><path d="M15.75 17.25h6a1.5 1.5 0 0 0 1.5-1.5V2.25a1.5 1.5 0 0 0-1.5-1.5h-18a1.5 1.5 0 0 0-1.5 1.5v9.005m0-6.005h21" class="a"/><rect width="12" height="9" x=".75" y="14.25" class="a" rx="1.5" ry="1.5"/><path d="M.75 17.25h12m-9 3h1.5m3 0h1.5m-4.5-9V9A.75.75 0 0 1 6 8.25h4.5a.75.75 0 0 1 .75.75v2.25" class="a"/><rect width="6" height="6" x="14.25" y="8.25" class="a" rx=".75" ry=".75"/></svg>