<svg xmlns="http://www.w3.org/2000/svg" width="24" height="24" viewBox="0 0 24 24"><defs><style>.a{fill:none;stroke:#000;stroke-linecap:round;stroke-linejoin:round;stroke-width:1.5px}</style></defs><path d="M11.258 2.25V.75" class="a"/><circle cx="8.258" cy="10.5" r="1.5" class="a"/><circle cx="14.258" cy="10.5" r="1.5" class="a"/><path d="M18.758 14.25s.561 9-7.5 9-7.5-9-7.5-9V8.742a3.007 3.007 0 0 1 3.363-2.973 38.307 38.307 0 0 0 8.264 0 3.007 3.007 0 0 1 3.368 2.967zM3.75 15a3 3 0 0 1 0-6m15 6a3 3 0 0 0 0-6m-15 6h15M6.285 5.79a5.252 5.252 0 0 1 9.915-.045" class="a"/><path d="M8.25 18.5a.25.25 0 1 1-.25.25.25.25 0 0 1 .25-.25m3 0a.25.25 0 1 1-.25.25.25.25 0 0 1 .25-.25m3 0a.25.25 0 1 1-.25.25.25.25 0 0 1 .25-.25" class="a"/></svg>