<svg xmlns="http://www.w3.org/2000/svg" width="24" height="24" viewBox="0 0 24 24"><defs><style>.a{fill:none;stroke:#000;stroke-linecap:round;stroke-linejoin:round;stroke-width:1.5px}</style></defs><path d="M3.75 11.579a9 9 0 0 1 18 0zm-1.5 0h21m-10.5-10.5v1.5" class="a"/><path d="m.75 22.079 3.75-3.65 5.25 4.5 12.062-8.711a1.17 1.17 0 0 0-.083-1.952 4.5 4.5 0 0 0-4.5-.075L14.3 13.816a4.6 4.6 0 0 1-5.434-.769l-.59-.589a3 3 0 0 0-3.46-.558.856.856 0 0 0-.222 1.37l.458.458a4.5 4.5 0 0 1 1.226 4.062l-.372 1.843" class="a"/></svg>