<svg xmlns="http://www.w3.org/2000/svg" width="24" height="24" viewBox="0 0 24 24"><defs><style>.a{fill:none;stroke:#000;stroke-linecap:round;stroke-linejoin:round;stroke-width:1.5px}</style></defs><path d="M1.5 20.254h21M12 .754v4.5m-9 15v-12a6 6 0 0 1 6-6h6a6 6 0 0 1 6 6v12m-12-15h6" class="a"/><rect width="12" height="9" x="6" y="11.254" class="a" rx="1.5" ry="1.5"/><path d="M13.5 8.254h-3a1.5 1.5 0 0 0-1.5 1.5v1.5h6v-1.5a1.5 1.5 0 0 0-1.5-1.5M7.5 21A2.25 2.25 0 0 1 3 21v-.75h4.5zM21 21a2.25 2.25 0 1 1-4.5 0v-.75H21z" class="a"/></svg>