<svg xmlns="http://www.w3.org/2000/svg" width="24" height="24" viewBox="0 0 24 24"><defs><style>.a{fill:none;stroke:#000;stroke-linecap:round;stroke-linejoin:round;stroke-width:1.5px}</style></defs><rect width="10.5" height="16.5" x=".75" y=".75" class="a" rx="1" ry="1"/><path d="M8.25 23.25a1.5 1.5 0 0 1-1.5-1.5m15 1.5a1.5 1.5 0 0 0 1.5-1.5m-16.5-4.5v1.5m16.5-1.5v1.5m-12 4.5h2.25m3 0h2.25m3-10.5a1.5 1.5 0 0 1 1.5 1.5m-12-1.5h2.25m3 0h2.25M15.439 1.5 13.72 3.22a.749.749 0 0 0 0 1.06L15.439 6M18 8.561l1.72 1.719a.749.749 0 0 0 1.06 0l1.72-1.719" class="a"/><path d="M13.5 3.75h3.75a3 3 0 0 1 3 3v3.75" class="a"/></svg>