<svg xmlns="http://www.w3.org/2000/svg" width="24" height="24" viewBox="0 0 24 24"><defs><style>.a{fill:none;stroke:#000;stroke-linecap:round;stroke-linejoin:round;stroke-width:1.5px}</style></defs><path d="M4.125 21.751v1.5m15.75-1.5v1.5M9.75 15.001v6.75M14.25 18a.375.375 0 1 0 .375.375.375.375 0 0 0-.375-.375m4.5 0a.375.375 0 1 0 .375.375.375.375 0 0 0-.375-.375m-1.5-2.999v-8.25" class="a"/><path d="M15.129 4.629a3 3 0 0 1 4.242 0m-6.364-2.121a6 6 0 0 1 8.486 0" style="fill:none;stroke:#000;stroke-linecap:round;stroke-linejoin:round;stroke-width:1.5px;fill-rule:evenodd"/><path d="M19.875 21.751a3.375 3.375 0 0 0 0-6.75H4.125a3.375 3.375 0 0 0 0 6.75z" class="a"/></svg>