<svg xmlns="http://www.w3.org/2000/svg" width="24" height="24" viewBox="0 0 24 24"><defs><style>.a{fill:none;stroke:#000;stroke-linecap:round;stroke-linejoin:round;stroke-width:1.5px}</style></defs><path d="M3.75 15.744v3.75A2.25 2.25 0 0 0 6 21.744a2.25 2.25 0 0 0 2.25-2.25v-.75h7.5a3 3 0 0 0 2.4-1.2l1.35-1.8m-3.711-7.93a7.883 7.883 0 0 0-6.414-3.32A7.9 7.9 0 0 0 1.521 11.8" class="a"/><path d="m7.016 4.858 3.056-2.292a1.512 1.512 0 0 1 .968-.309 9.378 9.378 0 0 1 9.21 9.362v4.125" class="a"/><path d="M12 11.244H3a2.25 2.25 0 0 0 0 4.5h20.25" class="a"/></svg>