<svg xmlns="http://www.w3.org/2000/svg" width="24" height="24" viewBox="0 0 24 24"><defs><style>.a{fill:none;stroke:#000;stroke-linecap:round;stroke-linejoin:round;stroke-width:1.5px}</style></defs><path d="M13.462 1.653a1.636 1.636 0 0 0-2.924 0L.923 20.884a1.636 1.636 0 0 0 1.462 2.366h19.231a1.636 1.636 0 0 0 1.462-2.366z" class="a"/><circle cx="13.5" cy="11.25" r="1.5" class="a"/><path d="M6.75 14.25a4.7 4.7 0 0 1 5.175-1 8.526 8.526 0 0 1 3.825 3.25" class="a"/><path d="m12 13.5-3 3-.553 1.66a1.5 1.5 0 0 1-.752.867L5.25 20.25" class="a"/><path d="m9.75 15.75 1.6 1.594a1.5 1.5 0 0 1 .362 1.535l-.462 1.371m3 0 .75-.75.75.75" class="a"/></svg>