<svg xmlns="http://www.w3.org/2000/svg" id="Regular" width="24" height="24" viewBox="0 0 24 24"><defs><style>.cls-1{fill:none;stroke:#000;stroke-linecap:round;stroke-linejoin:round;stroke-width:1.5px}</style></defs><path d="M.75 20.367a3.947 3.947 0 0 0 3.76 2.882 3.947 3.947 0 0 0 3.637-3.036 3.947 3.947 0 0 0 3.76 2.882 3.947 3.947 0 0 0 3.637-3.035 3.95 3.95 0 0 0 3.761 2.882 3.95 3.95 0 0 0 3.637-3.036M4.418 18.811c-1.495-.709-2.3-3.653-1.587-5.148 4.454.648 17.075 2.606 17.075 2.606l.786 2.2M4.818 13.957l3.823-5.595" class="cls-1"/><path d="m15.461 15.582.366-1.6a1.479 1.479 0 0 1 1.655-1.135l1.516.22a1.479 1.479 0 0 1 1.23 1.793l-.322 1.412" class="cls-1"/><circle cx="13.11" cy="9.75" r="2.22" class="cls-1"/><path d="M4.789 1.042 18.843.75M4.85 4.001l11.096-.231" class="cls-1"/></svg>