<svg xmlns="http://www.w3.org/2000/svg" width="24" height="24" viewBox="0 0 24 24"><defs><style>.a{fill:none;stroke:#000;stroke-linecap:round;stroke-linejoin:round;stroke-width:1.5px}</style></defs><path d="M20 7.074v15.053H3.5V7.074" class="a"/><path d="m.5 9.074 10.418-6.946a1.5 1.5 0 0 1 1.664 0L23 9.074m-8.177 1.02A3.725 3.725 0 0 0 14 12.231c0 1.337.823 2.673.823 4.008A3.737 3.737 0 0 1 14 18.377m-4.427-8.283a3.725 3.725 0 0 0-.823 2.137c0 1.337.823 2.673.823 4.008a3.737 3.737 0 0 1-.823 2.138" class="a"/></svg>