<svg xmlns="http://www.w3.org/2000/svg" width="24" height="24" viewBox="0 0 24 24"><defs><style>.a{fill:none;stroke:#000;stroke-linecap:round;stroke-width:1.5px;stroke-linejoin:round}</style></defs><path d="M21.75 12V1.8A1.04 1.04 0 0 0 20.724.75H3.276A1.04 1.04 0 0 0 2.25 1.8V12M3 18v5.25M21 18v5.25M3 21h18" class="a"/><path d="M9.439 6.063 7.751 5.3a.614.614 0 0 0-.5 0l-1.688.76a.506.506 0 0 0-.311.454V8.4a.5.5 0 0 0 .306.451l1.944.9 1.944-.9A.5.5 0 0 0 9.75 8.4V6.517a.506.506 0 0 0-.311-.454" class="a"/><path d="M12.75 10.045 9.398 8.877" style="fill:none;stroke:#000;stroke-linecap:round;stroke-width:1.5px;stroke-miterlimit:10"/><path d="M7.5 9.75V12M15 7.5V5.25m2.25-1.5h1.5M21.506 18H2.494a1.522 1.522 0 0 1-1.483-1.136l-.238-.932A.754.754 0 0 1 1.515 15h20.97a.754.754 0 0 1 .742.932l-.238.932A1.522 1.522 0 0 1 21.506 18m-8.445-6.814 1.687.76a.609.609 0 0 0 .5 0l1.688-.76a.5.5 0 0 0 .311-.453V8.849a.5.5 0 0 0-.306-.45L15 7.5l-1.944.9a.5.5 0 0 0-.306.45v1.884a.5.5 0 0 0 .311.452" class="a"/></svg>