<svg xmlns="http://www.w3.org/2000/svg" width="24" height="24" viewBox="0 0 24 24"><defs><style>.a{fill:none;stroke:#000;stroke-linecap:round;stroke-linejoin:round;stroke-width:1.5px}</style></defs><path d="M20.25 18.75a2.25 2.25 0 0 1 0 4.5H3.75a2.25 2.25 0 0 1 0-4.5.75.75 0 0 0 .75-.75v-2.25a7.5 7.5 0 0 1 15 0V18a.75.75 0 0 0 .75.75" class="a"/><circle cx="12" cy="15.75" r="3.75" class="a"/><path d="M12 15.375a.375.375 0 0 1 .375.375m-.75 0a.375.375 0 0 1 .375-.375m0 .75a.375.375 0 0 1-.375-.375m.75 0a.375.375 0 0 1-.375.375" class="a"/><circle cx="12" cy="3" r="2.25" class="a"/><circle cx="19.5" cy="4.5" r="2.25" class="a"/><path d="M12 5.25v3m6.386-1.795-2.369 2.961" class="a"/><circle cx="4.5" cy="4.5" r="2.25" class="a"/><path d="m5.614 6.455 2.369 2.961" class="a"/></svg>