<svg xmlns="http://www.w3.org/2000/svg" width="24" height="24" viewBox="0 0 24 24"><defs><style>.a{fill:none;stroke:#000;stroke-linecap:round;stroke-linejoin:round;stroke-width:1.5px}</style></defs><circle cx="13.143" cy="11.25" r="7.5" class="a"/><path d="M13.143 3.75v-3m3.215 3.723.728-1.533m1.867 3.566L23 3.202m-2.574 6.252 1.537-.379m-1.47 3.674 1.701.347m-3.053 2.659 3.566 2.839m-6.076-.704 2.809 5.354M9.931 4.473 8.164.75m-.828 5.756L5.643 5.124m.22 4.33L4.181 9.04m1.615 3.709-4.649.949m6.001 2.057L4.75 17.557m4.908.333-1.394 2.657m4.879-1.797v1.5" class="a"/><circle cx="15.395" cy="10.5" r="2.25" class="a"/><path d="M9.77 12.75a.375.375 0 0 1 .375.375m-.745 0a.374.374 0 0 1 .375-.375m-.005.75a.374.374 0 0 1-.375-.375m.75 0a.375.375 0 0 1-.375.375" class="a"/></svg>