<svg xmlns="http://www.w3.org/2000/svg" width="24" height="24" viewBox="0 0 24 24"><defs><style>.a{fill:none;stroke:#000;stroke-linecap:round;stroke-linejoin:round;stroke-width:1.5px}</style></defs><path d="M21.75 10.5c0 4.142-4.365 12-9.75 12s-9.75-7.858-9.75-12 4.365-9 9.75-9 9.75 4.858 9.75 9" class="a"/><path d="M5.335 9.835A3.248 3.248 0 0 1 8.517 10.9a3.252 3.252 0 0 1 1.061 3.183A3.252 3.252 0 0 1 6.4 13.017a3.248 3.248 0 0 1-1.065-3.182m13.33 0a3.248 3.248 0 0 0-3.182 1.06 3.252 3.252 0 0 0-1.061 3.183 3.252 3.252 0 0 0 3.183-1.061 3.248 3.248 0 0 0 1.06-3.182" class="a"/></svg>