<svg xmlns="http://www.w3.org/2000/svg" width="24" height="24" viewBox="0 0 24 24"><defs><style>.a{fill:none;stroke:#000;stroke-linecap:round;stroke-linejoin:round;stroke-width:1.5px}</style></defs><path d="M18 13.548V8.263a3 3 0 0 0-3-3H9a3 3 0 0 0-3 3v5.285" class="a"/><path d="m22.5 15.348-9.943-3.978a1.5 1.5 0 0 0-1.114 0L1.5 15.348m1.858-.744 1.59 4.76M12 18.763v-7.5m8.642 3.341-1.663 4.977" class="a"/><path d="M19.647 17.582 12 14.523l-7.647 3.059M.75 23.263a5.511 5.511 0 0 0 4.5-1.5 4.547 4.547 0 0 0 6.75 0 4.547 4.547 0 0 0 6.75 0 5.511 5.511 0 0 0 4.5 1.5M9 8.263h6m-1.5-6.75a.75.75 0 0 0-.75-.75h-1.5a.75.75 0 0 0-.75.75v3.75h3z" class="a"/></svg>