<svg xmlns="http://www.w3.org/2000/svg" id="Regular" width="24" height="24" viewBox="0 0 24 24"><defs><style>.cls-1{fill:none;stroke:#000;stroke-linecap:round;stroke-linejoin:round;stroke-width:1.5px}</style></defs><path d="M12.75 16.5H2.25A1.5 1.5 0 0 1 .75 15V3a1.5 1.5 0 0 1 1.5-1.5h19.5a1.5 1.5 0 0 1 1.5 1.5v12a1.5 1.5 0 0 1-1.5 1.5h-4.5" class="cls-1"/><path d="M15.75 18h-1.5c-.828 0-1.5-1.422-1.5-1.5V6.75c0-1.578.672-2.25 1.5-2.25h1.5a1.5 1.5 0 0 1 1.5 1.5v10.5a1.5 1.5 0 0 1-1.5 1.5m4.5-12.75v8.25" class="cls-1"/><path d="M14.25 4.5H6.227a.751.751 0 0 0-.416.126l-1.125.75a.75.75 0 0 0 0 1.248l1.125.75a.751.751 0 0 0 .416.126h6.523" class="cls-1"/><path d="M12.75 7.5H6.227a.751.751 0 0 0-.416.126l-1.125.75a.75.75 0 0 0 0 1.248l1.125.75a.751.751 0 0 0 .416.126h6.523m0 0H6.227a.751.751 0 0 0-.416.126l-1.125.75a.75.75 0 0 0 0 1.248l1.125.75a.751.751 0 0 0 .416.126h6.523m.75 9h3.75a1.5 1.5 0 0 0 0-3h-1.5V18" class="cls-1"/></svg>