<svg xmlns="http://www.w3.org/2000/svg" id="Regular" width="24" height="24" viewBox="0 0 24 24"><defs><style>.cls-1{fill:none;stroke:#000;stroke-linecap:round;stroke-linejoin:round;stroke-width:1.5px}</style></defs><ellipse cx="5.994" cy="12.023" class="cls-1" rx="5.25" ry="6.75"/><ellipse cx="5.994" cy="12.023" class="cls-1" rx="2.25" ry="3.75"/><path d="M5.994 18.773c5.25 0 11.3-1.692 13.5-6-2.2-4.308-8.373-8-13.5-7.5m16.337 6.134a4.608 4.608 0 0 1-2.831 1.366 4.828 4.828 0 0 1 .922-3.057 4.608 4.608 0 0 1 2.831-1.366 4.828 4.828 0 0 1-.922 3.057m0 2.731a4.61 4.61 0 0 0-2.831-1.365 4.829 4.829 0 0 0 .922 3.057 4.61 4.61 0 0 0 2.831 1.37 4.828 4.828 0 0 0-.922-3.062" class="cls-1"/></svg>