<svg xmlns="http://www.w3.org/2000/svg" id="Regular" width="24" height="24" viewBox="0 0 24 24"><defs><style>.cls-1{fill:none;stroke:#000;stroke-linecap:round;stroke-linejoin:round;stroke-width:1.5px}</style></defs><path d="M23.227 11.25H11.25A10.5 10.5 0 0 1 .75.75H13.5a9.75 9.75 0 0 1 0 19.5H6.75a4.5 4.5 0 0 1 4.5-4.5h3" class="cls-1"/><path d="M14.25 20.221V11.25c0-2.25-1.5-10.5-6-10.5m6 10.5L21.1 4.4m-6.85 6.85 6.144 6.144M8.625 5.25a.375.375 0 1 1-.375.375.375.375 0 0 1 .375-.375m-1.875 15-4.5-3v6z" class="cls-1"/></svg>