<svg xmlns="http://www.w3.org/2000/svg" id="Regular" width="24" height="24" viewBox="0 0 24 24"><defs><style>.cls-1{fill:none;stroke:#000;stroke-linecap:round;stroke-linejoin:round;stroke-width:1.5px}</style></defs><circle cx="12" cy="2.25" r="1.5" class="cls-1"/><path d="M9.118 3.75h5.793a2.339 2.339 0 0 1 2.339 2.339v2.726a.935.935 0 0 1-.935.935h-8.63a.935.935 0 0 1-.935-.935v-2.7A2.368 2.368 0 0 1 9.118 3.75" class="cls-1"/><path d="m8.68 9.75-.28 5.792a3.5 3.5 0 0 0-1.65 2.966v.339a1.4 1.4 0 0 0 1.4 1.4h7.694a1.4 1.4 0 0 0 1.4-1.4v-.339a3.5 3.5 0 0 0-1.644-2.967l-.278-5.791" class="cls-1"/><rect width="10.5" height="3" x="6.75" y="20.25" class="cls-1" rx=".866" ry=".866"/></svg>