<svg xmlns="http://www.w3.org/2000/svg" width="24" height="24" viewBox="0 0 24 24"><defs><style>.a{fill:none;stroke:#000;stroke-linecap:round;stroke-linejoin:round;stroke-width:1.5px}</style></defs><circle cx="6.75" cy="4.874" r="2.625" class="a"/><path d="M14.417 23.241a1.5 1.5 0 0 1-1.659-1.325l-.379-3.4a1.491 1.491 0 0 0-1.479-1.267H8.77a2.992 2.992 0 0 1-2.959-2.5L5.27 11.5a1.5 1.5 0 1 1 2.959-.5l.541 3.246h2.13a4.478 4.478 0 0 1 4.446 3.808c.006.042.4 3.526.4 3.526a1.5 1.5 0 0 1-1.329 1.661M1.5 23.25h7.382a.9.9 0 0 0 .895-1l-.135-1.22a.879.879 0 0 0-.872-.781 5.983 5.983 0 0 1-5.918-5.008l-.331-1.988a1.5 1.5 0 0 0-1.041-1.188" class="a"/><rect width="7.5" height="9" x="15" y=".75" class="a" rx="1" ry="1"/></svg>