<svg xmlns="http://www.w3.org/2000/svg" width="24" height="24" viewBox="0 0 24 24"><defs><style>.a{fill:none;stroke:#000;stroke-linecap:round;stroke-linejoin:round;stroke-width:1.5px}</style></defs><circle cx="8.99" cy="4.123" r="2.625" class="a"/><circle cx="16.49" cy="4.873" r="1.875" class="a"/><path d="M15.009 21.237 14.486 18h-2.824a3 3 0 0 1-2.911-2.274l-1.216-4.865a1.5 1.5 0 0 1 2.91-.727L11.66 15h2.826a2.987 2.987 0 0 1 2.962 2.522l.523 3.239a1.5 1.5 0 1 1-2.962.478zm4.481-6.989-.579-1.737A.75.75 0 0 0 18.2 12h-1.71a.751.751 0 0 1-.728-.568l-.375-1.5A.751.751 0 0 1 16.115 9h3.375" class="a"/><path d="m4.49 11.248 1.71 7.424A3 3 0 0 0 9.126 21h3.614" class="a"/></svg>