<svg xmlns="http://www.w3.org/2000/svg" width="24" height="24" viewBox="0 0 24 24"><defs><style>.a{fill:none;stroke:#000;stroke-linecap:round;stroke-linejoin:round;stroke-width:1.5px}</style></defs><path d="M3 12.75A2.25 2.25 0 0 0 .75 15v6a2.25 2.25 0 0 0 4.5 0v-6A2.25 2.25 0 0 0 3 12.75m18 0A2.25 2.25 0 0 0 18.75 15v6a2.25 2.25 0 0 0 4.5 0v-6A2.25 2.25 0 0 0 21 12.75m-10.5-7.5h3v15h-3z" class="a"/><path d="M10.5 20.25h-3a2.251 2.251 0 0 1-2.135-2.962L6.628 13.5a3.291 3.291 0 0 1 3.122-2.25h.75m3 9h3a2.251 2.251 0 0 0 2.135-2.962L17.372 13.5a3.291 3.291 0 0 0-3.122-2.25h-.75" class="a"/><rect width="9" height="4.5" x="7.5" y=".75" class="a" rx="1" ry="1"/><path d="M7.5 3.75H3m13.5 0H21" class="a"/></svg>