<svg xmlns="http://www.w3.org/2000/svg" width="24" height="24" viewBox="0 0 24 24"><defs><style>.a{fill:none;stroke:#000;stroke-linecap:round;stroke-linejoin:round;stroke-width:1.5px}</style></defs><path d="M4.986 7.349C6.3 6.671 9.76 6.25 12 6.25c2.1 0 5.283.143 6.75.75h3.522a.978.978 0 0 1 .978.978v4.043a.978.978 0 0 1-.978.979H18.75A22.349 22.349 0 0 1 12 14.076a21.842 21.842 0 0 1-6.852-1.022M2.25 13h-.522a.989.989 0 0 1-.978-1V8a.989.989 0 0 1 .978-1h.522M9 9.25v1.5m3-1.5v1.5" class="a"/><circle cx="12" cy="10" r="7.5" class="a"/><path d="m16.891 15.686 6.359 5.564" class="a"/></svg>