<svg xmlns="http://www.w3.org/2000/svg" width="24" height="24" viewBox="0 0 24 24"><defs><style>.a{fill:none;stroke:#000;stroke-linecap:round;stroke-linejoin:round;stroke-width:1.5px}</style></defs><path d="M18.25 3.005V1.028M14.84 3.5l-.989-.989m7.91.989.989-.989" class="a"/><circle cx="18.176" cy="9.5" r="3.75" class="a"/><path d="M20.426 12.5 23 15.074M5.275 16.25A1.338 1.338 0 0 1 4 14.857V7.893A1.338 1.338 0 0 1 5.275 6.5h6.975m8.106 14.546-1.652-3.3a2.7 2.7 0 0 0-2.415-1.492H5.211A2.7 2.7 0 0 0 2.8 17.742l-1.652 3.3A1.35 1.35 0 0 0 2.352 23h16.8a1.35 1.35 0 0 0 1.204-1.954M9.775 20h2.7" class="a"/><path d="M12.25 10.25H7v3h5.25" class="a"/></svg>