<svg xmlns="http://www.w3.org/2000/svg" width="24" height="24" viewBox="0 0 24 24"><defs><style>.a{fill:none;stroke:#000;stroke-linecap:round;stroke-linejoin:round;stroke-width:1.5px}</style></defs><path d="M4.5 3.375a.375.375 0 1 0 .375.375.375.375 0 0 0-.375-.375m5.253.375h1.5m3 0h1.5M4.5 9.375a.375.375 0 1 0 .375.375.375.375 0 0 0-.375-.375m5.253.375h1.5m-6.75 9h3.75v-6M1.128 18a.375.375 0 1 0 .375.375.375.375 0 0 0-.375-.375" class="a"/><path d="M18.753 3.75a3 3 0 0 1-3 3h-12a3 3 0 0 1 0-6h12a3 3 0 0 1 3 3" class="a"/><path d="M9.732 12.75H3.753a3 3 0 0 1 0-6h12a3 3 0 0 1 2.6 1.5" class="a"/><circle cx="17.251" cy="17.249" r="6" class="a"/><path d="M17.251 20.249v-6m0 0-2.25 2.25m2.25-2.25 2.25 2.25" class="a"/></svg>