<svg xmlns="http://www.w3.org/2000/svg" width="24" height="24" viewBox="0 0 24 24"><defs><style>.a{fill:none;stroke:#000;stroke-linecap:round;stroke-linejoin:round;stroke-width:1.5px}</style></defs><path d="M4.5 3.375a.375.375 0 1 0 .375.375.375.375 0 0 0-.375-.375m5.251.375h1.5m3 0h1.5M4.5 9.375a.375.375 0 1 0 .375.375.375.375 0 0 0-.375-.375m5.251.375h1.5m3 0h1.5m-11.25 9h3.75v-6M1.126 18a.375.375 0 1 0 .375.375.375.375 0 0 0-.375-.375" class="a"/><path d="M18.751 3.75a3 3 0 0 1-3 3h-12a3 3 0 0 1 0-6h12a3 3 0 0 1 3 3" class="a"/><path d="M13.5 12.75H3.751a3 3 0 0 1 0-6h12a3 3 0 0 1 2.6 1.5" class="a"/><circle cx="13.501" cy="18" r="2.25" class="a"/><circle cx="21.001" cy="21" r="2.25" class="a"/><circle cx="21.001" cy="13.5" r="2.25" class="a"/><path d="m15.426 16.845 3.65-2.19m-3.487 4.18 3.324 1.33" class="a"/></svg>