<svg xmlns="http://www.w3.org/2000/svg" width="24" height="24" viewBox="0 0 24 24"><defs><style>.a{fill:none;stroke:#000;stroke-linecap:round;stroke-linejoin:round;stroke-width:1.5px}</style></defs><path d="M5.25 4.875a.375.375 0 1 0 .375.375.375.375 0 0 0-.375-.375m0 9a.375.375 0 1 0 .375.375.375.375 0 0 0-.375-.375" class="a"/><path d="M21.75 5.25a4.5 4.5 0 0 1-4.5 4.5h-12a4.5 4.5 0 0 1 0-9h12a4.5 4.5 0 0 1 4.5 4.5M9 18.75H5.25a4.5 4.5 0 0 1 0-9h12m-6.75-4.5h6.75" class="a"/><path d="m17.251 23.25-5.114-5.335a3.025 3.025 0 0 1-.567-3.492 3.026 3.026 0 0 1 4.846-.786l.835.835.835-.835a3.025 3.025 0 0 1 4.845.786 3.023 3.023 0 0 1-.566 3.492z" class="a"/></svg>