<svg xmlns="http://www.w3.org/2000/svg" width="24" height="24" viewBox="0 0 24 24"><defs><style>.a{fill:none;stroke:#000;stroke-linecap:round;stroke-linejoin:round;stroke-width:1.5px}</style></defs><rect width="9" height="9" x=".75" y=".75" class="a" rx="1" ry="1"/><circle cx="18.75" cy="5.25" r="4.5" class="a"/><path d="M18.786 13.977a.886.886 0 0 0-1.572 0l-4.337 7.807a1.027 1.027 0 0 0-.007.976.905.905 0 0 0 .793.49h8.674a.905.905 0 0 0 .793-.49 1.027 1.027 0 0 0-.007-.976zm-12.935-.943a.778.778 0 0 0-1.2 0l-3.71 4.437a.827.827 0 0 0 0 1.058l3.708 4.437a.778.778 0 0 0 1.2 0l3.708-4.437a.827.827 0 0 0 0-1.058z" class="a"/></svg>