<svg xmlns="http://www.w3.org/2000/svg" id="Regular" width="24" height="24" viewBox="0 0 24 24"><defs><style>.cls-1{fill:none;stroke:#000;stroke-linecap:round;stroke-linejoin:round;stroke-width:1.5px}</style></defs><rect width="22.5" height="22.5" x=".75" y=".75" class="cls-1" rx="1.5" ry="1.5"/><path d="M.75 12.75h22.5m-22.5-6h3v6h-3zm3 0h3v6h-3zm3 0h2.5a.5.5 0 0 1 .5.5v5.5h-3zm2 10.5h2.5v6h-3v-5.5a.5.5 0 0 1 .5-.5m2.5 0h3v6h-3zm3 0h2.5a.5.5 0 0 1 .5.5v5.5h-3zm3.5-10.5h2.5v6h-3v-5.5a.5.5 0 0 1 .5-.5m2.5 0h3v6h-3z" class="cls-1"/></svg>