<svg xmlns="http://www.w3.org/2000/svg" width="24" height="24" viewBox="0 0 24 24"><defs><style>.a{fill:none;stroke:#000;stroke-linecap:round;stroke-linejoin:round;stroke-width:1.5px}</style></defs><path d="M8.25 23.25h7.5" class="a"/><rect width="22.5" height="18.75" x=".75" y=".75" class="a" rx="2" ry="2"/><path d="M12 23.25V19.5m-.671-15.414-4.5 2.25A1.5 1.5 0 0 0 6 7.677v4.9a1.5 1.5 0 0 0 .829 1.342l4.5 2.25a1.5 1.5 0 0 0 1.342 0l4.5-2.25A1.5 1.5 0 0 0 18 12.573v-4.9a1.5 1.5 0 0 0-.829-1.341l-4.5-2.25a1.5 1.5 0 0 0-1.342.004" class="a"/><path d="M17.762 6.869 12 9.75 6.224 6.889M12 9.75v6.573" class="a"/></svg>