<svg xmlns="http://www.w3.org/2000/svg" width="24" height="24" viewBox="0 0 24 24"><defs><style>.a{fill:none;stroke:#000;stroke-linecap:round;stroke-linejoin:round;stroke-width:1.5px}</style></defs><path d="m17.968 11.68 1.542 4.169h3a.735.735 0 0 1 .518 1.283l-2.6 1.717 1.443 3.313a.786.786 0 0 1-1.119.982l-3.487-1.961-3.486 1.961a.786.786 0 0 1-1.12-.982l1.441-3.313-2.6-1.717a.734.734 0 0 1 .516-1.283h3l1.544-4.169a.8.8 0 0 1 1.408 0M8.25 18.75h-6a1.5 1.5 0 0 1-1.5-1.5V6.75a1.5 1.5 0 0 1 1.5-1.5h15a1.5 1.5 0 0 1 1.5 1.5v1.5" class="a"/><path d="m18.266 5.647-2.821-4.229A1.5 1.5 0 0 0 14.2.75H5.3a1.5 1.5 0 0 0-1.248.668L1.234 5.647M9.75.75v4.5" class="a"/></svg>