<svg xmlns="http://www.w3.org/2000/svg" id="Regular" width="24" height="24" viewBox="0 0 24 24"><defs><style>.cls-1{fill:none;stroke:#000;stroke-linecap:round;stroke-linejoin:round;stroke-width:1.5px}</style></defs><path d="M6 8.25V22.5a.75.75 0 0 0 .75.75h10.5a.75.75 0 0 0 .75-.75V8.25" class="cls-1"/><path d="M18 12.75h3.75a.75.75 0 0 0 .75-.75V6.75a6 6 0 0 0-6-6H15a3 3 0 0 1-6 0H7.5a6 6 0 0 0-6 6V12a.75.75 0 0 0 .75.75H6m6-8.25v18.75" class="cls-1"/><path d="M9 .75 7.9 5.168a.75.75 0 0 0 1.062.853L12 4.5m3-3.75 1.1 4.418a.75.75 0 0 1-1.062.853L12 4.5" class="cls-1"/></svg>