<svg xmlns="http://www.w3.org/2000/svg" id="Regular" width="24" height="24" viewBox="0 0 24 24"><defs><style>.cls-1{fill:none;stroke:#000;stroke-linecap:round;stroke-linejoin:round;stroke-width:1.5px}</style></defs><path d="M20.25 23.25V18a8.247 8.247 0 0 0-5.268-7.686 5.25 5.25 0 1 0-5.964 0A8.247 8.247 0 0 0 3.75 18v5.25" class="cls-1"/><circle cx="12" cy="18" r="3.75" class="cls-1"/><path d="M12 17.625a.375.375 0 0 1 .375.375m-.75 0a.375.375 0 0 1 .375-.375m0 .75a.375.375 0 0 1-.375-.375m.75 0a.375.375 0 0 1-.375.375" class="cls-1"/></svg>