<svg xmlns="http://www.w3.org/2000/svg" width="24" height="24" viewBox="0 0 24 24"><path d="M21.148 1.5H2.852a.751.751 0 0 0-.733.587L.75 8.25a2.25 2.25 0 0 0 4.5 0 2.25 2.25 0 0 0 4.5 0 2.25 2.25 0 0 0 4.5 0 2.25 2.25 0 0 0 4.5 0 2.25 2.25 0 0 0 4.5 0l-1.37-6.163a.749.749 0 0 0-.732-.587M7.5 22.5V15m0 0h.75a2.25 2.25 0 0 1 0 4.5H7.5M3 15a1.5 1.5 0 0 0-1.5 1.5V21a1.5 1.5 0 0 0 3 0v-4.5A1.5 1.5 0 0 0 3 15m13.5 7.5H15a1.5 1.5 0 0 1-1.5-1.5v-4.5A1.5 1.5 0 0 1 15 15h1.5m-3 4.5h3m3 3V15l3 7.5V15" style="fill:none;stroke:#000;stroke-linecap:round;stroke-linejoin:round;stroke-width:1.5px"/></svg>