<svg xmlns="http://www.w3.org/2000/svg" width="24" height="24" viewBox="0 0 24 24"><defs><style>.a{fill:none;stroke:#000;stroke-linecap:round;stroke-linejoin:round;stroke-width:1.5px}</style></defs><path d="m16.875 3.75-2.25 7.5h-6l-1.5-4.5h8.85M9 13.5a.375.375 0 1 1-.375.375A.374.374 0 0 1 9 13.5m5.25 0a.375.375 0 1 1-.375.375.374.374 0 0 1 .375-.375" class="a"/><path d="M23.25 16.5a1.5 1.5 0 0 1-1.5 1.5H18v5.25L10.5 18H2.25a1.5 1.5 0 0 1-1.5-1.5V2.25a1.5 1.5 0 0 1 1.5-1.5h19.5a1.5 1.5 0 0 1 1.5 1.5z" class="a"/></svg>