<svg xmlns="http://www.w3.org/2000/svg" width="24" height="24" viewBox="0 0 24 24"><defs><style>.a{fill:none;stroke:#000;stroke-linecap:round;stroke-linejoin:round;stroke-width:1.5px}</style></defs><path d="M18.936 23.25H5.064a1.442 1.442 0 0 1-1.383-1.136l-2.138-9a1.484 1.484 0 0 1 1.383-1.864h18.148a1.484 1.484 0 0 1 1.383 1.864l-2.138 9a1.442 1.442 0 0 1-1.383 1.136m-11.436-9v6m4.5-6v6m4.5-6v6M9 2.006a7.585 7.585 0 0 0-5.218 6.265m16.439.038A7.579 7.579 0 0 0 15 2.006" class="a"/><rect width="6" height="3" x="9" y=".75" class="a" rx="1.125" ry="1.125"/></svg>