<svg xmlns="http://www.w3.org/2000/svg" width="24" height="24" viewBox="0 0 24 24"><defs><style>.a{fill:none;stroke:#000;stroke-linecap:round;stroke-linejoin:round;stroke-width:1.5px}</style></defs><path d="M9 2.006A7.953 7.953 0 0 0 4.417 6m15.166 0A7.951 7.951 0 0 0 15 2.006" class="a"/><rect width="6" height="3" x="9" y=".75" class="a" rx="1.125" ry="1.125"/><path d="M18.936 23.25H5.064a1.442 1.442 0 0 1-1.383-1.136l-2.138-10.5A1.484 1.484 0 0 1 2.926 9.75h18.148a1.484 1.484 0 0 1 1.383 1.864l-2.138 10.5a1.442 1.442 0 0 1-1.383 1.136" class="a"/><path d="M9 13.017a.375.375 0 1 1-.375.375.375.375 0 0 1 .375-.375m6 0a.375.375 0 1 1-.375.375.375.375 0 0 1 .375-.375M16.21 18a5.064 5.064 0 0 1-8.42 0" class="a"/></svg>