<svg xmlns="http://www.w3.org/2000/svg" width="24" height="24" viewBox="0 0 24 24"><defs><style>.a{fill:none;stroke:#000;stroke-linecap:round;stroke-linejoin:round;stroke-width:1.5px}</style></defs><path d="M9.75 11.593 5.6 7.259a2.459 2.459 0 0 1-.46-2.838 2.458 2.458 0 0 1 3.937-.639l.678.679.679-.679a2.458 2.458 0 0 1 3.937.639 2.459 2.459 0 0 1-.461 2.838z" class="a"/><circle cx="6.375" cy="20.968" r="1.875" class="a"/><circle cx="13.875" cy="20.968" r="1.875" class="a"/><path d="m.75 7.093 2.33 7.887a1.5 1.5 0 0 0 1.449 1.113h10.819A1.5 1.5 0 0 0 16.8 14.98l3.238-12.154a2.25 2.25 0 0 1 2.174-1.67h1.038" class="a"/></svg>