<svg xmlns="http://www.w3.org/2000/svg" width="24" height="24" viewBox="0 0 24 24"><path d="M1.75 2.25h20.5a1 1 0 0 1 1 1v2H.75v-2a1 1 0 0 1 1-1M12 12a1.748 1.748 0 0 1 1.728 1.483l1.172 7.631a.75.75 0 0 0 .741.636h6.109a1.5 1.5 0 0 0 1.5-1.5v-15H.75v15a1.5 1.5 0 0 0 1.5 1.5h6.106a.75.75 0 0 0 .742-.636l1.174-7.631A1.748 1.748 0 0 1 12 12M3.75 5.25v16.5m16.5-16.5v16.5M10.5 5.25 9 9.75m4.5-4.5 1.5 4.5" style="fill:none;stroke:#000;stroke-linecap:round;stroke-linejoin:round;stroke-width:1.5px"/></svg>