<svg xmlns="http://www.w3.org/2000/svg" id="Regular" width="24" height="24" viewBox="0 0 24 24"><defs><style>.cls-1{fill:none;stroke:#000;stroke-linecap:round;stroke-linejoin:round;stroke-width:1.5px}</style></defs><path d="m17.625 12 1.122 8.9a1.5 1.5 0 0 1-1.5 1.6H6.75a1.5 1.5 0 0 1-1.5-1.6L6.375 12m11.723 3.75H5.902M2.25 12h19.5M6.375 9.063V2.25a.75.75 0 0 1 .75-.75h6a.75.75 0 0 1 .75.75V4.3" class="cls-1"/><path d="m10.743 9.465.868-4.81a.751.751 0 0 1 .871-.605l5.905 1.067a.749.749 0 0 1 .605.871L17.906 12" class="cls-1"/></svg>