<svg xmlns="http://www.w3.org/2000/svg" id="Regular" width="24" height="24" viewBox="0 0 24 24"><defs><style>.cls-1{fill:none;stroke:#000;stroke-linecap:round;stroke-linejoin:round;stroke-width:1.5px}</style></defs><path d="M6.75.75v21a1.5 1.5 0 0 1-3 0m0 0v-15" class="cls-1"/><path d="M3.75 21.75a1.5 1.5 0 0 1-3 0V2.25a1.5 1.5 0 0 1 1.5-1.5h19.5a1.5 1.5 0 0 1 1.5 1.5v19.5a1.5 1.5 0 0 1-3 0v-1.5M6.75 21h3.75" class="cls-1"/><path d="M12 17.25V15a3.75 3.75 0 0 1 7.5 0v2.25H18l-.75 6h-3l-.75-6z" class="cls-1"/><circle cx="15.75" cy="6.75" r="3" class="cls-1"/></svg>