<svg xmlns="http://www.w3.org/2000/svg" id="Regular" width="24" height="24" viewBox="0 0 24 24"><defs><style>.cls-1{fill:none;stroke:#000;stroke-linecap:round;stroke-linejoin:round;stroke-width:1.5px}</style></defs><path d="M14.44 17.25H9.56m-8.81-3V.75h22.5v13.5" class="cls-1"/><path d="M.75.75H12V5a5.5 5.5 0 0 1-5.5 5.5H.75zM23.25 10.5H17.5A5.5 5.5 0 0 1 12 5V.75h11.25zM.75 14.25h4.737a4.263 4.263 0 0 1 4.263 4.263v3.737a1 1 0 0 1-1 1h-7a1 1 0 0 1-1-1zM22.25 23.25h-7a1 1 0 0 1-1-1v-3.737a4.263 4.263 0 0 1 4.263-4.263h4.737v8a1 1 0 0 1-1 1M18.75 10.5v3.75M5.25 10.5v3.75M3.75.75V4.5m3-3.75V4.5M17.25.75V4.5m3-3.75V4.5" class="cls-1"/></svg>