<svg xmlns="http://www.w3.org/2000/svg" id="Regular" width="24" height="24" viewBox="0 0 24 24"><defs><style>.cls-1{fill:none;stroke:#000;stroke-linecap:round;stroke-linejoin:round;stroke-width:1.5px}</style></defs><path d="M23.25.75 9 11.25m-2.25-9h3M8.25.75v3M1.5 8.25H6M3.75 6v4.5m14.902 12.75a62.44 62.44 0 0 1-.561-5.97m-12.182 0a62.472 62.472 0 0 1-.561 5.97" class="cls-1"/><path d="M17.25 9.519c3.568.755 6 2.254 6 3.981 0 2.485-5.037 4.5-11.25 4.5S.75 15.985.75 13.5a1.913 1.913 0 0 1 .156-.75" class="cls-1"/><path d="M12.75 12.009c3.375.083 6 .719 6 1.491 0 .828-3.022 1.5-6.75 1.5s-6.75-.672-6.75-1.5" class="cls-1"/></svg>