<svg xmlns="http://www.w3.org/2000/svg" width="24" height="24" viewBox="0 0 24 24"><defs><style>.a{fill:none;stroke:#000;stroke-linecap:round;stroke-linejoin:round;stroke-width:1.5px}</style></defs><circle cx="12" cy="4.875" r="2.625" class="a"/><path d="M19.5 9H6.75V6.75a1.5 1.5 0 0 0-3 0v3.75a1.5 1.5 0 0 0 1.5 1.5H9v4.5l-2.771 4.455a1.5 1.5 0 1 0 2.542 1.591L12 17.38l3.229 5.166a1.5 1.5 0 1 0 2.542-1.591L15 16.5V12h4.5a1.5 1.5 0 0 0 0-3" class="a"/><path d="M17.25 15v.75a1.5 1.5 0 0 0 1.5 1.5h3a1.5 1.5 0 0 0 1.5-1.5v-4.5a.75.75 0 0 0-.75-.75H21M6.75 2.25a1.5 1.5 0 0 0-1.5-1.5h-3a1.5 1.5 0 0 0-1.5 1.5v4.5a.75.75 0 0 0 .75.75H3" class="a"/></svg>