<svg xmlns="http://www.w3.org/2000/svg" id="Regular" width="24" height="24" viewBox="0 0 24 24"><defs><style>.cls-1{fill:none;stroke:#000;stroke-linecap:round;stroke-linejoin:round;stroke-width:1.5px}</style></defs><path d="M23.25 2.25v6a1.5 1.5 0 0 1-1.5 1.5h-9a1.5 1.5 0 0 1-1.5-1.5v-6" class="cls-1"/><path d="M23.25 2.25a1.5 1.5 0 0 0-1.5-1.5h-9a1.5 1.5 0 0 0-1.5 1.5l5.2 3.253a1.5 1.5 0 0 0 1.59 0z" class="cls-1"/><circle cx="5.25" cy="3.75" r="3" class="cls-1"/><path d="M5.25 8.25v6m2.25 9 .75-7.5h1.5v-3a4.5 4.5 0 0 0-9 0v3h1.5l.75 7.5z" class="cls-1"/></svg>