<svg xmlns="http://www.w3.org/2000/svg" id="Regular" width="24" height="24" viewBox="0 0 24 24"><defs><style>.cls-1{fill:none;stroke:#000;stroke-linecap:round;stroke-linejoin:round;stroke-width:1.5px}</style></defs><rect width="4.5" height="4.5" x="18.75" y=".75" class="cls-1" rx=".75" ry=".75"/><rect width="4.5" height="4.5" x="18.75" y="9.75" class="cls-1" rx=".75" ry=".75"/><rect width="4.5" height="4.5" x="18.75" y="18.75" class="cls-1" rx=".75" ry=".75"/><path d="M18.75 11.25h-6m6-9h-1.5a1.5 1.5 0 0 0-1.5 1.5v15a1.5 1.5 0 0 0 1.5 1.5h1.5" class="cls-1"/><circle cx="5.25" cy="3.75" r="3" class="cls-1"/><path d="M8.034 9.216 5.25 12.75 2.466 9.216A4.489 4.489 0 0 0 .75 12.75v3h1.5l.75 7.5h4.5l.75-7.5h1.5v-3a4.489 4.489 0 0 0-1.716-3.534M2.25 3.75s0 3-1.5 3m7.5-3s0 3 1.5 3" class="cls-1"/></svg>