<svg xmlns="http://www.w3.org/2000/svg" id="Regular" width="24" height="24" viewBox="0 0 24 24"><defs><style>.cls-1{fill:none;stroke:#000;stroke-linecap:round;stroke-linejoin:round;stroke-width:1.5px}</style></defs><path d="M9.75 5.25h-7.5a1.5 1.5 0 0 0-1.5 1.5v13.5a1.5 1.5 0 0 0 1.5 1.5h19.5a1.5 1.5 0 0 0 1.5-1.5V6.75a1.5 1.5 0 0 0-1.5-1.5h-7.5" class="cls-1"/><path d="M14.25 4.5a2.25 2.25 0 0 0-4.5 0v3a.75.75 0 0 0 .75.75h3a.75.75 0 0 0 .75-.75z" class="cls-1"/><circle cx="8.25" cy="13.875" r="2.625" class="cls-1"/><path d="M3.75 21.75a4.5 4.5 0 0 1 9 0zm10.5-9h4.5m-4.5 3h6" class="cls-1"/></svg>