<svg xmlns="http://www.w3.org/2000/svg" id="Regular" width="24" height="24" viewBox="0 0 24 24"><defs><style>.cls-1{fill:none;stroke:#000;stroke-linecap:round;stroke-linejoin:round;stroke-width:1.5px}</style></defs><path d="M18.75 15.443a.375.375 0 1 1-.375.375.375.375 0 0 1 .375-.375" class="cls-1"/><path d="M18.75 11.318a4.5 4.5 0 0 1 4.5 4.5c0 1.92-2.688 5.576-3.909 7.138a.75.75 0 0 1-1.182 0c-1.221-1.562-3.909-5.217-3.909-7.138a4.5 4.5 0 0 1 4.5-4.5m-6.54 1.114A6.742 6.742 0 0 0 .75 17.256M3.945 2.787a6.848 6.848 0 0 0 4.93 2.094 6.847 6.847 0 0 0 2.712-.558" class="cls-1"/><circle cx="7.5" cy="4.881" r="4.125" class="cls-1"/></svg>