<svg xmlns="http://www.w3.org/2000/svg" id="Regular" width="24" height="24" viewBox="0 0 24 24"><defs><style>.cls-1{fill:none;stroke:#000;stroke-linecap:round;stroke-linejoin:round;stroke-width:1.5px}</style></defs><circle cx="8.25" cy="10.875" r="2.625" class="cls-1"/><path d="M3.75 18.75a4.5 4.5 0 0 1 9 0zm10.5-7.5h4.5m-4.5 3h6" class="cls-1"/><path d="M21.75 5.25H2.25a1.5 1.5 0 0 0-1.5 1.5v15a1.5 1.5 0 0 0 1.5 1.5h3a1.5 1.5 0 0 1 3 0h7.5a1.5 1.5 0 0 1 3 0h3a1.5 1.5 0 0 0 1.5-1.5v-15a1.5 1.5 0 0 0-1.5-1.5m1.5-3a1.5 1.5 0 0 0-1.5-1.5H2.25a1.5 1.5 0 0 0-1.5 1.5" class="cls-1"/></svg>