<svg xmlns="http://www.w3.org/2000/svg" id="Regular" width="24" height="24" viewBox="0 0 24 24"><defs><style>.cls-1{fill:none;stroke:#000;stroke-linecap:round;stroke-linejoin:round;stroke-width:1.5px}</style></defs><path d="M3.376 4.986v1a5.912 5.912 0 0 1-.859 3.272m9.106-4.272v1a5.9 5.9 0 0 0 .86 3.272M3.387 5.2A5.485 5.485 0 0 0 7.5 3.305a5.481 5.481 0 0 0 4.112 1.9" class="cls-1"/><circle cx="7.5" cy="4.875" r="4.125" class="cls-1"/><path d="M.75 17.25a6.75 6.75 0 0 1 11.78-4.5" class="cls-1"/><rect width="9" height="7.5" x="14.25" y="15.75" class="cls-1" rx="1.5" ry="1.5"/><path d="M18.75 11.25a3 3 0 0 0-3 3v1.5h6v-1.5a3 3 0 0 0-3-3m0 7.904a.375.375 0 1 0 .375.375.374.374 0 0 0-.375-.375" class="cls-1"/></svg>