<svg xmlns="http://www.w3.org/2000/svg" id="Regular" width="24" height="24" viewBox="0 0 24 24"><defs><style>.cls-1{fill:none;stroke:#000;stroke-linecap:round;stroke-linejoin:round;stroke-width:1.5px}</style></defs><circle cx="17.25" cy="17.249" r="6" class="cls-1"/><path d="m19.5 14.998-4.5 4.5m0-4.5 4.5 4.5M3.377 4.987v1a5.909 5.909 0 0 1-.86 3.273m9.107-4.273v1a5.91 5.91 0 0 0 .859 3.273M3.388 5.206a5.487 5.487 0 0 0 4.112-1.9 5.487 5.487 0 0 0 4.112 1.9" class="cls-1"/><circle cx="7.5" cy="4.876" r="4.125" class="cls-1"/><path d="M.75 17.251a6.753 6.753 0 0 1 9.4-6.208" class="cls-1"/></svg>