<svg xmlns="http://www.w3.org/2000/svg" id="Regular" width="24" height="24" viewBox="0 0 24 24"><defs><style>.cls-1{fill:none;stroke:#000;stroke-linecap:round;stroke-linejoin:round;stroke-width:1.5px}</style></defs><circle cx="6" cy="3.75" r="3" class="cls-1"/><path d="M10.744 11.249a5.276 5.276 0 0 0-1.858-2.135L6 13.5 3.114 9.114A5.246 5.246 0 0 0 .75 13.5v2.25H3l.75 7.5h4.5l.281-2.81M3 3.75S3 7.5.75 7.5M9 3.75S9 7.5 11.25 7.5" class="cls-1"/><rect width="12" height="9" x="11.25" y="14.25" class="cls-1" rx=".75" ry=".75"/><path d="M11.25 17.25h12m-6 0v1.5m.75-7.5h-1.5a1.5 1.5 0 0 0-1.5 1.5v1.5h4.5v-1.5a1.5 1.5 0 0 0-1.5-1.5" class="cls-1"/></svg>