<svg xmlns="http://www.w3.org/2000/svg" id="Regular" width="24" height="24" viewBox="0 0 24 24"><defs><style>.cls-1{fill:none;stroke:#000;stroke-linecap:round;stroke-linejoin:round;stroke-width:1.5px}</style></defs><path d="M.75 17.25a6.75 6.75 0 0 1 12.361-3.75M3.376 4.986v1a5.912 5.912 0 0 1-.859 3.272m9.106-4.272v1a5.9 5.9 0 0 0 .86 3.272M3.387 5.2A5.485 5.485 0 0 0 7.5 3.305a5.481 5.481 0 0 0 4.112 1.9" class="cls-1"/><circle cx="7.5" cy="4.875" r="4.125" class="cls-1"/><path d="M19.5 19.875a.375.375 0 1 1-.375.375.375.375 0 0 1 .375-.375" class="cls-1"/><rect width="7.5" height="12" x="15.75" y="11.25" class="cls-1" rx="1.5" ry="1.5"/></svg>