<svg xmlns="http://www.w3.org/2000/svg" id="Regular" width="24" height="24" viewBox="0 0 24 24"><defs><style>.cls-1{fill:none;stroke:#000;stroke-linecap:round;stroke-linejoin:round;stroke-width:1.5px}</style></defs><rect width="12" height="12" x="11.25" y="11.25" class="cls-1" rx="1.5" ry="1.5"/><path d="M15.375 14.25a.375.375 0 1 1-.375.375.375.375 0 0 1 .375-.375M23.25 21l-2.392-3.587a.749.749 0 0 0-1.238-.013l-2 2.851-1.237-.989a.749.749 0 0 0-1.092.169L12.75 23.25" class="cls-1"/><circle cx="6" cy="3.75" r="3" class="cls-1"/><path d="M9.75 9.826a5.25 5.25 0 0 0-9 3.674v2.25H3l.75 7.5h4.5l.323-3.233" class="cls-1"/></svg>