<svg xmlns="http://www.w3.org/2000/svg" id="Regular" width="24" height="24" viewBox="0 0 24 24"><defs><style>.cls-1{fill:none;stroke:#000;stroke-linecap:round;stroke-linejoin:round;stroke-width:1.5px}</style></defs><rect width="22.5" height="16.5" x=".75" y="2.25" class="cls-1" rx="1.5" ry="1.5"/><path d="M15.75 2.25v16.5m3-7.5h1.5m-1.5 3h1.5M19.5 7.5a.375.375 0 1 0 .375.375.375.375 0 0 0-.375-.375M2.25 21.75l3-3m16.5 3-3-3" class="cls-1"/><circle cx="8.25" cy="8.723" r="3.198" class="cls-1"/><path d="M12.75 15.473a5.71 5.71 0 0 0-9 0m7.698-6.644a6.427 6.427 0 0 1-1.777.25 6.375 6.375 0 0 1-4.328-1.687" class="cls-1"/></svg>