<svg xmlns="http://www.w3.org/2000/svg" id="Regular" width="24" height="24" viewBox="0 0 24 24"><defs><style>.cls-1{fill:none;stroke:#000;stroke-linecap:round;stroke-linejoin:round;stroke-width:1.5px}</style></defs><path d="M23.25 23.25V12L12 .75.75 12v11.25m17.615 0a6.751 6.751 0 0 0-12.73 0" class="cls-1"/><path d="m7.888 13.455-.012.777a5.91 5.91 0 0 1-.859 3.273m9.095-4.05.012.777a5.91 5.91 0 0 0 .859 3.273m-9.095-4.05a5.484 5.484 0 0 0 4.112-1.9 5.484 5.484 0 0 0 4.112 1.9" class="cls-1"/><circle cx="12" cy="13.125" r="4.125" class="cls-1"/></svg>