<svg xmlns="http://www.w3.org/2000/svg" id="Regular" width="24" height="24" viewBox="0 0 24 24"><defs><style>.cls-1{fill:none;stroke:#000;stroke-linecap:round;stroke-linejoin:round;stroke-width:1.5px}</style></defs><path d="m17.25 11.25-5.114-5.335a3.023 3.023 0 0 1-.566-3.492 3.025 3.025 0 0 1 4.845-.787l.835.835.835-.835a3.026 3.026 0 0 1 4.846.787 3.025 3.025 0 0 1-.567 3.492z" class="cls-1"/><circle cx="5.25" cy="3.75" r="3" class="cls-1"/><path d="M5.25 8.25v6m2.25 9 .75-7.5h1.5v-3a4.5 4.5 0 0 0-9 0v3h1.5l.75 7.5z" class="cls-1"/></svg>