<svg xmlns="http://www.w3.org/2000/svg" id="Regular" width="24" height="24" viewBox="0 0 24 24"><defs><style>.cls-1{fill:none;stroke:#000;stroke-linecap:round;stroke-linejoin:round;stroke-width:1.5px}</style></defs><circle cx="7.645" cy="4.875" r="4.125" class="cls-1"/><path d="M.9 17.25a6.75 6.75 0 0 1 6.75-6.75 6.9 6.9 0 0 1 .75.041m13.5 2.209v6H11.4v-6a1.5 1.5 0 0 1 1.5-1.5h7.5a1.5 1.5 0 0 1 1.5 1.5m-10.5 6h10.5l1.171 3.513a.751.751 0 0 1-.712.987H10.935a.75.75 0 0 1-.711-.987z" class="cls-1"/></svg>