<svg xmlns="http://www.w3.org/2000/svg" id="Regular" width="24" height="24" viewBox="0 0 24 24"><defs><style>.cls-1{fill:none;stroke:#000;stroke-linecap:round;stroke-linejoin:round;stroke-width:1.5px}</style></defs><rect width="22.5" height="16.5" x=".75" y="2.25" class="cls-1" rx="1.5" ry="1.5"/><path d="M15.75 2.25v16.5m3-7.5h1.5m-1.5 3h1.5M19.5 7.5a.375.375 0 1 0 .375.375.375.375 0 0 0-.375-.375M2.25 21.75l3-3m16.5 3-3-3m-6.276-3a4.51 4.51 0 0 0-2.383-2.591L8.25 15.75l-1.841-2.591a4.515 4.515 0 0 0-2.384 2.591" class="cls-1"/><circle cx="8.25" cy="8.25" r="3" class="cls-1"/><path d="M5.25 8.25S5.25 12 3 12m8.25-3.75s0 3.75 2.25 3.75" class="cls-1"/></svg>