<svg xmlns="http://www.w3.org/2000/svg" id="Regular" width="24" height="24" viewBox="0 0 24 24"><defs><style>.cls-1{fill:none;stroke:#000;stroke-linecap:round;stroke-linejoin:round;stroke-width:1.5px}</style></defs><path d="M18 12a3.75 3.75 0 0 1 3.75 3.75v3a1.5 1.5 0 0 0 1.5 1.5h-10.5a1.5 1.5 0 0 0 1.5-1.5v-3A3.75 3.75 0 0 1 18 12m0 10.5a.375.375 0 1 1-.375.375A.375.375 0 0 1 18 22.5" class="cls-1"/><circle cx="6" cy="3.75" r="3" class="cls-1"/><path d="M11.25 13.5a5.25 5.25 0 0 0-10.5 0v2.25H3l.75 7.5h4.5l.75-7.5h2.25z" class="cls-1"/></svg>