<svg xmlns="http://www.w3.org/2000/svg" id="Regular" width="24" height="24" viewBox="0 0 24 24"><defs><style>.cls-1{fill:none;stroke:#000;stroke-linecap:round;stroke-linejoin:round;stroke-width:1.5px}</style></defs><path d="M23.25 17.25a6 6 0 1 1-6-6m6 1.499-5.47 5.47a.749.749 0 0 1-1.06 0L15 16.5M3.376 4.986v1a5.9 5.9 0 0 1-.859 3.272m9.106-4.272v1a5.9 5.9 0 0 0 .86 3.272M3.388 5.2A5.483 5.483 0 0 0 7.5 3.305a5.483 5.483 0 0 0 4.112 1.9" class="cls-1"/><circle cx="7.5" cy="4.875" r="4.125" class="cls-1"/><path d="M.75 17.25a6.753 6.753 0 0 1 9.4-6.208" class="cls-1"/></svg>