<svg xmlns="http://www.w3.org/2000/svg" id="Regular" width="24" height="24" viewBox="0 0 24 24"><defs><style>.cls-1{fill:none;stroke:#000;stroke-linecap:round;stroke-linejoin:round;stroke-width:1.5px}</style></defs><path d="m23.25 15.75-3 1v-1a1.5 1.5 0 0 0-1.5-1.5h-6a1.5 1.5 0 0 0-1.5 1.5v6a1.5 1.5 0 0 0 1.5 1.5h6a1.5 1.5 0 0 0 1.5-1.5v-1l3 1z" class="cls-1"/><circle cx="6" cy="3.75" r="3" class="cls-1"/><path d="M10.555 10.888A5.251 5.251 0 0 0 .75 13.5v2.25H3l.75 7.5h4.5l.323-3.233" class="cls-1"/></svg>