<svg xmlns="http://www.w3.org/2000/svg" id="Regular" width="24" height="24" viewBox="0 0 24 24"><defs><style>.cls-1{fill:none;stroke:#000;stroke-linecap:round;stroke-linejoin:round;stroke-width:1.5px}</style></defs><path d="M3.376 4.986v1a5.918 5.918 0 0 1-.859 3.273m9.106-4.273v1a5.909 5.909 0 0 0 .86 3.273M3.387 5.205a5.489 5.489 0 0 0 4.113-1.9 5.486 5.486 0 0 0 4.112 1.9" class="cls-1"/><circle cx="7.5" cy="4.875" r="4.125" class="cls-1"/><path d="M.75 17.25a6.753 6.753 0 0 1 9.4-6.208m13.1 4.708v6a1.5 1.5 0 0 1-1.5 1.5h-9a1.5 1.5 0 0 1-1.5-1.5v-6" class="cls-1"/><path d="M23.25 15.75a1.5 1.5 0 0 0-1.5-1.5h-9a1.5 1.5 0 0 0-1.5 1.5L16.455 19a1.5 1.5 0 0 0 1.59 0z" class="cls-1"/></svg>