<svg xmlns="http://www.w3.org/2000/svg" id="Regular" width="24" height="24" viewBox="0 0 24 24"><defs><style>.cls-1{fill:none;stroke:#000;stroke-linecap:round;stroke-linejoin:round;stroke-width:1.5px}</style></defs><path d="M12.75 15.948v5.8a1.5 1.5 0 0 0 1.5 1.5h6a1.5 1.5 0 0 0 1.5-1.5v-5.8" class="cls-1"/><path d="m11.25 17.261 4.518-3.954a2.25 2.25 0 0 1 2.963 0l4.519 3.954m-4.5 5.989h-3v-3a1.5 1.5 0 0 1 3 0z" class="cls-1"/><circle cx="6" cy="3.75" r="3" class="cls-1"/><path d="M10.567 10.91a5.274 5.274 0 0 0-1.681-1.795L6 13.5 3.114 9.115A5.244 5.244 0 0 0 .75 13.5v2.25H3l.75 7.5h4.5M3 3.75S3 7.5.75 7.5M9 3.75S9 7.5 11.25 7.5" class="cls-1"/></svg>