<svg xmlns="http://www.w3.org/2000/svg" id="Regular" width="24" height="24" viewBox="0 0 24 24"><defs><style>.cls-1{fill:none;stroke:#000;stroke-linecap:round;stroke-linejoin:round;stroke-width:1.5px}</style></defs><circle cx="6" cy="3.75" r="3" class="cls-1"/><path d="m8.25 23.25.75-7.5h2.25V13.5a5.246 5.246 0 0 0-2.364-4.386L6 13.5 3.114 9.114A5.246 5.246 0 0 0 .75 13.5v2.25H3l.75 7.5zM3 3.75S3 7.5.75 7.5M9 3.75S9 7.5 11.25 7.5m3-.75h2.25v3l3.75-3h2.25a.75.75 0 0 0 .75-.75V1.5a.75.75 0 0 0-.75-.75h-8.25a.75.75 0 0 0-.75.75V6a.75.75 0 0 0 .75.75" class="cls-1"/></svg>