<svg xmlns="http://www.w3.org/2000/svg" id="Regular" width="24" height="24" viewBox="0 0 24 24"><defs><style>.cls-1{fill:none;stroke:#000;stroke-linecap:round;stroke-linejoin:round;stroke-width:1.5px}</style></defs><path d="M.75 17.249a6.753 6.753 0 0 1 9.4-6.208" class="cls-1"/><circle cx="7.5" cy="4.874" r="4.125" class="cls-1"/><path d="M18 12a3.75 3.75 0 0 1 3.75 3.75v3a1.5 1.5 0 0 0 1.5 1.5h-10.5a1.5 1.5 0 0 0 1.5-1.5v-3A3.75 3.75 0 0 1 18 12m0 10.5a.375.375 0 1 1-.375.375A.375.375 0 0 1 18 22.5" class="cls-1"/></svg>