<svg xmlns="http://www.w3.org/2000/svg" id="Regular" width="24" height="24" viewBox="0 0 24 24"><defs><style>.cls-1{fill:none;stroke:#000;stroke-linecap:round;stroke-linejoin:round;stroke-width:1.5px}</style></defs><path d="M22.318 8.557 14.25 6.54V2.79L22.318.773a.749.749 0 0 1 .932.727v6.329a.751.751 0 0 1-.932.728M14.25 1.29v6.75" class="cls-1"/><path d="M17.25 7.29v.628a3.291 3.291 0 0 0 2.25 3.122" class="cls-1"/><circle cx="6" cy="3.75" r="3" class="cls-1"/><path d="M8.886 9.114 6 13.5 3.114 9.114A5.246 5.246 0 0 0 .75 13.5v2.25H3l.75 7.5h4.5l.75-7.5h2.25V13.5a5.246 5.246 0 0 0-2.364-4.386M3 3.75S3 7.5.75 7.5M9 3.75S9 7.5 11.25 7.5" class="cls-1"/></svg>