<svg xmlns="http://www.w3.org/2000/svg" id="Regular" width="24" height="24" viewBox="0 0 24 24"><defs><style>.cls-1{fill:none;stroke:#000;stroke-linecap:round;stroke-linejoin:round;stroke-width:1.5px}</style></defs><path d="M.75 17.25a6.75 6.75 0 0 1 11.787-4.494m-9.161-7.77v1a5.912 5.912 0 0 1-.859 3.272m9.106-4.272v1a5.9 5.9 0 0 0 .86 3.272M3.387 5.2A5.485 5.485 0 0 0 7.5 3.305a5.481 5.481 0 0 0 4.112 1.9" class="cls-1"/><circle cx="7.5" cy="4.875" r="4.125" class="cls-1"/><path d="m16.5 14.308-6.75 2.779 6.75 2.471 6.75-2.471zm-6.75 2.757v3.772" class="cls-1"/><path d="M12.75 18.185V21.3a.75.75 0 0 0 .471.7l3 1.2a.745.745 0 0 0 .557 0l3-1.2a.75.75 0 0 0 .472-.7v-3.115" class="cls-1"/></svg>