<svg xmlns="http://www.w3.org/2000/svg" id="Regular" width="24" height="24" viewBox="0 0 24 24"><defs><style>.cls-1{fill:none;stroke:#000;stroke-linecap:round;stroke-linejoin:round;stroke-width:1.5px}</style></defs><path d="M18.75 15.437a.375.375 0 1 1-.375.375.375.375 0 0 1 .375-.375" class="cls-1"/><path d="M18.75 11.312a4.5 4.5 0 0 1 4.5 4.5c0 1.92-2.688 5.576-3.909 7.137a.751.751 0 0 1-1.182 0c-1.221-1.562-3.909-5.218-3.909-7.138a4.5 4.5 0 0 1 4.5-4.499" class="cls-1"/><circle cx="6" cy="3.75" r="3" class="cls-1"/><path d="M11.25 13.5a5.25 5.25 0 0 0-10.5 0v2.25H3l.75 7.5h4.5l.75-7.5h2.25zM6 8.25v6" class="cls-1"/></svg>