<svg xmlns="http://www.w3.org/2000/svg" id="Regular" width="24" height="24" viewBox="0 0 24 24"><defs><style>.cls-1{fill:none;stroke:#000;stroke-linecap:round;stroke-linejoin:round;stroke-width:1.5px}</style></defs><path d="M22.63 14.869 15 22.5l-3.75.75.75-3.75 7.63-7.631a2.116 2.116 0 0 1 2.992 0l.008.009a2.113 2.113 0 0 1 0 2.991M3.376 4.986v1a5.9 5.9 0 0 1-.859 3.272m9.106-4.272v1a5.9 5.9 0 0 0 .86 3.272M3.388 5.2A5.483 5.483 0 0 0 7.5 3.305a5.483 5.483 0 0 0 4.112 1.9" class="cls-1"/><circle cx="7.5" cy="4.875" r="4.125" class="cls-1"/><path d="M.75 17.25a6.751 6.751 0 0 1 11.175-5.1" class="cls-1"/></svg>