<svg xmlns="http://www.w3.org/2000/svg" id="Regular" width="24" height="24" viewBox="0 0 24 24"><defs><style>.cls-1{fill:none;stroke:#000;stroke-linecap:round;stroke-linejoin:round;stroke-width:1.5px}</style></defs><path d="M.75 6.751V2.25a1.5 1.5 0 0 1 1.5-1.5h4.5m16.5 6.001V2.25a1.5 1.5 0 0 0-1.5-1.5h-4.5M.75 17.25v4.5a1.5 1.5 0 0 0 1.5 1.5h4.5m16.5-6v4.5a1.5 1.5 0 0 1-1.5 1.5h-4.5" class="cls-1"/><circle cx="12" cy="6" r="2.25" class="cls-1"/><path d="m13.5 20.25.75-4.5h1.5V13.5a3.75 3.75 0 0 0-7.5 0v2.25h1.5l.75 4.5z" class="cls-1"/></svg>