<svg xmlns="http://www.w3.org/2000/svg" id="Regular" width="24" height="24" viewBox="0 0 24 24"><defs><style>.cls-1{fill:none;stroke:#000;stroke-linecap:round;stroke-linejoin:round;stroke-width:1.5px}</style></defs><rect width="12" height="12" x="11.25" y="11.25" class="cls-1" rx="1.5" ry="1.5"/><path d="M15.75 15.43a.43.43 0 0 1 .651-.369l3.033 1.821a.429.429 0 0 1 0 .737l-3.034 1.82a.43.43 0 0 1-.651-.369z" class="cls-1"/><circle cx="6" cy="3.75" r="3" class="cls-1"/><path d="M8.886 9.114 6 13.5 3.114 9.114A5.246 5.246 0 0 0 .75 13.5v2.25H3l.75 7.5h4.5M3 3.75S3 7.5.75 7.5M9 3.75S9 7.5 11.25 7.5" class="cls-1"/></svg>