<svg xmlns="http://www.w3.org/2000/svg" id="Regular" width="24" height="24" viewBox="0 0 24 24"><defs><style>.cls-1{fill:none;stroke:#000;stroke-linecap:round;stroke-linejoin:round;stroke-width:1.5px}</style></defs><path d="M21.75 20.25h-3l-4.5 3v-3h-1.5a1.5 1.5 0 0 1-1.5-1.5v-6a1.5 1.5 0 0 1 1.5-1.5h9a1.5 1.5 0 0 1 1.5 1.5v6a1.5 1.5 0 0 1-1.5 1.5m-7.5-6h6m-6 3h6" class="cls-1"/><circle cx="6" cy="3.75" r="3" class="cls-1"/><path d="M9.1 9.264A5.25 5.25 0 0 0 .75 13.5v2.25H3l.75 7.5h4.5l.259-2.594M6 8.25v6" class="cls-1"/></svg>