<svg xmlns="http://www.w3.org/2000/svg" id="Regular" width="24" height="24" viewBox="0 0 24 24"><defs><style>.cls-1{fill:none;stroke:#000;stroke-linecap:round;stroke-linejoin:round;stroke-width:1.5px}</style></defs><path d="M.75 17.25A6.75 6.75 0 0 1 7.5 10.5a6.9 6.9 0 0 1 .75.041M3.376 4.986v1a5.912 5.912 0 0 1-.859 3.272m9.106-4.272v1a5.9 5.9 0 0 0 .86 3.272M3.387 5.2A5.485 5.485 0 0 0 7.5 3.305a5.481 5.481 0 0 0 4.112 1.9" class="cls-1"/><circle cx="7.5" cy="4.875" r="4.125" class="cls-1"/><rect width="12" height="12" x="11.25" y="11.25" class="cls-1" rx="1.5" ry="1.5"/><path d="M15.75 17.25v-1.82a.43.43 0 0 1 .651-.369l3.033 1.82a.429.429 0 0 1 0 .737l-3.034 1.82a.429.429 0 0 1-.651-.368z" class="cls-1"/></svg>