<svg xmlns="http://www.w3.org/2000/svg" id="Regular" width="24" height="24" viewBox="0 0 24 24"><defs><style>.cls-1{fill:none;stroke:#000;stroke-linecap:round;stroke-linejoin:round;stroke-width:1.5px}</style></defs><circle cx="17.25" cy="7.5" r="1.5" class="cls-1"/><path d="m18.524 1.7.442 1.453a1 1 0 0 0 1.174.681l1.472-.342a1.339 1.339 0 0 1 1.275 2.219l-1.031 1.108a1 1 0 0 0 0 1.362l1.031 1.111a1.339 1.339 0 0 1-1.275 2.218l-1.472-.341a.993.993 0 0 0-1.174.681l-.442 1.45a1.33 1.33 0 0 1-2.548 0l-.442-1.452a.993.993 0 0 0-1.174-.681l-1.472.341a1.339 1.339 0 0 1-1.275-2.218l1.031-1.111a1 1 0 0 0 0-1.362l-1.031-1.109a1.339 1.339 0 0 1 1.275-2.219l1.472.342a1 1 0 0 0 1.174-.681l.442-1.45a1.33 1.33 0 0 1 2.548 0" class="cls-1"/><circle cx="5.25" cy="3.75" r="3" class="cls-1"/><path d="M8.034 9.216 5.25 12.75 2.466 9.216A4.489 4.489 0 0 0 .75 12.75v3h1.5l.75 7.5h4.5l.75-7.5h1.5v-3a4.489 4.489 0 0 0-1.716-3.534M2.25 3.75s0 3-1.5 3" class="cls-1"/></svg>