<svg xmlns="http://www.w3.org/2000/svg" id="Regular" width="24" height="24" viewBox="0 0 24 24"><defs><style>.cls-1{fill:none;stroke:#000;stroke-linecap:round;stroke-linejoin:round;stroke-width:1.5px}</style></defs><path d="M21.75 12.75v6h-10.5v-6a1.5 1.5 0 0 1 1.5-1.5h7.5a1.5 1.5 0 0 1 1.5 1.5m-10.5 6h10.5l1.171 3.513a.75.75 0 0 1-.712.987H10.791a.75.75 0 0 1-.712-.987z" class="cls-1"/><circle cx="6" cy="3.75" r="3" class="cls-1"/><path d="M9.75 9.826a5.25 5.25 0 0 0-9 3.674v2.25H3l.75 7.5h3M6 8.25v6" class="cls-1"/></svg>