<svg xmlns="http://www.w3.org/2000/svg" id="Regular" width="24" height="24" viewBox="0 0 24 24"><defs><style>.cls-1{fill:none;stroke:#000;stroke-linecap:round;stroke-linejoin:round;stroke-width:1.5px}</style></defs><circle cx="6" cy="3.75" r="3" class="cls-1"/><path d="M10.742 11.245A5.251 5.251 0 0 0 .75 13.5v2.25H3l.75 7.5h4.5l.521-5.216m8.479 5.216-5.114-5.335a3.025 3.025 0 0 1-.567-3.492 3.026 3.026 0 0 1 4.846-.787l.835.835.835-.835a3.025 3.025 0 0 1 4.845.787 3.027 3.027 0 0 1-.566 3.492zM6 8.25v6" class="cls-1"/></svg>