<svg xmlns="http://www.w3.org/2000/svg" id="Regular" width="24" height="24" viewBox="0 0 24 24"><defs><style>.cls-1{fill:none;stroke:#000;stroke-linecap:round;stroke-linejoin:round;stroke-width:1.5px}</style></defs><path d="M10.886 13.5a6.751 6.751 0 0 1 12.364 3.75M12.376 4.986v1a5.912 5.912 0 0 1-.859 3.272m9.106-4.272v1a5.9 5.9 0 0 0 .86 3.272M12.387 5.2A5.485 5.485 0 0 0 16.5 3.3a5.481 5.481 0 0 0 4.112 1.9" class="cls-1"/><circle cx="16.5" cy="4.875" r="4.125" class="cls-1"/><path d="M.75 14.25v9m0-1.5h15a3 3 0 0 0-3-3H9a3 3 0 0 0-3-3H.75m5.25 3h3" class="cls-1"/></svg>