<svg xmlns="http://www.w3.org/2000/svg" id="Regular" width="24" height="24" viewBox="0 0 24 24"><defs><style>.cls-1{fill:none;stroke:#000;stroke-linecap:round;stroke-linejoin:round;stroke-width:1.5px}</style></defs><circle cx="13.875" cy="21.375" r="1.875" class="cls-1"/><circle cx="21.375" cy="19.125" r="1.875" class="cls-1"/><path d="M15.75 21.375v-6.794a1.5 1.5 0 0 1 1.025-1.423l4.5-1.25a1.5 1.5 0 0 1 1.975 1.423v5.794M.75 17.25a6.75 6.75 0 0 1 11.787-4.494m-9.161-7.77v1a5.912 5.912 0 0 1-.859 3.272m9.106-4.272v1a5.9 5.9 0 0 0 .86 3.272M3.387 5.2A5.485 5.485 0 0 0 7.5 3.305a5.481 5.481 0 0 0 4.112 1.9" class="cls-1"/><circle cx="7.5" cy="4.875" r="4.125" class="cls-1"/></svg>