<svg xmlns="http://www.w3.org/2000/svg" id="Regular" width="24" height="24" viewBox="0 0 24 24"><defs><style>.cls-1{fill:none;stroke:#000;stroke-linecap:round;stroke-linejoin:round;stroke-width:1.5px}</style></defs><path d="M.75 14.25v9m0-1.5h15a3 3 0 0 0-3-3H9a3 3 0 0 0-3-3H.75m5.25 3h3" class="cls-1"/><circle cx="18" cy="3.75" r="3" class="cls-1"/><path d="M18 23.25h2.25l.75-7.5h2.25V13.5a5.244 5.244 0 0 0-2.365-4.386L18 13.5l-2.886-4.386A5.246 5.246 0 0 0 12.75 13.5v2.25H15m0-12s0 3.75-2.25 3.75M21 3.75s0 3.75 2.25 3.75" class="cls-1"/></svg>