<svg xmlns="http://www.w3.org/2000/svg" id="Regular" width="24" height="24" viewBox="0 0 24 24"><defs><style>.cls-1{fill:none;stroke:#000;stroke-linecap:round;stroke-linejoin:round;stroke-width:1.5px}</style></defs><circle cx="7.5" cy="4.875" r="4.125" class="cls-1"/><path d="M.75 17.25A6.75 6.75 0 0 1 7.5 10.5a6.9 6.9 0 0 1 .75.041" class="cls-1"/><rect width="12" height="12" x="11.25" y="11.25" class="cls-1" rx="1.5" ry="1.5"/><path d="M15.375 14.25a.375.375 0 1 1-.375.375.375.375 0 0 1 .375-.375M23.25 21l-2.391-3.587a.75.75 0 0 0-1.239-.013l-2 2.851-1.237-.989a.749.749 0 0 0-1.092.169L12.75 23.25" class="cls-1"/></svg>