<svg xmlns="http://www.w3.org/2000/svg" id="Regular" width="24" height="24" viewBox="0 0 24 24"><defs><style>.cls-1{fill:none;stroke:#000;stroke-linecap:round;stroke-linejoin:round;stroke-width:1.5px}</style></defs><circle cx="17.25" cy="16.5" r="1.5" class="cls-1"/><path d="m18.524 10.7.442 1.453a.993.993 0 0 0 1.173.681l1.473-.341a1.338 1.338 0 0 1 1.274 2.218l-1.03 1.111a1 1 0 0 0 0 1.362l1.03 1.111a1.338 1.338 0 0 1-1.274 2.218l-1.473-.341a.993.993 0 0 0-1.173.681l-.442 1.447a1.331 1.331 0 0 1-2.549 0l-.442-1.453a.993.993 0 0 0-1.173-.681l-1.473.341a1.338 1.338 0 0 1-1.274-2.218l1.03-1.111a1 1 0 0 0 0-1.362l-1.03-1.111a1.338 1.338 0 0 1 1.274-2.218l1.473.341a.993.993 0 0 0 1.173-.681l.442-1.453a1.331 1.331 0 0 1 2.549.006M3.376 4.986v1a5.918 5.918 0 0 1-.859 3.273m9.106-4.273v1a5.909 5.909 0 0 0 .86 3.273M3.387 5.205a5.489 5.489 0 0 0 4.113-1.9 5.486 5.486 0 0 0 4.112 1.9" class="cls-1"/><circle cx="7.5" cy="4.875" r="4.125" class="cls-1"/><path d="M.75 17.25a6.753 6.753 0 0 1 9.4-6.208" class="cls-1"/></svg>