<svg xmlns="http://www.w3.org/2000/svg" id="Regular" width="24" height="24" viewBox="0 0 24 24"><defs><style>.cls-1{fill:none;stroke:#000;stroke-linecap:round;stroke-linejoin:round;stroke-width:1.5px}</style></defs><circle cx="19.086" cy="3.375" r="2.625" class="cls-1"/><path d="M21.711 21.75a1.5 1.5 0 0 1-1.5 1.5h-7.5m-2.789-1.487a1.5 1.5 0 0 1-2.111.215L2 17.237m6.766 1.446-2.329-1.9m7.774 3.467h3" class="cls-1"/><path d="m6.614 21 5.151-5.547.788.394a2.985 2.985 0 0 1 1.658 2.684v4.719" class="cls-1"/><path d="M17.211 23.25v-4.718a5.967 5.967 0 0 0-3.311-5.367l2.918-3.142a1.5 1.5 0 0 0-1.1-2.521h-7.5a1.5 1.5 0 1 0 0 3h4.061L4.285 19.1" class="cls-1"/></svg>