<svg xmlns="http://www.w3.org/2000/svg" width="24" height="24" viewBox="0 0 24 24"><defs><style>.a{fill:none;stroke:#000;stroke-linecap:round;stroke-linejoin:round;stroke-width:1.5px}</style></defs><circle cx="12.375" cy="10.294" r="1.875" class="a"/><circle cx="19.875" cy="8.044" r="1.875" class="a"/><path d="M14.25 10.294V3.5a1.5 1.5 0 0 1 1.026-1.423l4.5-1.25A1.5 1.5 0 0 1 21.75 2.25v5.794m-6.468 6.431A6.747 6.747 0 1 1 10.93 5.53" class="a"/><path d="M4.5 6.97V2.25A1.5 1.5 0 0 1 6 .75h4.5m3 16.281v4.719a1.5 1.5 0 0 1-1.5 1.5H6a1.5 1.5 0 0 1-1.5-1.5v-4.719" class="a"/></svg>