<svg xmlns="http://www.w3.org/2000/svg" width="24" height="24" viewBox="0 0 24 24"><defs><style>.a{fill:none;stroke:#000;stroke-linecap:round;stroke-linejoin:round;stroke-width:1.5px}</style></defs><rect width="16.5" height="16.5" x="3.75" y="3.75" class="a" rx="3" ry="3"/><path d="M17.25 3.75H6.75v-1.5a1.5 1.5 0 0 1 1.5-1.5h7.5a1.5 1.5 0 0 1 1.5 1.5zm-1.5 19.5h-7.5a1.5 1.5 0 0 1-1.5-1.5v-1.5h10.5v1.5a1.5 1.5 0 0 1-1.5 1.5" class="a"/><circle cx="8.25" cy="15.329" r="1.5" class="a"/><circle cx="14.25" cy="13.829" r="1.5" class="a"/><path d="M15.75 13.829V9a1.5 1.5 0 0 0-1.864-1.455l-3 .75A1.5 1.5 0 0 0 9.75 9.75v5.579" class="a"/></svg>