<svg xmlns="http://www.w3.org/2000/svg" width="24" height="24" viewBox="0 0 24 24"><defs><style>.a{fill:none;stroke:#000;stroke-linecap:round;stroke-linejoin:round;stroke-width:1.5px}</style></defs><rect width="16.5" height="16.5" x="3.75" y="3.75" class="a" rx="3" ry="3"/><path d="M17.25 3.75H6.75v-1.5a1.5 1.5 0 0 1 1.5-1.5h7.5a1.5 1.5 0 0 1 1.5 1.5zm-1.5 19.5h-7.5a1.5 1.5 0 0 1-1.5-1.5v-1.5h10.5v1.5a1.5 1.5 0 0 1-1.5 1.5M13.5 6.75l-5.36 5.36a.375.375 0 0 0 .265.64h2.1v4.5l5.36-5.36a.375.375 0 0 0-.265-.64h-2.1z" class="a"/></svg>