<svg xmlns="http://www.w3.org/2000/svg" width="24" height="24" viewBox="0 0 24 24"><defs><style>.a{fill:none;stroke:#000;stroke-linecap:round;stroke-linejoin:round;stroke-width:1.5px}</style></defs><rect width="16.5" height="16.5" x="3.75" y="3.75" class="a" rx="3" ry="3"/><path d="M17.25 3.75H6.75v-1.5a1.5 1.5 0 0 1 1.5-1.5h7.5a1.5 1.5 0 0 1 1.5 1.5zm-1.5 19.5h-7.5a1.5 1.5 0 0 1-1.5-1.5v-1.5h10.5v1.5a1.5 1.5 0 0 1-1.5 1.5M12 8.25a2.25 2.25 0 0 1 2.25 2.25v1.688c0 .621.879 2.062 1.5 2.062h-7.5c.621 0 1.5-1.441 1.5-2.062V10.5A2.25 2.25 0 0 1 12 8.25m0 6v1.5" class="a"/></svg>