<svg xmlns="http://www.w3.org/2000/svg" width="24" height="24" viewBox="0 0 24 24"><defs><style>.a{fill:none;stroke:#000;stroke-linecap:round;stroke-linejoin:round;stroke-width:1.5px}</style></defs><rect width="16.5" height="16.5" x="3.75" y="3.75" class="a" rx="3" ry="3"/><path d="M17.25 3.75H6.75v-1.5a1.5 1.5 0 0 1 1.5-1.5h7.5a1.5 1.5 0 0 1 1.5 1.5zm-1.5 19.5h-7.5a1.5 1.5 0 0 1-1.5-1.5v-1.5h10.5v1.5a1.5 1.5 0 0 1-1.5 1.5m-5.341-9.659 3.182-3.182" class="a"/><rect width="3" height="4.5" x="13.152" y="7.098" class="a" rx=".75" ry=".75" transform="rotate(-45 14.651 9.348)"/><rect width="3" height="4.5" x="7.848" y="12.402" class="a" rx=".75" ry=".75" transform="rotate(-45 9.349 14.652)"/><path d="M15.712 8.288 16.5 7.5m-8.212 8.212L7.5 16.5" class="a"/></svg>