<svg xmlns="http://www.w3.org/2000/svg" width="24" height="24" viewBox="0 0 24 24"><defs><style>.a{fill:none;stroke:#000;stroke-linecap:round;stroke-linejoin:round;stroke-width:1.5px}</style></defs><rect width="16.5" height="16.5" x="3.75" y="3.75" class="a" rx="3" ry="3"/><path d="M17.25 3.75H6.75v-1.5a1.5 1.5 0 0 1 1.5-1.5h7.5a1.5 1.5 0 0 1 1.5 1.5zm-1.5 19.5h-7.5a1.5 1.5 0 0 1-1.5-1.5v-1.5h10.5v1.5a1.5 1.5 0 0 1-1.5 1.5m-3.901-6.934 2.066-2.066a1.3 1.3 0 0 1 1.835 0l.459.459a1.3 1.3 0 0 1 0 1.835l-.4.4a1.3 1.3 0 0 1-1.232.342 8.688 8.688 0 0 1-4.563-2.345 8.72 8.72 0 0 1-2.344-4.562 1.3 1.3 0 0 1 .341-1.232l.4-.4a1.3 1.3 0 0 1 1.835 0l.454.453a1.3 1.3 0 0 1 0 1.835l-2.062 2.071M14.25 8.25v2.25h2.25m-2.25 0 3-3" class="a"/></svg>