<svg xmlns="http://www.w3.org/2000/svg" width="24" height="24" viewBox="0 0 24 24"><defs><style>.a{fill:none;stroke:#000;stroke-linecap:round;stroke-linejoin:round;stroke-width:1.5px}</style></defs><circle cx="12" cy="12" r="11.25" class="a"/><path d="M17.1 15.6a6.754 6.754 0 0 1-5.085 3.118m4.11-4.093L18 16.5M7.5 6a8.718 8.718 0 0 1-2.25 2.625A8.718 8.718 0 0 1 7.5 11.25a8.718 8.718 0 0 1 2.25-2.625A8.718 8.718 0 0 1 7.5 6m9 0a8.718 8.718 0 0 1-2.25 2.625 8.718 8.718 0 0 1 2.25 2.625 8.718 8.718 0 0 1 2.25-2.625A8.718 8.718 0 0 1 16.5 6" class="a"/></svg>