<svg xmlns="http://www.w3.org/2000/svg" width="24" height="24" viewBox="0 0 24 24"><defs><style>.a{fill:none;stroke:#000;stroke-linecap:round;stroke-linejoin:round;stroke-width:1.5px}</style></defs><circle cx="12" cy="12" r="11.25" class="a"/><path d="M18.048 18a6.752 6.752 0 0 0-12.1 0M9 7.125a.375.375 0 1 1-.375.375A.375.375 0 0 1 9 7.125m7.5 0a.375.375 0 1 1-.375.375.375.375 0 0 1 .375-.375" class="a"/><circle cx="8.25" cy="8.25" r="3.75" class="a"/><circle cx="15.75" cy="8.25" r="3.75" class="a"/><path d="M4.57 7.528.75 6m18.68 1.528L23.25 6" class="a"/></svg>