<svg xmlns="http://www.w3.org/2000/svg" width="24" height="24" viewBox="0 0 24 24"><defs><style>.a{fill:none;stroke:#000;stroke-linecap:round;stroke-linejoin:round;stroke-width:1.5px}</style></defs><circle cx="12" cy="12" r="11.25" class="a"/><path d="M6.75 8.25h3m-1.5 1.5v-3m6 1.5h3m-1.5 1.5v-3m-9 10.5c0-2.564 1.192-3.545 2.864-3.545 2.9 0 1.871 3.545 4.772 3.545 1.674 0 2.864-.982 2.864-3.545" class="a"/><circle cx="12" cy="12" r="11.25" class="a"/><path d="M6.75 8.25h3m-1.5 1.5v-3m6 1.5h3m-1.5 1.5v-3m-9 10.5c0-2.564 1.192-3.545 2.864-3.545 2.9 0 1.871 3.545 4.772 3.545 1.674 0 2.864-.982 2.864-3.545" class="a"/></svg>