<svg xmlns="http://www.w3.org/2000/svg" width="24" height="24" viewBox="0 0 24 24"><defs><style>.a{fill:none;stroke:#000;stroke-linecap:round;stroke-linejoin:round;stroke-width:1.5px}</style></defs><path d="M3 5.25a11.252 11.252 0 0 1 18 0m2.129 5.092A11.251 11.251 0 1 1 .75 12a11.333 11.333 0 0 1 .121-1.658" class="a"/><path d="M5.634 14.25a.75.75 0 0 0-.707 1 7.5 7.5 0 0 0 14.146 0 .75.75 0 0 0-.707-1z" class="a"/><rect width="9" height="6" x=".75" y="5.25" class="a" rx="1.5" ry="1.5"/><rect width="9" height="6" x="14.25" y="5.25" class="a" rx="1.5" ry="1.5"/><path d="M9.75 8.25h4.5" class="a"/></svg>