<svg xmlns="http://www.w3.org/2000/svg" width="24" height="24" viewBox="0 0 24 24"><defs><style>.a{fill:none;stroke:#000;stroke-linecap:round;stroke-linejoin:round;stroke-width:1.5px}</style></defs><rect width="3" height="4.5" x="10.5" y="15" class="a" rx="1.5" ry="1.5"/><path d="M8.25 10.875a.375.375 0 1 1 .375-.375.375.375 0 0 1-.375.375m7.5 0a.375.375 0 1 1 .375-.375.375.375 0 0 1-.375.375m-9-3.322a1.8 1.8 0 0 1 3 0m4.5 0a1.8 1.8 0 0 1 3 0" class="a"/><circle cx="12" cy="12" r="11.25" class="a"/></svg>