<svg xmlns="http://www.w3.org/2000/svg" width="24" height="24" viewBox="0 0 24 24"><defs><style>.a{fill:none;stroke:#000;stroke-linecap:round;stroke-linejoin:round;stroke-width:1.5px}</style></defs><path d="M6.756 21.956a11.25 11.25 0 1 1 10.494 0M6.75 6.75l3 3H6" class="a"/><path d="m17.25 6.75-3 3H18m-3 9.876a7.522 7.522 0 0 0 4.35-5.376H4.65A7.522 7.522 0 0 0 9 19.626" class="a"/><path d="M12 23.25a3 3 0 0 1-3-3v-1.5a1.5 1.5 0 0 1 1.5-1.5h3a1.5 1.5 0 0 1 1.5 1.5v1.5a3 3 0 0 1-3 3" class="a"/></svg>