<svg xmlns="http://www.w3.org/2000/svg" id="Regular" width="24" height="24" viewBox="0 0 24 24"><defs><style>.cls-1{fill:none;stroke:#000;stroke-linecap:round;stroke-linejoin:round;stroke-width:1.5px}</style></defs><path d="M12 .75A11.25 11.25 0 1 0 23.25 12 11.25 11.25 0 0 0 12 .75" class="cls-1"/><path d="m8.895 16.754-1.91-5.9L12 7.208l5.015 3.646-1.91 5.9zm7.406-15.153L12 4.5 7.699 1.601m6.9 21.347 2.139-4.366 4.884-.75m1.592-4.923-3.427-3.413.735-4.839M12 4.5v2.708m5.015 3.646 2.772-1.358M.786 12.909l3.427-3.413-.735-4.839m3.507 6.197L4.213 9.496m10.892 7.258 1.633 1.828m-7.337 4.366-2.139-4.366-4.884-.75m6.517-1.078-1.633 1.828" class="cls-1"/></svg>