<svg xmlns="http://www.w3.org/2000/svg" id="Regular" width="24" height="24" viewBox="0 0 24 24"><defs><style>.cls-1{fill:none;stroke:#000;stroke-linecap:round;stroke-linejoin:round;stroke-width:1.5px}</style></defs><path d="M16.5 19.875h-9a6.757 6.757 0 0 1-6.75-6.75 2.25 2.25 0 0 1 4.5 0 2.252 2.252 0 0 0 2.25 2.25h9a2.252 2.252 0 0 0 2.25-2.25 2.25 2.25 0 0 1 4.5 0 6.757 6.757 0 0 1-6.75 6.75m-12.75 1.5 1.036-2.071m15.464 2.071-1.036-2.071" class="cls-1"/><path d="m19.944 11.139-.8-5.97a3 3 0 0 0-2.966-2.544H7.824a3 3 0 0 0-2.965 2.544l-.8 5.97" class="cls-1"/><path d="M15.75 12.375v-1.5a1.5 1.5 0 0 0-1.5-1.5h-4.5a1.5 1.5 0 0 0-1.5 1.5v1.5" class="cls-1"/></svg>