<svg xmlns="http://www.w3.org/2000/svg" id="Regular" width="24" height="24" viewBox="0 0 24 24"><defs><style>.cls-1{fill:none;stroke:#000;stroke-linecap:round;stroke-linejoin:round;stroke-width:1.5px}</style></defs><path d="M15 8.25v-4.5H9v4.5a6.582 6.582 0 0 0-4.5 6.243v7.257a1.5 1.5 0 0 0 1.5 1.5h12a1.5 1.5 0 0 0 1.5-1.5v-7.257A6.582 6.582 0 0 0 15 8.25m1.5-6a1.5 1.5 0 0 1-1.5 1.5H9a1.5 1.5 0 0 1 0-3h6a1.5 1.5 0 0 1 1.5 1.5" class="cls-1"/><rect width="6" height="4.5" x="9" y="12.75" class="cls-1" rx=".75" ry=".75"/></svg>