<svg xmlns="http://www.w3.org/2000/svg" id="Regular" width="24" height="24" viewBox="0 0 24 24"><defs><style>.cls-1{fill:none;stroke:#000;stroke-linecap:round;stroke-linejoin:round;stroke-width:1.5px}</style></defs><path d="M13.908 2.25a.375.375 0 1 1-.375.375.375.375 0 0 1 .375-.375m3 9.75a.375.375 0 1 1-.375.375.375.375 0 0 1 .375-.375m-2.25 3a.375.375 0 1 1-.375.375.375.375 0 0 1 .375-.375m1.5 3.75a.375.375 0 1 1-.375.375.375.375 0 0 1 .375-.375m3.375-18a.375.375 0 1 1-.375.375.375.375 0 0 1 .375-.375" class="cls-1"/><path d="M19.647 21.875a1.5 1.5 0 0 1-1.494 1.375h-8.49a1.5 1.5 0 0 1-1.5-1.375L6.851 6.062A.752.752 0 0 1 7.6 5.25h12.62a.75.75 0 0 1 .747.812z" class="cls-1"/><path d="m3.033.75 3.78.473A3 3 0 0 1 9.4 3.706L12.033 19.5M7.158 9.75h13.5" class="cls-1"/></svg>