<svg xmlns="http://www.w3.org/2000/svg" width="24" height="24" viewBox="0 0 24 24"><defs><style>.a{fill:none;stroke:#000;stroke-linecap:round;stroke-linejoin:round;stroke-width:1.5px}</style></defs><path d="M.75 21.75V18l2.641-7.263A1.5 1.5 0 0 1 4.8 9.75h6.45v12" class="a"/><circle cx="6" cy="21" r="2.25" class="a"/><circle cx="18" cy="21" r="2.25" class="a"/><path d="M11.25 21.75h1.5m1.778-9.804 1.222 3.8h6a1.5 1.5 0 0 1 1.5 1.5v4.5" class="a"/><path d="M22.5 10.773a6.75 6.75 0 0 1-9.546-9.546z" class="a"/><circle cx="21.75" cy="2.25" r="1.5" class="a"/><path d="m20.689 3.311-2.825 2.825M8.25 9.75v4.5a1.5 1.5 0 0 1-1.5 1.5h-5.1" class="a"/></svg>