<svg xmlns="http://www.w3.org/2000/svg" width="24" height="24" viewBox="0 0 24 24"><defs><style>.a{fill:none;stroke:#000;stroke-linecap:round;stroke-linejoin:round;stroke-width:1.5px}</style></defs><path d="M5.14 3.86a.375.375 0 1 0 0 .53.374.374 0 0 0 0-.53m14.25 0a.375.375 0 1 0 0 .53.374.374 0 0 0 0-.53m0 15.75a.375.375 0 1 0 0 .53.374.374 0 0 0 0-.53m-14.25 0a.375.375 0 1 0 0 .53.374.374 0 0 0 0-.53" class="a"/><rect width="21" height="22.5" x="1.5" y=".75" class="a" rx="1.5" ry="1.5"/><circle cx="12" cy="12" r="6.75" class="a"/><circle cx="12" cy="12" r="2.25" class="a"/></svg>