<svg xmlns="http://www.w3.org/2000/svg" width="24" height="24" viewBox="0 0 24 24"><defs><style>.a{fill:none;stroke:#000;stroke-linecap:round;stroke-linejoin:round;stroke-width:1.5px}</style></defs><circle cx="6" cy="12.75" r="2.25" class="a"/><circle cx="6" cy="6" r="1.5" class="a"/><rect width="10.5" height="17.25" x=".75" y=".75" class="a" rx="2" ry="2"/><path d="M6 18v5.25m-2.25 0h4.5" class="a"/><circle cx="18" cy="12.75" r="2.25" class="a"/><circle cx="18" cy="6" r="1.5" class="a"/><path d="M13.629 1.629A2.991 2.991 0 0 1 15.75.75h4.5a3 3 0 0 1 3 3V15a3 3 0 0 1-3 3h-4.5a2.991 2.991 0 0 1-2.121-.879M18 18v5.25m-2.25 0h4.5" class="a"/></svg>