<svg xmlns="http://www.w3.org/2000/svg" width="24" height="24" viewBox="0 0 24 24"><defs><style>.a{fill:none;stroke:#000;stroke-linecap:round;stroke-linejoin:round;stroke-width:1.5px}</style></defs><circle cx="13.875" cy="10.294" r="1.875" class="a"/><circle cx="21.375" cy="8.044" r="1.875" class="a"/><path d="M15.75 10.294V3.5a1.5 1.5 0 0 1 1.026-1.423l4.5-1.25A1.5 1.5 0 0 1 23.25 2.25v5.794" class="a"/><path d="M17.25 14.25v7.5a1.5 1.5 0 0 1-1.5 1.5H2.25a1.5 1.5 0 0 1-1.5-1.5V2.25a1.5 1.5 0 0 1 1.5-1.5h10.5m1.482 14.686A5.25 5.25 0 1 1 9 9.75" class="a"/><circle cx="9" cy="15" r="1.5" class="a"/><circle cx="9" cy="5.25" r="1.5" class="a"/></svg>