<svg xmlns="http://www.w3.org/2000/svg" id="Regular" width="24" height="24" viewBox="0 0 24 24"><defs><style>.cls-1{fill:none;stroke:#000;stroke-linecap:round;stroke-linejoin:round;stroke-width:1.5px}</style></defs><path d="M21.851 10.5a9.75 9.75 0 1 0-16.5 7.026V21a2.25 2.25 0 0 0 4.5 0 2.25 2.25 0 0 0 4.5 0 2.25 2.25 0 0 0 4.5 0v-3.474a9.714 9.714 0 0 0 3-7.026" class="cls-1"/><circle cx="7.601" cy="10.5" r="2.25" class="cls-1"/><path d="M12.101 15.75v1.5M2.351.75l-1.5 1.5m.75-.75 2.901 2.901" class="cls-1"/><rect width="4.5" height="4.5" x="14.351" y="8.25" class="cls-1" rx=".75" ry=".75" transform="rotate(-45 16.6 10.5)"/><path d="m18.851.75-1.2 1.734m5.498 3.705-1.965.767m.212-3.82-1.653 1.309" class="cls-1"/></svg>