<svg xmlns="http://www.w3.org/2000/svg" width="24" height="24" viewBox="0 0 24 24"><defs><style>.a{fill:none;stroke:#000;stroke-linecap:round;stroke-linejoin:round;stroke-width:1.5px}</style></defs><path d="M22.125 15.789H1.875a.749.749 0 0 1-.727-.568l-.375-1.5a.749.749 0 0 1 .727-.932h21a.749.749 0 0 1 .727.932l-.375 1.5a.749.749 0 0 1-.727.568M3 15.789l-1.5 7.5m19.5-7.5 1.5 7.5m-8.25-10.5a3 3 0 0 1 6 0" class="a"/><path d="M15 2.289a2.25 2.25 0 0 1 2.25 2.25v5.25" class="a"/><path d="M10.824 1.539a3 3 0 0 1 3.426 4.926zm-.351 11.25H3.75a1.5 1.5 0 0 1 0-3h6.723m-1.5 0v3m1.5-3H3.75a1.5 1.5 0 0 1 0-3h6.723m-1.5 0v3" class="a"/></svg>