<svg xmlns="http://www.w3.org/2000/svg" width="24" height="24" viewBox="0 0 24 24"><defs><style>.a{fill:none;stroke:#000;stroke-linecap:round;stroke-linejoin:round;stroke-width:1.5px}</style></defs><path d="M12 .8a9 9 0 0 1 9 9c0 7.9-6.932 12.331-8.629 13.3a.751.751 0 0 1-.743 0C9.931 22.132 3 17.7 3 9.8a9 9 0 0 1 9-9" class="a"/><path d="M7.955 9.829a.75.75 0 0 1 .058-1.4l6.251-2.084a.75.75 0 0 1 .949.949l-2.084 6.251a.75.75 0 0 1-1.4.059l-1.014-2.366a.748.748 0 0 0-.394-.394z" class="a"/></svg>