<svg xmlns="http://www.w3.org/2000/svg" width="24" height="24" viewBox="0 0 24 24"><defs><style>.a{fill:none;stroke:#000;stroke-linecap:round;stroke-linejoin:round;stroke-width:1.5px}</style></defs><path d="M12 .8a9 9 0 0 1 9 9c0 7.9-6.932 12.331-8.629 13.3a.751.751 0 0 1-.743 0C9.931 22.132 3 17.7 3 9.8a9 9 0 0 1 9-9m3.482 10.149a.376.376 0 0 1 .451.28m-.733.171a.375.375 0 0 1 .279-.451m.175.73a.374.374 0 0 1-.454-.279m.733-.171a.375.375 0 0 1-.279.45m-6.013.643a.375.375 0 0 1 .451.28m-.73.171a.376.376 0 0 1 .279-.451m.172.73a.374.374 0 0 1-.451-.279m.73-.173a.375.375 0 0 1-.279.45" class="a"/><path d="m6.228 9.273.772.932a.751.751 0 0 0 .748.25l8.589-2.019a.749.749 0 0 0 .558-.557l.28-1.181" class="a"/></svg>