<svg xmlns="http://www.w3.org/2000/svg" width="24" height="24" viewBox="0 0 24 24"><defs><style>.a{fill:none;stroke:#000;stroke-linecap:round;stroke-linejoin:round;stroke-width:1.5px}</style></defs><path d="M16.875 10.129A4.875 4.875 0 1 0 9 13.945v.309a1.5 1.5 0 0 0 1.5 1.5h3a1.5 1.5 0 0 0 1.5-1.5v-.309a4.845 4.845 0 0 0 1.875-3.816m-6.75 0a.375.375 0 0 1 .375.375m-.75-.004a.375.375 0 0 1 .375-.375m0 .754a.375.375 0 0 1-.375-.379m.75 0a.375.375 0 0 1-.375.375m3.75-.746a.375.375 0 0 1 .375.375m-.75-.004a.375.375 0 0 1 .375-.375m0 .754a.375.375 0 0 1-.375-.379m.75 0a.375.375 0 0 1-.375.375M12 14.254v1.5" class="a"/><path d="M21 9.754c0 7.9-6.932 12.331-8.629 13.3a.749.749 0 0 1-.743 0C9.931 22.084 3 17.652 3 9.754a9 9 0 0 1 18 0" class="a"/></svg>