<svg xmlns="http://www.w3.org/2000/svg" width="24" height="24" viewBox="0 0 24 24"><defs><style>.a{fill:none;stroke:#000;stroke-linecap:round;stroke-linejoin:round;stroke-width:1.5px}</style></defs><path d="M12 .8a9 9 0 0 1 9 9c0 7.9-6.932 12.331-8.629 13.3a.751.751 0 0 1-.743 0C9.931 22.132 3 17.7 3 9.8a9 9 0 0 1 9-9m-.188 10.834a.374.374 0 0 1 .375.375m-.75 0a.375.375 0 0 1 .375-.375m0 .75a.375.375 0 0 1-.375-.375m.75 0a.374.374 0 0 1-.375.375" class="a"/><rect width="9" height="6" x="7.312" y="9.009" class="a" rx=".25" ry=".25"/><path d="M8.812 9.009v-1.5a3 3 0 0 1 6 0v1.5" class="a"/></svg>