<svg xmlns="http://www.w3.org/2000/svg" width="24" height="24" viewBox="0 0 24 24"><defs><style>.a{fill:none;stroke:#000;stroke-linecap:round;stroke-linejoin:round;stroke-width:1.5px}</style></defs><path d="M17.125 8.625a4.875 4.875 0 1 0-7.875 3.816v.309a1.5 1.5 0 0 0 1.5 1.5h3a1.5 1.5 0 0 0 1.5-1.5v-.309a4.845 4.845 0 0 0 1.875-3.816m-6.75 0A.375.375 0 0 1 10.75 9M10 9a.375.375 0 0 1 .375-.375m0 .75A.375.375 0 0 1 10 9m.75 0a.375.375 0 0 1-.375.375m3.75-.75A.375.375 0 0 1 14.5 9m-.75 0a.375.375 0 0 1 .375-.375m0 .75A.375.375 0 0 1 13.75 9m.75 0a.375.375 0 0 1-.375.375M12.25 12.75v1.5" class="a"/><path d="M21.25 9.75a9 9 0 1 0-10.8 8.82l1.8 4.68 1.8-4.68a9 9 0 0 0 7.2-8.82" class="a"/></svg>