<svg xmlns="http://www.w3.org/2000/svg" width="24" height="24" viewBox="0 0 24 24"><defs><style>.a{fill:none;stroke:#000;stroke-linecap:round;stroke-linejoin:round;stroke-width:1.5px}</style></defs><circle cx="11.5" cy="7.5" r="6.75" class="a"/><circle cx="11.5" cy="7.5" r="3" class="a"/><path d="M10 17.25a2.25 2.25 0 0 0-2.25 2.25v2.25" class="a"/><circle cx="9.25" cy="21.75" r="1.5" class="a"/><path d="M2.5 18.362a1.5 1.5 0 1 1 1.449 1.888 1.5 1.5 0 1 1-1.445 1.9M16 21.75a1.5 1.5 0 0 1-3 0v-3a1.5 1.5 0 0 1 3 0zm3.75-4.5v3h3" class="a"/><path d="M19.75 19.926A5.457 5.457 0 0 0 22 15.75a5.245 5.245 0 0 0-1.822-3.8m-17.356-.001A5.245 5.245 0 0 0 1 15.75" class="a"/></svg>