<svg xmlns="http://www.w3.org/2000/svg" width="24" height="24" viewBox="0 0 24 24"><path d="M15.25 13.442a4.781 4.781 0 0 1 4.5 0s.75.75 3 0c0 3.75 0 6.75-5.25 6.75-3.75 0-6-1.5-6-4.5 0-2.25 2.056-3.963 4.5-6 4.5-3.75.75-7.5-1.5-5.25-1.5 1.5 0 3-1.5 3.75m-5.25 5.25a4.781 4.781 0 0 0-4.5 0s-.75.75-3 0c0 3.75 0 6.75 5.25 6.75 3.75 0 6-1.5 6-4.5 0-2.25-2.056-3.963-4.5-6-4.5-3.75-.75-7.5 1.5-5.25 1.5 1.5 0 3 1.5 3.75" style="fill:none;stroke:#000;stroke-linecap:round;stroke-linejoin:round;stroke-width:1.5px"/></svg>