<svg xmlns="http://www.w3.org/2000/svg" id="Regular" width="24" height="24" viewBox="0 0 24 24"><defs><style>.cls-1{fill:none;stroke:#000;stroke-linecap:round;stroke-linejoin:round;stroke-width:1.5px}</style></defs><path d="M.75 18h10.5v5.25" class="cls-1"/><circle cx="13.5" cy="4.875" r="2.625" class="cls-1"/><path d="m3.214 14.978 1.648-2.745L1.19 8.561A1.5 1.5 0 0 1 2.25 6h3.085L3.28 3.122a1.5 1.5 0 0 1 2.441-1.744l3.75 5.25A1.5 1.5 0 0 1 8.25 9H5.871l1.94 1.939a1.5 1.5 0 0 1 .225 1.833l-1.323 2.206m4.537 8.272a3.732 3.732 0 0 0 3-1.521 3.719 3.719 0 0 0 6 0 3.735 3.735 0 0 0 3 1.521" class="cls-1"/></svg>