<svg xmlns="http://www.w3.org/2000/svg" width="24" height="24" viewBox="0 0 24 24"><defs><style>.a{fill:none;stroke:#000;stroke-linecap:round;stroke-linejoin:round;stroke-width:1.5px}</style></defs><path d="m12.751 7.454-1.032 1.032a3 3 0 0 0 4.242 4.243l1.267-1.267m-5.509 1.267-3.386 3.385m.204-3.385 3.182 3.182" class="a"/><circle cx="18.244" cy="5.45" r="1.445" class="a"/><path d="M21.705.75h-9.374a1.546 1.546 0 0 0-1.127.487L1.168 11.908a1.536 1.536 0 0 0 .11 2.212l10.031 8.749a1.549 1.549 0 0 0 2.146-.108l9.379-10.017a1.538 1.538 0 0 0 .416-1.051V2.29A1.542 1.542 0 0 0 21.705.75" class="a"/></svg>