<svg xmlns="http://www.w3.org/2000/svg" width="24" height="24" viewBox="0 0 24 24"><defs><style>.a{fill:none;stroke:#000;stroke-linecap:round;stroke-linejoin:round;stroke-width:1.5px}</style></defs><path d="m13.354 11.233-1.438 1.438a1.342 1.342 0 0 0 1.478 2.182l2.042-.876a1.342 1.342 0 0 1 1.477 2.182L15.476 17.6m-3.182-5.306-.531-.531m5.304 5.303-.531-.53" class="a"/><path d="m4.183 7.605-.546 3.888a1.5 1.5 0 0 0 .439 1.068l9.5 9.5a1.5 1.5 0 0 0 2.122 0l6.363-6.361a1.5 1.5 0 0 0 0-2.121l-9.623-9.626a1.5 1.5 0 0 0-1.1-.439L7.5 4.122" class="a"/><circle cx="8.442" cy="8.442" r="1.5" class="a"/><path d="M7.382 7.382 1.5 1.5" class="a"/></svg>