<svg xmlns="http://www.w3.org/2000/svg" width="24" height="24" viewBox="0 0 24 24"><path d="M3.218 4.937a11.252 11.252 0 0 1 17.569.068M3 18.75a11.225 11.225 0 0 0 17.958.023M1.5 15.75v-6A1.5 1.5 0 0 1 3 8.25h1.5m-3 4.5h2.25m3.75 3v-7.5m0 0h1.125a1.875 1.875 0 0 1 0 3.75H7.5m3 3.75L8.25 12m8.25 3.75H15a1.5 1.5 0 0 1-1.5-1.5v-4.5a1.5 1.5 0 0 1 1.5-1.5h1.5m-3 4.5h3m6 3H21a1.5 1.5 0 0 1-1.5-1.5v-4.5a1.5 1.5 0 0 1 1.5-1.5h1.5m-3 4.5h3" style="fill:none;stroke:#000;stroke-linecap:round;stroke-linejoin:round;stroke-width:1.5px"/></svg>