<svg xmlns="http://www.w3.org/2000/svg" width="24" height="24" viewBox="0 0 24 24"><defs><style>.a{fill:none;stroke:#000;stroke-linecap:round;stroke-linejoin:round;stroke-width:1.5px}</style></defs><path d="M9.75 19.188a1.5 1.5 0 0 1-2.121 0L2.25 13.81a1.5 1.5 0 0 1 0-2.122l10.5-10.5a1.5 1.5 0 0 1 1.061-.439h5.378a1.5 1.5 0 0 1 1.5 1.5v5.379a1.5 1.5 0 0 1-.439 1.06" class="a"/><path d="M17.314 4.5a.375.375 0 0 0-.375-.375.375.375 0 1 0 .375.375" class="a"/><rect width="9" height="7.5" x="13.189" y="15.749" class="a" rx="1.5" ry="1.5"/><path d="M17.689 11.249a3 3 0 0 0-3 3v1.5h6v-1.5a3 3 0 0 0-3-3m0 7.904a.375.375 0 1 0 .375.375.375.375 0 0 0-.375-.375" class="a"/></svg>