<svg xmlns="http://www.w3.org/2000/svg" width="24" height="24" viewBox="0 0 24 24"><defs><style>.a{fill:none;stroke:#000;stroke-linecap:round;stroke-linejoin:round;stroke-width:1.5px}</style></defs><path d="M16.125 4.124a.375.375 0 1 0 .375.376.375.375 0 0 0-.375-.375" class="a"/><path d="M9 19.188a1.5 1.5 0 0 1-2.121 0L1.5 13.81a1.5 1.5 0 0 1 0-2.122L12 1.188a1.5 1.5 0 0 1 1.061-.439h5.378a1.5 1.5 0 0 1 1.5 1.5v5.379a1.5 1.5 0 0 1-.439 1.06" class="a"/><circle cx="16.939" cy="17.249" r="6" class="a"/><path d="M16.939 20.249v-6m0 0-2.25 2.25m2.25-2.25 2.25 2.25" class="a"/></svg>