<svg xmlns="http://www.w3.org/2000/svg" width="24" height="24" viewBox="0 0 24 24"><defs><style>.a{fill:none;stroke:#000;stroke-linecap:round;stroke-linejoin:round;stroke-width:1.5px}</style></defs><path d="M9 19.188a1.5 1.5 0 0 1-2.121 0L1.5 13.81a1.5 1.5 0 0 1 0-2.122L12 1.188a1.5 1.5 0 0 1 1.061-.439h5.378a1.5 1.5 0 0 1 1.5 1.5v5.379a1.5 1.5 0 0 1-.439 1.06" class="a"/><path d="M16.189 4.124a.375.375 0 1 0 .375.375.375.375 0 0 0-.375-.375" class="a"/><circle cx="13.189" cy="17.999" r="2.25" class="a"/><circle cx="20.689" cy="20.999" r="2.25" class="a"/><circle cx="20.689" cy="13.499" r="2.25" class="a"/><path d="m15.114 16.844 3.65-2.19m-3.487 4.18 3.325 1.33" class="a"/></svg>