<svg xmlns="http://www.w3.org/2000/svg" width="24" height="24" viewBox="0 0 24 24"><defs><style>.a{fill:none;stroke:#000;stroke-linecap:round;stroke-linejoin:round;stroke-width:1.5px}</style></defs><path d="M15.75 12.75H13.5l-1.5-3H6l-1.5 3H2.25a1.5 1.5 0 0 0-1.5 1.5v7.5a1.5 1.5 0 0 0 1.5 1.5h13.5a1.5 1.5 0 0 0 1.5-1.5v-7.5a1.5 1.5 0 0 0-1.5-1.5" class="a"/><circle cx="9" cy="17.25" r="3" class="a"/><path d="M20.25 14.25h1.5a1.5 1.5 0 0 0 1.5-1.5v-7.5a1.5 1.5 0 0 0-1.5-1.5H19.5l-1.5-3h-6l-1.5 3H8.25a1.5 1.5 0 0 0-1.5 1.5v1.5m5.685-.057a3 3 0 1 1 4.549 3.807" class="a"/></svg>