<svg xmlns="http://www.w3.org/2000/svg" width="24" height="24" viewBox="0 0 24 24"><defs><style>.a{fill:none;stroke:#000;stroke-linecap:round;stroke-linejoin:round;stroke-width:1.5px}</style></defs><rect width="13.5" height="16.5" x="9.75" y="6.761" class="a" rx="1" ry="1"/><path d="M9.75 20.261h-3a1.5 1.5 0 0 1-1.5-1.5v-13.5a1.5 1.5 0 0 1 1.5-1.5h10.5a1.5 1.5 0 0 1 1.5 1.5v1.5" class="a"/><path d="M5.25 17.261h-3a1.5 1.5 0 0 1-1.5-1.5v-13.5a1.5 1.5 0 0 1 1.5-1.5h10.5a1.5 1.5 0 0 1 1.5 1.5v1.5m3 7.5h3m-7.5-.75.75.75 1.5-1.5m2.25 6h3m-7.5-.75.75.75 1.5-1.5m2.25 6h3m-7.5-.75.75.75 1.5-1.5" class="a"/></svg>