<svg xmlns="http://www.w3.org/2000/svg" id="Regular" width="24" height="24" viewBox="0 0 24 24"><defs><style>.cls-1{fill:none;stroke:#000;stroke-linecap:round;stroke-linejoin:round;stroke-width:1.5px}</style></defs><path d="M3 9.75h12a1.5 1.5 0 0 1 1.5 1.5v4.5a7.5 7.5 0 0 1-7.5 7.5 7.5 7.5 0 0 1-7.5-7.5v-4.5A1.5 1.5 0 0 1 3 9.75" class="cls-1"/><path d="M16.5 11.25H18a4.513 4.513 0 0 1 4.5 4.5 4.513 4.513 0 0 1-4.5 4.5h-3m-6.75-6v-4.5m6-9c1.437 2.873-2.9 3.881-.75 6.75M9.75.75C11.187 3.623 6.849 4.631 9 7.5M5.25.75c1.437 2.873-2.9 3.881-.75 6.75" class="cls-1"/><rect width="4.5" height="4.5" x="6" y="14.25" class="cls-1" rx=".5" ry=".5"/></svg>