<svg xmlns="http://www.w3.org/2000/svg" id="Regular" width="24" height="24" viewBox="0 0 24 24"><defs><style>.cls-1{fill:none;stroke:#000;stroke-linecap:round;stroke-linejoin:round;stroke-width:1.5px}</style></defs><rect width="18" height="3" x=".75" y="5.25" class="cls-1" rx="1.5" ry="1.5"/><path d="M7.5 23.25H5.093A1.5 1.5 0 0 1 3.6 21.916L2.25 8.25h15" class="cls-1"/><path d="M2.715 12.947a3.865 3.865 0 0 1 1.035-.2 3 3 0 0 1 0 6c-.1 0-.363-.024-.465-.035M.75.75l4.5 4.5m5.308 18 11.343-11.343m-5.614 1.833.299 3.481 3.482.3m-6.963-.599.299 3.481 3.482.3m2.583-10.145.299 3.481 3.482.3" class="cls-1"/></svg>