<svg xmlns="http://www.w3.org/2000/svg" width="24" height="24" viewBox="0 0 24 24"><defs><style>.a{fill:none;stroke:#000;stroke-linecap:round;stroke-linejoin:round;stroke-width:1.5px}</style></defs><path d="M12 .75v1.5m-7.5 6h1.607m13.393 0h-1.607M5.814 3.35l1.365 1.364M18.186 3.35l-1.365 1.364M15.75 8.25a3.75 3.75 0 1 0-5.25 3.433V13.5h3v-1.817a3.746 3.746 0 0 0 2.25-3.433m-5.25 7.5h3" class="a"/><circle cx="19.026" cy="16.875" r="2.625" class="a"/><path d="M23.25 23.25a4.474 4.474 0 0 0-8.449 0" class="a"/><circle cx="4.974" cy="16.875" r="2.625" class="a"/><path d="M9.2 23.25a4.474 4.474 0 0 0-8.449 0" class="a"/></svg>