<svg xmlns="http://www.w3.org/2000/svg" width="24" height="24" viewBox="0 0 24 24"><defs><style>.a{fill:none;stroke:#000;stroke-linecap:round;stroke-linejoin:round;stroke-width:1.5px}</style></defs><circle cx="4.974" cy="15.75" r="3" class="a"/><path d="M9.2 23.25a4.474 4.474 0 0 0-8.449 0m20.49-8.661a3 3 0 0 1-5.193 2.927M22.7 23.25a4.474 4.474 0 0 0-8.449 0M21 .75h.75a1.5 1.5 0 0 1 1.5 1.5v8.25a1.5 1.5 0 0 1-1.5 1.5h-4.5l-4.5 4.5V12h-3a1.5 1.5 0 0 1-1.5-1.5V2.25a1.5 1.5 0 0 1 1.5-1.5h1.5" class="a"/><path d="M15.749 6.375a.375.375 0 1 1-.375.375.375.375 0 0 1 .375-.375" class="a"/><rect width="7.5" height="6" x="11.999" y="3.75" class="a" rx=".25" ry=".25"/><path d="M13.749 3.75v-1a2 2 0 1 1 4 0v1" class="a"/></svg>