<svg xmlns="http://www.w3.org/2000/svg" width="24" height="24" viewBox="0 0 24 24"><defs><style>.a{fill:none;stroke:#000;stroke-linecap:round;stroke-linejoin:round;stroke-width:1.5px}</style></defs><path d="M10.509 23.25a28.433 28.433 0 0 0-4.177-1.734c-.7-.259-.585-2.087-.275-2.428a5.164 5.164 0 0 0 1.345-4 3.376 3.376 0 0 0-3.278-3.7 3.376 3.376 0 0 0-3.277 3.7 5.16 5.16 0 0 0 1.345 4c.31.341.425 2.169-.275 2.428l-1.168.431m22.333-7.691a4.865 4.865 0 0 1 .07.828 5.164 5.164 0 0 1-1.345 4c-.31.341-.425 2.169.275 2.428l1.168.431m-9.75 1.301a28.745 28.745 0 0 1 4.166-1.728c.7-.259.586-2.087.276-2.428a4.575 4.575 0 0 1-1.261-2.694M21 .75h.75a1.5 1.5 0 0 1 1.5 1.5v8.25a1.5 1.5 0 0 1-1.5 1.5h-4.5l-4.5 4.5V12h-3a1.5 1.5 0 0 1-1.5-1.5V2.25a1.5 1.5 0 0 1 1.5-1.5h1.5" class="a"/><path d="M15.75 6.375a.375.375 0 1 1-.375.375.375.375 0 0 1 .375-.375" class="a"/><rect width="7.5" height="6" x="12" y="3.75" class="a" rx=".25" ry=".25"/><path d="M13.75 3.75v-1a2 2 0 0 1 4 0v1" class="a"/></svg>