<svg xmlns="http://www.w3.org/2000/svg" width="24" height="24" viewBox="0 0 24 24"><defs><style>.a{fill:none;stroke:#000;stroke-linecap:round;stroke-linejoin:round;stroke-width:1.5px}</style></defs><circle cx="4.973" cy="16.875" r="2.625" class="a"/><path d="M9.2 23.25a4.474 4.474 0 0 0-8.449 0M9 9.75V12L6 9.75H2.249a1.5 1.5 0 0 1-1.5-1.5v-6a1.5 1.5 0 0 1 1.5-1.5H10.5" class="a"/><path d="m3.749 5.25 1.5 1.5 3.75-3" class="a"/><circle cx="19.025" cy="16.875" r="2.625" class="a"/><path d="M14.8 23.25a4.474 4.474 0 0 1 8.449 0M13.5 12h.75v2.25l3-2.25h4.5a1.5 1.5 0 0 0 1.5-1.5v-6a1.5 1.5 0 0 0-1.5-1.5H13.5A1.5 1.5 0 0 0 12 4.5v6a1.5 1.5 0 0 0 1.5 1.5m5.999-3-3.75-3m0 3 3.75-3" class="a"/></svg>