<svg xmlns="http://www.w3.org/2000/svg" id="Regular" width="24" height="24" viewBox="0 0 24 24"><defs><style>.cls-1{fill:none;stroke:#000;stroke-linecap:round;stroke-linejoin:round;stroke-width:1.5px}</style></defs><rect width="7.5" height="7.5" x="8.25" y="8.25" class="cls-1" rx="1" ry="1" transform="rotate(45 12 12)"/><path d="m13.061 7.757 1.591-1.591m1.591 4.773 1.591-1.591M6.166 14.652l1.591-1.591m1.591 4.773 1.591-1.591m5.304-3.182 1.591 1.591m-4.773 1.591 1.591 1.591M9.348 6.166l1.591 1.591M6.166 9.348l1.591 1.591m-3.75.568-1.5 1.5a6 6 0 0 0 8.486 8.486l1.5-1.5m-.986-15.986 1.5-1.5a6 6 0 0 1 8.486 8.486l-1.5 1.5" class="cls-1"/></svg>