<svg xmlns="http://www.w3.org/2000/svg" id="Regular" width="24" height="24" viewBox="0 0 24 24"><defs><style>.cls-1{fill:none;stroke:#000;stroke-linecap:round;stroke-linejoin:round;stroke-width:1.5px}</style></defs><path d="m1 7 2.25-2.25L5.5 7M3.25 4.75V17.5M1 3.25h4.5" class="cls-1"/><circle cx="15.25" cy="12.25" r="8.25" class="cls-1"/><path d="M11.875 8.5a.375.375 0 0 1 .375.375m-.75 0a.375.375 0 0 1 .375-.375m0 .75a.375.375 0 0 1-.375-.375m.75 0a.375.375 0 0 1-.375.375m5.625 0a3 3 0 0 0-3 3v1.5a3 3 0 0 0 3 3" class="cls-1"/></svg>