<svg xmlns="http://www.w3.org/2000/svg" id="Regular" width="24" height="24" viewBox="0 0 24 24"><defs><style>.cls-1{fill:none;stroke:#000;stroke-linecap:round;stroke-linejoin:round;stroke-width:1.5px}</style></defs><path d="M12.75 18.75h1.5m3 0h1.5m3 0h1.5m-12-12.587 3.094 3.106a.773.773 0 0 0 .728.223l3.4-.781a.786.786 0 0 1 .77.268l3.94 4.521M8.25 15.418V3.75a3 3 0 0 0-6 0v11.668a4.493 4.493 0 1 0 7.5 3.332 4.472 4.472 0 0 0-1.5-3.332m-3-11.668v13.5" class="cls-1"/><circle cx="5.25" cy="18.75" r="1.5" class="cls-1"/></svg>