<svg xmlns="http://www.w3.org/2000/svg" id="Regular" width="24" height="24" viewBox="0 0 24 24"><defs><style>.cls-1{fill:none;stroke:#000;stroke-linecap:round;stroke-linejoin:round;stroke-width:1.5px}</style></defs><path d="M.75 16.5 3 18.75l2.25-2.25M3 18.75V6M.75 20.25h4.5" class="cls-1"/><circle cx="15" cy="12" r="8.25" class="cls-1"/><path d="M11.625 8.25a.375.375 0 0 1 .375.375m-.75 0a.375.375 0 0 1 .375-.375m0 .75a.375.375 0 0 1-.375-.375m.75 0a.375.375 0 0 1-.375.375m2.625 7.5v-6a1.5 1.5 0 0 1 1.5-1.5h1.5m-3 4.5h2.25" class="cls-1"/></svg>