<svg xmlns="http://www.w3.org/2000/svg" id="Regular" width="24" height="24" viewBox="0 0 24 24"><defs><style>.cls-1{fill:none;stroke:#000;stroke-linecap:round;stroke-linejoin:round;stroke-width:1.5px}</style></defs><path d="M10.5 20.25H6.75a3 3 0 0 1-3-3V13.5" class="cls-1"/><path d="m8.25 18 2.25 2.25-2.25 2.25m6.033-18.75h3.75A2.945 2.945 0 0 1 21 6.717V10.5" class="cls-1"/><path d="m16.5 6-2.217-2.25L16.5 1.5" class="cls-1"/><circle cx="15.75" cy="14.25" r="1.5" class="cls-1"/><path d="M20.25 23.25v-6a1.5 1.5 0 0 1 1.5-1.5h1.5m-3 4.5h2.25" class="cls-1"/><circle cx="2.25" cy="2.25" r="1.5" class="cls-1"/><path d="M9 2.25a3 3 0 0 0-3 3v1.5a3 3 0 0 0 3 3" class="cls-1"/></svg>