<svg xmlns="http://www.w3.org/2000/svg" id="Regular" width="24" height="24" viewBox="0 0 24 24"><defs><style>.cls-1{fill:none;stroke:#000;stroke-linecap:round;stroke-linejoin:round;stroke-width:1.5px}</style></defs><path d="M1 6.75 3.25 4.5 5.5 6.75M3.25 4.5v12.75M1 3h4.5" class="cls-1"/><circle cx="15.25" cy="12" r="8.25" class="cls-1"/><path d="M11.875 8.25a.375.375 0 0 1 .375.375m-.75 0a.375.375 0 0 1 .375-.375m0 .75a.375.375 0 0 1-.375-.375m.75 0a.375.375 0 0 1-.375.375m2.625 7.5v-6A1.5 1.5 0 0 1 16 9h1.5m-3 4.5h2.25" class="cls-1"/></svg>