<svg xmlns="http://www.w3.org/2000/svg" id="Regular" width="24" height="24" viewBox="0 0 24 24"><defs><style>.cls-1{fill:none;stroke:#000;stroke-linecap:round;stroke-linejoin:round;stroke-width:1.5px}</style></defs><path d="M8.5 15.418V3.75a3 3 0 0 0-6 0v11.668A4.493 4.493 0 1 0 10 18.75a4.472 4.472 0 0 0-1.5-3.332M5.5 5.25v12" class="cls-1"/><circle cx="5.5" cy="18.75" r="1.5" class="cls-1"/><circle cx="14.5" cy="11.25" r="3" class="cls-1"/><path d="M14.5 3v5.25M12.25 4.5 14.5 6l2.25-1.5m6 6.75H17.5M21.25 9l-1.5 2.25 1.5 2.25m-6.75 6v-5.25M16.75 18l-2.25-1.5-2.25 1.5" class="cls-1"/></svg>