<svg xmlns="http://www.w3.org/2000/svg" id="Regular" width="24" height="24" viewBox="0 0 24 24"><defs><style>.cls-1{fill:none;stroke:#000;stroke-linecap:round;stroke-linejoin:round;stroke-width:1.5px}</style></defs><path d="M11.479 23.1a.814.814 0 0 0 1.05-.089L23.01 12.529a.815.815 0 0 0 .089-1.05 4.081 4.081 0 0 1 0-4.728.814.814 0 0 0-.089-1.051L18.3.989A.815.815 0 0 0 17.248.9a4.081 4.081 0 0 1-4.727 0 .816.816 0 0 0-1.05.089L.99 11.471a.816.816 0 0 0-.09 1.05 4.081 4.081 0 0 1 0 4.728.814.814 0 0 0 .09 1.051l4.71 4.711a.814.814 0 0 0 1.05.087 4.081 4.081 0 0 1 4.729.002" class="cls-1"/><rect width="9.792" height="11.424" x="7.104" y="6.288" class="cls-1" rx="1" ry="1" transform="rotate(45 12 12)"/><path d="m12.577 9.115-3.462 3.462m4.664-.048-1.078 1.078" class="cls-1"/></svg>