<svg xmlns="http://www.w3.org/2000/svg" width="24" height="24" viewBox="0 0 24 24"><defs><style>.a{fill:none;stroke:#000;stroke-linecap:round;stroke-linejoin:round;stroke-width:1.5px}</style></defs><path d="M19.5 3.75V1.5a.75.75 0 0 0-.75-.75H5.25a.75.75 0 0 0-.75.75v2.25a1.5 1.5 0 0 1 0 3V9a.75.75 0 0 0 .75.75h13.5A.75.75 0 0 0 19.5 9V6.75a1.5 1.5 0 0 1 0-3M9 3.75v3" class="a"/><circle cx="19.5" cy="15.75" r="2.25" class="a"/><path d="M15.75 23.25a3.75 3.75 0 0 1 7.5 0" class="a"/><circle cx="12" cy="15.75" r="2.25" class="a"/><path d="M8.25 23.25a3.75 3.75 0 0 1 7.5 0" class="a"/><circle cx="4.5" cy="15.75" r="2.25" class="a"/><path d="M.75 23.25a3.75 3.75 0 0 1 7.5 0" class="a"/></svg>