<svg xmlns="http://www.w3.org/2000/svg" width="24" height="24" viewBox="0 0 24 24"><defs><style>.a{fill:none;stroke:#000;stroke-linecap:round;stroke-linejoin:round;stroke-width:1.5px}</style></defs><path d="M15.75 15.75V13.5a.75.75 0 0 0-.75-.75H1.5a.75.75 0 0 0-.75.75v2.25a1.5 1.5 0 0 1 0 3V21a.75.75 0 0 0 .75.75H15a.75.75 0 0 0 .75-.75v-2.25a1.5 1.5 0 0 1 0-3m-10.5 0v3m3-9v-1.5a1.5 1.5 0 0 0 0-3V3A.75.75 0 0 1 9 2.25h13.5a.75.75 0 0 1 .75.75v2.25a1.5 1.5 0 0 0 0 3v2.25a.75.75 0 0 1-.75.75h-3.75m-6-6v3M23.25 15a3 3 0 0 1-3 3h-1.5m-18-9a3 3 0 0 1 3-3h1.5" class="a"/><path d="M3.75 4.5 5.25 6l-1.5 1.5m16.5 9-1.5 1.5 1.5 1.5" class="a"/></svg>