<svg xmlns="http://www.w3.org/2000/svg" width="24" height="24" viewBox="0 0 24 24"><defs><style>.a{fill:none;stroke:#000;stroke-linecap:round;stroke-linejoin:round;stroke-width:1.5px}</style></defs><path d="m16.728 7.522 1.897-1.897m-.375-.375L19 6m-8.25-.75V.75m2.25 0H8.5" class="a"/><path d="M10.75 5.25v18a9 9 0 0 0 0-18" style="fill:none;stroke:#000;stroke-linecap:round;stroke-linejoin:round;stroke-width:1.5px;fill-rule:evenodd"/><path d="M4.375 13.875a.375.375 0 1 0 .375.375.375.375 0 0 0-.375-.375m1.867 4.508a.375.375 0 0 0-.265.64.375.375 0 1 0 .53-.53.374.374 0 0 0-.265-.11m-.265-8.906a.374.374 0 1 0 .265-.11.374.374 0 0 0-.265.11m10.398 4.398a.375.375 0 1 0 .375.375.375.375 0 0 0-.375-.375m-1.648 3.978a.372.372 0 0 0-.265.11.375.375 0 1 0 .265-.11m0-7.953a.372.372 0 0 0-.265.11.375.375 0 1 0 .265-.11" class="a"/></svg>