<svg xmlns="http://www.w3.org/2000/svg" width="24" height="24" viewBox="0 0 24 24"><defs><style>.a{fill:none;stroke:#000;stroke-linecap:round;stroke-linejoin:round;stroke-width:1.5px}</style></defs><path d="m17.956 11.68 1.544 4.07h2.99a.735.735 0 0 1 .517 1.283l-2.6 1.816 1.44 3.313a.785.785 0 0 1-1.117.982l-3.48-1.961-3.48 1.961a.785.785 0 0 1-1.117-.982l1.44-3.313-2.6-1.816a.734.734 0 0 1 .514-1.283h3l1.541-4.07a.8.8 0 0 1 1.408 0M8.25 14.25a4.5 4.5 0 1 1 4.25-5.978" class="a"/><path d="M9.75 9.75h-1.5v-1.5" class="a"/><path d="M7.5 20.25H2.25a1.5 1.5 0 0 1-1.5-1.5V2.25a1.5 1.5 0 0 1 1.5-1.5h10.629a1.5 1.5 0 0 1 1.06.44l2.872 2.871a1.5 1.5 0 0 1 .439 1.061V7.5" class="a"/></svg>