<svg xmlns="http://www.w3.org/2000/svg" width="24" height="24" viewBox="0 0 24 24"><defs><style>.a{fill:none;stroke:#000;stroke-linecap:round;stroke-linejoin:round;stroke-width:1.5px}</style></defs><circle cx="17.25" cy="17.25" r="6" class="a"/><path d="M17.25 14.25v6m0 0L15 18m2.25 2.25L19.5 18M8.25 14.25a4.5 4.5 0 1 1 4.25-5.978" class="a"/><path d="M9.75 9.75h-1.5v-1.5" class="a"/><path d="M7.5 20.25H2.25a1.5 1.5 0 0 1-1.5-1.5V2.25a1.5 1.5 0 0 1 1.5-1.5h10.629a1.5 1.5 0 0 1 1.06.44l2.872 2.871a1.5 1.5 0 0 1 .439 1.061V7.5" class="a"/></svg>