<svg xmlns="http://www.w3.org/2000/svg" width="24" height="24" viewBox="0 0 24 24"><path d="M13.5.75a11.25 11.25 0 0 0 0 22.5z" style="fill:none;stroke:#000;stroke-linecap:round;stroke-linejoin:round;stroke-width:1.5px;fill-rule:evenodd"/><path d="M5.625 11.625A.375.375 0 1 0 6 12a.375.375 0 0 0-.375-.375m2.041-5.458a.375.375 0 1 0 .266-.11.374.374 0 0 0-.266.11m.266 11.027a.375.375 0 0 0-.266.64.375.375 0 0 0 .534-.534.373.373 0 0 0-.265-.11m13.44-5.565a.375.375 0 1 0 .375.375.375.375 0 0 0-.375-.375m-2.307-5.568a.37.37 0 0 0-.265.11.375.375 0 1 0 .265-.11m0 11.137a.37.37 0 0 0-.265.11.375.375 0 1 0 .265-.11" style="fill:none;stroke:#000;stroke-linecap:round;stroke-linejoin:round;stroke-width:1.5px"/></svg>