<svg xmlns="http://www.w3.org/2000/svg" width="24" height="24" viewBox="0 0 24 24"><defs><style>.a{fill:none;stroke:#000;stroke-linecap:round;stroke-linejoin:round;stroke-width:1.5px}</style></defs><rect width="9" height="7.5" x="14.25" y="15.75" class="a" rx="1.5" ry="1.5"/><path d="M21.75 15.75v-1.5a3 3 0 0 0-3-3 3 3 0 0 0-3 3v1.5m3 3.405a.375.375 0 1 1-.375.375.375.375 0 0 1 .375-.375" class="a"/><circle cx="8.25" cy="9.75" r="4.5" class="a"/><path d="M9.75 9.75h-1.5v-1.5" class="a"/><path d="M10.5 20.25H2.25a1.5 1.5 0 0 1-1.5-1.5V2.25a1.5 1.5 0 0 1 1.5-1.5h10.629a1.5 1.5 0 0 1 1.06.44l2.872 2.871a1.5 1.5 0 0 1 .439 1.061V8.25" class="a"/></svg>