<svg xmlns="http://www.w3.org/2000/svg" width="24" height="24" viewBox="0 0 24 24"><defs><style>.a{fill:none;stroke:#000;stroke-linecap:round;stroke-linejoin:round;stroke-width:1.5px}</style></defs><path d="M8.25 20.25h-6a1.5 1.5 0 0 1-1.5-1.5V2.25a1.5 1.5 0 0 1 1.5-1.5h10.629a1.5 1.5 0 0 1 1.06.44l2.872 2.871a1.5 1.5 0 0 1 .439 1.061V8.25" class="a"/><circle cx="8.25" cy="9.75" r="4.5" class="a"/><path d="M9.75 9.75h-1.5v-1.5" class="a"/><circle cx="13.5" cy="18" r="2.25" class="a"/><circle cx="21" cy="21" r="2.25" class="a"/><circle cx="21" cy="13.5" r="2.25" class="a"/><path d="m15.425 16.845 3.65-2.19m-3.487 4.181 3.324 1.329" class="a"/></svg>