<svg xmlns="http://www.w3.org/2000/svg" width="24" height="24" viewBox="0 0 24 24"><defs><style>.a{fill:none;stroke:#000;stroke-linecap:round;stroke-linejoin:round;stroke-width:1.5px}</style></defs><circle cx="9" cy="3.375" r="2.625" class="a"/><path d="M9.75 23.25a4.5 4.5 0 0 0 4.5-4.5h-9V13.5a1.5 1.5 0 0 0-1.5-1.5h-1.5a1.5 1.5 0 0 0-1.5 1.5v9.75m0-6.75h4.5" class="a"/><path d="M9.892 15.75h5.858a1.5 1.5 0 0 1 1.342.829l3.338 6.676" class="a"/><path d="m17.067 23.24-2.244-4.49H8.25a1.5 1.5 0 0 1-1.494-1.636l.75-8.25a1.5 1.5 0 0 1 2.555-.924l5.25 5.25a1.5 1.5 0 0 1-2.122 2.121L10.2 12.325m6.3-8.575 1.105 1.105a1.5 1.5 0 0 0 2.2-.085L23.25.75" class="a"/></svg>