<svg xmlns="http://www.w3.org/2000/svg" width="24" height="24" viewBox="0 0 24 24"><defs><style>.a{fill:none;stroke:#000;stroke-linecap:round;stroke-linejoin:round;stroke-width:1.5px}</style></defs><rect width="22.5" height="18" x=".75" y="5.25" class="a" rx="3" ry="3"/><path d="M14.25.75h-4.5a1.5 1.5 0 0 0-1.5 1.5v3h7.5v-3a1.5 1.5 0 0 0-1.5-1.5" class="a"/><circle cx="12" cy="14.25" r="1.5" class="a"/><path d="m13.274 8.447.442 1.453a.994.994 0 0 0 1.174.681l1.472-.341a1.339 1.339 0 0 1 1.275 2.218l-1.031 1.111a1 1 0 0 0 0 1.362l1.031 1.111a1.339 1.339 0 0 1-1.275 2.218l-1.472-.341a.994.994 0 0 0-1.174.681l-.442 1.453a1.33 1.33 0 0 1-2.548 0l-.442-1.453a.994.994 0 0 0-1.174-.681l-1.472.341a1.339 1.339 0 0 1-1.275-2.218l1.031-1.111a1 1 0 0 0 0-1.362l-1.031-1.111a1.339 1.339 0 0 1 1.275-2.218l1.472.341a.994.994 0 0 0 1.174-.681l.442-1.453a1.33 1.33 0 0 1 2.548 0" class="a"/></svg>