<svg xmlns="http://www.w3.org/2000/svg" width="24" height="24" viewBox="0 0 24 24"><defs><style>.a{fill:none;stroke:#000;stroke-linecap:round;stroke-linejoin:round;stroke-width:1.5px}</style></defs><path d="m10.5 20.811-4.109.942A11.25 11.25 0 1 1 22.968 9.489" class="a"/><path d="M14.267 7.679a1.5 1.5 0 0 1-.325 1.634l-5.561 5.561a3 3 0 0 1-2.121.879H1.393a11.271 11.271 0 0 1 .658-9h10.83a1.5 1.5 0 0 1 1.386.926" class="a"/><rect width="9" height="7.5" x="14.25" y="15.75" class="a" rx="1" ry="1"/><path d="M18.75 11.25a3 3 0 0 0-3 3v1.5h6v-1.5a3 3 0 0 0-3-3m0 7.904a.375.375 0 0 1 .375.375m-.75 0a.375.375 0 0 1 .375-.375m0 .746a.375.375 0 0 1-.375-.375m.75.004a.375.375 0 0 1-.375.375" class="a"/></svg>