<svg xmlns="http://www.w3.org/2000/svg" width="24" height="24" viewBox="0 0 24 24"><defs><style>.a{fill:none;stroke:#000;stroke-linecap:round;stroke-linejoin:round;stroke-width:1.5px}</style></defs><path d="M3 12h-.75a1.5 1.5 0 0 1-1.5-1.5V3a1.5 1.5 0 0 1 1.5-1.5h10.5m-7.5 21-2.764-3.11a1.557 1.557 0 1 1 2.327-2.069L6.75 19.5v-9a1.5 1.5 0 0 1 3 0v6.75h1.5a4.5 4.5 0 0 1 4.5 4.5v.75" class="a"/><rect width="9" height="7.5" x="14.25" y="6" class="a" rx="1.5" ry="1.5"/><path d="M18.75 1.5a3 3 0 0 0-3 3V6h6V4.5a3 3 0 0 0-3-3m0 7.9a.375.375 0 1 1-.375.375.375.375 0 0 1 .375-.375" class="a"/></svg>