<svg xmlns="http://www.w3.org/2000/svg" width="24" height="24" viewBox="0 0 24 24"><defs><style>.a{fill:none;stroke:#000;stroke-linecap:round;stroke-linejoin:round;stroke-width:1.5px}</style></defs><path d="m4.5 8.25 1.158-3.474A1.5 1.5 0 0 1 7.081 3.75h5.669v4.5h9v6H19.5a2.25 2.25 0 0 0-4.5 0H7.5a2.25 2.25 0 0 0-4.5 0H.75v-4.5a1.5 1.5 0 0 1 1.5-1.5z" class="a"/><circle cx="3.75" cy="20.25" r="3" class="a"/><circle cx="18.75" cy="20.25" r="3" class="a"/><path d="M17.314 8.25A7.852 7.852 0 0 1 20.4 2.894" class="a"/><circle cx="21.75" cy="2.25" r="1.5" class="a"/><path d="M9.75 3.75v3a1.5 1.5 0 0 1-1.5 1.5H4.5m1.079 9.622 1.92-3.682m9.486 3.634-1.983-3.678M6.75 20.25h9m3-.375a.375.375 0 1 1-.375.375.375.375 0 0 1 .375-.375m-15 0a.375.375 0 1 1-.375.375.375.375 0 0 1 .375-.375" class="a"/></svg>