<svg xmlns="http://www.w3.org/2000/svg" width="24" height="24" viewBox="0 0 24 24"><defs><style>.a{fill:none;stroke:#000;stroke-linecap:round;stroke-linejoin:round;stroke-width:1.5px}</style></defs><path d="M9 5.25a.375.375 0 0 1 .375.375m-.75 0A.375.375 0 0 1 9 5.25M9 6a.375.375 0 0 1-.375-.375m.75 0A.375.375 0 0 1 9 6m5.25-.75a.375.375 0 0 1 .375.375m-.75 0a.375.375 0 0 1 .375-.375m0 .75a.375.375 0 0 1-.375-.375m.75 0A.375.375 0 0 1 14.25 6" class="a"/><ellipse cx="11.625" cy="8.25" class="a" rx="6.75" ry="7.5"/><path d="M14.223 10.5a3 3 0 0 1-5.2 0m2.602 5.25v1.6a3 3 0 0 0 3.3 2.907 3.5 3.5 0 0 1 3 1.395l1.2 1.6" class="a"/></svg>