<svg xmlns="http://www.w3.org/2000/svg" id="Regular" width="24" height="24" viewBox="0 0 24 24"><defs><style>.cls-1{fill:none;stroke:#000;stroke-linecap:round;stroke-linejoin:round;stroke-width:1.5px}</style></defs><path d="M7.652 20.964a10.26 10.26 0 0 1-1.265-.721m-2.127-1.98a9.349 9.349 0 0 1-.819-1.2m-1.062-2.707a9.457 9.457 0 0 1-.214-1.44m5.487-9.504A10.39 10.39 0 0 1 9 2.87m2.878-.432a11.006 11.006 0 0 1 1.452.12m2.77.854a10.346 10.346 0 0 1 1.266.721M19.5 6.112a9.641 9.641 0 0 1 .819 1.205M6.75 6.938a3 3 0 0 1-6 0c0-1.657 3-6 3-6s3 4.343 3 6" class="cls-1"/><rect width="9" height="10.5" x="13.186" y="11.93" class="cls-1" rx="1" ry="1" transform="rotate(16.524 17.687 17.18)"/><path d="m19.179 12.147.64-2.157M22.055 13l.64-2.157m-6.392.45.639-2.157m-.481 6.898 2.876.853m-3.73 2.023 2.877.854" class="cls-1"/></svg>