<svg xmlns="http://www.w3.org/2000/svg" width="24" height="24" viewBox="0 0 24 24"><defs><style>.a{fill:none;stroke:#000;stroke-linecap:round;stroke-linejoin:round;stroke-width:1.5px}</style></defs><rect width="9" height="9" x="1.5" y=".763" class="a" rx="1" ry="1"/><path d="M1.5 6.763h9m-7.5 3-2.25 2.25M9 9.763l2.25 2.25m10.5-6-2.25 2.25-2.25-2.25" class="a"/><path d="M16.5 2.263a3 3 0 0 1 3 3v3m-18 9.75 2.25-2.25L6 18.013" class="a"/><path d="M6.75 21.763a3 3 0 0 1-3-3v-3m9 3h1.5m4.5 0h1.5m-9 3v1.5m10.5-1.5v1.5m-10.5-7.5h10.5m-10-1.5-.5 1.5L10 17.635a1.5 1.5 0 0 0-.252.832v1.8a1.5 1.5 0 0 0 1.5 1.5h10.5a1.5 1.5 0 0 0 1.5-1.5v-1.8a1.5 1.5 0 0 0-.248-.832l-1.25-1.872-1.158-3.474a1.5 1.5 0 0 0-1.423-1.026H14.25" class="a"/></svg>