<svg xmlns="http://www.w3.org/2000/svg" width="24" height="24" viewBox="0 0 24 24"><defs><style>.a{fill:none;stroke:#000;stroke-linecap:round;stroke-linejoin:round;stroke-width:1.5px}</style></defs><rect width="9" height="9" x="1.5" y=".763" class="a" rx="1" ry="1"/><path d="M1.5 6.763h9m-7.5 3-2.25 2.25M9 9.763l2.25 2.25" class="a"/><rect width="9" height="9" x="13.5" y="12.013" class="a" rx="1" ry="1"/><path d="M13.5 18.013h9m-7.5 3-2.25 2.25m8.25-2.25 2.25 2.25m-1.5-16.5-2.25 2.25-2.25-2.25" class="a"/><path d="M14.25 3.013h2.25a3 3 0 0 1 3 3v3m-17.25 8.25 2.25-2.25 2.25 2.25" class="a"/><path d="M9.75 21.013H7.5a3 3 0 0 1-3-3v-3" class="a"/></svg>