<svg xmlns="http://www.w3.org/2000/svg" width="24" height="24" viewBox="0 0 24 24"><defs><style>.a{fill:none;stroke:#000;stroke-linecap:round;stroke-linejoin:round;stroke-width:1.5px}</style></defs><path d="M5.25 6.75 3 9V6.75a3 3 0 0 1 3-3h2.25m-7.5 3L3 9m1.5 10.875a.375.375 0 1 0 .375.375.375.375 0 0 0-.375-.375" class="a"/><rect width="7.5" height="12" x=".75" y="11.25" class="a" rx="1.5" ry="1.5"/><path d="M20.25 2.25 19.5.75H15l-.75 1.5h-1.5a1.5 1.5 0 0 0-1.5 1.5v4.5a1.5 1.5 0 0 0 1.5 1.5h9a1.5 1.5 0 0 0 1.5-1.5v-4.5a1.5 1.5 0 0 0-1.5-1.5z" class="a"/><circle cx="17.25" cy="5.625" r="1.875" class="a"/></svg>