<svg xmlns="http://www.w3.org/2000/svg" width="24" height="24" viewBox="0 0 24 24"><defs><style>.a{fill:none;stroke:#000;stroke-linecap:round;stroke-linejoin:round;stroke-width:1.5px}</style></defs><rect width="9" height="9" x="13.5" y="12.013" class="a" rx="1" ry="1"/><path d="M13.5 18.013h9m-7.5 3-2.25 2.25m8.25-2.25 2.25 2.25m-1.5-16.5-2.25 2.25-2.25-2.25" class="a"/><path d="M14.25 3.013h2.25a3 3 0 0 1 3 3v3m-17.25 8.25 2.25-2.25 2.25 2.25" class="a"/><path d="M9.75 21.013H7.5a3 3 0 0 1-3-3v-3" class="a"/><rect width="9.75" height="9.75" x=".75" y=".763" class="a" rx="1" ry="1"/><path d="M2.25 10.513v1.5m6.75-1.5v1.5M.75 5.263h9.75m-7.125 2.25a.375.375 0 0 1 .375.375m-.75 0a.375.375 0 0 1 .375-.375m0 .75A.375.375 0 0 1 3 7.888m.75 0a.375.375 0 0 1-.375.375m4.5-.75a.375.375 0 0 1 .375.375m-.75 0a.375.375 0 0 1 .375-.375m0 .75a.375.375 0 0 1-.375-.375m.75 0a.375.375 0 0 1-.375.375" class="a"/></svg>