<svg xmlns="http://www.w3.org/2000/svg" width="24" height="24" viewBox="0 0 24 24"><defs><style>.a{fill:none;stroke:#000;stroke-linecap:round;stroke-linejoin:round;stroke-width:1.5px}</style></defs><rect width="9" height="9" x="13.5" y="12.013" class="a" rx="1" ry="1"/><path d="M13.5 18.013h9m-7.5 3-2.25 2.25m8.25-2.25 2.25 2.25m-.75-16.5-2.25 2.25L18 6.763" class="a"/><path d="M17.25 3.013a3 3 0 0 1 3 3v3m-18 8.25 2.25-2.25 2.25 2.25" class="a"/><path d="M7.5 21.013a3 3 0 0 1-3-3v-3M3.077 9.141.75 5.263h13.5l-2.327 3.878m-.673-3.878h-7.5l.75-3h6zm-2.25-3v-1.5" class="a"/><path d="M14.25 9.763a4.349 4.349 0 0 1-3.375-1.5 4.349 4.349 0 0 1-3.375 1.5 4.349 4.349 0 0 1-3.375-1.5 4.349 4.349 0 0 1-3.375 1.5" class="a"/></svg>