<svg xmlns="http://www.w3.org/2000/svg" width="24" height="24" viewBox="0 0 24 24"><defs><style>.a{fill:none;stroke:#000;stroke-linecap:round;stroke-linejoin:round;stroke-width:1.5px}</style></defs><rect width="7.5" height="7.5" x="8.25" y="7.263" class="a" rx="1" ry="1"/><path d="M8.25 11.763h7.5m-6 3-1.5 1.5m6-1.5 1.5 1.5m4.5-4.5a3 3 0 0 1 3-3v-3.75a1.5 1.5 0 0 0-1.5-1.5H2.25a1.5 1.5 0 0 0-1.5 1.5v3.75a3 3 0 0 1 0 6v3.75a1.5 1.5 0 0 0 1.5 1.5h19.5a1.5 1.5 0 0 0 1.5-1.5v-3.75a3 3 0 0 1-3-3" class="a"/></svg>