<svg xmlns="http://www.w3.org/2000/svg" width="24" height="24" viewBox="0 0 24 24"><defs><style>.a{fill:none;stroke:#000;stroke-linecap:round;stroke-linejoin:round;stroke-width:1.5px}</style></defs><path d="M5.993 17.931a9 9 0 1 1 12.753-8.183M4.022 2.8l5.28 2a1.5 1.5 0 0 1 .944 1.7l-.313 1.568a1.5 1.5 0 0 1-1.108 1.161l-2.079.519-1.154 2.885a2.991 2.991 0 0 1-1.121 1.382l-1.83 1.257" class="a"/><path d="m15.991 3.268-1.467 2.925a1.5 1.5 0 0 0-.081 1.145L15 9" class="a"/><rect width="13.5" height="8.25" x="9.746" y="14.998" class="a" rx="1.5" ry="1.5"/><path d="M12.746 14.998v8.25m7.5-8.25v8.25m-6-8.248v-.75a2.25 2.25 0 0 1 4.5 0V15" class="a"/></svg>