<svg xmlns="http://www.w3.org/2000/svg" width="24" height="24" viewBox="0 0 24 24"><defs><style>.a{fill:none;stroke:#000;stroke-linecap:round;stroke-linejoin:round;stroke-width:1.5px}</style></defs><path d="M6.433 15.749a6 6 0 1 1 11.127 0m-7.405-7.963 1.691 2.262a1.5 1.5 0 0 1-.3 2.1l-1.8 1.35v.75a1.5 1.5 0 0 1-1.5 1.5" class="a"/><path d="m17.629 11.427-2.306 1.16a1.5 1.5 0 0 0-.785 1.706l.372 1.456M6.746 2.248v-1.5m10.5 1.5v-1.5m-9.746 18a1.5 1.5 0 0 0 1.5 1.5h6a1.5 1.5 0 0 0 1.5-1.5" class="a"/><rect width="22.5" height="7.5" x=".746" y="15.748" class="a" rx="1" ry="1"/><path d="M3 15.748v-12a1.5 1.5 0 0 1 1.5-1.5h15a1.5 1.5 0 0 1 1.5 1.5v12" class="a"/></svg>