<svg xmlns="http://www.w3.org/2000/svg" width="24" height="24" viewBox="0 0 24 24"><defs><style>.a{fill:none;stroke:#000;stroke-linecap:round;stroke-linejoin:round;stroke-width:1.5px}</style></defs><rect width="22.5" height="22.5" x=".75" y=".75" class="a" rx="3" ry="3"/><path d="M7.5 19.5a.375.375 0 1 1-.375.375.375.375 0 0 1 .375-.375m4.5 0a.375.375 0 1 1-.375.375A.375.375 0 0 1 12 19.5m4.5 0a.375.375 0 1 1-.375.375.375.375 0 0 1 .375-.375M5.707 7.5 3.75 9.75 5.707 12m12.586-4.5 1.957 2.25L18.293 12" class="a"/></svg>