<svg xmlns="http://www.w3.org/2000/svg" width="24" height="24" viewBox="0 0 24 24"><defs><style>.a{fill:none;stroke:#000;stroke-linecap:round;stroke-linejoin:round;stroke-width:1.5px}</style></defs><path d="M11.307 16.582a.519.519 0 0 0-.535-.015.538.538 0 0 0-.272.469v3.428a.538.538 0 0 0 .272.469.521.521 0 0 0 .535-.014L14 19.2a.541.541 0 0 0 0-.91z" class="a"/><rect width="22.5" height="22.5" x=".75" y=".75" class="a" rx="1.5" ry="1.5"/><path d="m6 20.25-1.5-1.467L6 17.315" class="a"/><rect width="16.5" height="10.5" x="3.75" y="3.75" class="a" rx=".75" ry=".75"/><path d="m18 20.25 1.5-1.467-1.5-1.468" class="a"/></svg>