<svg xmlns="http://www.w3.org/2000/svg" id="Regular" width="24" height="24" viewBox="0 0 24 24"><defs><style>.cls-1{fill:none;stroke:#000;stroke-linecap:round;stroke-linejoin:round;stroke-width:1.5px}</style></defs><path d="M2.25 9.555V.75m2.381 7.924a1.5 1.5 0 0 0-1.68.192C.2 11.242.419 14.15 1.5 17.25a7.44 7.44 0 0 0 8.059-.781 1.5 1.5 0 0 0 .523-1.821 11.755 11.755 0 0 0-5.451-5.974m17.119.881V.75m-2.381 7.924a1.5 1.5 0 0 1 1.68.192c2.751 2.376 2.532 5.284 1.451 8.384a7.44 7.44 0 0 1-8.059-.781 1.5 1.5 0 0 1-.523-1.821 11.755 11.755 0 0 1 5.451-5.974M8.25 17.25h7.5m-6.666-4.5h5.832" class="cls-1"/><path d="M21 23.25a40.99 40.99 0 0 0-9-1.5 40.99 40.99 0 0 0-9 1.5l-1.5-6m21 0-1.5 6" class="cls-1"/></svg>