<svg xmlns="http://www.w3.org/2000/svg" width="24" height="24" viewBox="0 0 24 24"><path d="M12 7.95A60.055 60.055 0 0 1 .75 6.45c4.522 4.38 7.925 8.435 9.388 13.528a2.033 2.033 0 0 0 1.953 1.472 1.79 1.79 0 0 0 1.725-1.311c1.438-5.169 4.865-9.263 9.434-13.689A60.055 60.055 0 0 1 12 7.95m10.65-4.8c.5.663.6 3.3.6 3.3s-2.5-.837-3-1.5a1.5 1.5 0 1 1 2.4-1.8m.6 3.3v4.5m-21.9-7.8c-.5.663-.6 3.3-.6 3.3s2.5-.837 3-1.5a1.5 1.5 0 0 0-2.4-1.8m-.6 3.3v4.5" style="fill:none;stroke:#000;stroke-linecap:round;stroke-linejoin:round;stroke-width:1.5px"/></svg>