<svg xmlns="http://www.w3.org/2000/svg" width="24" height="24" viewBox="0 0 24 24"><defs><style>.a{fill:none;stroke:#000;stroke-linecap:round;stroke-linejoin:round;stroke-width:1.5px}</style></defs><path d="M12 8.25v-3" class="a"/><circle cx="12" cy="15.75" r="7.5" class="a"/><path d="M18 3.75a1.5 1.5 0 0 0-1.5-1.5h-3.128a2.564 2.564 0 0 1-1.811-.75A2.562 2.562 0 0 0 9.75.75H7.5A1.5 1.5 0 0 0 6 2.25a3 3 0 0 0 3 3h7.5a1.5 1.5 0 0 0 1.5-1.5" class="a"/><circle cx="12" cy="15.75" r="4.5" class="a"/><circle cx="12" cy="15.75" r="1.5" class="a"/><path d="M12 14.25v-3m-1.427 4.036-2.853-.927m3.398 2.605-1.763 2.427m3.527-2.427 1.763 2.427m-1.218-4.105 2.853-.927" class="a"/></svg>