<svg xmlns="http://www.w3.org/2000/svg" width="24" height="24" viewBox="0 0 24 24"><defs><style>.a{fill:none;stroke:#000;stroke-linecap:round;stroke-linejoin:round;stroke-width:1.5px}</style></defs><path d="M18.75 8.25h-2.033a1.342 1.342 0 0 0-.5 2.587l2.064.825a1.342 1.342 0 0 1-.5 2.588H15.75m1.5-6V7.5m0 7.5v-.75" class="a"/><circle cx="17.25" cy="11.25" r="6" class="a"/><circle cx="4.5" cy="3.375" r="2.625" class="a"/><path d="m6.528 14.527.222-1.777h1.5V10.5a3.75 3.75 0 0 0-7.5 0v2.25h1.5l.2 1.569m-1.7 2.123 22.5 5.308M15 23.25H9l3-3.75z" class="a"/></svg>