<svg xmlns="http://www.w3.org/2000/svg" width="24" height="24" viewBox="0 0 24 24"><defs><style>.b{fill:none;stroke:#000;stroke-linejoin:round;stroke-width:1.5px}</style></defs><path d="m20.999 2.254 2.25 3h-7.5m5.251 3 2.25-3" style="fill:none;stroke:#000;stroke-linejoin:round;stroke-width:1.5px;stroke-linecap:round"/><circle cx="6.75" cy="3.754" r="3" class="b"/><path d="M6.75 7.5a6 6 0 0 0-6 6v2.25a1.5 1.5 0 0 0 1.5 1.5h1.5v4.5a1.5 1.5 0 0 0 1.5 1.5h3a1.5 1.5 0 0 0 1.5-1.5v-4.5h1.5a1.5 1.5 0 0 0 1.5-1.5V13.5a6 6 0 0 0-6-6z" class="b"/></svg>