<svg xmlns="http://www.w3.org/2000/svg" id="Regular" width="24" height="24" viewBox="0 0 24 24"><defs><style>.cls-1{fill:none;stroke:#000;stroke-linecap:round;stroke-linejoin:round;stroke-width:1.5px}</style></defs><path d="M8.25.75h-6a1.5 1.5 0 0 0-1.5 1.5v19.5a1.5 1.5 0 0 0 1.5 1.5h6a1.5 1.5 0 0 0 1.5-1.5v-4.5" class="cls-1"/><circle cx="5.25" cy="18.75" r="1.5" class="cls-1"/><path d="M5.25 15v2.25" class="cls-1"/><circle cx="15.75" cy="8.25" r="7.5" class="cls-1"/><path d="M11.25 6v3.75a1.5 1.5 0 0 0 3 0V6m3 0v.3a8.932 8.932 0 0 0 1.5 4.954 8.932 8.932 0 0 0 1.5-4.954V6" class="cls-1"/></svg>