<svg xmlns="http://www.w3.org/2000/svg" width="24" height="24" viewBox="0 0 24 24"><defs><style>.a{fill:none;stroke:#000;stroke-linecap:round;stroke-linejoin:round;stroke-width:1.5px}</style></defs><rect width="4.5" height="4.5" x="9.75" y=".75" class="a" rx=".75" ry=".75"/><rect width="4.5" height="4.5" x="9.75" y="18.75" class="a" rx=".75" ry=".75"/><rect width="4.5" height="4.5" x="18.75" y="9.75" class="a" rx=".75" ry=".75"/><rect width="4.5" height="4.5" x=".75" y="9.75" class="a" rx=".75" ry=".75"/><path d="M3.284 9.75A9.013 9.013 0 0 1 9.75 3.284m-.006 17.431a9.015 9.015 0 0 1-6.46-6.463m17.432-.001a9.015 9.015 0 0 1-6.466 6.465m.013-17.429a9.014 9.014 0 0 1 6.453 6.462" class="a"/></svg>