<svg xmlns="http://www.w3.org/2000/svg" width="24" height="24" viewBox="0 0 24 24"><defs><style>.a{fill:none;stroke:#000;stroke-linecap:round;stroke-linejoin:round;stroke-width:1.5px}</style></defs><path d="M9.04 7.505a5.986 5.986 0 0 0-2.44 2.554 5.989 5.989 0 0 0 .011 5.376l3.26 6.456A2.355 2.355 0 0 0 12 23.25a2.355 2.355 0 0 0 2.134-1.359l3.26-6.456a5.989 5.989 0 0 0 .011-5.376 5.991 5.991 0 0 0-2.373-2.514zM12 19.5v-5.25" class="a"/><circle cx="12" cy="12.75" r="1.5" class="a"/><path d="M9.036 7.497 8.287.75h7.5l-.755 6.795" class="a"/></svg>