<svg xmlns="http://www.w3.org/2000/svg" width="24" height="24" viewBox="0 0 24 24"><defs><style>.a{fill:none;stroke:#000;stroke-linecap:round;stroke-linejoin:round;stroke-width:1.5px}</style></defs><path d="m17.553 21.791-.959.958a1.854 1.854 0 0 1-2.618-.064l-.671-.671a1.854 1.854 0 0 1-.064-2.618l2.738-2.738a1.588 1.588 0 0 1 2.244.055l.527.527" class="a"/><path d="m18.335 14.3 1.006-1a1.9 1.9 0 0 1 2.683 0l.67.67a1.9 1.9 0 0 1 0 2.683l-2.874 2.87a1.625 1.625 0 0 1-2.3 0L16.994 19" class="a"/><rect width="4.5" height="4.5" x=".75" y=".74" class="a" rx=".563" ry=".563"/><rect width="4.5" height="4.5" x="18.75" y=".74" class="a" rx=".563" ry=".563"/><path d="M5.25 2.99h13.5m-13.5 16.5h5.25" class="a"/><rect width="4.5" height="4.5" x=".75" y="17.24" class="a" rx=".563" ry=".563"/><path d="M3 17.24v-12m18 5.25V5.24" class="a"/></svg>