<svg xmlns="http://www.w3.org/2000/svg" id="Regular" width="24" height="24" viewBox="0 0 24 24"><defs><style>.cls-1{fill:none;stroke:#000;stroke-linecap:round;stroke-linejoin:round;stroke-width:1.5px}</style></defs><path d="M18.749 5.625a3.25 3.25 0 0 1-3 1.5 3.25 3.25 0 0 1-3-1.5c0-1.243 1.343-2.25 3-2.25s3 1.007 3 2.25" class="cls-1"/><path d="M12.749 5.625H10.5a2.25 2.25 0 0 0-2.25 2.25 3.75 3.75 0 0 0 3.75 3.75h4.5a2.25 2.25 0 0 0 2.25 2.25 2.25 2.25 0 0 0 4.5 0v-3.75a4.5 4.5 0 0 0-4.5-4.5" class="cls-1"/><path d="M8.249 7.875c-1.5 0-2.25.75-3 .75-1.5 0-4.5.75-4.5 3s2.25 3 4.5 3c4.5 0 4.5 1.5 9.75 1.5" class="cls-1"/><path d="M19.5 18.333a12.917 12.917 0 0 1-7.5 2.292c-6.213 0-11.25-4.029-11.25-9" class="cls-1"/></svg>