<svg xmlns="http://www.w3.org/2000/svg" width="24" height="24" viewBox="0 0 24 24"><path d="m15.75.75 4.5 1.5v4.5a3 3 0 0 0 2 2.829 1.5 1.5 0 0 1 1 1.415v8.446a1.5 1.5 0 0 1-.943 1.393l-5.1 2.31a1.5 1.5 0 0 1-1.457-.193L12 18.75v-9c3.75-1.5 3.75-9 3.75-9m0 15h3M8.25.75l-4.5 1.5v4.5a3 3 0 0 1-2 2.829 1.5 1.5 0 0 0-1 1.415v8.446a1.5 1.5 0 0 0 .943 1.393l5.1 2.31a1.5 1.5 0 0 0 1.457-.193l3.75-4.2v-9c-3.75-1.5-3.75-9-3.75-9m0 15h-3m3-15h7.5" style="fill:none;stroke:#000;stroke-linecap:round;stroke-linejoin:round;stroke-width:1.5px"/></svg>