<svg xmlns="http://www.w3.org/2000/svg" id="Regular" width="24" height="24" viewBox="0 0 24 24"><defs><style>.cls-1{fill:none;stroke:#000;stroke-linecap:round;stroke-linejoin:round;stroke-width:1.5px}</style></defs><path d="M12.686 19.334a.374.374 0 0 1-.52.1m.418-.62a.374.374 0 0 1 .1.52m-.62-.418a.374.374 0 0 1 .52-.1m-.418.62a.374.374 0 0 1-.1-.52M3 12.75V2.25A1.5 1.5 0 0 1 4.5.75h15a1.5 1.5 0 0 1 1.5 1.5v10.5" class="cls-1"/><path d="M15.75 11.226a4.5 4.5 0 1 1 0-5.952L11.812 8.25zm4.5 7.524h-4.5" class="cls-1"/><rect width="22.5" height="7.5" x=".75" y="15.75" class="cls-1" rx="1" ry="1"/><path d="M3.75 18.75v1.5m3-1.5v1.5" class="cls-1"/></svg>