<svg xmlns="http://www.w3.org/2000/svg" id="Regular" width="24" height="24" viewBox="0 0 24 24"><defs><style>.cls-1{fill:none;stroke:#000;stroke-linecap:round;stroke-linejoin:round;stroke-width:1.5px}</style></defs><rect width="15" height="9" x="8.25" y="14.25" class="cls-1" rx="1.5" ry="1.5"/><path d="M10.5 18.75h3m-1.5-1.5v3m7.875-3a.375.375 0 0 1 .375.375m-.75 0a.375.375 0 0 1 .375-.375m0 .75a.375.375 0 0 1-.375-.375m.75 0a.375.375 0 0 1-.375.375m-1.5 1.5a.375.375 0 0 1 .375.375m-.75 0a.375.375 0 0 1 .375-.375m0 .75a.375.375 0 0 1-.375-.375m.75 0a.375.375 0 0 1-.375.375M5.25 19.3A10.125 10.125 0 1 1 21 10.875c0 .126 0 .251-.007.375" class="cls-1"/><path d="M8.277 11.25a2.576 2.576 0 0 1-.027-.375 2.625 2.625 0 0 1 5.25 0 2.576 2.576 0 0 1-.027.375" class="cls-1"/></svg>