<svg xmlns="http://www.w3.org/2000/svg" id="Regular" width="24" height="24" viewBox="0 0 24 24"><defs><style>.cls-1{fill:none;stroke:#000;stroke-linecap:round;stroke-linejoin:round;stroke-width:1.5px}</style></defs><circle cx="12" cy="12" r="8.25" class="cls-1"/><circle cx="7.875" cy="12" r="4.125" class="cls-1"/><path d="M7.875 11.625A.375.375 0 0 1 8.25 12m-.75 0a.375.375 0 0 1 .375-.375m0 .75A.375.375 0 0 1 7.5 12m.75 0a.375.375 0 0 1-.375.375" class="cls-1"/><circle cx="16.125" cy="12" r="4.125" class="cls-1"/><path d="M16.125 11.625a.375.375 0 0 0-.375.375m.75 0a.375.375 0 0 0-.375-.375m0 .75A.375.375 0 0 0 16.5 12m-.75 0a.375.375 0 0 0 .375.375M.75 12h3m19.5 0h-3M12 1.5v2.25m0 18.75v-2.25M8.89 4.356 1.835.829A.75.75 0 0 0 .829 1.835L4.356 8.89M15.11 4.356 22.165.829a.75.75 0 0 1 1.006 1.006L19.644 8.89M8.89 19.644l-7.055 3.527a.75.75 0 0 1-1.006-1.006l3.527-7.055m10.754 4.534 7.055 3.527a.75.75 0 0 0 1.006-1.006l-3.527-7.055" class="cls-1"/></svg>