<svg xmlns="http://www.w3.org/2000/svg" id="Regular" width="24" height="24" viewBox="0 0 24 24"><defs><style>.cls-1{fill:none;stroke:#000;stroke-linecap:round;stroke-linejoin:round;stroke-width:1.5px}</style></defs><path d="M23.25 6.75v-4.5a1.5 1.5 0 0 0-1.5-1.5H2.25a1.5 1.5 0 0 0-1.5 1.5v4.5" class="cls-1"/><path d="M15.75 11.25V.75h3v10.5m-13.5 6v3m-1.5-1.5h3m7.125.75a.375.375 0 0 1 .375.375m-.75 0a.375.375 0 0 1 .375-.375m0 .75a.375.375 0 0 1-.375-.375m.75 0a.375.375 0 0 1-.375.375M10.5 19.5a.375.375 0 0 1 .375.375m-.75 0a.375.375 0 0 1 .375-.375m0 .75a.375.375 0 0 1-.375-.375m.75 0a.375.375 0 0 1-.375.375" class="cls-1"/><rect width="16.5" height="9" x=".75" y="14.25" class="cls-1" rx="1" ry="1"/><path d="m.75 6.75 1.158 3.474a1.5 1.5 0 0 0 1.423 1.026h17.338a1.5 1.5 0 0 0 1.423-1.026L23.25 6.75zm15-3h-9a1.5 1.5 0 0 1-1.5-1.5V.75m15 10.5V18a1.5 1.5 0 0 1-1.5 1.5h-1.5" class="cls-1"/></svg>