<svg xmlns="http://www.w3.org/2000/svg" id="Regular" width="24" height="24" viewBox="0 0 24 24"><defs><style>.cls-1{fill:none;stroke:#000;stroke-linecap:round;stroke-linejoin:round;stroke-width:1.5px}</style></defs><path d="m10.342 22.77-7.15-10.15a1.1 1.1 0 0 1 0-1.24l7.15-10.15a1.1 1.1 0 0 1 1.818 0l7.15 10.15a1.1 1.1 0 0 1 0 1.24l-7.15 10.15a1.1 1.1 0 0 1-1.818 0M19.501 12h-16.5" class="cls-1"/><path d="M11.251.75 7.501 12l3.75 11.25" class="cls-1"/><path d="M11.251.75 15.001 12l-3.75 11.25M19.501 3h3m-1.5-1.5v3M.751 21h3m-1.5-1.5v3" class="cls-1"/></svg>