<svg xmlns="http://www.w3.org/2000/svg" id="Regular" width="24" height="24" viewBox="0 0 24 24"><defs><style>.cls-1{fill:none;stroke:#000;stroke-linecap:round;stroke-linejoin:round;stroke-width:1.5px}</style></defs><path d="M5.25 17.25v3m-1.5-1.5h3m10.5.75a.375.375 0 0 1 .375.375m-.75 0a.375.375 0 0 1 .375-.375m0 .75a.375.375 0 0 1-.375-.375m.75 0a.375.375 0 0 1-.375.375m2.25-3a.375.375 0 0 1 .375.375m-.75 0a.375.375 0 0 1 .375-.375m0 .75a.375.375 0 0 1-.375-.375m.75 0A.375.375 0 0 1 19.5 18" class="cls-1"/><rect width="22.5" height="9" x=".75" y="14.25" class="cls-1" rx="1" ry="1"/><path d="m19.5 3 1.033 2.033h2.127a.583.583 0 0 1 .419 1l-1.957 1.919 1.078 2.485a.589.589 0 0 1-.839.736L18.75 9.7M4.5 3 3.471 5.033H1.344a.583.583 0 0 0-.419 1l1.953 1.919L1.8 10.437a.589.589 0 0 0 .839.736L5.25 9.7m7.28-8.625 1.249 2.458h2.127a.583.583 0 0 1 .419 1l-1.953 1.919 1.082 2.485a.589.589 0 0 1-.839.736L12 8.2 9.385 9.673a.589.589 0 0 1-.839-.736l1.082-2.485L7.675 4.53a.583.583 0 0 1 .419-1h2.127l1.249-2.455a.6.6 0 0 1 1.06 0" class="cls-1"/></svg>