<svg xmlns="http://www.w3.org/2000/svg" id="Regular" width="24" height="24" viewBox="0 0 24 24"><defs><style>.cls-1{fill:none;stroke:#000;stroke-linecap:round;stroke-linejoin:round;stroke-width:1.5px}</style></defs><path d="M15 15v5.25a3 3 0 0 1-3 3H4.5a3 3 0 0 1-3-3V3.75a3 3 0 0 1 3-3H12a3 3 0 0 1 2.6 1.5M1.5 18.75H15M17.625 9a.375.375 0 0 1 .375.375m-.75 0A.375.375 0 0 1 17.625 9m0 .75a.375.375 0 0 1-.375-.375m.75 0a.375.375 0 0 1-.375.375m3.75-.75a.375.375 0 0 1 .375.375m-.75 0A.375.375 0 0 1 21.375 9m0 .75A.375.375 0 0 1 21 9.375m.75 0a.375.375 0 0 1-.375.375" class="cls-1"/><path d="M13.875 11.976a4.5 4.5 0 1 1 0-5.952L9.938 9z" class="cls-1"/></svg>