<svg xmlns="http://www.w3.org/2000/svg" id="Regular" width="24" height="24" viewBox="0 0 24 24"><defs><style>.cls-1{fill:none;stroke:#000;stroke-linecap:round;stroke-linejoin:round;stroke-width:1.5px}</style></defs><path d="m10.049 6.668 3.86-5.575a.8.8 0 0 1 1.447.366l.258 2.321a.8.8 0 0 0 .7.7l2.321.258a.8.8 0 0 1 .366 1.448l-5.571 3.863m-6.762 0L1.093 6.19a.8.8 0 0 1 .366-1.448l2.321-.258a.8.8 0 0 0 .7-.7l.258-2.321a.8.8 0 0 1 1.452-.37l3.859 5.575m0 6.762L6.19 19.005a.8.8 0 0 1-1.448-.366l-.258-2.321a.8.8 0 0 0-.7-.7l-2.321-.258a.8.8 0 0 1-.366-1.447l5.575-3.86m6.758-.004 5.575 3.86a.8.8 0 0 1-.366 1.447l-2.321.258a.8.8 0 0 0-.7.7l-.258 2.321a.8.8 0 0 1-1.447.366l-3.86-5.575m1.123-4.504-2.254 2.254m0-2.254 2.254 2.254m-1.441 2.708 1.561 9.366M21.122 23.25h-3.45v-1.063a2.125 2.125 0 0 1 2.125-2.125h3.453v1.063a2.125 2.125 0 0 1-2.128 2.125" class="cls-1"/></svg>