<svg xmlns="http://www.w3.org/2000/svg" id="Regular" width="24" height="24" viewBox="0 0 24 24"><defs><style>.cls-1{fill:none;stroke:#000;stroke-linecap:round;stroke-linejoin:round;stroke-width:1.5px}</style></defs><path d="M8.587 5.25a6.78 6.78 0 1 1 2.739 7.914M12 8.25H8.25a1.5 1.5 0 0 1 0-3h4.628a2.636 2.636 0 0 1 1.864 4.5l-3.363 3.364a1.5 1.5 0 0 1-2.122-2.121zm6.6 4.963a3 3 0 0 1 3.1-4.874" class="cls-1"/><path d="M18.348 1.637a2.982 2.982 0 0 1-.7 1.09 3 3 0 0 1-5.064-1.533m9.152 6.737a4.45 4.45 0 0 1-.286 6.919l-7.2 5.4m-9.75 3v-1.5a1.5 1.5 0 0 1 1.5-1.5h12a1.5 1.5 0 0 1 1.5 1.5v1.5m-5.25-3-4.5-3m8.25 3 4.5-1.5M.75 10.5l3 3m0-3-3 3" class="cls-1"/></svg>