<svg xmlns="http://www.w3.org/2000/svg" width="24" height="24" viewBox="0 0 24 24"><defs><style>.a{fill:none;stroke:#000;stroke-linecap:round;stroke-linejoin:round;stroke-width:1.5px}</style></defs><circle cx="12" cy="12" r="5.25" class="a"/><path d="M9.184 4.179 11.609.946a.488.488 0 0 1 .782 0l2.425 3.233m5.005 5.005 3.233 2.425a.488.488 0 0 1 0 .782l-3.233 2.425m-5.005 5.005-2.425 3.233a.488.488 0 0 1-.782 0l-2.425-3.233m-5.005-5.005L.946 12.391a.488.488 0 0 1 0-.782l3.233-2.425" class="a"/><path d="M18.724 16.878a8.273 8.273 0 0 0 0-9.756l.807-2.017a.489.489 0 0 0-.636-.636l-2.017.807a8.273 8.273 0 0 0-9.756 0l-2.017-.807a.489.489 0 0 0-.636.636l.807 2.017a8.273 8.273 0 0 0 0 9.756L4.469 18.9a.489.489 0 0 0 .636.636l2.017-.807a8.273 8.273 0 0 0 9.756 0l2.017.807a.489.489 0 0 0 .636-.636z" class="a"/><path d="M10.5 14.25a2.648 2.648 0 0 0 3.75-.75c1.5-2.25-1.838-5.662-3.75-3.75C8.25 12 12 12.75 12 12" class="a"/></svg>