<svg xmlns="http://www.w3.org/2000/svg" width="24" height="24" viewBox="0 0 24 24"><defs><style>.a{fill:none;stroke:#000;stroke-linecap:round;stroke-linejoin:round;stroke-width:1.5px}</style></defs><path d="M22.5 21.75a1.5 1.5 0 0 1-1.5 1.5H3a1.5 1.5 0 0 1-1.5-1.5V2.25A1.5 1.5 0 0 1 3 .75h15a1.5 1.5 0 0 1 1.047.426l3 2.883a1.5 1.5 0 0 1 .453 1.074z" class="a"/><path d="M10.549 16.046a.746.746 0 0 1-1.08-.667v-5.258a.746.746 0 0 1 1.08-.667l4.414 2.629a.746.746 0 0 1 0 1.334z" class="a"/><circle cx="12" cy="12.75" r="6.75" class="a"/></svg>