<svg xmlns="http://www.w3.org/2000/svg" width="24" height="24" viewBox="0 0 24 24"><defs><style>.a{fill:none;stroke:#000;stroke-linecap:round;stroke-linejoin:round;stroke-width:1.5px}</style></defs><path d="m15 11.25 8.25.009M18.759 6.75l-.009 4.5M15 18.75l8.19.009m-4.44 4.491v-4.5m-3.741-12L15 23.25h6.75a1.493 1.493 0 0 0 1.5-1.491v-13.5a1.5 1.5 0 0 0-1.491-1.509zm-6.026 4.5H.75m4.509-4.5-.009 4.5M9 18.75H.767m4.483 4.478V18.75M9 6.75v16.5H2.241a1.493 1.493 0 0 1-1.491-1.5V8.25a1.5 1.5 0 0 1 1.509-1.491z" class="a"/><path d="m12 23.25.004-.75m-.008-2.983.004-.75m-.004-3 .004-.75m-.021-3 .004-.75m.017-3 .004-.75" style="fill:none;stroke:#000;stroke-linecap:round;stroke-linejoin:round;stroke-width:1.5px;stroke-dasharray:1.5 2"/><path d="m9 .75 3.022 3.767L15 .75z" class="a"/></svg>