<svg xmlns="http://www.w3.org/2000/svg" id="Regular" width="24" height="24" viewBox="0 0 24 24"><defs><style>.cls-1{fill:none;stroke:#000;stroke-linecap:round;stroke-linejoin:round;stroke-width:1.5px}</style></defs><rect width="22.5" height="14.25" x=".75" y="9" class="cls-1" rx=".75" ry=".75"/><rect width="10.5" height="5.25" x="6.75" y=".75" class="cls-1" rx="1" ry="1"/><path d="M13.875 3a.375.375 0 0 1 .375.375m-.75 0A.375.375 0 0 1 13.875 3m0 .75a.375.375 0 0 1-.375-.375m.75 0a.375.375 0 0 1-.375.375M12 6v3" class="cls-1"/><circle cx="12" cy="13.5" r="1.5" class="cls-1"/><path d="M9 15.75h6M12 18v-2.25m-2.25 4.5L12 18l2.25 2.25" class="cls-1"/></svg>