<svg xmlns="http://www.w3.org/2000/svg" width="24" height="24" viewBox="0 0 24 24"><defs><style>.a{fill:none;stroke:#000;stroke-linecap:round;stroke-linejoin:round;stroke-width:1.5px}</style></defs><path d="M2.25 23.25a1.5 1.5 0 0 1-1.5-1.5V2.25a1.5 1.5 0 0 1 1.5-1.5h10.629a1.5 1.5 0 0 1 1.06.439l5.872 5.872a1.5 1.5 0 0 1 .439 1.06v4.629" class="a"/><path d="M20.25 8.25h-6a1.5 1.5 0 0 1-1.5-1.5v-6m-3 22.5v-7.5L7.5 19.5l-2.25-3.75v7.5m11.981-.015v-1.5m0 0V15.75a8.26 8.26 0 0 0-4.481 5.985zm3.019-5.985v2.55a8.932 8.932 0 0 0 1.5 4.954 8.932 8.932 0 0 0 1.5-4.954v-2.55" class="a"/></svg>