<svg xmlns="http://www.w3.org/2000/svg" id="Regular" width="24" height="24" viewBox="0 0 24 24"><defs><style>.cls-1{fill:none;stroke:#000;stroke-linecap:round;stroke-linejoin:round;stroke-width:1.5px}</style></defs><path d="M14.376 8.274a3 3 0 0 1-3.929 0L6.009 4.428a2.1 2.1 0 1 1 2.956-2.955l2.88 3.327a.749.749 0 0 0 1.134 0l2.879-3.322a2.1 2.1 0 1 1 2.956 2.955z" class="cls-1"/><path d="m18.084 5.059-1.479 5.917a4.323 4.323 0 0 1-8.387 0L6.739 5.059m6.047 9.191-2.25 9m-1.5-3H5.464a1.5 1.5 0 0 1-1.342-.829l-1.293-2.586A.75.75 0 0 1 3.5 15.75h2.359a1.5 1.5 0 0 1 1.342.829zm12.208-3.415a.75.75 0 0 0-.671-1.085h-2.359a1.5 1.5 0 0 0-1.342.829l-1.836 3.671h3.573a1.5 1.5 0 0 0 1.342-.829z" class="cls-1"/></svg>