<svg xmlns="http://www.w3.org/2000/svg" width="24" height="24" viewBox="0 0 24 24"><defs><style>.a{fill:none;stroke:#000;stroke-linecap:round;stroke-linejoin:round;stroke-width:1.5px}</style></defs><rect width="22.5" height="7.5" x=".75" y="15.75" class="a" rx="1.5" ry="1.5"/><path d="M4.5 20.25h8.25m3.75-1.125a.375.375 0 1 1-.375.375.375.375 0 0 1 .375-.375m3.75 0a.375.375 0 1 1-.375.375.375.375 0 0 1 .375-.375M3.509 12.741a9 9 0 1 1 16.979.01" class="a"/><circle cx="12" cy="9.75" r="3" class="a"/><path d="m14.374 1.066-1.649 5.772M15 9.75l5.969-.746" class="a"/></svg>