<svg xmlns="http://www.w3.org/2000/svg" id="Regular" width="24" height="24" viewBox="0 0 24 24"><defs><style>.cls-1{fill:none;stroke:#000;stroke-linecap:round;stroke-linejoin:round;stroke-width:1.5px}</style></defs><rect width="3" height="3" x="10.5" y="20.25" class="cls-1" rx=".5" ry=".5"/><path d="M21 6.75a.75.75 0 0 1-.75-.75V4.5a.75.75 0 0 0-.75-.75H18a.75.75 0 0 1-.75-.75V1.5a.75.75 0 0 0-.75-.75h-9a.75.75 0 0 0-.75.75V3a.75.75 0 0 1-.75.75H4.5a.75.75 0 0 0-.75.75V6a.75.75 0 0 1-.75.75H1.5a.75.75 0 0 0-.75.75V15a.75.75 0 0 0 .75.75H3a.75.75 0 0 0 .75-.75v-1.5a.75.75 0 0 1 .75-.75h5.25a.75.75 0 0 1 .75.75V15a.75.75 0 0 0 .75.75h1.5a.75.75 0 0 0 .75-.75v-1.5a.75.75 0 0 1 .75-.75h5.25a.75.75 0 0 1 .75.75V15a.75.75 0 0 0 .75.75h1.5a.75.75 0 0 0 .75-.75V7.5a.75.75 0 0 0-.75-.75z" class="cls-1"/><rect width="3" height="3" x="6.75" y="6.75" class="cls-1" rx=".75" ry=".75"/><rect width="3" height="3" x="14.25" y="6.75" class="cls-1" rx=".75" ry=".75"/></svg>