<svg xmlns="http://www.w3.org/2000/svg" id="Regular" width="24" height="24" viewBox="0 0 24 24"><defs><style>.cls-1{fill:none;stroke:#000;stroke-linecap:round;stroke-linejoin:round;stroke-width:1.5px}</style></defs><path d="M17.25 12.375a.375.375 0 0 1 .375-.375m0 .75a.375.375 0 0 1-.375-.375m.75 0a.375.375 0 0 1-.375.375m0-.75a.375.375 0 0 1 .375.375m-4.5-2.25a.375.375 0 0 1 .375-.375m0 .75a.375.375 0 0 1-.375-.375m.75 0a.375.375 0 0 1-.375.375m0-.75a.375.375 0 0 1 .375.375" class="cls-1"/><path d="M11.115 5.812 10.007 4.7a1.5 1.5 0 0 0-2.121 0L4.7 7.886a1.5 1.5 0 0 0 0 2.121l1.108 1.108a9 9 0 1 0 5.3-5.3z" class="cls-1"/><path d="M4.7 7.886 1.793 6.165a1.5 1.5 0 0 1-.39-2.4L3.763 1.4a1.5 1.5 0 0 1 2.4.39L7.886 4.7m-2.51 11.05h17.749M20.25 2.25h3m-1.5-1.5v3M.75 19.5h3M2.25 18v3" class="cls-1"/></svg>