<svg xmlns="http://www.w3.org/2000/svg" id="Regular" width="24" height="24" viewBox="0 0 24 24"><defs><style>.cls-1{fill:none;stroke:#000;stroke-linecap:round;stroke-linejoin:round;stroke-width:1.5px}</style></defs><path d="M16.125 9.75a.375.375 0 0 1 .375.375m-.75 0a.375.375 0 0 1 .375-.375m0 .75a.375.375 0 0 1-.375-.375m.75 0a.375.375 0 0 1-.375.375m3.75-.75a.375.375 0 0 1 .375.375m-.75 0a.375.375 0 0 1 .375-.375m0 .75a.375.375 0 0 1-.375-.375m.75 0a.375.375 0 0 1-.375.375M15 23.25H9l.75-4.5h4.5zm-8.25 0h10.5" class="cls-1"/><rect width="22.5" height="18" x=".75" y=".75" class="cls-1" rx="3" ry="3"/><path d="M13.5 13.222a5.25 5.25 0 1 1 0-6.944L8.906 9.75z" class="cls-1"/></svg>