<svg xmlns="http://www.w3.org/2000/svg" id="Regular" width="24" height="24" viewBox="0 0 24 24"><defs><style>.cls-1{fill:none;stroke:#000;stroke-linecap:round;stroke-linejoin:round;stroke-width:1.5px}</style></defs><path d="M4.5.75H19a1 1 0 0 1 1 1v18.5a3 3 0 0 1-3 3H4.5a1 1 0 0 1-1-1V1.75a1 1 0 0 1 1-1" class="cls-1"/><rect width="10.5" height="7.5" x="6.5" y="3.75" class="cls-1" rx=".5" ry=".5"/><path d="M8 14.25v3m1.5-1.5h-3m9.75-1.125a.375.375 0 0 1 .375.375m-.75 0a.375.375 0 0 1 .375-.375m0 .75a.375.375 0 0 1-.375-.375m.75 0a.375.375 0 0 1-.375.375m-3 1.5a.375.375 0 0 1 .375.375m-.75 0a.375.375 0 0 1 .375-.375m0 .75a.375.375 0 0 1-.375-.375m.75 0a.375.375 0 0 1-.375.375" class="cls-1"/></svg>