<svg xmlns="http://www.w3.org/2000/svg" width="24" height="24" viewBox="0 0 24 24"><path d="M9 8.25V.75m0 0h1.5a1.5 1.5 0 0 1 1.5 1.5V3a1.5 1.5 0 0 1-1.5 1.5H9m0 0h1.5A1.5 1.5 0 0 1 12 6v.75a1.5 1.5 0 0 1-1.5 1.5H9m-7.5 6v-6a1.5 1.5 0 0 1 3 0v6m-3-3h3m18 4.5a.75.75 0 0 0-.75-.75h-3v-3a.75.75 0 0 0-.75-.75h-3a.75.75 0 0 0-.75.75v3h-3a.75.75 0 0 0-.75.75v3a.75.75 0 0 0 .75.75h3v3a.75.75 0 0 0 .75.75h3a.75.75 0 0 0 .75-.75v-3h3a.75.75 0 0 0 .75-.75z" style="fill:none;stroke:#000;stroke-linecap:round;stroke-linejoin:round;stroke-width:1.5px"/></svg>