<svg xmlns="http://www.w3.org/2000/svg" id="Regular" width="24" height="24" viewBox="0 0 24 24"><defs><style>.cls-1{fill:none;stroke:#000;stroke-linecap:round;stroke-linejoin:round;stroke-width:1.5px}</style></defs><path d="M19.875 15.75a.375.375 0 0 1 .375.375m-.75 0a.375.375 0 0 1 .375-.375m0 .75a.375.375 0 0 1-.375-.375m.75 0a.375.375 0 0 1-.375.375m0 3a.375.375 0 0 1 .375.375m-.75 0a.375.375 0 0 1 .375-.375m0 .75a.375.375 0 0 1-.375-.375m.75 0a.375.375 0 0 1-.375.375M1.75.75h20.5a1 1 0 0 1 1 1V12H.75V1.75a1 1 0 0 1 1-1" class="cls-1"/><path d="M.75 12h22.5v10.25a1 1 0 0 1-1 1H1.75a1 1 0 0 1-1-1z" class="cls-1"/><rect width="9" height="5.25" x="7.5" y="3.75" class="cls-1" rx=".5" ry=".5"/><rect width="9" height="5.25" x="7.5" y="15" class="cls-1" rx=".5" ry=".5"/><path d="M3 16.5h1.5m-1.5 3h1.5" class="cls-1"/></svg>