<svg xmlns="http://www.w3.org/2000/svg" id="Regular" width="24" height="24" viewBox="0 0 24 24"><defs><style>.cls-1{fill:none;stroke:#000;stroke-linecap:round;stroke-linejoin:round;stroke-width:1.5px}</style></defs><path d="M12.75 2a2.25 2.25 0 0 0-2.25 2.25V6.5" class="cls-1"/><circle cx="12" cy="6.5" r="1.5" class="cls-1"/><path d="M5.25 3.112A1.5 1.5 0 1 1 6.7 5a1.5 1.5 0 1 1-1.446 1.9m13.496-.4a1.5 1.5 0 0 1-3 0v-3a1.5 1.5 0 0 1 3 0zm-3 12.726a4.5 4.5 0 1 1 0-5.952l-3.706 2.976zm3.75 3.008c1.71-1.08 3.751-3.752 3.751-6.1A6.091 6.091 0 0 0 20.436 11" class="cls-1"/><path d="M19.499 18.482v3.752h3.751M4.5 11C2.791 12.08.75 14.751.75 17.1a6.093 6.093 0 0 0 2.814 5.138" class="cls-1"/><path d="M4.501 14.751V11H.75" class="cls-1"/></svg>