<svg xmlns="http://www.w3.org/2000/svg" width="24" height="24" viewBox="0 0 24 24"><defs><style>.a{fill:none;stroke:#000;stroke-linecap:round;stroke-linejoin:round;stroke-width:1.5px}</style></defs><path d="M2.259 23.25a1.5 1.5 0 0 1-1.5-1.5V2.25a1.5 1.5 0 0 1 1.5-1.5h10.629a1.5 1.5 0 0 1 1.061.439l5.871 5.872a1.5 1.5 0 0 1 .439 1.06v4.629" class="a"/><path d="M20.259 8.25h-6a1.5 1.5 0 0 1-1.5-1.5v-6m-3 22.5v-7.5l-2.25 3.75-2.25-3.75v7.5m7.5 0v-7.5m0 0h.75a2.25 2.25 0 0 1 0 4.5h-.75m10.482 3v-1.5m0 0v-5.985a8.259 8.259 0 0 0-4.482 5.985z" class="a"/></svg>