<svg xmlns="http://www.w3.org/2000/svg" width="24" height="24" viewBox="0 0 24 24"><defs><style>.a{fill:none;stroke:#000;stroke-linecap:round;stroke-linejoin:round;stroke-width:1.5px}</style></defs><path d="M9.75 15.75h-7.5a1.5 1.5 0 0 1-1.5-1.5v-12a1.5 1.5 0 0 1 1.5-1.5h6a1.5 1.5 0 0 1 1.5 1.5zm0-3 9-2.25v-6l-9-2.25zm9-3.75 3.513 1.171a.75.75 0 0 0 .987-.712V5.541a.75.75 0 0 0-.987-.712L18.75 6z" class="a"/><path d="M9.75 15.75h9V2.25M4.5 15.75l10.5 7.5m0-7.5-10.5 7.5m9.75-19.875v8.25" class="a"/></svg>