<svg xmlns="http://www.w3.org/2000/svg" width="24" height="24" viewBox="0 0 24 24"><defs><style>.a{fill:none;stroke:#000;stroke-linecap:round;stroke-linejoin:round;stroke-width:1.5px}</style></defs><path d="M11.25 18.75v3a1.5 1.5 0 0 1-1.5 1.5h-7.5a1.5 1.5 0 0 1-1.5-1.5v-9a1.5 1.5 0 0 1 1.5-1.5h3" class="a"/><circle cx="15.75" cy="8.25" r="7.5" class="a"/><circle cx="15.75" cy="8.25" r="3" class="a"/><path d="m21.053 2.947-3.182 3.182m-4.242 4.242-3.182 3.182m7.424-3.182 3.182 3.182m-7.424-7.424-3.182-3.182" class="a"/><circle cx="6" cy="17.25" r="2.25" class="a"/><path d="M15.75 15.75v2.073a1.5 1.5 0 0 1-.829 1.342L11.25 21" class="a"/></svg>