<svg xmlns="http://www.w3.org/2000/svg" width="24" height="24" viewBox="0 0 24 24"><defs><style>.a{fill:none;stroke:#000;stroke-linecap:round;stroke-linejoin:round;stroke-width:1.5px}</style></defs><circle cx="9.75" cy="13.5" r="1.5" class="a"/><path d="M17.25 4.5h-15A1.5 1.5 0 0 0 .75 6v15a1.5 1.5 0 0 0 1.5 1.5h19.5a1.5 1.5 0 0 0 1.5-1.5V6a1.5 1.5 0 0 0-1.5-1.5h-1.5m-7.017 13.886a6 6 0 1 1 2.22-6.756" class="a"/><rect width="3" height="6" x="17.25" y="1.5" class="a" rx="1.5" ry="1.5"/><path d="M18.75 7.5v5.25l-3.75 3" class="a"/></svg>