<svg xmlns="http://www.w3.org/2000/svg" width="24" height="24" viewBox="0 0 24 24"><defs><style>.a{fill:none;stroke:#000;stroke-linecap:round;stroke-linejoin:round;stroke-width:1.5px}</style></defs><path d="M.75 22.5h13.5a1.5 1.5 0 0 0 1.5-1.5V3a1.5 1.5 0 0 0-1.5-1.5H.75" class="a"/><circle cx="3.375" cy="15.375" r="1.875" class="a"/><circle cx="10.875" cy="13.125" r="1.875" class="a"/><path d="M5.25 15.375V8.75a1.5 1.5 0 0 1 1.026-1.423l4.5-1.25A1.5 1.5 0 0 1 12.75 7.5v5.625m3 .987a2.227 2.227 0 0 0 .75.138 2.25 2.25 0 0 0 0-4.5 2.227 2.227 0 0 0-.75.138" class="a"/><path d="M15.75 18.674a6.614 6.614 0 0 0 .75.076 6.75 6.75 0 0 0 0-13.5 6.614 6.614 0 0 0-.75.076" class="a"/></svg>