<svg xmlns="http://www.w3.org/2000/svg" width="24" height="24" viewBox="0 0 24 24"><defs><style>.a{fill:none;stroke:#000;stroke-linecap:round;stroke-linejoin:round;stroke-width:1.5px}</style></defs><path d="M.75.75v13.5m9-13.5v13.5m3-13.5v10.5m9-10.5V9m-18-3.75v4.5m15-4.5v3m-12-4.5v7.5m9-7.5V9" class="a"/><rect width="9" height="7.5" x="14.25" y="15.75" class="a" rx="1.5" ry="1.5"/><path d="M18.75 11.25a3 3 0 0 0-3 3v1.5h6v-1.5a3 3 0 0 0-3-3m0 7.904a.375.375 0 1 1-.375.375.375.375 0 0 1 .375-.375" class="a"/></svg>