<svg xmlns="http://www.w3.org/2000/svg" width="24" height="24" viewBox="0 0 24 24"><defs><style>.a{fill:none;stroke:#000;stroke-linecap:round;stroke-linejoin:round;stroke-width:1.5px}</style></defs><path d="M17.25.75A2.251 2.251 0 0 0 15 3v2.25" class="a"/><circle cx="16.5" cy="5.25" r="1.5" class="a"/><path d="M9.75 1.862A1.5 1.5 0 1 1 11.2 3.75a1.5 1.5 0 1 1-1.445 1.9m13.495-.4a1.5 1.5 0 0 1-3 0v-3a1.5 1.5 0 0 1 3 0z" class="a"/><rect width="6" height="13.5" x="6.75" y="9.75" class="a" rx="1.5" ry="1.5"/><path d="M9.75 13.875a.375.375 0 1 0 .375.375.375.375 0 0 0-.375-.375m0 3.375v3m6-.792A9.008 9.008 0 0 0 17.934 9M6.75 4.263a9 9 0 0 0-3 15.195m-3-6.708h3m12 0h3" class="a"/></svg>