<svg xmlns="http://www.w3.org/2000/svg" width="24" height="24" viewBox="0 0 24 24"><defs><style>.a{fill:none;stroke:#000;stroke-linecap:round;stroke-linejoin:round;stroke-width:1.5px}</style></defs><circle cx="15" cy="14.25" r="1.5" class="a"/><circle cx="9" cy="14.25" r="1.5" class="a"/><path d="M6.311 5.689 4.189 7.811m2.122 0L4.189 5.689m15.622 0-2.122 2.122m2.122 0-2.122-2.122M14.25 18.75h-4.5a1.5 1.5 0 0 0-1.5 1.5v1.5h7.5v-1.5a1.5 1.5 0 0 0-1.5-1.5" class="a"/><circle cx="18.75" cy="6.75" r="4.5" class="a"/><circle cx="5.25" cy="6.75" r="4.5" class="a"/><path d="M20.25 10.994v9.256a1.5 1.5 0 0 1-1.5 1.5H5.25a1.5 1.5 0 0 1-1.5-1.5v-9.256M9.494 8.25h5.012" class="a"/></svg>