<svg xmlns="http://www.w3.org/2000/svg" width="24" height="24" viewBox="0 0 24 24"><defs><style>.a{fill:none;stroke:#000;stroke-linecap:round;stroke-linejoin:round;stroke-width:1.5px}</style></defs><path d="M11.25 20.25h3m-13.5-6V12a11.25 11.25 0 0 1 22.5 0v2.25" class="a"/><rect width="3" height="6" x=".75" y="12.75" class="a" rx="1.5" ry="1.5"/><rect width="3" height="6" x="20.25" y="12.75" class="a" rx="1.5" ry="1.5"/><rect width="9" height="13.5" x="8.25" y="9.75" class="a" rx="1.5" ry="1.5"/><path d="M6.75 12.75h1.5m-1.5 3h1.5m6.375.75a.375.375 0 1 1-.375.375.375.375 0 0 1 .375-.375m0-3.75a.375.375 0 1 1-.375.375.375.375 0 0 1 .375-.375" class="a"/></svg>