<svg xmlns="http://www.w3.org/2000/svg" width="24" height="24" viewBox="0 0 24 24"><defs><style>.a{fill:none;stroke:#000;stroke-linecap:round;stroke-linejoin:round;stroke-width:1.5px}</style></defs><path d="M19.119 9.769a3.9 3.9 0 0 0-3.363 3.945v3.536h1.5v5.25a.75.75 0 0 0 .75.75h3a.75.75 0 0 0 .75-.75v-5.25h1.5V13.5a3.752 3.752 0 0 0-4.137-3.731" class="a"/><circle cx="19.506" cy="3.75" r="3" class="a"/><path d="M13.506 9.75h-1.038A1.5 1.5 0 0 0 11 10.936l-1.74 8.128a1.5 1.5 0 0 1-1.467 1.186H.756m1.125 2.25a.375.375 0 1 1-.375.375.375.375 0 0 1 .375-.375m6 0a.375.375 0 1 1-.375.375.375.375 0 0 1 .375-.375" class="a"/><rect width="6" height="6" x=".756" y="11.25" class="a" rx=".75" ry=".75"/><path d="M22.506 3.75h-7.5" class="a"/></svg>