<svg xmlns="http://www.w3.org/2000/svg" width="24" height="24" viewBox="0 0 24 24"><defs><style>.a{fill:none;stroke:#000;stroke-linecap:round;stroke-linejoin:round;stroke-width:1.5px}</style></defs><circle cx="3.006" cy="21.75" r="1.5" class="a"/><circle cx="19.506" cy="21.75" r="1.5" class="a"/><path d="m3.756 3 .372-1.118A1.657 1.657 0 0 1 5.7.75a1.656 1.656 0 0 1 1.65 1.8L3.006 18h19.5V6a1.5 1.5 0 0 0-1.5-1.5h-14.2" class="a"/><path d="M8.256 18h7.5v-6H9.327a1.071 1.071 0 0 0-1.071 1.071zm3-3h1.5" class="a"/><path d="M15.756 9.75h3.214a.535.535 0 0 1 .535.535V18h-3.75V9.75z" class="a"/><path d="M10.256 7.5h5a.5.5 0 0 1 .5.5v4h-6V8a.5.5 0 0 1 .5-.5" class="a"/></svg>