<svg xmlns="http://www.w3.org/2000/svg" width="24" height="24" viewBox="0 0 24 24"><defs><style>.a{fill:none;stroke:#000;stroke-linecap:round;stroke-linejoin:round;stroke-width:1.5px}</style></defs><circle cx="12.798" cy="11.202" r="5.185" class="a"/><path d="m20.744 8.494 2.072-2.072a1.481 1.481 0 0 0 0-2.095l-3.143-3.143a1.482 1.482 0 0 0-2.095 0L15.412 3.35m-2.09 6.281-.872 1.919m-.046.046 1.528 1.528m-3.875 6.058L5.988 23.25l-3.759-.94a.738.738 0 0 1-.539-.539l-.94-3.759 4.193-4.193" class="a"/><path d="M5.625 18a.375.375 0 1 0 .375.375.375.375 0 0 0-.375-.375" class="a"/></svg>