<svg xmlns="http://www.w3.org/2000/svg" id="Regular" width="24" height="24" viewBox="0 0 24 24"><defs><style>.cls-1{fill:none;stroke:#000;stroke-linecap:round;stroke-linejoin:round;stroke-width:1.5px}</style></defs><path d="m3.751 23.25-2.014-2.381a4.5 4.5 0 0 1-.986-2.811v-5.172a1.5 1.5 0 0 1 1.5-1.5 1.5 1.5 0 0 1 1.5 1.5v3.75" class="cls-1"/><path d="M8.251 23.25v-3a4.506 4.506 0 0 0-.757-2.5l-1.143-1.71a1.4 1.4 0 0 0-1.977-.44 1.4 1.4 0 0 0-.474 1.786l1.352 2.25m14.999 3.614 2.014-2.381a4.5 4.5 0 0 0 .986-2.811v-5.172a1.5 1.5 0 0 0-1.5-1.5 1.5 1.5 0 0 0-1.5 1.5v3.75" class="cls-1"/><path d="M15.751 23.25v-3a4.5 4.5 0 0 1 .757-2.5l1.142-1.71a1.4 1.4 0 0 1 1.977-.445 1.4 1.4 0 0 1 .476 1.791l-1.352 2.25M16.463 9.037a4.463 4.463 0 1 1-8.925 0C7.538 5.212 11.363.75 12 .75s4.463 4.462 4.463 8.287M12 10.5A1.5 1.5 0 0 1 10.5 9" class="cls-1"/></svg>