<svg xmlns="http://www.w3.org/2000/svg" width="24" height="24" viewBox="0 0 24 24"><path d="M16.426 13.537a4.463 4.463 0 1 1-8.925 0c0-3.825 3.825-8.287 4.462-8.287s4.463 4.462 4.463 8.287M.85 13.5a11.429 11.429 0 0 1-.1-1.5A11.25 11.25 0 0 1 12 .75M23.152 13.5a11.429 11.429 0 0 0 .1-1.5A11.25 11.25 0 0 0 12 .75m10.317 15.742a10.7 10.7 0 0 1-1.41 2.38m-2.169 2.134a10.576 10.576 0 0 1-2.4 1.372m-8.651 0a10.5 10.5 0 0 1-2.4-1.372m-2.172-2.133a10.706 10.706 0 0 1-1.41-2.381M13.5 23.151a11.413 11.413 0 0 1-3 0" style="fill:none;stroke:#000;stroke-linecap:round;stroke-linejoin:round;stroke-width:1.5px"/></svg>