<svg xmlns="http://www.w3.org/2000/svg" id="Regular" width="24" height="24" viewBox="0 0 24 24"><defs><style>.cls-1{fill:none;stroke:#000;stroke-linecap:round;stroke-linejoin:round;stroke-width:1.5px}</style></defs><path d="M8.25 3.775v-3m-4.5 7.5h-3m10.682-3.182 2.121-2.121M5.068 5.093 2.947 2.972M4.5 10.759a4.5 4.5 0 1 1 7.65-4.736" class="cls-1"/><path d="M9.375 22.525a.375.375 0 0 1 .375.375m-.75 0a.375.375 0 0 1 .375-.375m0 .75A.375.375 0 0 1 9 22.9m.75 0a.375.375 0 0 1-.375.375m4.5-.75a.375.375 0 0 1 .375.375m-.75 0a.375.375 0 0 1 .375-.375m0 .75a.375.375 0 0 1-.375-.375m.75 0a.375.375 0 0 1-.375.375" style="fill:none;stroke:#000;stroke-linecap:round;stroke-linejoin:round;stroke-width:1.5px;fill-rule:evenodd"/><path d="M20.25 17.972a6 6 0 1 0-8.887-6.319 3.745 3.745 0 1 0-1.613 7.122" class="cls-1"/><path d="M11.25 12.775a5.993 5.993 0 0 0 .047.75 5.993 5.993 0 0 1-.047-.75 5.848 5.848 0 0 1 .113-1.122m2.137 7.122-3.86 3.86m8.36-3.86-3.86 3.86" class="cls-1"/></svg>