<svg xmlns="http://www.w3.org/2000/svg" id="Regular" width="24" height="24" viewBox="0 0 24 24"><defs><style>.cls-1{fill:none;stroke:#000;stroke-linecap:round;stroke-linejoin:round;stroke-width:1.5px}</style></defs><path d="M20.25 17.96a6 6 0 1 0-8.887-6.32 3.745 3.745 0 1 0-1.613 7.123M8.25 3.762v-3m-4.5 7.5h-3m10.682-3.181 2.121-2.122M5.068 5.081 2.947 2.959M4.5 10.747a4.5 4.5 0 1 1 7.65-4.736" class="cls-1"/><path d="m16.5 15.013-3.75 3.75h4.5l-4.5 4.5" style="fill:none;stroke:#000;stroke-linecap:round;stroke-linejoin:round;stroke-width:1.5px;fill-rule:evenodd"/><path d="M9 22.138a.374.374 0 0 1 .375.375m-.75 0A.374.374 0 0 1 9 22.138m0 .75a.375.375 0 0 1-.375-.375m.75 0a.375.375 0 0 1-.375.375m9.75-.75a.374.374 0 0 1 .375.375m-.75 0a.374.374 0 0 1 .375-.375m0 .75a.375.375 0 0 1-.375-.375m.75 0a.375.375 0 0 1-.375.375m-7.5-10.125a5.993 5.993 0 0 0 .047.75 5.993 5.993 0 0 1-.047-.75 5.85 5.85 0 0 1 .113-1.123" class="cls-1"/></svg>