<svg xmlns="http://www.w3.org/2000/svg" id="Regular" width="24" height="24" viewBox="0 0 24 24"><defs><style>.cls-1{fill:none;stroke:#000;stroke-linecap:round;stroke-linejoin:round;stroke-width:1.5px}</style></defs><path d="M14.25 15.75v4.767a2.732 2.732 0 0 1-2.733 2.733H4.983a2.732 2.732 0 0 1-2.733-2.733V4.983A2.732 2.732 0 0 1 4.983 2.25H8.25m-6 16.5h12m-.75-16.5 2.25 1.5L18 2.25m-2.25 10.5v-12m-2.25 10.5 2.25-1.5 2.25 1.5m2.25-6.75-1.5 2.25L20.25 9M9.75 6.75h12" class="cls-1"/><path d="m11.25 4.5 1.5 2.25L11.25 9" class="cls-1"/></svg>