<svg xmlns="http://www.w3.org/2000/svg" id="Regular" width="24" height="24" viewBox="0 0 24 24"><defs><style>.cls-1{fill:none;stroke:#000;stroke-linecap:round;stroke-linejoin:round;stroke-width:1.5px}</style></defs><path d="M14 15.75v4.767a2.732 2.732 0 0 1-2.733 2.733H4.733A2.732 2.732 0 0 1 2 20.517V4.983A2.732 2.732 0 0 1 4.733 2.25H8m-6 16.5h12m-.75-7.5 1.419-2.333m1.581 2.333 1.5-2.292M13.438 5.25a4.524 4.524 0 0 0 .034.562 4.524 4.524 0 0 1-.034-.562 4.411 4.411 0 0 1 .084-.842" class="cls-1"/><path d="M20.253 9.109a4.5 4.5 0 1 0-6.731-4.7 2.808 2.808 0 0 0-2.755 4.879" class="cls-1"/></svg>