<svg xmlns="http://www.w3.org/2000/svg" id="Regular" width="24" height="24" viewBox="0 0 24 24"><defs><style>.cls-1,.cls-2{fill:none;stroke:#000;stroke-linecap:round;stroke-linejoin:round;stroke-width:1.5px}.cls-1{fill-rule:evenodd}</style></defs><path d="M5.232 20.739a.375.375 0 0 1 .375.375m-.75 0a.375.375 0 0 1 .375-.375m0 .75a.375.375 0 0 1-.375-.375m.75 0a.375.375 0 0 1-.375.375" class="cls-1"/><path d="M9.732 8.364a5.993 5.993 0 0 0 .047.75 5.993 5.993 0 0 1-.047-.75 5.921 5.921 0 0 1 .113-1.122" class="cls-2"/><path d="M15.732 14.364a6 6 0 1 0-5.887-7.122 3.745 3.745 0 1 0-1.613 7.122zm-6.75 3-3.485 3.485" class="cls-2"/><path d="M9.732 20.739a.375.375 0 0 1 .375.375m-.75 0a.375.375 0 0 1 .375-.375m0 .75a.375.375 0 0 1-.375-.375m.75 0a.375.375 0 0 1-.375.375" class="cls-1"/><path d="m13.482 17.364-3.485 3.485" class="cls-2"/><path d="M14.232 20.739a.375.375 0 0 1 .375.375m-.75 0a.375.375 0 0 1 .375-.375m0 .75a.375.375 0 0 1-.375-.375m.75 0a.375.375 0 0 1-.375.375" class="cls-1"/><path d="m17.982 17.364-3.485 3.485" class="cls-2"/></svg>