<svg xmlns="http://www.w3.org/2000/svg" id="Regular" width="24" height="24" viewBox="0 0 24 24"><defs><style>.cls-1{fill:none;stroke:#000;stroke-linecap:round;stroke-linejoin:round;stroke-width:1.5px}</style></defs><path d="m19.5 21-2.25 2.25M10.5 21l-2.25 2.25m0-19.5v-3m-4.5 7.5h-3m10.682-3.182 2.121-2.121M5.068 5.068 2.947 2.947M4.5 10.734A4.5 4.5 0 1 1 12.147 6" class="cls-1"/><path d="m16.5 15-3.75 3.75h4.5L13.5 22.5" style="fill:none;stroke:#000;stroke-linecap:round;stroke-linejoin:round;stroke-width:1.5px;fill-rule:evenodd"/><path d="M20.25 17.947a6 6 0 1 0-8.887-6.319A3.745 3.745 0 1 0 9.75 18.75" class="cls-1"/><path d="M11.25 12.75a5.993 5.993 0 0 0 .047.75 5.993 5.993 0 0 1-.047-.75 5.848 5.848 0 0 1 .113-1.122" class="cls-1"/></svg>