<svg xmlns="http://www.w3.org/2000/svg" id="Regular" width="24" height="24" viewBox="0 0 24 24"><defs><style>.cls-1{fill:none;stroke:#000;stroke-linecap:round;stroke-linejoin:round;stroke-width:1.5px}</style></defs><path d="M9.159 8.309a5.993 5.993 0 0 0 .047.75 5.993 5.993 0 0 1-.047-.75 5.848 5.848 0 0 1 .113-1.122" class="cls-1"/><path d="M15.159 14.309a6 6 0 1 0-5.887-7.122 3.745 3.745 0 1 0-1.613 7.122z" class="cls-1"/><path d="m12.159 14.309-3 3h4.5l-3.75 3.75" style="fill:none;stroke:#000;stroke-linecap:round;stroke-linejoin:round;stroke-width:1.5px;fill-rule:evenodd"/><path d="M5.784 20.684a.375.375 0 0 1 .375.375m-.75 0a.375.375 0 0 1 .375-.375m0 .75a.375.375 0 0 1-.375-.375m.75 0a.375.375 0 0 1-.375.375m9.75-.75a.375.375 0 0 1 .375.375m-.75 0a.375.375 0 0 1 .375-.375m0 .75a.375.375 0 0 1-.375-.375m.75 0a.375.375 0 0 1-.375.375" class="cls-1"/></svg>