<svg xmlns="http://www.w3.org/2000/svg" width="24" height="24" viewBox="0 0 24 24"><defs><style>.a{fill:none;stroke:#000;stroke-linecap:round;stroke-linejoin:round;stroke-width:1.5px}</style></defs><path d="M.75 23.25h22.5" class="a"/><rect width="19.5" height="10.5" x="2.25" y="9.75" class="a" rx="1.5" ry="1.5"/><path d="M12 13.125a2.625 2.625 0 0 1-5.25 0 2.624 2.624 0 0 1-4.5 1.836m19.5 0a2.624 2.624 0 0 1-4.5-1.836 2.625 2.625 0 0 1-5.25 0" class="a"/><circle cx="8.25" cy="2.25" r="1.5" class="a"/><circle cx="15.75" cy="2.25" r="1.5" class="a"/><path d="m9 9.75.789-2.367a1.622 1.622 0 1 0-3.078 0L7.5 9.75m10.5 0-.5-3.02a1.771 1.771 0 0 0-3.5 0l-.5 3.02" class="a"/></svg>