<svg xmlns="http://www.w3.org/2000/svg" id="Regular" width="24" height="24" viewBox="0 0 24 24"><defs><style>.cls-1{fill:none;stroke:#000;stroke-linecap:round;stroke-linejoin:round;stroke-width:1.5px}</style></defs><path d="M5.05 23.25a25.538 25.538 0 0 1 5.59-10.733C2.25 8.25.75 1.5.75 1.5s5.25 0 9 2.25c1.289.773 3.537 4.652 3.933 5.927 5.66-4.339 7.617-.727 7.617-.727C18.012 19.471 8.072 22.009 5.612 21.276" class="cls-1"/><path d="m17.387 7.7.013-.05s1.15-4.3-.15-6.9a9.672 9.672 0 0 0-3 3.75m7.05 4.45a1.423 1.423 0 0 1 1.95.65" class="cls-1"/></svg>