<svg xmlns="http://www.w3.org/2000/svg" id="Regular" width="24" height="24" viewBox="0 0 24 24"><defs><style>.cls-1{fill:none;stroke:#000;stroke-linecap:round;stroke-linejoin:round;stroke-width:1.5px}</style></defs><ellipse cx="12" cy="4.125" class="cls-1" rx="7.549" ry="3.375"/><path d="M20.884 9.485A14.753 14.753 0 0 1 12 12.116a14.753 14.753 0 0 1-8.884-2.631M20.7 15.51A14.942 14.942 0 0 1 12 18a14.942 14.942 0 0 1-8.7-2.49M8.625 3.75a.375.375 0 1 1-.375.375.375.375 0 0 1 .375-.375" class="cls-1"/><path d="M4.5 3.75a23.433 23.433 0 0 0 0 16.5c.75 1.5 3.358 3 7.5 3s6.75-1.5 7.5-3a23.433 23.433 0 0 0 0-16.5" class="cls-1"/></svg>