<svg xmlns="http://www.w3.org/2000/svg" id="Regular" width="24" height="24" viewBox="0 0 24 24"><defs><style>.cls-1{fill:none;stroke:#000;stroke-linecap:round;stroke-linejoin:round;stroke-width:1.5px}</style></defs><circle cx="12" cy="4.125" r="2.625" class="cls-1"/><path d="M21 9H3a1.5 1.5 0 0 0 0 3h7.5v3H9a4.505 4.505 0 0 0-4.5 4.5V21a1.5 1.5 0 0 0 3 0v-1.5A1.5 1.5 0 0 1 9 18h2.073l1.006 2.013A4.479 4.479 0 0 0 16.1 22.5H18a1.5 1.5 0 0 0 0-3h-1.9a1.491 1.491 0 0 1-1.341-.829L13.5 16.146V12H21a1.5 1.5 0 0 0 0-3m-10.5 6h3" class="cls-1"/></svg>