<svg width="178" height="189" viewBox="0 0 178 189" fill="none" xmlns="http://www.w3.org/2000/svg">
<path opacity="0.35" d="M93.7094 161.331C73.0229 173.274 39.4834 173.274 18.7969 161.331C-1.88958 149.389 -1.88958 130.027 18.7969 118.084C39.4834 106.142 73.0229 106.142 93.7094 118.084C114.396 130.027 114.396 149.389 93.7094 161.331Z" fill="#959AA1" fill-opacity="0.2"/>
<path d="M95.4283 9.40964C84.466 3.08108 70.2808 0 56.2529 0C42.2251 0 28.0399 3.08108 17.0776 9.40964C5.94169 15.8384 -0.211686 24.7232 0.00556332 34.1792V126.882C0.00556332 126.905 0.00585942 126.929 0.00645144 126.953C0.231528 136.051 6.33586 144.53 17.0776 150.731C28.0399 157.06 42.2251 160.141 56.2529 160.141C70.2808 160.141 84.466 157.06 95.4283 150.731C106.17 144.53 112.274 136.051 112.499 126.953C112.5 126.938 112.5 126.923 112.5 126.908C112.5 126.899 112.5 126.89 112.5 126.881V34.1793C112.718 24.7232 106.564 15.8384 95.4283 9.40964Z" fill="#3C3F44"/>
<path d="M93.9759 11.9397C73.1416 -0.0879612 39.3626 -0.0879612 18.5283 11.9397C7.91624 18.066 2.7095 26.1313 2.90812 34.1602L2.90812 126.865C3.09945 134.599 8.30619 142.299 18.5283 148.2C39.3626 160.228 73.1416 160.228 93.9759 148.2C104.198 142.299 109.405 134.599 109.596 126.865V34.1602C109.795 26.1313 104.588 18.066 93.9759 11.9397Z" fill="#818790" fill-opacity="0.08" stroke="#212325" stroke-linejoin="round"/>
<path d="M93.9767 148.135C73.1423 160.163 39.3629 160.163 18.5284 148.135C-2.30603 136.107 -2.30603 116.607 18.5284 104.579C39.3629 92.551 73.1423 92.551 93.9767 104.579C114.811 116.607 114.811 136.107 93.9767 148.135Z" fill="#1A1B1D" stroke="#F5F6F6" stroke-linejoin="round"/>
<path d="M94.0874 148.2C73.1913 160.263 39.3121 160.263 18.4161 148.2C-2.48 136.136 -2.48 116.578 18.4161 104.515C39.3121 92.4513 73.1913 92.4513 94.0874 104.515C114.983 116.578 114.983 136.136 94.0874 148.2Z" fill="#3C3F44" stroke="#212325" stroke-linejoin="round"/>
<path d="M89.2545 141.696C80.5899 147.196 68.6654 150.231 56.2508 150.231C43.8363 150.231 31.9118 147.196 23.2472 141.696C14.5399 136.168 12.2071 130.296 12.2071 126.435C12.2071 122.574 14.5399 116.702 23.2472 111.174C31.9118 105.673 43.8363 102.638 56.2508 102.638C68.6654 102.638 80.5899 105.673 89.2545 111.174C97.9618 116.702 100.295 122.574 100.295 126.435C100.295 130.296 97.9618 136.168 89.2545 141.696Z" stroke="#212325" stroke-linejoin="round"/>
<path fill-rule="evenodd" clip-rule="evenodd" d="M95.4291 9.43512C84.4667 3.1065 70.2814 0.0253906 56.2534 0.0253906C42.2254 0.0253906 28.0401 3.1065 17.0776 9.43512C6.13153 15.7543 0 24.4426 0 33.7277C0 43.0129 6.13153 51.7012 17.0776 58.0204C28.0401 64.349 42.2254 67.4301 56.2534 67.4301C70.2814 67.4301 84.4667 64.349 95.4291 58.0204C106.375 51.7012 112.507 43.0129 112.507 33.7277C112.507 24.4426 106.375 15.7543 95.4291 9.43512Z" fill="#3C3F44"/>
<path d="M93.9768 55.5061C73.1423 67.5338 39.363 67.5338 18.5285 55.5061C-2.30597 43.4783 -2.30597 23.9775 18.5285 11.9498C39.363 -0.07798 73.1423 -0.07798 93.9768 11.9498C114.811 23.9775 114.811 43.4783 93.9768 55.5061Z" stroke="#212325" stroke-linejoin="round"/>
<path d="M87.9521 52.028C70.445 62.1349 42.0604 62.1349 24.5533 52.028C7.04626 41.9212 7.04626 25.5347 24.5533 15.4279C42.0604 5.32107 70.445 5.32107 87.9521 15.4279C105.459 25.5347 105.459 41.9212 87.9521 52.028Z" fill="#818790" fill-opacity="0.08" stroke="#212325" stroke-linejoin="round"/>
<g opacity="0.3">
<path opacity="0.1" fill-rule="evenodd" clip-rule="evenodd" d="M33.7265 101.28C34.8963 101.955 35.226 102.932 34.7155 103.777L55.5839 112.098C55.8321 111.856 56.1365 111.628 56.4971 111.42C56.9679 111.148 57.4983 110.932 58.0639 110.77L54.6097 107.904C53.827 108.06 52.9236 107.958 52.2987 107.597C51.4269 107.094 51.4269 106.278 52.2987 105.775C53.1706 105.271 54.5841 105.271 55.4559 105.775C56.2568 106.237 56.3219 106.963 55.6512 107.469L59.3164 110.51C61.2501 110.246 63.3693 110.549 64.8776 111.42C65.3265 111.679 65.6883 111.97 65.963 112.279L77.905 106.518C76.8279 105.493 77.0561 104.14 78.5895 103.255C80.3908 102.215 83.3113 102.215 85.1126 103.255C86.9139 104.295 86.9138 105.981 85.1125 107.021C84.2315 107.53 83.0829 107.789 81.9285 107.8L78.0652 122.828L78.9953 124.765L86.3136 117.619C85.4875 117.022 85.5535 116.149 86.5117 115.595C87.5409 115.001 89.2094 115.001 90.2385 115.596C91.2676 116.19 91.2675 117.153 90.2384 117.747C89.4423 118.207 88.2636 118.311 87.2943 118.059L79.1954 125.967L78.6968 126.454L78.3953 125.826L77.8864 124.766L77.6708 127.465C78.6149 127.64 79.503 127.945 80.2526 128.377C82.7754 129.834 82.7753 132.195 80.2524 133.652C77.7294 135.108 73.639 135.108 71.1161 133.651C68.5933 132.195 68.5934 129.833 71.1163 128.377C71.5916 128.103 72.1224 127.88 72.6879 127.709L68.91 122.006C67.7454 122.354 66.2988 122.279 65.2554 121.781L58.5561 127.126C59.2957 127.778 59.1695 128.661 58.1774 129.234C57.0407 129.89 55.1978 129.89 54.0612 129.234C53.281 128.783 53.0364 128.141 53.3273 127.57L43.0854 123.257C42.8171 123.926 42.2314 124.561 41.3286 125.082C40.9649 125.292 40.5693 125.472 40.1508 125.623L45.8576 134.496L45.0166 135.037L39.1508 125.917C36.7751 126.472 33.9508 126.194 32.0241 125.082C29.4548 123.598 29.4549 121.193 32.0243 119.71C33.4187 118.905 35.2831 118.537 37.1073 118.606L31.4447 105.36C30.1671 105.479 28.8122 105.254 27.8272 104.685C26.1983 103.745 26.1983 102.22 27.8273 101.28C29.4564 100.339 32.0975 100.339 33.7265 101.28ZM33.7263 104.685C33.3495 104.903 32.9185 105.07 32.4584 105.187L38.2376 118.706C39.21 118.842 40.1389 119.108 40.9421 119.504L54.9739 114.749C54.6909 114.155 54.6905 113.526 54.9726 112.931L33.9475 104.548C33.8775 104.595 33.8037 104.641 33.7263 104.685ZM42.0335 120.19C42.794 120.804 43.1996 121.519 43.2503 122.241L54.1261 126.821C55.0886 126.298 56.5169 126.225 57.6097 126.602L64.4113 121.175C63.7694 120.452 63.9728 119.543 65.0214 118.938C66.3222 118.187 68.4312 118.187 69.7319 118.938C70.9966 119.668 71.0316 120.84 69.837 121.594L73.7224 127.46C74.6794 127.285 75.6931 127.241 76.6784 127.329L77.0371 122.84L77.0406 122.797L77.0513 122.755L80.9102 107.745C80.1736 107.657 79.4671 107.464 78.8623 107.166L66.4875 113.137C66.8827 114.229 66.346 115.411 64.8774 116.258C62.5632 117.594 58.8111 117.594 56.4969 116.258C56.1434 116.054 55.8438 115.83 55.5983 115.593L42.0335 120.19Z" fill="#6F757E"/>
<circle opacity="0.1" cx="2.37642" cy="2.37642" r="2.37642" transform="matrix(0.866025 0.5 0.866063 -0.499935 42.387 135.458)" fill="#6F757E"/>
<path d="M76.1739 124.731L82.0773 88.0675L62.0213 95.7981M76.1739 124.731L67.267 108.574L56.3639 123.304L36.4655 116.297M76.1739 124.731L88.4054 103.755M62.0213 95.7981L36.4655 116.297M62.0213 95.7981L28.4348 80.2338L36.4655 116.297M62.0213 95.7981L52.3279 83.461M36.4655 116.297L46.6767 132.014" stroke="#F5F6F6"/>
<ellipse cx="7.93362" cy="7.93362" rx="7.93362" ry="7.93362" transform="matrix(-4.37114e-08 1 1 4.37114e-08 28.7391 108.075)" fill="#A8ACB2"/>
<path opacity="0.5" fill-rule="evenodd" clip-rule="evenodd" d="M44.3899 114.162C43.5574 117.653 40.4181 120.248 36.6725 120.248C32.9269 120.248 29.7876 117.653 28.9551 114.162C28.8137 114.755 28.7389 115.373 28.7389 116.009C28.7389 120.391 32.2909 123.943 36.6725 123.943C41.0541 123.943 44.6061 120.391 44.6061 116.009C44.6061 115.373 44.5313 114.755 44.3899 114.162Z" fill="#6F757E"/>
<ellipse cx="7.93362" cy="7.93362" rx="7.93362" ry="7.93362" transform="matrix(-4.37114e-08 1 1 4.37114e-08 28.7391 108.075)" stroke="#F5F6F6"/>
<ellipse cx="5.87439" cy="5.87439" rx="5.87439" ry="5.87439" transform="matrix(0.258819 0.965926 0.965926 -0.258819 74.9963 84.762)" fill="#A8ACB2"/>
<path opacity="0.5" fill-rule="evenodd" clip-rule="evenodd" d="M87.89 87.4859C88.6701 90.5908 86.8161 93.7581 83.7126 94.5897C80.5788 95.4294 77.3577 93.5697 76.518 90.4359C76.2493 89.4331 76.257 88.4214 76.4944 87.4816C76.502 87.5118 76.5099 87.5421 76.518 87.5724C77.3577 90.7062 80.5788 92.5659 83.7126 91.7262C85.8436 91.1552 87.3855 89.483 87.89 87.4859Z" fill="#6F757E"/>
<ellipse cx="5.87439" cy="5.87439" rx="5.87439" ry="5.87439" transform="matrix(0.258819 0.965926 0.965926 -0.258819 74.9963 84.762)" stroke="#F5F6F6"/>
<ellipse cx="6.96153" cy="6.96153" rx="6.96153" ry="6.96153" transform="matrix(-4.37114e-08 1 1 4.37114e-08 68.756 117.091)" fill="#6F757E"/>
<path opacity="0.5" fill-rule="evenodd" clip-rule="evenodd" d="M82.5233 122.582C81.8484 125.721 79.0576 128.074 75.7173 128.074C72.377 128.074 69.5862 125.721 68.9114 122.582C68.8095 123.056 68.7558 123.548 68.7558 124.053C68.7558 127.898 71.8726 131.014 75.7173 131.014C79.5621 131.014 82.6789 127.898 82.6789 124.053C82.6789 123.548 82.6252 123.056 82.5233 122.582Z" fill="#3C3F44"/>
<ellipse cx="6.96153" cy="6.96153" rx="6.96153" ry="6.96153" transform="matrix(-4.37114e-08 1 1 4.37114e-08 68.756 117.091)" stroke="#F5F6F6"/>
<circle cx="6.25283" cy="6.25283" r="6.25283" transform="matrix(-0.5 0.866025 0.866025 0.5 26.9062 72.7002)" fill="#3C3F44"/>
<path opacity="0.5" fill-rule="evenodd" clip-rule="evenodd" d="M34.5409 81.342C32.8142 84.3327 28.99 85.3574 25.9994 83.6307C24.5136 82.7729 23.5131 81.3974 23.094 79.8637C22.5056 82.4646 23.6376 85.2536 26.0684 86.657C29.059 88.3837 32.8832 87.359 34.6099 84.3684C35.4787 82.8634 35.6509 81.1475 35.2265 79.5939C35.091 80.193 34.8641 80.7821 34.5409 81.342Z" fill="#6F757E"/>
<circle cx="6.25283" cy="6.25283" r="6.25283" transform="matrix(-0.5 0.866025 0.866025 0.5 26.9062 72.7002)" stroke="#F5F6F6"/>
<ellipse cx="5.87439" cy="5.87439" rx="5.87439" ry="5.87439" transform="matrix(-4.37114e-08 1 1 4.37114e-08 56.118 89.6234)" fill="#6F757E"/>
<path opacity="0.5" fill-rule="evenodd" clip-rule="evenodd" d="M67.615 93.7899C66.8834 96.2012 64.6431 97.9563 61.9928 97.9563C59.3425 97.9563 57.1022 96.2012 56.3706 93.7899C56.2066 94.3304 56.1184 94.9039 56.1184 95.4979C56.1184 98.7423 58.7485 101.372 61.9928 101.372C65.2371 101.372 67.8672 98.7423 67.8672 95.4979C67.8672 94.9039 67.779 94.3304 67.615 93.7899Z" fill="#3C3F44"/>
<ellipse cx="5.87439" cy="5.87439" rx="5.87439" ry="5.87439" transform="matrix(-4.37114e-08 1 1 4.37114e-08 56.118 89.6234)" stroke="#F5F6F6"/>
<circle cx="4.0302" cy="4.0302" r="4.0302" transform="matrix(-4.37114e-08 1 1 4.37114e-08 63.3439 104.864)" fill="#6F757E"/>
<path opacity="0.5" fill-rule="evenodd" clip-rule="evenodd" d="M71.2315 107.722C70.7296 109.376 69.1926 110.581 67.3743 110.581C65.5561 110.581 64.019 109.376 63.5171 107.722C63.4046 108.093 63.3441 108.486 63.3441 108.894C63.3441 111.12 65.1485 112.924 67.3743 112.924C69.6001 112.924 71.4045 111.12 71.4045 108.894C71.4045 108.486 71.344 108.093 71.2315 107.722Z" fill="#3C3F44"/>
<circle cx="4.0302" cy="4.0302" r="4.0302" transform="matrix(-4.37114e-08 1 1 4.37114e-08 63.3439 104.864)" stroke="#F5F6F6"/>
<ellipse cx="3.1103" cy="3.1103" rx="3.1103" ry="3.1103" transform="matrix(-4.37114e-08 1 1 4.37114e-08 85.2608 100.168)" fill="#3C3F44"/>
<path opacity="0.5" fill-rule="evenodd" clip-rule="evenodd" d="M91.3475 102.374C90.9602 103.65 89.774 104.58 88.3707 104.58C86.9675 104.58 85.7813 103.65 85.3939 102.374C85.3071 102.66 85.2604 102.964 85.2604 103.278C85.2604 104.996 86.653 106.388 88.3707 106.388C90.0885 106.388 91.481 104.996 91.481 103.278C91.481 102.964 91.4343 102.66 91.3475 102.374Z" fill="#6F757E"/>
<ellipse cx="3.1103" cy="3.1103" rx="3.1103" ry="3.1103" transform="matrix(-4.37114e-08 1 1 4.37114e-08 85.2608 100.168)" stroke="#F5F6F6"/>
<circle cx="3.01099" cy="3.01099" r="3.01099" transform="matrix(-4.37114e-08 1 1 4.37114e-08 53.1083 119.386)" fill="#3C3F44"/>
<path opacity="0.5" fill-rule="evenodd" clip-rule="evenodd" d="M59.0007 121.521C58.6257 122.757 57.4774 123.657 56.119 123.657C54.7606 123.657 53.6124 122.757 53.2373 121.521C53.1532 121.798 53.108 122.092 53.108 122.397C53.108 124.06 54.4561 125.408 56.119 125.408C57.7819 125.408 59.13 124.06 59.13 122.397C59.13 122.092 59.0848 121.798 59.0007 121.521Z" fill="#6F757E"/>
<circle cx="3.01099" cy="3.01099" r="3.01099" transform="matrix(-4.37114e-08 1 1 4.37114e-08 53.1083 119.386)" stroke="#F5F6F6"/>
<circle cx="3.01099" cy="3.01099" r="3.01099" transform="matrix(-4.37114e-08 1 1 4.37114e-08 43.7829 129.003)" fill="#6F757E"/>
<path opacity="0.5" fill-rule="evenodd" clip-rule="evenodd" d="M49.6752 131.138C49.3002 132.374 48.1519 133.274 46.7935 133.274C45.435 133.274 44.2867 132.374 43.9117 131.138C43.8277 131.415 43.7825 131.709 43.7825 132.014C43.7825 133.677 45.1305 135.025 46.7935 135.025C48.4564 135.025 49.8044 133.677 49.8044 132.014C49.8044 131.709 49.7592 131.415 49.6752 131.138Z" fill="#3C3F44"/>
<circle cx="3.01099" cy="3.01099" r="3.01099" transform="matrix(-4.37114e-08 1 1 4.37114e-08 43.7829 129.003)" stroke="#F5F6F6"/>
<circle cx="3.01099" cy="3.01099" r="3.01099" transform="matrix(-4.37114e-08 1 1 4.37114e-08 49.2366 80.0305)" fill="#6F757E"/>
<path opacity="0.5" fill-rule="evenodd" clip-rule="evenodd" d="M55.1313 82.1656C54.7563 83.4016 53.608 84.3012 52.2495 84.3012C50.8911 84.3012 49.7427 83.4016 49.3678 82.1656C49.2837 82.4427 49.2385 82.7366 49.2385 83.0411C49.2385 84.704 50.5866 86.0521 52.2495 86.0521C53.9124 86.0521 55.2605 84.704 55.2605 83.0411C55.2605 82.7366 55.2153 82.4427 55.1313 82.1656Z" fill="#3C3F44"/>
<circle cx="3.01099" cy="3.01099" r="3.01099" transform="matrix(-4.37114e-08 1 1 4.37114e-08 49.2366 80.0305)" stroke="#F5F6F6"/>
</g>
<path fill-rule="evenodd" clip-rule="evenodd" d="M156.258 88.9903C155.303 88.4389 154.44 88.3892 153.817 88.7514L169.566 79.5931C170.19 79.2301 171.053 79.2806 172.007 79.8312C173.898 80.9237 175.426 83.5815 175.42 85.7555C175.416 86.8369 175.034 87.5998 174.417 87.9586L158.668 97.1168C159.285 96.7581 159.667 95.9952 159.671 94.9138C159.676 92.7406 158.148 90.082 156.258 88.9903Z" fill="#2A2925" stroke="black"/>
<path d="M131.738 85.541L99.9999 103.931L144.753 131L156.401 121.766C167.459 112.999 167.503 96.23 156.491 87.4059C149.415 81.7361 139.584 80.9954 131.738 85.541Z" fill="#4C99A4" stroke="black"/>
<path fill-rule="evenodd" clip-rule="evenodd" d="M118.434 115.579L160.248 90.9353C167.347 100.179 166.074 113.877 156.456 121.522L144.715 130.855L118.434 115.579Z" fill="#8FE3E8"/>
<path d="M118.434 115.579L118.181 115.148L117.445 115.582L118.183 116.011L118.434 115.579ZM160.248 90.9353L160.644 90.6307L160.375 90.28L159.994 90.5046L160.248 90.9353ZM156.456 121.522L156.768 121.913L156.456 121.522ZM144.715 130.855L144.464 131.287L144.759 131.459L145.026 131.246L144.715 130.855ZM118.688 116.01L160.501 91.3661L159.994 90.5046L118.181 115.148L118.688 116.01ZM156.768 121.913C166.605 114.094 167.905 100.084 160.644 90.6307L159.851 91.2399C166.789 100.273 165.543 113.66 156.145 121.13L156.768 121.913ZM145.026 131.246L156.768 121.913L156.145 121.13L144.404 130.463L145.026 131.246ZM118.183 116.011L144.464 131.287L144.966 130.422L118.686 115.147L118.183 116.011Z" fill="black"/>
<path d="M124.15 95.3855C113.723 89.3644 105.217 94.2218 105.183 106.205C105.148 118.189 113.6 132.83 124.028 138.851C134.454 144.871 142.961 140.024 142.995 128.04C143.029 116.057 134.577 101.407 124.15 95.3855Z" fill="#51A6B1" stroke="black"/>
<path d="M113.425 110.671C114.718 111.416 115.763 113.228 115.759 114.722C115.754 116.205 114.702 116.806 113.409 116.06C112.118 115.314 111.072 113.502 111.077 112.018C111.081 110.525 112.133 109.924 113.425 110.671Z" fill="#001213" stroke="black"/>
<path d="M108.472 95.1973L112.41 92.9077C109.013 94.8822 106.903 99.0778 106.887 105.033C106.853 117.017 115.304 131.658 125.732 137.679C130.979 140.709 135.74 140.987 139.179 138.987L135.24 141.277C131.8 143.276 127.039 142.999 121.792 139.969C111.364 133.947 102.914 119.307 102.947 107.323C102.964 101.367 105.074 97.171 108.472 95.1973Z" fill="#8FE3E8" stroke="black"/>
<path d="M130.298 120.414C131.59 121.16 132.635 122.971 132.631 124.463C132.627 125.949 131.575 126.548 130.283 125.802C128.991 125.056 127.945 123.245 127.95 121.76C127.954 120.267 129.006 119.667 130.298 120.414Z" fill="#001213" stroke="black"/>
<path fill-rule="evenodd" clip-rule="evenodd" d="M99.3531 105.159C99.3856 93.681 111.918 86.5877 121.858 92.3276C135.758 100.354 144.405 115.263 144.359 131.313C144.327 142.791 131.794 149.884 121.854 144.144C107.955 136.118 99.3077 121.21 99.3531 105.159ZM121.795 139.969C132.222 145.99 140.729 141.142 140.762 129.157C140.796 117.175 132.345 102.525 121.918 96.5033C111.491 90.4822 102.984 95.3397 102.95 107.323C102.916 119.307 111.367 133.948 121.795 139.969Z" fill="#51A6B1" stroke="black"/>
<path d="M57.0795 152.459L74.0034 162.75L74.0744 162.872C74.8291 164.159 76.6294 164.636 77.9257 163.874L97.7366 152.236C99.0748 151.45 99.5241 149.722 98.7377 148.383C97.9839 147.096 96.1836 146.619 94.8873 147.38L77.7178 157.467L65.3802 151.003L80.8058 141.941C81.4544 141.561 81.9156 140.95 82.1039 140.222C82.293 139.494 82.1877 138.736 81.807 138.088C81.0531 136.801 79.2537 136.324 77.9574 137.085L58.1465 148.722C56.8476 149.487 56.3864 151.138 57.0795 152.459Z" fill="#BBBEC3" stroke="black"/>
<path d="M77.7397 146.02C77.5241 145.65 76.7335 144.32 75.6168 142.767C74.952 141.839 73.9903 140.658 73.2587 139.783C72.4022 138.756 70.2998 136.648 69.1584 135.74C67.4086 134.35 67.2246 134.204 66.096 133.483C64.8587 132.693 64.7441 132.637 62.8266 131.697C62.0556 131.32 60.9673 130.946 60.145 130.696C59.4545 130.487 58.509 130.292 57.7979 130.172C56.0036 129.874 54.0365 130.023 53.1526 130.196C52.3962 130.344 50.388 130.738 48.4876 132C46.9791 133.001 45.9215 134.038 44.8357 135.579C43.98 136.793 43.1731 138.554 42.729 140.175C40.8877 146.898 42.8771 153.484 43.5308 155.648C44.1075 157.558 46.4178 164.281 51.9213 170.608C53.761 172.72 55.6468 174.468 57.6884 175.951C60.7713 178.188 63.257 179.109 63.9466 179.337C65.3739 179.811 67.5318 180.527 70.5582 180.364C72.5416 180.259 74.4497 179.689 76.2278 178.676C79.3689 176.887 80.9501 173.94 81.36 173.079C81.8443 172.062 82.3902 170.774 82.765 168.938C82.877 168.391 83.0097 167.657 83.061 167.099C83.1449 166.175 83.1962 164.936 83.2142 164.007C83.1072 158.127 81.2667 152.074 77.7397 146.02Z" fill="#C3F8FB" stroke="black"/>
<path d="M72.3596 149.112C72.1662 148.78 71.4603 147.592 70.4626 146.203C69.8679 145.375 69.008 144.319 68.3543 143.537C67.5885 142.619 65.7103 140.735 64.6904 139.925C63.1263 138.681 62.9628 138.552 61.9532 137.906C60.8477 137.201 60.745 137.15 59.032 136.31C58.3423 135.974 57.3703 135.639 56.6362 135.416C56.0192 135.23 55.1739 135.055 54.5381 134.949C52.9338 134.681 51.1763 134.814 50.3865 134.97C49.7105 135.102 47.9154 135.454 46.2178 136.581C44.8692 137.475 43.9238 138.403 42.9543 139.78C42.1902 140.865 41.468 142.439 41.071 143.887C39.4256 149.896 41.2036 155.782 41.7872 157.715C42.3031 159.422 44.367 165.431 49.2861 171.084C50.929 172.973 52.6155 174.534 54.4406 175.86C57.1949 177.859 59.417 178.681 60.0322 178.885C61.308 179.309 63.2367 179.949 65.9414 179.803C67.7143 179.708 69.4187 179.201 71.0085 178.295C73.8151 176.696 75.2277 174.062 75.5948 173.293C76.0278 172.383 76.5155 171.233 76.8501 169.593C76.951 169.104 77.0691 168.446 77.1144 167.949C77.1897 167.123 77.236 166.016 77.2514 165.185C77.1564 159.93 75.511 154.521 72.3596 149.112Z" fill="#51A6B1" stroke="black"/>
<path fill-rule="evenodd" clip-rule="evenodd" d="M37.8971 177.829C37.495 177.628 37.1022 177.417 36.7198 177.196C34.5028 175.916 32.8531 174.431 31.7724 172.847C30.7379 171.331 30.2228 169.725 30.2271 168.121L30.2656 154.45C30.2622 156.054 30.7764 157.66 31.8109 159.175C32.8924 160.76 34.5413 162.245 36.7583 163.526C38.9787 164.808 41.5491 165.76 44.2906 166.381C52.1908 168.173 61.5028 167.221 67.8586 163.526L75.6681 158.983L75.6296 172.654L67.8201 177.196C62.9754 180.013 56.4151 181.236 50.0713 180.865C45.8162 180.635 41.5867 181.654 37.9023 183.796C37.88 183.759 37.88 183.759 37.88 183.759L37.8971 177.829Z" fill="#C3F8FB" stroke="black"/>
<path d="M37.9208 170.086L37.8823 183.759L25.4061 176.55L25.4446 162.879L37.9208 170.086Z" fill="#51A6B1" stroke="black"/>
<path fill-rule="evenodd" clip-rule="evenodd" d="M14.4424 179.254C13.4883 178.702 12.625 178.653 12.0021 179.015L27.7512 169.856C28.375 169.493 29.2375 169.544 30.1915 170.094C32.0825 171.187 33.6107 173.845 33.6047 176.019C33.6013 177.1 33.2188 177.863 32.6019 178.222L16.8528 187.38C17.4697 187.021 17.8522 186.258 17.8556 185.177C17.8607 183.004 16.3325 180.345 14.4424 179.254Z" fill="#2A2925" stroke="black"/>
<path d="M14.4419 179.254C16.332 180.346 17.8602 183.004 17.8551 185.178C17.8482 187.351 16.3098 188.237 14.4188 187.144C12.5218 186.048 10.9936 183.391 10.9996 181.217C11.0056 179.044 12.5449 178.157 14.4419 179.254Z" fill="#2A2925" stroke="black"/>
<path fill-rule="evenodd" clip-rule="evenodd" d="M50.1109 167.195C45.8558 166.964 41.6263 167.983 37.9419 170.124C37.9196 170.086 37.9196 170.086 37.9196 170.086L25.4434 162.878C25.4434 162.878 25.8464 162.644 26.4496 162.294C29.0157 160.801 30.5105 157.978 30.3043 155.015C30.0356 151.588 32.1577 148.116 36.6584 145.499L44.4679 140.957L75.6692 158.983L67.8597 163.526C63.0159 166.342 56.4556 167.566 50.1109 167.195Z" fill="#5DB3BF" stroke="black"/>
</svg>
