<svg width="114" height="172" viewBox="0 0 114 172" fill="none" xmlns="http://www.w3.org/2000/svg">
<path opacity="0.35" d="M94.7094 162.331C74.023 174.273 40.4836 174.273 19.7971 162.331C-0.889359 150.389 -0.889359 131.026 19.7971 119.084C40.4836 107.142 74.023 107.142 94.7094 119.084C115.396 131.026 115.396 150.389 94.7094 162.331Z" fill="#A8ACB2"/>
<path d="M96.4281 10.4096C85.4658 4.08108 71.2807 1 57.2528 1C43.225 1 29.0399 4.08108 18.0775 10.4096C6.94168 16.8384 0.788315 25.7231 1.00556 35.1791V127.881C1.00556 127.905 1.00586 127.929 1.00645 127.953C1.23153 137.051 7.33585 145.53 18.0775 151.731C29.0399 158.06 43.225 161.141 57.2528 161.141C71.2807 161.141 85.4658 158.06 96.4281 151.731C107.17 145.53 113.274 137.051 113.499 127.953C113.5 127.938 113.5 127.923 113.5 127.908C113.5 127.899 113.5 127.89 113.5 127.881V35.1792C113.717 25.7232 107.564 16.8384 96.4281 10.4096Z" fill="#D2D2D2" fill-opacity="0.2" stroke="#1A1B1D" stroke-linejoin="round"/>
<path d="M94.9766 12.9399C74.1424 0.912288 40.3634 0.912288 19.5292 12.9399C8.91708 19.0663 3.71035 27.1315 3.90898 35.1604L3.90898 127.865C4.1003 135.599 9.30704 143.299 19.5292 149.2C40.3634 161.228 74.1424 161.228 94.9766 149.2C105.199 143.299 110.405 135.599 110.597 127.865V35.1604C110.795 27.1315 105.589 19.0663 94.9766 12.9399Z" fill="#F5F6F6" stroke="white" stroke-linejoin="round"/>
<path d="M94.9775 149.135C74.143 161.163 40.3638 161.163 19.5293 149.135C-1.3051 137.107 -1.3051 117.607 19.5293 105.579C40.3638 93.5512 74.143 93.5512 94.9775 105.579C115.812 117.607 115.812 137.107 94.9775 149.135Z" fill="#F5F6F6" stroke="#1A1B1D" stroke-linejoin="round"/>
<path d="M95.0888 149.199C74.1928 161.263 40.3136 161.263 19.4176 149.199C-1.4784 137.136 -1.4784 117.578 19.4176 105.514C40.3136 93.4512 74.1928 93.4512 95.0888 105.514C115.985 117.578 115.985 137.136 95.0888 149.199Z" fill="#E2E3E5" stroke="white" stroke-linejoin="round"/>
<path d="M90.2557 142.696C81.5911 148.196 69.6666 151.231 57.2521 151.231C44.8376 151.231 32.9131 148.196 24.2485 142.696C15.5412 137.168 13.2084 131.296 13.2084 127.435C13.2084 123.574 15.5412 117.702 24.2485 112.174C32.9131 106.673 44.8376 103.638 57.2521 103.638C69.6666 103.638 81.5911 106.673 90.2557 112.174C98.963 117.702 101.296 123.574 101.296 127.435C101.296 131.296 98.963 137.168 90.2557 142.696Z" stroke="white" stroke-linejoin="round"/>
<path fill-rule="evenodd" clip-rule="evenodd" d="M96.429 10.4351C85.4665 4.1065 71.2813 1.02539 57.2533 1.02539C43.2253 1.02539 29.04 4.1065 18.0776 10.4351C7.13151 16.7543 1 25.4425 1 34.7277C1 44.0128 7.13151 52.7011 18.0776 59.0203C29.04 65.3489 43.2253 68.43 57.2533 68.43C71.2813 68.43 85.4665 65.3489 96.429 59.0203C107.375 52.7011 113.507 44.0128 113.507 34.7277C113.507 25.4425 107.375 16.7543 96.429 10.4351Z" fill="#E2E3E5"/>
<path d="M96.429 10.4351L96.679 10.0021V10.0021L96.429 10.4351ZM18.0776 10.4351L17.8276 10.0021L18.0776 10.4351ZM18.0776 59.0203L18.3276 58.5872L18.0776 59.0203ZM96.429 59.0203L96.679 59.4533L96.429 59.0203ZM57.2533 1.52539C71.2168 1.52539 85.3105 4.59373 96.179 10.8681L96.679 10.0021C85.6226 3.61927 71.3457 0.525391 57.2533 0.525391V1.52539ZM18.3276 10.8681C29.1961 4.59373 43.2898 1.52539 57.2533 1.52539V0.525391C43.1608 0.525391 28.884 3.61927 17.8276 10.0021L18.3276 10.8681ZM1.5 34.7277C1.5 25.6847 7.47192 17.1351 18.3276 10.8681L17.8276 10.0021C6.79111 16.3735 0.5 25.2004 0.5 34.7277H1.5ZM18.3276 58.5872C7.47192 52.3203 1.5 43.7707 1.5 34.7277H0.5C0.5 44.255 6.79111 53.0819 17.8276 59.4533L18.3276 58.5872ZM57.2533 67.93C43.2898 67.93 29.1961 64.8616 18.3276 58.5872L17.8276 59.4533C28.884 65.8361 43.1608 68.93 57.2533 68.93V67.93ZM96.179 58.5872C85.3105 64.8616 71.2168 67.93 57.2533 67.93V68.93C71.3457 68.93 85.6226 65.8361 96.679 59.4533L96.179 58.5872ZM113.007 34.7277C113.007 43.7707 107.035 52.3203 96.179 58.5872L96.679 59.4533C107.715 53.0819 114.007 44.255 114.007 34.7277H113.007ZM96.179 10.8681C107.035 17.1351 113.007 25.6847 113.007 34.7277H114.007C114.007 25.2004 107.715 16.3735 96.679 10.0021L96.179 10.8681Z" fill="#1A1B1D"/>
<path d="M94.9775 56.506C74.143 68.5337 40.3638 68.5337 19.5293 56.506C-1.3051 44.4782 -1.3051 24.9775 19.5293 12.9497C40.3638 0.922025 74.143 0.922025 94.9775 12.9497C115.812 24.9775 115.812 44.4782 94.9775 56.506Z" stroke="white" stroke-linejoin="round"/>
<path d="M88.953 53.0278C71.446 63.1346 43.0614 63.1346 25.5544 53.0278C8.04734 42.921 8.04734 26.5346 25.5544 16.4278C43.0614 6.32095 71.446 6.32095 88.953 16.4278C106.46 26.5346 106.46 42.921 88.953 53.0278Z" fill="#F5F6F6" stroke="white" stroke-linejoin="round"/>
<g opacity="0.3">
<path opacity="0.1" fill-rule="evenodd" clip-rule="evenodd" d="M34.7243 102.28C35.8944 102.955 36.224 103.932 35.7131 104.778L56.581 113.099C56.8292 112.857 57.1337 112.628 57.4943 112.42C57.965 112.148 58.4951 111.932 59.0604 111.771L55.606 108.904C54.8233 109.06 53.9199 108.958 53.2948 108.597C52.423 108.094 52.4231 107.278 53.2949 106.775C54.1667 106.271 55.5802 106.271 56.452 106.775C57.2529 107.237 57.318 107.963 56.6475 108.469L60.3128 111.511C62.2468 111.246 64.3663 111.549 65.8749 112.42C66.3235 112.679 66.6852 112.97 66.9599 113.279L78.9019 107.517C77.8255 106.493 78.0538 105.14 79.5869 104.255C81.3883 103.215 84.3088 103.215 86.11 104.255C87.9113 105.295 87.9112 106.981 86.1099 108.021C85.2286 108.53 84.0794 108.79 82.9245 108.8L79.0613 123.827L79.9913 125.765L87.3096 118.619C86.4837 118.022 86.5499 117.149 87.508 116.595C88.5371 116.001 90.2057 116.001 91.2347 116.596C92.2638 117.19 92.2638 118.153 91.2347 118.747C90.4385 119.207 89.2597 119.311 88.2903 119.059L80.1914 126.967L79.6929 127.454L79.3913 126.826L78.8825 125.766L78.6668 128.465C79.6112 128.64 80.4994 128.944 81.2492 129.377C83.772 130.834 83.772 133.195 81.249 134.652C78.726 136.108 74.6356 136.108 72.1128 134.651C69.5899 133.195 69.59 130.833 72.113 129.377C72.5881 129.103 73.1187 128.88 73.6841 128.709L69.9063 123.006C68.7416 123.354 67.295 123.279 66.2517 122.78L59.5525 128.126C60.2927 128.777 60.1666 129.661 59.1743 130.234C58.0377 130.89 56.1948 130.89 55.0582 130.234C54.278 129.783 54.0334 129.141 54.3242 128.57L44.0822 124.257C43.8138 124.926 43.2282 125.561 42.3255 126.082C41.9616 126.292 41.5658 126.472 41.1471 126.623L46.8538 135.496L46.0127 136.037L40.1471 126.917C37.7715 127.472 34.9475 127.194 33.021 126.082C30.4517 124.598 30.4518 122.193 33.0212 120.71C34.4154 119.905 36.2795 119.537 38.1035 119.606L32.441 106.36C31.1639 106.479 29.8096 106.254 28.8251 105.685C27.1961 104.745 27.1962 103.22 28.8252 102.28C30.4543 101.339 33.0954 101.339 34.7243 102.28ZM34.7242 105.685C34.347 105.903 33.9154 106.071 33.4548 106.187L39.2337 119.706C40.2062 119.842 41.1353 120.108 41.9385 120.504L55.9709 115.749C55.6882 115.155 55.6878 114.526 55.9698 113.932L34.9448 105.548C34.875 105.595 34.8014 105.641 34.7242 105.685ZM43.0301 121.19C43.7908 121.804 44.1965 122.519 44.2472 123.242L55.1228 127.821C56.0851 127.298 57.5132 127.225 58.606 127.602L65.4078 122.174C64.7664 121.451 64.9699 120.543 66.0183 119.938C67.3191 119.187 69.4281 119.187 70.7288 119.938C71.9937 120.669 72.0285 121.84 70.8334 122.594L74.7186 128.46C75.6755 128.285 76.6893 128.241 77.6745 128.329L78.0332 123.84L78.0366 123.797L78.0474 123.755L81.9063 108.745C81.1699 108.657 80.4637 108.464 79.8591 108.166L67.4846 114.136C67.8801 115.228 67.3435 116.411 65.8747 117.258C63.5604 118.594 59.8083 118.594 57.4942 117.258C57.1404 117.054 56.8408 116.83 56.5952 116.593L43.0301 121.19Z" fill="#A8ACB2"/>
<circle opacity="0.1" cx="2.37642" cy="2.37642" r="2.37642" transform="matrix(0.866025 0.5 0.866063 -0.499935 43.3858 136.457)" fill="#A8ACB2"/>
<path d="M77.1737 125.731L83.0771 89.0671L63.0211 96.7977M77.1737 125.731L68.2668 109.574L57.3638 124.304L37.4654 117.297M77.1737 125.731L89.4052 104.755M63.0211 96.7977L37.4654 117.297M63.0211 96.7977L29.4347 81.2334L37.4654 117.297M63.0211 96.7977L53.3277 84.4607M37.4654 117.297L47.6765 133.013" stroke="#1A1B1D"/>
<circle cx="7.93361" cy="7.93361" r="7.93361" transform="matrix(-4.37114e-08 1 1 4.37114e-08 29.7397 109.075)" fill="#959AA1"/>
<path opacity="0.5" fill-rule="evenodd" clip-rule="evenodd" d="M45.3908 115.162C44.5583 118.652 41.4189 121.248 37.6734 121.248C33.9278 121.248 30.7885 118.652 29.956 115.162C29.8146 115.754 29.7398 116.373 29.7398 117.009C29.7398 121.391 33.2918 124.943 37.6734 124.943C42.055 124.943 45.607 121.391 45.607 117.009C45.607 116.373 45.5321 115.754 45.3908 115.162Z" fill="#BBBEC3"/>
<circle cx="7.93361" cy="7.93361" r="7.93361" transform="matrix(-4.37114e-08 1 1 4.37114e-08 29.7397 109.075)" stroke="#1A1B1D"/>
<circle cx="5.87438" cy="5.87438" r="5.87438" transform="matrix(0.258819 0.965926 0.965926 -0.258819 75.9962 85.762)" fill="#959AA1"/>
<path opacity="0.5" fill-rule="evenodd" clip-rule="evenodd" d="M88.8886 88.4861C89.6687 91.5911 87.8148 94.7584 84.7112 95.59C81.5774 96.4297 78.3563 94.5699 77.5166 91.4362C77.2479 90.4334 77.2556 89.4216 77.493 88.4818C77.5006 88.5121 77.5085 88.5423 77.5166 88.5725C78.3563 91.7063 81.5774 93.5661 84.7112 92.7264C86.8422 92.1554 88.384 90.4832 88.8886 88.4861Z" fill="#BBBEC3"/>
<circle cx="5.87438" cy="5.87438" r="5.87438" transform="matrix(0.258819 0.965926 0.965926 -0.258819 75.9962 85.762)" stroke="#1A1B1D"/>
<circle cx="6.96152" cy="6.96152" r="6.96152" transform="matrix(-4.37114e-08 1 1 4.37114e-08 69.754 118.091)" fill="#BBBEC3"/>
<path opacity="0.5" fill-rule="evenodd" clip-rule="evenodd" d="M83.5215 123.583C82.8466 126.721 80.0558 129.074 76.7155 129.074C73.3752 129.074 70.5844 126.721 69.9096 123.583C69.8077 124.057 69.754 124.548 69.754 125.053C69.754 128.898 72.8708 132.014 76.7155 132.014C80.5603 132.014 83.677 128.898 83.677 125.053C83.677 124.548 83.6234 124.057 83.5215 123.583Z" fill="#CFD1D4"/>
<circle cx="6.96152" cy="6.96152" r="6.96152" transform="matrix(-4.37114e-08 1 1 4.37114e-08 69.754 118.091)" stroke="#1A1B1D"/>
<circle cx="6.25281" cy="6.25281" r="6.25281" transform="matrix(-0.5 0.866025 0.866025 0.5 27.904 73.7)" fill="#CFD1D4"/>
<path opacity="0.5" fill-rule="evenodd" clip-rule="evenodd" d="M35.5398 82.3419C33.8132 85.3326 29.989 86.3573 26.9983 84.6306C25.5118 83.7724 24.511 82.396 24.0924 80.8612C23.5027 83.4629 24.6346 86.2532 27.0661 87.657C30.0568 89.3837 33.881 88.359 35.6077 85.3683C36.4761 83.8642 36.6485 82.1492 36.2249 80.5962C36.0893 81.1945 35.8627 81.7828 35.5398 82.3419Z" fill="#BBBEC3"/>
<circle cx="6.25281" cy="6.25281" r="6.25281" transform="matrix(-0.5 0.866025 0.866025 0.5 27.9038 73.7)" stroke="#1A1B1D"/>
<circle cx="5.87438" cy="5.87438" r="5.87438" transform="matrix(-4.37114e-08 1 1 4.37114e-08 57.1169 90.6233)" fill="#BBBEC3"/>
<path opacity="0.5" fill-rule="evenodd" clip-rule="evenodd" d="M68.6137 94.7893C67.8821 97.2006 65.6417 98.9557 62.9914 98.9557C60.3412 98.9557 58.1008 97.2006 57.3692 94.7893C57.2052 95.3298 57.1171 95.9033 57.1171 96.4973C57.1171 99.7416 59.7471 102.372 62.9914 102.372C66.2358 102.372 68.8658 99.7416 68.8658 96.4973C68.8658 95.9033 68.7776 95.3298 68.6137 94.7893Z" fill="#CFD1D4"/>
<circle cx="5.87438" cy="5.87438" r="5.87438" transform="matrix(-4.37114e-08 1 1 4.37114e-08 57.1169 90.6233)" stroke="#1A1B1D"/>
<circle cx="4.0302" cy="4.0302" r="4.0302" transform="matrix(-4.37114e-08 1 1 4.37114e-08 64.3428 105.864)" fill="#A8ACB2"/>
<path opacity="0.5" fill-rule="evenodd" clip-rule="evenodd" d="M72.2302 108.722C71.7283 110.376 70.1913 111.58 68.373 111.58C66.5548 111.58 65.0178 110.376 64.5158 108.722C64.4033 109.093 64.3428 109.486 64.3428 109.894C64.3428 112.12 66.1472 113.924 68.373 113.924C70.5988 113.924 72.4032 112.12 72.4032 109.894C72.4032 109.486 72.3427 109.093 72.2302 108.722Z" fill="#CFD1D4"/>
<circle cx="4.0302" cy="4.0302" r="4.0302" transform="matrix(-4.37114e-08 1 1 4.37114e-08 64.3428 105.864)" stroke="#1A1B1D"/>
<circle cx="3.11029" cy="3.11029" r="3.11029" transform="matrix(-4.37114e-08 1 1 4.37114e-08 86.2617 101.167)" fill="#CFD1D4"/>
<path opacity="0.5" fill-rule="evenodd" clip-rule="evenodd" d="M92.3489 103.374C91.9615 104.65 90.7753 105.579 89.3721 105.579C87.9689 105.579 86.7827 104.65 86.3953 103.374C86.3085 103.66 86.2618 103.963 86.2618 104.278C86.2618 105.996 87.6543 107.388 89.3721 107.388C91.0899 107.388 92.4824 105.996 92.4824 104.278C92.4824 103.963 92.4357 103.66 92.3489 103.374Z" fill="#BBBEC3"/>
<circle cx="3.11029" cy="3.11029" r="3.11029" transform="matrix(-4.37114e-08 1 1 4.37114e-08 86.2617 101.167)" stroke="#1A1B1D"/>
<circle cx="3.01098" cy="3.01098" r="3.01098" transform="matrix(-4.37114e-08 1 1 4.37114e-08 54.1066 120.385)" fill="#CFD1D4"/>
<path opacity="0.5" fill-rule="evenodd" clip-rule="evenodd" d="M59.9992 122.521C59.6242 123.757 58.4759 124.656 57.1175 124.656C55.7591 124.656 54.6108 123.757 54.2358 122.521C54.1517 122.798 54.1065 123.092 54.1065 123.397C54.1065 125.059 55.4546 126.408 57.1175 126.408C58.7804 126.408 60.1285 125.059 60.1285 123.397C60.1285 123.092 60.0833 122.798 59.9992 122.521Z" fill="#BBBEC3"/>
<circle cx="3.01098" cy="3.01098" r="3.01098" transform="matrix(-4.37114e-08 1 1 4.37114e-08 54.1066 120.385)" stroke="#1A1B1D"/>
<circle cx="3.01098" cy="3.01098" r="3.01098" transform="matrix(-4.37114e-08 1 1 4.37114e-08 44.7827 130.003)" fill="#A8ACB2"/>
<path opacity="0.5" fill-rule="evenodd" clip-rule="evenodd" d="M50.6756 132.138C50.3006 133.374 49.1523 134.274 47.7939 134.274C46.4355 134.274 45.2872 133.374 44.9122 132.138C44.8281 132.415 44.7829 132.709 44.7829 133.014C44.7829 134.677 46.131 136.025 47.7939 136.025C49.4568 136.025 50.8049 134.677 50.8049 133.014C50.8049 132.709 50.7597 132.415 50.6756 132.138Z" fill="#CFD1D4"/>
<circle cx="3.01098" cy="3.01098" r="3.01098" transform="matrix(-4.37114e-08 1 1 4.37114e-08 44.7827 130.003)" stroke="#1A1B1D"/>
<circle cx="3.01098" cy="3.01098" r="3.01098" transform="matrix(-4.37114e-08 1 1 4.37114e-08 50.2346 81.0305)" fill="#A8ACB2"/>
<path opacity="0.5" fill-rule="evenodd" clip-rule="evenodd" d="M56.1271 83.166C55.7521 84.4019 54.6038 85.3015 53.2454 85.3015C51.887 85.3015 50.7387 84.4019 50.3637 83.166C50.2796 83.4431 50.2344 83.737 50.2344 84.0415C50.2344 85.7044 51.5825 87.0525 53.2454 87.0525C54.9083 87.0525 56.2564 85.7044 56.2564 84.0415C56.2564 83.737 56.2112 83.4431 56.1271 83.166Z" fill="#CFD1D4"/>
<circle cx="3.01098" cy="3.01098" r="3.01098" transform="matrix(-4.37114e-08 1 1 4.37114e-08 50.2346 81.0305)" stroke="#1A1B1D"/>
</g>
</svg>
